%TF.GenerationSoftware,KiCad,Pcbnew,8.0.8*%
%TF.CreationDate,2025-06-05T09:36:50+02:00*%
%TF.ProjectId,heishamon-lr-pdc,68656973-6861-46d6-9f6e-2d6c722d7064,rev?*%
%TF.SameCoordinates,Original*%
%TF.FileFunction,Soldermask,Top*%
%TF.FilePolarity,Negative*%
%FSLAX46Y46*%
G04 Gerber Fmt 4.6, Leading zero omitted, Abs format (unit mm)*
G04 Created by KiCad (PCBNEW 8.0.8) date 2025-06-05 09:36:50*
%MOMM*%
%LPD*%
G01*
G04 APERTURE LIST*
G04 Aperture macros list*
%AMRoundRect*
0 Rectangle with rounded corners*
0 $1 Rounding radius*
0 $2 $3 $4 $5 $6 $7 $8 $9 X,Y pos of 4 corners*
0 Add a 4 corners polygon primitive as box body*
4,1,4,$2,$3,$4,$5,$6,$7,$8,$9,$2,$3,0*
0 Add four circle primitives for the rounded corners*
1,1,$1+$1,$2,$3*
1,1,$1+$1,$4,$5*
1,1,$1+$1,$6,$7*
1,1,$1+$1,$8,$9*
0 Add four rect primitives between the rounded corners*
20,1,$1+$1,$2,$3,$4,$5,0*
20,1,$1+$1,$4,$5,$6,$7,0*
20,1,$1+$1,$6,$7,$8,$9,0*
20,1,$1+$1,$8,$9,$2,$3,0*%
G04 Aperture macros list end*
%ADD10R,1.350000X1.410000*%
%ADD11RoundRect,0.150000X0.150000X-0.875000X0.150000X0.875000X-0.150000X0.875000X-0.150000X-0.875000X0*%
%ADD12RoundRect,0.250000X-0.262500X-0.450000X0.262500X-0.450000X0.262500X0.450000X-0.262500X0.450000X0*%
%ADD13R,0.530000X1.040000*%
%ADD14RoundRect,0.200000X0.275000X-0.200000X0.275000X0.200000X-0.275000X0.200000X-0.275000X-0.200000X0*%
%ADD15RoundRect,0.250000X0.262500X0.450000X-0.262500X0.450000X-0.262500X-0.450000X0.262500X-0.450000X0*%
%ADD16R,1.000000X2.200000*%
%ADD17R,1.200000X2.000000*%
%ADD18O,1.200000X2.000000*%
%ADD19C,2.800000*%
%ADD20R,1.600000X1.600000*%
%ADD21C,1.600000*%
%ADD22RoundRect,0.250000X-0.450000X0.262500X-0.450000X-0.262500X0.450000X-0.262500X0.450000X0.262500X0*%
%ADD23RoundRect,0.250000X-0.475000X0.250000X-0.475000X-0.250000X0.475000X-0.250000X0.475000X0.250000X0*%
%ADD24RoundRect,0.250000X0.450000X-0.262500X0.450000X0.262500X-0.450000X0.262500X-0.450000X-0.262500X0*%
%ADD25R,1.700000X1.700000*%
%ADD26O,1.700000X1.700000*%
%ADD27RoundRect,0.250000X0.475000X-0.250000X0.475000X0.250000X-0.475000X0.250000X-0.475000X-0.250000X0*%
%ADD28RoundRect,0.250000X1.000000X0.650000X-1.000000X0.650000X-1.000000X-0.650000X1.000000X-0.650000X0*%
%ADD29R,1.410000X1.350000*%
%ADD30RoundRect,0.243750X0.456250X-0.243750X0.456250X0.243750X-0.456250X0.243750X-0.456250X-0.243750X0*%
G04 APERTURE END LIST*
D10*
%TO.C,C5*%
X50750000Y-62400000D03*
X50750000Y-60400000D03*
%TD*%
%TO.C,C4*%
X50550000Y-47800000D03*
X50550000Y-45800000D03*
%TD*%
D11*
%TO.C,U1*%
X36705000Y-61850000D03*
X37975000Y-61850000D03*
X39245000Y-61850000D03*
X40515000Y-61850000D03*
X41785000Y-61850000D03*
X43055000Y-61850000D03*
X44325000Y-61850000D03*
X45595000Y-61850000D03*
X45595000Y-52550000D03*
X44325000Y-52550000D03*
X43055000Y-52550000D03*
X41785000Y-52550000D03*
X40515000Y-52550000D03*
X39245000Y-52550000D03*
X37975000Y-52550000D03*
X36705000Y-52550000D03*
%TD*%
D12*
%TO.C,R10*%
X37825000Y-65700000D03*
X39650000Y-65700000D03*
%TD*%
%TO.C,R2*%
X28150000Y-63800000D03*
X29975000Y-63800000D03*
%TD*%
%TO.C,R11*%
X42237500Y-65700000D03*
X44062500Y-65700000D03*
%TD*%
D13*
%TO.C,D3*%
X31950000Y-68600000D03*
X33950000Y-68600000D03*
X32950000Y-66400000D03*
%TD*%
D14*
%TO.C,R5*%
X48550000Y-47975000D03*
X48550000Y-46325000D03*
%TD*%
D15*
%TO.C,R1*%
X29975000Y-65925000D03*
X28150000Y-65925000D03*
%TD*%
D16*
%TO.C,L1*%
X51150000Y-50400000D03*
X49250000Y-50400000D03*
%TD*%
D17*
%TO.C,U3*%
X23410000Y-38400000D03*
D18*
X25950000Y-38400000D03*
X28490000Y-38400000D03*
X31030000Y-38400000D03*
X33570000Y-38400000D03*
X36110000Y-38400000D03*
X38650000Y-38400000D03*
X41190000Y-38400000D03*
X43730000Y-38400000D03*
X46270000Y-38400000D03*
X48810000Y-38400000D03*
X51350000Y-38400000D03*
X53890000Y-38400000D03*
X56430000Y-38400000D03*
X58970000Y-38400000D03*
X58970000Y-15540000D03*
X56430000Y-15540000D03*
X53890000Y-15540000D03*
X51350000Y-15540000D03*
X48810000Y-15540000D03*
X46270000Y-15540000D03*
X43730000Y-15540000D03*
X41190000Y-15540000D03*
X38650000Y-15540000D03*
X36110000Y-15540000D03*
X33570000Y-15540000D03*
X31030000Y-15540000D03*
X28490000Y-15540000D03*
X25950000Y-15540000D03*
X23410000Y-15540000D03*
%TD*%
D19*
%TO.C,CN2*%
X52350000Y-77200000D03*
D20*
X47350000Y-70700000D03*
D21*
X49850000Y-70700000D03*
X52350000Y-70700000D03*
X54850000Y-70700000D03*
X57350000Y-70700000D03*
%TD*%
D22*
%TO.C,R12*%
X50150000Y-41587500D03*
X50150000Y-43412500D03*
%TD*%
%TO.C,R3*%
X46175000Y-64587500D03*
X46175000Y-66412500D03*
%TD*%
D13*
%TO.C,D4*%
X50050000Y-69000000D03*
X52050000Y-69000000D03*
X51050000Y-66800000D03*
%TD*%
D23*
%TO.C,C1*%
X34650000Y-60450000D03*
X34650000Y-62350000D03*
%TD*%
D24*
%TO.C,R4*%
X48275000Y-66412500D03*
X48275000Y-64587500D03*
%TD*%
D25*
%TO.C,J2*%
X43640000Y-46150000D03*
D26*
X41100000Y-46150000D03*
X38560000Y-46150000D03*
%TD*%
D25*
%TO.C,J1*%
X18550000Y-70380000D03*
D26*
X18550000Y-72920000D03*
X18550000Y-75460000D03*
X18550000Y-78000000D03*
%TD*%
D24*
%TO.C,R8*%
X41250000Y-42912500D03*
X41250000Y-41087500D03*
%TD*%
%TO.C,R6*%
X35750000Y-25400000D03*
X35750000Y-23575000D03*
%TD*%
D20*
%TO.C,U2*%
X53550000Y-62300000D03*
D21*
X53550000Y-59760000D03*
X53550000Y-54680000D03*
X53550000Y-49600000D03*
%TD*%
D25*
%TO.C,J3*%
X61550000Y-60060000D03*
D26*
X61550000Y-62600000D03*
%TD*%
D27*
%TO.C,C3*%
X34650000Y-53200000D03*
X34650000Y-51300000D03*
%TD*%
D22*
%TO.C,R9*%
X43150000Y-41087500D03*
X43150000Y-42912500D03*
%TD*%
%TO.C,R7*%
X33550000Y-23587500D03*
X33550000Y-25412500D03*
%TD*%
D28*
%TO.C,D2*%
X57250000Y-42400000D03*
X53250000Y-42400000D03*
%TD*%
D29*
%TO.C,C2*%
X48850000Y-53000000D03*
X50850000Y-53000000D03*
%TD*%
D19*
%TO.C,CN1*%
X33550000Y-77100000D03*
D20*
X28550000Y-70600000D03*
D21*
X31050000Y-70600000D03*
X33550000Y-70600000D03*
X36050000Y-70600000D03*
X38550000Y-70600000D03*
%TD*%
D30*
%TO.C,D1*%
X46650000Y-48137500D03*
X46650000Y-46262500D03*
%TD*%
M02*
