%TF.GenerationSoftware,KiCad,Pcbnew,8.0.8*%
%TF.CreationDate,2025-06-05T09:36:50+02:00*%
%TF.ProjectId,heishamon-lr-pdc,68656973-6861-46d6-9f6e-2d6c722d7064,rev?*%
%TF.SameCoordinates,Original*%
%TF.FileFunction,Legend,Top*%
%TF.FilePolarity,Positive*%
%FSLAX46Y46*%
G04 Gerber Fmt 4.6, Leading zero omitted, Abs format (unit mm)*
G04 Created by KiCad (PCBNEW 8.0.8) date 2025-06-05 09:36:50*
%MOMM*%
%LPD*%
G01*
G04 APERTURE LIST*
G04 Aperture macros list*
%AMRoundRect*
0 Rectangle with rounded corners*
0 $1 Rounding radius*
0 $2 $3 $4 $5 $6 $7 $8 $9 X,Y pos of 4 corners*
0 Add a 4 corners polygon primitive as box body*
4,1,4,$2,$3,$4,$5,$6,$7,$8,$9,$2,$3,0*
0 Add four circle primitives for the rounded corners*
1,1,$1+$1,$2,$3*
1,1,$1+$1,$4,$5*
1,1,$1+$1,$6,$7*
1,1,$1+$1,$8,$9*
0 Add four rect primitives between the rounded corners*
20,1,$1+$1,$2,$3,$4,$5,0*
20,1,$1+$1,$4,$5,$6,$7,0*
20,1,$1+$1,$6,$7,$8,$9,0*
20,1,$1+$1,$8,$9,$2,$3,0*%
G04 Aperture macros list end*
%ADD10C,0.200000*%
%ADD11C,0.300000*%
%ADD12C,0.150000*%
%ADD13C,0.120000*%
%ADD14C,0.250000*%
%ADD15R,1.350000X1.410000*%
%ADD16RoundRect,0.150000X0.150000X-0.875000X0.150000X0.875000X-0.150000X0.875000X-0.150000X-0.875000X0*%
%ADD17RoundRect,0.250000X-0.262500X-0.450000X0.262500X-0.450000X0.262500X0.450000X-0.262500X0.450000X0*%
%ADD18R,0.530000X1.040000*%
%ADD19RoundRect,0.200000X0.275000X-0.200000X0.275000X0.200000X-0.275000X0.200000X-0.275000X-0.200000X0*%
%ADD20RoundRect,0.250000X0.262500X0.450000X-0.262500X0.450000X-0.262500X-0.450000X0.262500X-0.450000X0*%
%ADD21R,1.000000X2.200000*%
%ADD22R,1.200000X2.000000*%
%ADD23O,1.200000X2.000000*%
%ADD24C,2.800000*%
%ADD25R,1.600000X1.600000*%
%ADD26C,1.600000*%
%ADD27RoundRect,0.250000X-0.450000X0.262500X-0.450000X-0.262500X0.450000X-0.262500X0.450000X0.262500X0*%
%ADD28RoundRect,0.250000X-0.475000X0.250000X-0.475000X-0.250000X0.475000X-0.250000X0.475000X0.250000X0*%
%ADD29RoundRect,0.250000X0.450000X-0.262500X0.450000X0.262500X-0.450000X0.262500X-0.450000X-0.262500X0*%
%ADD30R,1.700000X1.700000*%
%ADD31O,1.700000X1.700000*%
%ADD32RoundRect,0.250000X0.475000X-0.250000X0.475000X0.250000X-0.475000X0.250000X-0.475000X-0.250000X0*%
%ADD33RoundRect,0.250000X1.000000X0.650000X-1.000000X0.650000X-1.000000X-0.650000X1.000000X-0.650000X0*%
%ADD34R,1.410000X1.350000*%
%ADD35RoundRect,0.243750X0.456250X-0.243750X0.456250X0.243750X-0.456250X0.243750X-0.456250X-0.243750X0*%
G04 APERTURE END LIST*
D10*
X38953006Y-67891695D02*
X38572054Y-67891695D01*
X38572054Y-67891695D02*
X38533958Y-68272647D01*
X38533958Y-68272647D02*
X38572054Y-68234552D01*
X38572054Y-68234552D02*
X38648244Y-68196457D01*
X38648244Y-68196457D02*
X38838720Y-68196457D01*
X38838720Y-68196457D02*
X38914911Y-68234552D01*
X38914911Y-68234552D02*
X38953006Y-68272647D01*
X38953006Y-68272647D02*
X38991101Y-68348838D01*
X38991101Y-68348838D02*
X38991101Y-68539314D01*
X38991101Y-68539314D02*
X38953006Y-68615504D01*
X38953006Y-68615504D02*
X38914911Y-68653600D01*
X38914911Y-68653600D02*
X38838720Y-68691695D01*
X38838720Y-68691695D02*
X38648244Y-68691695D01*
X38648244Y-68691695D02*
X38572054Y-68653600D01*
X38572054Y-68653600D02*
X38533958Y-68615504D01*
D11*
X62007971Y-76488346D02*
X62079400Y-76559774D01*
X62079400Y-76559774D02*
X62150828Y-76774060D01*
X62150828Y-76774060D02*
X62150828Y-76916917D01*
X62150828Y-76916917D02*
X62079400Y-77131203D01*
X62079400Y-77131203D02*
X61936542Y-77274060D01*
X61936542Y-77274060D02*
X61793685Y-77345489D01*
X61793685Y-77345489D02*
X61507971Y-77416917D01*
X61507971Y-77416917D02*
X61293685Y-77416917D01*
X61293685Y-77416917D02*
X61007971Y-77345489D01*
X61007971Y-77345489D02*
X60865114Y-77274060D01*
X60865114Y-77274060D02*
X60722257Y-77131203D01*
X60722257Y-77131203D02*
X60650828Y-76916917D01*
X60650828Y-76916917D02*
X60650828Y-76774060D01*
X60650828Y-76774060D02*
X60722257Y-76559774D01*
X60722257Y-76559774D02*
X60793685Y-76488346D01*
X60650828Y-75988346D02*
X60650828Y-74988346D01*
X60650828Y-74988346D02*
X62150828Y-75988346D01*
X62150828Y-75988346D02*
X62150828Y-74988346D01*
X60650828Y-73488346D02*
X60650828Y-72631204D01*
X62150828Y-73059775D02*
X60650828Y-73059775D01*
X61722257Y-72202632D02*
X61722257Y-71488347D01*
X62150828Y-72345489D02*
X60650828Y-71845489D01*
X60650828Y-71845489D02*
X62150828Y-71345489D01*
X60650828Y-70988347D02*
X62150828Y-70631204D01*
X62150828Y-70631204D02*
X61079400Y-70345490D01*
X61079400Y-70345490D02*
X62150828Y-70059775D01*
X62150828Y-70059775D02*
X60650828Y-69702633D01*
D10*
X20272054Y-70186933D02*
X20881578Y-70186933D01*
X20576816Y-70491695D02*
X20576816Y-69882171D01*
X21643482Y-69691695D02*
X21262530Y-69691695D01*
X21262530Y-69691695D02*
X21224434Y-70072647D01*
X21224434Y-70072647D02*
X21262530Y-70034552D01*
X21262530Y-70034552D02*
X21338720Y-69996457D01*
X21338720Y-69996457D02*
X21529196Y-69996457D01*
X21529196Y-69996457D02*
X21605387Y-70034552D01*
X21605387Y-70034552D02*
X21643482Y-70072647D01*
X21643482Y-70072647D02*
X21681577Y-70148838D01*
X21681577Y-70148838D02*
X21681577Y-70339314D01*
X21681577Y-70339314D02*
X21643482Y-70415504D01*
X21643482Y-70415504D02*
X21605387Y-70453600D01*
X21605387Y-70453600D02*
X21529196Y-70491695D01*
X21529196Y-70491695D02*
X21338720Y-70491695D01*
X21338720Y-70491695D02*
X21262530Y-70453600D01*
X21262530Y-70453600D02*
X21224434Y-70415504D01*
X22633959Y-70491695D02*
X22633959Y-69691695D01*
X22633959Y-70072647D02*
X23091102Y-70072647D01*
X23091102Y-70491695D02*
X23091102Y-69691695D01*
X23472054Y-70491695D02*
X23472054Y-69691695D01*
X23472054Y-69691695D02*
X23776816Y-69691695D01*
X23776816Y-69691695D02*
X23853006Y-69729790D01*
X23853006Y-69729790D02*
X23891101Y-69767885D01*
X23891101Y-69767885D02*
X23929197Y-69844076D01*
X23929197Y-69844076D02*
X23929197Y-69958361D01*
X23929197Y-69958361D02*
X23891101Y-70034552D01*
X23891101Y-70034552D02*
X23853006Y-70072647D01*
X23853006Y-70072647D02*
X23776816Y-70110742D01*
X23776816Y-70110742D02*
X23472054Y-70110742D01*
X20372054Y-75891695D02*
X20372054Y-75091695D01*
X20372054Y-75472647D02*
X20829197Y-75472647D01*
X20829197Y-75891695D02*
X20829197Y-75091695D01*
X21210149Y-75891695D02*
X21210149Y-75091695D01*
X21210149Y-75091695D02*
X21514911Y-75091695D01*
X21514911Y-75091695D02*
X21591101Y-75129790D01*
X21591101Y-75129790D02*
X21629196Y-75167885D01*
X21629196Y-75167885D02*
X21667292Y-75244076D01*
X21667292Y-75244076D02*
X21667292Y-75358361D01*
X21667292Y-75358361D02*
X21629196Y-75434552D01*
X21629196Y-75434552D02*
X21591101Y-75472647D01*
X21591101Y-75472647D02*
X21514911Y-75510742D01*
X21514911Y-75510742D02*
X21210149Y-75510742D01*
X22505387Y-75091695D02*
X22962530Y-75091695D01*
X22733958Y-75891695D02*
X22733958Y-75091695D01*
X23153006Y-75091695D02*
X23686340Y-75891695D01*
X23686340Y-75091695D02*
X23153006Y-75891695D01*
D11*
X25350828Y-73845489D02*
X23850828Y-73845489D01*
X24565114Y-73845489D02*
X24565114Y-72988346D01*
X25350828Y-72988346D02*
X23850828Y-72988346D01*
X25350828Y-72274060D02*
X23850828Y-72274060D01*
X23850828Y-72274060D02*
X23850828Y-71702631D01*
X23850828Y-71702631D02*
X23922257Y-71559774D01*
X23922257Y-71559774D02*
X23993685Y-71488345D01*
X23993685Y-71488345D02*
X24136542Y-71416917D01*
X24136542Y-71416917D02*
X24350828Y-71416917D01*
X24350828Y-71416917D02*
X24493685Y-71488345D01*
X24493685Y-71488345D02*
X24565114Y-71559774D01*
X24565114Y-71559774D02*
X24636542Y-71702631D01*
X24636542Y-71702631D02*
X24636542Y-72274060D01*
D10*
X20372054Y-78391695D02*
X20372054Y-77591695D01*
X20372054Y-77972647D02*
X20829197Y-77972647D01*
X20829197Y-78391695D02*
X20829197Y-77591695D01*
X21210149Y-78391695D02*
X21210149Y-77591695D01*
X21210149Y-77591695D02*
X21514911Y-77591695D01*
X21514911Y-77591695D02*
X21591101Y-77629790D01*
X21591101Y-77629790D02*
X21629196Y-77667885D01*
X21629196Y-77667885D02*
X21667292Y-77744076D01*
X21667292Y-77744076D02*
X21667292Y-77858361D01*
X21667292Y-77858361D02*
X21629196Y-77934552D01*
X21629196Y-77934552D02*
X21591101Y-77972647D01*
X21591101Y-77972647D02*
X21514911Y-78010742D01*
X21514911Y-78010742D02*
X21210149Y-78010742D01*
X23076816Y-78391695D02*
X22810149Y-78010742D01*
X22619673Y-78391695D02*
X22619673Y-77591695D01*
X22619673Y-77591695D02*
X22924435Y-77591695D01*
X22924435Y-77591695D02*
X23000625Y-77629790D01*
X23000625Y-77629790D02*
X23038720Y-77667885D01*
X23038720Y-77667885D02*
X23076816Y-77744076D01*
X23076816Y-77744076D02*
X23076816Y-77858361D01*
X23076816Y-77858361D02*
X23038720Y-77934552D01*
X23038720Y-77934552D02*
X23000625Y-77972647D01*
X23000625Y-77972647D02*
X22924435Y-78010742D01*
X22924435Y-78010742D02*
X22619673Y-78010742D01*
X23343482Y-77591695D02*
X23876816Y-78391695D01*
X23876816Y-77591695D02*
X23343482Y-78391695D01*
D11*
X61804510Y-58229400D02*
X62947368Y-58229400D01*
X17192425Y-65216917D02*
X17192425Y-64502632D01*
X17620996Y-65359774D02*
X16120996Y-64859774D01*
X16120996Y-64859774D02*
X17620996Y-64359774D01*
X16620996Y-63216918D02*
X18120996Y-63216918D01*
X17549568Y-63216918D02*
X17620996Y-63359775D01*
X17620996Y-63359775D02*
X17620996Y-63645489D01*
X17620996Y-63645489D02*
X17549568Y-63788346D01*
X17549568Y-63788346D02*
X17478139Y-63859775D01*
X17478139Y-63859775D02*
X17335282Y-63931203D01*
X17335282Y-63931203D02*
X16906710Y-63931203D01*
X16906710Y-63931203D02*
X16763853Y-63859775D01*
X16763853Y-63859775D02*
X16692425Y-63788346D01*
X16692425Y-63788346D02*
X16620996Y-63645489D01*
X16620996Y-63645489D02*
X16620996Y-63359775D01*
X16620996Y-63359775D02*
X16692425Y-63216918D01*
X16620996Y-61859775D02*
X17620996Y-61859775D01*
X16620996Y-62502632D02*
X17406710Y-62502632D01*
X17406710Y-62502632D02*
X17549568Y-62431203D01*
X17549568Y-62431203D02*
X17620996Y-62288346D01*
X17620996Y-62288346D02*
X17620996Y-62074060D01*
X17620996Y-62074060D02*
X17549568Y-61931203D01*
X17549568Y-61931203D02*
X17478139Y-61859775D01*
X17620996Y-60502632D02*
X16835282Y-60502632D01*
X16835282Y-60502632D02*
X16692425Y-60574060D01*
X16692425Y-60574060D02*
X16620996Y-60716917D01*
X16620996Y-60716917D02*
X16620996Y-61002632D01*
X16620996Y-61002632D02*
X16692425Y-61145489D01*
X17549568Y-60502632D02*
X17620996Y-60645489D01*
X17620996Y-60645489D02*
X17620996Y-61002632D01*
X17620996Y-61002632D02*
X17549568Y-61145489D01*
X17549568Y-61145489D02*
X17406710Y-61216917D01*
X17406710Y-61216917D02*
X17263853Y-61216917D01*
X17263853Y-61216917D02*
X17120996Y-61145489D01*
X17120996Y-61145489D02*
X17049568Y-61002632D01*
X17049568Y-61002632D02*
X17049568Y-60645489D01*
X17049568Y-60645489D02*
X16978139Y-60502632D01*
X17620996Y-59788346D02*
X16620996Y-59788346D01*
X16906710Y-59788346D02*
X16763853Y-59716917D01*
X16763853Y-59716917D02*
X16692425Y-59645489D01*
X16692425Y-59645489D02*
X16620996Y-59502631D01*
X16620996Y-59502631D02*
X16620996Y-59359774D01*
X17549568Y-58288346D02*
X17620996Y-58431203D01*
X17620996Y-58431203D02*
X17620996Y-58716918D01*
X17620996Y-58716918D02*
X17549568Y-58859775D01*
X17549568Y-58859775D02*
X17406710Y-58931203D01*
X17406710Y-58931203D02*
X16835282Y-58931203D01*
X16835282Y-58931203D02*
X16692425Y-58859775D01*
X16692425Y-58859775D02*
X16620996Y-58716918D01*
X16620996Y-58716918D02*
X16620996Y-58431203D01*
X16620996Y-58431203D02*
X16692425Y-58288346D01*
X16692425Y-58288346D02*
X16835282Y-58216918D01*
X16835282Y-58216918D02*
X16978139Y-58216918D01*
X16978139Y-58216918D02*
X17120996Y-58931203D01*
X17620996Y-56931204D02*
X16835282Y-56931204D01*
X16835282Y-56931204D02*
X16692425Y-57002632D01*
X16692425Y-57002632D02*
X16620996Y-57145489D01*
X16620996Y-57145489D02*
X16620996Y-57431204D01*
X16620996Y-57431204D02*
X16692425Y-57574061D01*
X17549568Y-56931204D02*
X17620996Y-57074061D01*
X17620996Y-57074061D02*
X17620996Y-57431204D01*
X17620996Y-57431204D02*
X17549568Y-57574061D01*
X17549568Y-57574061D02*
X17406710Y-57645489D01*
X17406710Y-57645489D02*
X17263853Y-57645489D01*
X17263853Y-57645489D02*
X17120996Y-57574061D01*
X17120996Y-57574061D02*
X17049568Y-57431204D01*
X17049568Y-57431204D02*
X17049568Y-57074061D01*
X17049568Y-57074061D02*
X16978139Y-56931204D01*
X20035912Y-65145489D02*
X18535912Y-65145489D01*
X19250198Y-65145489D02*
X19250198Y-64288346D01*
X20035912Y-64288346D02*
X18535912Y-64288346D01*
X19964484Y-63002631D02*
X20035912Y-63145488D01*
X20035912Y-63145488D02*
X20035912Y-63431203D01*
X20035912Y-63431203D02*
X19964484Y-63574060D01*
X19964484Y-63574060D02*
X19821626Y-63645488D01*
X19821626Y-63645488D02*
X19250198Y-63645488D01*
X19250198Y-63645488D02*
X19107341Y-63574060D01*
X19107341Y-63574060D02*
X19035912Y-63431203D01*
X19035912Y-63431203D02*
X19035912Y-63145488D01*
X19035912Y-63145488D02*
X19107341Y-63002631D01*
X19107341Y-63002631D02*
X19250198Y-62931203D01*
X19250198Y-62931203D02*
X19393055Y-62931203D01*
X19393055Y-62931203D02*
X19535912Y-63645488D01*
X20035912Y-62288346D02*
X19035912Y-62288346D01*
X18535912Y-62288346D02*
X18607341Y-62359774D01*
X18607341Y-62359774D02*
X18678769Y-62288346D01*
X18678769Y-62288346D02*
X18607341Y-62216917D01*
X18607341Y-62216917D02*
X18535912Y-62288346D01*
X18535912Y-62288346D02*
X18678769Y-62288346D01*
X19964484Y-61645488D02*
X20035912Y-61502631D01*
X20035912Y-61502631D02*
X20035912Y-61216917D01*
X20035912Y-61216917D02*
X19964484Y-61074060D01*
X19964484Y-61074060D02*
X19821626Y-61002631D01*
X19821626Y-61002631D02*
X19750198Y-61002631D01*
X19750198Y-61002631D02*
X19607341Y-61074060D01*
X19607341Y-61074060D02*
X19535912Y-61216917D01*
X19535912Y-61216917D02*
X19535912Y-61431203D01*
X19535912Y-61431203D02*
X19464484Y-61574060D01*
X19464484Y-61574060D02*
X19321626Y-61645488D01*
X19321626Y-61645488D02*
X19250198Y-61645488D01*
X19250198Y-61645488D02*
X19107341Y-61574060D01*
X19107341Y-61574060D02*
X19035912Y-61431203D01*
X19035912Y-61431203D02*
X19035912Y-61216917D01*
X19035912Y-61216917D02*
X19107341Y-61074060D01*
X20035912Y-60359774D02*
X18535912Y-60359774D01*
X20035912Y-59716917D02*
X19250198Y-59716917D01*
X19250198Y-59716917D02*
X19107341Y-59788345D01*
X19107341Y-59788345D02*
X19035912Y-59931202D01*
X19035912Y-59931202D02*
X19035912Y-60145488D01*
X19035912Y-60145488D02*
X19107341Y-60288345D01*
X19107341Y-60288345D02*
X19178769Y-60359774D01*
X20035912Y-58359774D02*
X19250198Y-58359774D01*
X19250198Y-58359774D02*
X19107341Y-58431202D01*
X19107341Y-58431202D02*
X19035912Y-58574059D01*
X19035912Y-58574059D02*
X19035912Y-58859774D01*
X19035912Y-58859774D02*
X19107341Y-59002631D01*
X19964484Y-58359774D02*
X20035912Y-58502631D01*
X20035912Y-58502631D02*
X20035912Y-58859774D01*
X20035912Y-58859774D02*
X19964484Y-59002631D01*
X19964484Y-59002631D02*
X19821626Y-59074059D01*
X19821626Y-59074059D02*
X19678769Y-59074059D01*
X19678769Y-59074059D02*
X19535912Y-59002631D01*
X19535912Y-59002631D02*
X19464484Y-58859774D01*
X19464484Y-58859774D02*
X19464484Y-58502631D01*
X19464484Y-58502631D02*
X19393055Y-58359774D01*
X20035912Y-57645488D02*
X18535912Y-57645488D01*
X18535912Y-57645488D02*
X19607341Y-57145488D01*
X19607341Y-57145488D02*
X18535912Y-56645488D01*
X18535912Y-56645488D02*
X20035912Y-56645488D01*
X20035912Y-55716916D02*
X19964484Y-55859773D01*
X19964484Y-55859773D02*
X19893055Y-55931202D01*
X19893055Y-55931202D02*
X19750198Y-56002630D01*
X19750198Y-56002630D02*
X19321626Y-56002630D01*
X19321626Y-56002630D02*
X19178769Y-55931202D01*
X19178769Y-55931202D02*
X19107341Y-55859773D01*
X19107341Y-55859773D02*
X19035912Y-55716916D01*
X19035912Y-55716916D02*
X19035912Y-55502630D01*
X19035912Y-55502630D02*
X19107341Y-55359773D01*
X19107341Y-55359773D02*
X19178769Y-55288345D01*
X19178769Y-55288345D02*
X19321626Y-55216916D01*
X19321626Y-55216916D02*
X19750198Y-55216916D01*
X19750198Y-55216916D02*
X19893055Y-55288345D01*
X19893055Y-55288345D02*
X19964484Y-55359773D01*
X19964484Y-55359773D02*
X20035912Y-55502630D01*
X20035912Y-55502630D02*
X20035912Y-55716916D01*
X19035912Y-54574059D02*
X20035912Y-54574059D01*
X19178769Y-54574059D02*
X19107341Y-54502630D01*
X19107341Y-54502630D02*
X19035912Y-54359773D01*
X19035912Y-54359773D02*
X19035912Y-54145487D01*
X19035912Y-54145487D02*
X19107341Y-54002630D01*
X19107341Y-54002630D02*
X19250198Y-53931202D01*
X19250198Y-53931202D02*
X20035912Y-53931202D01*
X20035912Y-52074059D02*
X18535912Y-52074059D01*
X18535912Y-52074059D02*
X19607341Y-51574059D01*
X19607341Y-51574059D02*
X18535912Y-51074059D01*
X18535912Y-51074059D02*
X20035912Y-51074059D01*
X20035912Y-50145487D02*
X19964484Y-50288344D01*
X19964484Y-50288344D02*
X19893055Y-50359773D01*
X19893055Y-50359773D02*
X19750198Y-50431201D01*
X19750198Y-50431201D02*
X19321626Y-50431201D01*
X19321626Y-50431201D02*
X19178769Y-50359773D01*
X19178769Y-50359773D02*
X19107341Y-50288344D01*
X19107341Y-50288344D02*
X19035912Y-50145487D01*
X19035912Y-50145487D02*
X19035912Y-49931201D01*
X19035912Y-49931201D02*
X19107341Y-49788344D01*
X19107341Y-49788344D02*
X19178769Y-49716916D01*
X19178769Y-49716916D02*
X19321626Y-49645487D01*
X19321626Y-49645487D02*
X19750198Y-49645487D01*
X19750198Y-49645487D02*
X19893055Y-49716916D01*
X19893055Y-49716916D02*
X19964484Y-49788344D01*
X19964484Y-49788344D02*
X20035912Y-49931201D01*
X20035912Y-49931201D02*
X20035912Y-50145487D01*
X20035912Y-48359773D02*
X18535912Y-48359773D01*
X19964484Y-48359773D02*
X20035912Y-48502630D01*
X20035912Y-48502630D02*
X20035912Y-48788344D01*
X20035912Y-48788344D02*
X19964484Y-48931201D01*
X19964484Y-48931201D02*
X19893055Y-49002630D01*
X19893055Y-49002630D02*
X19750198Y-49074058D01*
X19750198Y-49074058D02*
X19321626Y-49074058D01*
X19321626Y-49074058D02*
X19178769Y-49002630D01*
X19178769Y-49002630D02*
X19107341Y-48931201D01*
X19107341Y-48931201D02*
X19035912Y-48788344D01*
X19035912Y-48788344D02*
X19035912Y-48502630D01*
X19035912Y-48502630D02*
X19107341Y-48359773D01*
X19035912Y-47002630D02*
X20035912Y-47002630D01*
X19035912Y-47645487D02*
X19821626Y-47645487D01*
X19821626Y-47645487D02*
X19964484Y-47574058D01*
X19964484Y-47574058D02*
X20035912Y-47431201D01*
X20035912Y-47431201D02*
X20035912Y-47216915D01*
X20035912Y-47216915D02*
X19964484Y-47074058D01*
X19964484Y-47074058D02*
X19893055Y-47002630D01*
X20035912Y-46074058D02*
X19964484Y-46216915D01*
X19964484Y-46216915D02*
X19821626Y-46288344D01*
X19821626Y-46288344D02*
X18535912Y-46288344D01*
X19964484Y-44931201D02*
X20035912Y-45074058D01*
X20035912Y-45074058D02*
X20035912Y-45359773D01*
X20035912Y-45359773D02*
X19964484Y-45502630D01*
X19964484Y-45502630D02*
X19821626Y-45574058D01*
X19821626Y-45574058D02*
X19250198Y-45574058D01*
X19250198Y-45574058D02*
X19107341Y-45502630D01*
X19107341Y-45502630D02*
X19035912Y-45359773D01*
X19035912Y-45359773D02*
X19035912Y-45074058D01*
X19035912Y-45074058D02*
X19107341Y-44931201D01*
X19107341Y-44931201D02*
X19250198Y-44859773D01*
X19250198Y-44859773D02*
X19393055Y-44859773D01*
X19393055Y-44859773D02*
X19535912Y-45574058D01*
X22450828Y-65145489D02*
X20950828Y-65145489D01*
X21522257Y-65145489D02*
X21450828Y-65002632D01*
X21450828Y-65002632D02*
X21450828Y-64716917D01*
X21450828Y-64716917D02*
X21522257Y-64574060D01*
X21522257Y-64574060D02*
X21593685Y-64502632D01*
X21593685Y-64502632D02*
X21736542Y-64431203D01*
X21736542Y-64431203D02*
X22165114Y-64431203D01*
X22165114Y-64431203D02*
X22307971Y-64502632D01*
X22307971Y-64502632D02*
X22379400Y-64574060D01*
X22379400Y-64574060D02*
X22450828Y-64716917D01*
X22450828Y-64716917D02*
X22450828Y-65002632D01*
X22450828Y-65002632D02*
X22379400Y-65145489D01*
X21450828Y-63931203D02*
X22450828Y-63574060D01*
X21450828Y-63216917D02*
X22450828Y-63574060D01*
X22450828Y-63574060D02*
X22807971Y-63716917D01*
X22807971Y-63716917D02*
X22879400Y-63788346D01*
X22879400Y-63788346D02*
X22950828Y-63931203D01*
X22450828Y-60788346D02*
X22450828Y-61502632D01*
X22450828Y-61502632D02*
X20950828Y-61502632D01*
X22450828Y-59431203D02*
X21736542Y-59931203D01*
X22450828Y-60288346D02*
X20950828Y-60288346D01*
X20950828Y-60288346D02*
X20950828Y-59716917D01*
X20950828Y-59716917D02*
X21022257Y-59574060D01*
X21022257Y-59574060D02*
X21093685Y-59502631D01*
X21093685Y-59502631D02*
X21236542Y-59431203D01*
X21236542Y-59431203D02*
X21450828Y-59431203D01*
X21450828Y-59431203D02*
X21593685Y-59502631D01*
X21593685Y-59502631D02*
X21665114Y-59574060D01*
X21665114Y-59574060D02*
X21736542Y-59716917D01*
X21736542Y-59716917D02*
X21736542Y-60288346D01*
X58604510Y-65829400D02*
X59747368Y-65829400D01*
X59175939Y-66400828D02*
X59175939Y-65257971D01*
X61247368Y-66400828D02*
X60390225Y-66400828D01*
X60818796Y-66400828D02*
X60818796Y-64900828D01*
X60818796Y-64900828D02*
X60675939Y-65115114D01*
X60675939Y-65115114D02*
X60533082Y-65257971D01*
X60533082Y-65257971D02*
X60390225Y-65329400D01*
X61818796Y-65043685D02*
X61890224Y-64972257D01*
X61890224Y-64972257D02*
X62033082Y-64900828D01*
X62033082Y-64900828D02*
X62390224Y-64900828D01*
X62390224Y-64900828D02*
X62533082Y-64972257D01*
X62533082Y-64972257D02*
X62604510Y-65043685D01*
X62604510Y-65043685D02*
X62675939Y-65186542D01*
X62675939Y-65186542D02*
X62675939Y-65329400D01*
X62675939Y-65329400D02*
X62604510Y-65543685D01*
X62604510Y-65543685D02*
X61747367Y-66400828D01*
X61747367Y-66400828D02*
X62675939Y-66400828D01*
D10*
X28891101Y-68691695D02*
X28433958Y-68691695D01*
X28662530Y-68691695D02*
X28662530Y-67891695D01*
X28662530Y-67891695D02*
X28586339Y-68005980D01*
X28586339Y-68005980D02*
X28510149Y-68082171D01*
X28510149Y-68082171D02*
X28433958Y-68120266D01*
X20591101Y-72429790D02*
X20514911Y-72391695D01*
X20514911Y-72391695D02*
X20400625Y-72391695D01*
X20400625Y-72391695D02*
X20286339Y-72429790D01*
X20286339Y-72429790D02*
X20210149Y-72505980D01*
X20210149Y-72505980D02*
X20172054Y-72582171D01*
X20172054Y-72582171D02*
X20133958Y-72734552D01*
X20133958Y-72734552D02*
X20133958Y-72848838D01*
X20133958Y-72848838D02*
X20172054Y-73001219D01*
X20172054Y-73001219D02*
X20210149Y-73077409D01*
X20210149Y-73077409D02*
X20286339Y-73153600D01*
X20286339Y-73153600D02*
X20400625Y-73191695D01*
X20400625Y-73191695D02*
X20476816Y-73191695D01*
X20476816Y-73191695D02*
X20591101Y-73153600D01*
X20591101Y-73153600D02*
X20629197Y-73115504D01*
X20629197Y-73115504D02*
X20629197Y-72848838D01*
X20629197Y-72848838D02*
X20476816Y-72848838D01*
X20972054Y-73191695D02*
X20972054Y-72391695D01*
X20972054Y-72391695D02*
X21429197Y-73191695D01*
X21429197Y-73191695D02*
X21429197Y-72391695D01*
X21810149Y-73191695D02*
X21810149Y-72391695D01*
X21810149Y-72391695D02*
X22000625Y-72391695D01*
X22000625Y-72391695D02*
X22114911Y-72429790D01*
X22114911Y-72429790D02*
X22191101Y-72505980D01*
X22191101Y-72505980D02*
X22229196Y-72582171D01*
X22229196Y-72582171D02*
X22267292Y-72734552D01*
X22267292Y-72734552D02*
X22267292Y-72848838D01*
X22267292Y-72848838D02*
X22229196Y-73001219D01*
X22229196Y-73001219D02*
X22191101Y-73077409D01*
X22191101Y-73077409D02*
X22114911Y-73153600D01*
X22114911Y-73153600D02*
X22000625Y-73191695D01*
X22000625Y-73191695D02*
X21810149Y-73191695D01*
D12*
X55109580Y-61566666D02*
X55157200Y-61614285D01*
X55157200Y-61614285D02*
X55204819Y-61757142D01*
X55204819Y-61757142D02*
X55204819Y-61852380D01*
X55204819Y-61852380D02*
X55157200Y-61995237D01*
X55157200Y-61995237D02*
X55061961Y-62090475D01*
X55061961Y-62090475D02*
X54966723Y-62138094D01*
X54966723Y-62138094D02*
X54776247Y-62185713D01*
X54776247Y-62185713D02*
X54633390Y-62185713D01*
X54633390Y-62185713D02*
X54442914Y-62138094D01*
X54442914Y-62138094D02*
X54347676Y-62090475D01*
X54347676Y-62090475D02*
X54252438Y-61995237D01*
X54252438Y-61995237D02*
X54204819Y-61852380D01*
X54204819Y-61852380D02*
X54204819Y-61757142D01*
X54204819Y-61757142D02*
X54252438Y-61614285D01*
X54252438Y-61614285D02*
X54300057Y-61566666D01*
X54204819Y-60661904D02*
X54204819Y-61138094D01*
X54204819Y-61138094D02*
X54681009Y-61185713D01*
X54681009Y-61185713D02*
X54633390Y-61138094D01*
X54633390Y-61138094D02*
X54585771Y-61042856D01*
X54585771Y-61042856D02*
X54585771Y-60804761D01*
X54585771Y-60804761D02*
X54633390Y-60709523D01*
X54633390Y-60709523D02*
X54681009Y-60661904D01*
X54681009Y-60661904D02*
X54776247Y-60614285D01*
X54776247Y-60614285D02*
X55014342Y-60614285D01*
X55014342Y-60614285D02*
X55109580Y-60661904D01*
X55109580Y-60661904D02*
X55157200Y-60709523D01*
X55157200Y-60709523D02*
X55204819Y-60804761D01*
X55204819Y-60804761D02*
X55204819Y-61042856D01*
X55204819Y-61042856D02*
X55157200Y-61138094D01*
X55157200Y-61138094D02*
X55109580Y-61185713D01*
X54909580Y-46966666D02*
X54957200Y-47014285D01*
X54957200Y-47014285D02*
X55004819Y-47157142D01*
X55004819Y-47157142D02*
X55004819Y-47252380D01*
X55004819Y-47252380D02*
X54957200Y-47395237D01*
X54957200Y-47395237D02*
X54861961Y-47490475D01*
X54861961Y-47490475D02*
X54766723Y-47538094D01*
X54766723Y-47538094D02*
X54576247Y-47585713D01*
X54576247Y-47585713D02*
X54433390Y-47585713D01*
X54433390Y-47585713D02*
X54242914Y-47538094D01*
X54242914Y-47538094D02*
X54147676Y-47490475D01*
X54147676Y-47490475D02*
X54052438Y-47395237D01*
X54052438Y-47395237D02*
X54004819Y-47252380D01*
X54004819Y-47252380D02*
X54004819Y-47157142D01*
X54004819Y-47157142D02*
X54052438Y-47014285D01*
X54052438Y-47014285D02*
X54100057Y-46966666D01*
X54338152Y-46109523D02*
X55004819Y-46109523D01*
X53957200Y-46347618D02*
X54671485Y-46585713D01*
X54671485Y-46585713D02*
X54671485Y-45966666D01*
X34304819Y-55861904D02*
X35114342Y-55861904D01*
X35114342Y-55861904D02*
X35209580Y-55814285D01*
X35209580Y-55814285D02*
X35257200Y-55766666D01*
X35257200Y-55766666D02*
X35304819Y-55671428D01*
X35304819Y-55671428D02*
X35304819Y-55480952D01*
X35304819Y-55480952D02*
X35257200Y-55385714D01*
X35257200Y-55385714D02*
X35209580Y-55338095D01*
X35209580Y-55338095D02*
X35114342Y-55290476D01*
X35114342Y-55290476D02*
X34304819Y-55290476D01*
X35304819Y-54290476D02*
X35304819Y-54861904D01*
X35304819Y-54576190D02*
X34304819Y-54576190D01*
X34304819Y-54576190D02*
X34447676Y-54671428D01*
X34447676Y-54671428D02*
X34542914Y-54766666D01*
X34542914Y-54766666D02*
X34590533Y-54861904D01*
X38094642Y-64504819D02*
X37761309Y-64028628D01*
X37523214Y-64504819D02*
X37523214Y-63504819D01*
X37523214Y-63504819D02*
X37904166Y-63504819D01*
X37904166Y-63504819D02*
X37999404Y-63552438D01*
X37999404Y-63552438D02*
X38047023Y-63600057D01*
X38047023Y-63600057D02*
X38094642Y-63695295D01*
X38094642Y-63695295D02*
X38094642Y-63838152D01*
X38094642Y-63838152D02*
X38047023Y-63933390D01*
X38047023Y-63933390D02*
X37999404Y-63981009D01*
X37999404Y-63981009D02*
X37904166Y-64028628D01*
X37904166Y-64028628D02*
X37523214Y-64028628D01*
X39047023Y-64504819D02*
X38475595Y-64504819D01*
X38761309Y-64504819D02*
X38761309Y-63504819D01*
X38761309Y-63504819D02*
X38666071Y-63647676D01*
X38666071Y-63647676D02*
X38570833Y-63742914D01*
X38570833Y-63742914D02*
X38475595Y-63790533D01*
X39666071Y-63504819D02*
X39761309Y-63504819D01*
X39761309Y-63504819D02*
X39856547Y-63552438D01*
X39856547Y-63552438D02*
X39904166Y-63600057D01*
X39904166Y-63600057D02*
X39951785Y-63695295D01*
X39951785Y-63695295D02*
X39999404Y-63885771D01*
X39999404Y-63885771D02*
X39999404Y-64123866D01*
X39999404Y-64123866D02*
X39951785Y-64314342D01*
X39951785Y-64314342D02*
X39904166Y-64409580D01*
X39904166Y-64409580D02*
X39856547Y-64457200D01*
X39856547Y-64457200D02*
X39761309Y-64504819D01*
X39761309Y-64504819D02*
X39666071Y-64504819D01*
X39666071Y-64504819D02*
X39570833Y-64457200D01*
X39570833Y-64457200D02*
X39523214Y-64409580D01*
X39523214Y-64409580D02*
X39475595Y-64314342D01*
X39475595Y-64314342D02*
X39427976Y-64123866D01*
X39427976Y-64123866D02*
X39427976Y-63885771D01*
X39427976Y-63885771D02*
X39475595Y-63695295D01*
X39475595Y-63695295D02*
X39523214Y-63600057D01*
X39523214Y-63600057D02*
X39570833Y-63552438D01*
X39570833Y-63552438D02*
X39666071Y-63504819D01*
X26183333Y-64154819D02*
X25850000Y-63678628D01*
X25611905Y-64154819D02*
X25611905Y-63154819D01*
X25611905Y-63154819D02*
X25992857Y-63154819D01*
X25992857Y-63154819D02*
X26088095Y-63202438D01*
X26088095Y-63202438D02*
X26135714Y-63250057D01*
X26135714Y-63250057D02*
X26183333Y-63345295D01*
X26183333Y-63345295D02*
X26183333Y-63488152D01*
X26183333Y-63488152D02*
X26135714Y-63583390D01*
X26135714Y-63583390D02*
X26088095Y-63631009D01*
X26088095Y-63631009D02*
X25992857Y-63678628D01*
X25992857Y-63678628D02*
X25611905Y-63678628D01*
X26564286Y-63250057D02*
X26611905Y-63202438D01*
X26611905Y-63202438D02*
X26707143Y-63154819D01*
X26707143Y-63154819D02*
X26945238Y-63154819D01*
X26945238Y-63154819D02*
X27040476Y-63202438D01*
X27040476Y-63202438D02*
X27088095Y-63250057D01*
X27088095Y-63250057D02*
X27135714Y-63345295D01*
X27135714Y-63345295D02*
X27135714Y-63440533D01*
X27135714Y-63440533D02*
X27088095Y-63583390D01*
X27088095Y-63583390D02*
X26516667Y-64154819D01*
X26516667Y-64154819D02*
X27135714Y-64154819D01*
X42507142Y-64504819D02*
X42173809Y-64028628D01*
X41935714Y-64504819D02*
X41935714Y-63504819D01*
X41935714Y-63504819D02*
X42316666Y-63504819D01*
X42316666Y-63504819D02*
X42411904Y-63552438D01*
X42411904Y-63552438D02*
X42459523Y-63600057D01*
X42459523Y-63600057D02*
X42507142Y-63695295D01*
X42507142Y-63695295D02*
X42507142Y-63838152D01*
X42507142Y-63838152D02*
X42459523Y-63933390D01*
X42459523Y-63933390D02*
X42411904Y-63981009D01*
X42411904Y-63981009D02*
X42316666Y-64028628D01*
X42316666Y-64028628D02*
X41935714Y-64028628D01*
X43459523Y-64504819D02*
X42888095Y-64504819D01*
X43173809Y-64504819D02*
X43173809Y-63504819D01*
X43173809Y-63504819D02*
X43078571Y-63647676D01*
X43078571Y-63647676D02*
X42983333Y-63742914D01*
X42983333Y-63742914D02*
X42888095Y-63790533D01*
X44411904Y-64504819D02*
X43840476Y-64504819D01*
X44126190Y-64504819D02*
X44126190Y-63504819D01*
X44126190Y-63504819D02*
X44030952Y-63647676D01*
X44030952Y-63647676D02*
X43935714Y-63742914D01*
X43935714Y-63742914D02*
X43840476Y-63790533D01*
X35804819Y-68238094D02*
X34804819Y-68238094D01*
X34804819Y-68238094D02*
X34804819Y-67999999D01*
X34804819Y-67999999D02*
X34852438Y-67857142D01*
X34852438Y-67857142D02*
X34947676Y-67761904D01*
X34947676Y-67761904D02*
X35042914Y-67714285D01*
X35042914Y-67714285D02*
X35233390Y-67666666D01*
X35233390Y-67666666D02*
X35376247Y-67666666D01*
X35376247Y-67666666D02*
X35566723Y-67714285D01*
X35566723Y-67714285D02*
X35661961Y-67761904D01*
X35661961Y-67761904D02*
X35757200Y-67857142D01*
X35757200Y-67857142D02*
X35804819Y-67999999D01*
X35804819Y-67999999D02*
X35804819Y-68238094D01*
X34804819Y-67333332D02*
X34804819Y-66714285D01*
X34804819Y-66714285D02*
X35185771Y-67047618D01*
X35185771Y-67047618D02*
X35185771Y-66904761D01*
X35185771Y-66904761D02*
X35233390Y-66809523D01*
X35233390Y-66809523D02*
X35281009Y-66761904D01*
X35281009Y-66761904D02*
X35376247Y-66714285D01*
X35376247Y-66714285D02*
X35614342Y-66714285D01*
X35614342Y-66714285D02*
X35709580Y-66761904D01*
X35709580Y-66761904D02*
X35757200Y-66809523D01*
X35757200Y-66809523D02*
X35804819Y-66904761D01*
X35804819Y-66904761D02*
X35804819Y-67190475D01*
X35804819Y-67190475D02*
X35757200Y-67285713D01*
X35757200Y-67285713D02*
X35709580Y-67333332D01*
X48383333Y-45504819D02*
X48050000Y-45028628D01*
X47811905Y-45504819D02*
X47811905Y-44504819D01*
X47811905Y-44504819D02*
X48192857Y-44504819D01*
X48192857Y-44504819D02*
X48288095Y-44552438D01*
X48288095Y-44552438D02*
X48335714Y-44600057D01*
X48335714Y-44600057D02*
X48383333Y-44695295D01*
X48383333Y-44695295D02*
X48383333Y-44838152D01*
X48383333Y-44838152D02*
X48335714Y-44933390D01*
X48335714Y-44933390D02*
X48288095Y-44981009D01*
X48288095Y-44981009D02*
X48192857Y-45028628D01*
X48192857Y-45028628D02*
X47811905Y-45028628D01*
X49288095Y-44504819D02*
X48811905Y-44504819D01*
X48811905Y-44504819D02*
X48764286Y-44981009D01*
X48764286Y-44981009D02*
X48811905Y-44933390D01*
X48811905Y-44933390D02*
X48907143Y-44885771D01*
X48907143Y-44885771D02*
X49145238Y-44885771D01*
X49145238Y-44885771D02*
X49240476Y-44933390D01*
X49240476Y-44933390D02*
X49288095Y-44981009D01*
X49288095Y-44981009D02*
X49335714Y-45076247D01*
X49335714Y-45076247D02*
X49335714Y-45314342D01*
X49335714Y-45314342D02*
X49288095Y-45409580D01*
X49288095Y-45409580D02*
X49240476Y-45457200D01*
X49240476Y-45457200D02*
X49145238Y-45504819D01*
X49145238Y-45504819D02*
X48907143Y-45504819D01*
X48907143Y-45504819D02*
X48811905Y-45457200D01*
X48811905Y-45457200D02*
X48764286Y-45409580D01*
X26183333Y-66354819D02*
X25850000Y-65878628D01*
X25611905Y-66354819D02*
X25611905Y-65354819D01*
X25611905Y-65354819D02*
X25992857Y-65354819D01*
X25992857Y-65354819D02*
X26088095Y-65402438D01*
X26088095Y-65402438D02*
X26135714Y-65450057D01*
X26135714Y-65450057D02*
X26183333Y-65545295D01*
X26183333Y-65545295D02*
X26183333Y-65688152D01*
X26183333Y-65688152D02*
X26135714Y-65783390D01*
X26135714Y-65783390D02*
X26088095Y-65831009D01*
X26088095Y-65831009D02*
X25992857Y-65878628D01*
X25992857Y-65878628D02*
X25611905Y-65878628D01*
X27135714Y-66354819D02*
X26564286Y-66354819D01*
X26850000Y-66354819D02*
X26850000Y-65354819D01*
X26850000Y-65354819D02*
X26754762Y-65497676D01*
X26754762Y-65497676D02*
X26659524Y-65592914D01*
X26659524Y-65592914D02*
X26564286Y-65640533D01*
X48404819Y-50566666D02*
X48404819Y-51042856D01*
X48404819Y-51042856D02*
X47404819Y-51042856D01*
X48404819Y-49709523D02*
X48404819Y-50280951D01*
X48404819Y-49995237D02*
X47404819Y-49995237D01*
X47404819Y-49995237D02*
X47547676Y-50090475D01*
X47547676Y-50090475D02*
X47642914Y-50185713D01*
X47642914Y-50185713D02*
X47690533Y-50280951D01*
X15988095Y-36754819D02*
X15988095Y-37564342D01*
X15988095Y-37564342D02*
X16035714Y-37659580D01*
X16035714Y-37659580D02*
X16083333Y-37707200D01*
X16083333Y-37707200D02*
X16178571Y-37754819D01*
X16178571Y-37754819D02*
X16369047Y-37754819D01*
X16369047Y-37754819D02*
X16464285Y-37707200D01*
X16464285Y-37707200D02*
X16511904Y-37659580D01*
X16511904Y-37659580D02*
X16559523Y-37564342D01*
X16559523Y-37564342D02*
X16559523Y-36754819D01*
X16940476Y-36754819D02*
X17559523Y-36754819D01*
X17559523Y-36754819D02*
X17226190Y-37135771D01*
X17226190Y-37135771D02*
X17369047Y-37135771D01*
X17369047Y-37135771D02*
X17464285Y-37183390D01*
X17464285Y-37183390D02*
X17511904Y-37231009D01*
X17511904Y-37231009D02*
X17559523Y-37326247D01*
X17559523Y-37326247D02*
X17559523Y-37564342D01*
X17559523Y-37564342D02*
X17511904Y-37659580D01*
X17511904Y-37659580D02*
X17464285Y-37707200D01*
X17464285Y-37707200D02*
X17369047Y-37754819D01*
X17369047Y-37754819D02*
X17083333Y-37754819D01*
X17083333Y-37754819D02*
X16988095Y-37707200D01*
X16988095Y-37707200D02*
X16940476Y-37659580D01*
X24808095Y-26931009D02*
X25141428Y-26931009D01*
X25284285Y-27454819D02*
X24808095Y-27454819D01*
X24808095Y-27454819D02*
X24808095Y-26454819D01*
X24808095Y-26454819D02*
X25284285Y-26454819D01*
X25665238Y-27407200D02*
X25808095Y-27454819D01*
X25808095Y-27454819D02*
X26046190Y-27454819D01*
X26046190Y-27454819D02*
X26141428Y-27407200D01*
X26141428Y-27407200D02*
X26189047Y-27359580D01*
X26189047Y-27359580D02*
X26236666Y-27264342D01*
X26236666Y-27264342D02*
X26236666Y-27169104D01*
X26236666Y-27169104D02*
X26189047Y-27073866D01*
X26189047Y-27073866D02*
X26141428Y-27026247D01*
X26141428Y-27026247D02*
X26046190Y-26978628D01*
X26046190Y-26978628D02*
X25855714Y-26931009D01*
X25855714Y-26931009D02*
X25760476Y-26883390D01*
X25760476Y-26883390D02*
X25712857Y-26835771D01*
X25712857Y-26835771D02*
X25665238Y-26740533D01*
X25665238Y-26740533D02*
X25665238Y-26645295D01*
X25665238Y-26645295D02*
X25712857Y-26550057D01*
X25712857Y-26550057D02*
X25760476Y-26502438D01*
X25760476Y-26502438D02*
X25855714Y-26454819D01*
X25855714Y-26454819D02*
X26093809Y-26454819D01*
X26093809Y-26454819D02*
X26236666Y-26502438D01*
X26665238Y-27454819D02*
X26665238Y-26454819D01*
X26665238Y-26454819D02*
X27046190Y-26454819D01*
X27046190Y-26454819D02*
X27141428Y-26502438D01*
X27141428Y-26502438D02*
X27189047Y-26550057D01*
X27189047Y-26550057D02*
X27236666Y-26645295D01*
X27236666Y-26645295D02*
X27236666Y-26788152D01*
X27236666Y-26788152D02*
X27189047Y-26883390D01*
X27189047Y-26883390D02*
X27141428Y-26931009D01*
X27141428Y-26931009D02*
X27046190Y-26978628D01*
X27046190Y-26978628D02*
X26665238Y-26978628D01*
X27570000Y-26454819D02*
X28189047Y-26454819D01*
X28189047Y-26454819D02*
X27855714Y-26835771D01*
X27855714Y-26835771D02*
X27998571Y-26835771D01*
X27998571Y-26835771D02*
X28093809Y-26883390D01*
X28093809Y-26883390D02*
X28141428Y-26931009D01*
X28141428Y-26931009D02*
X28189047Y-27026247D01*
X28189047Y-27026247D02*
X28189047Y-27264342D01*
X28189047Y-27264342D02*
X28141428Y-27359580D01*
X28141428Y-27359580D02*
X28093809Y-27407200D01*
X28093809Y-27407200D02*
X27998571Y-27454819D01*
X27998571Y-27454819D02*
X27712857Y-27454819D01*
X27712857Y-27454819D02*
X27617619Y-27407200D01*
X27617619Y-27407200D02*
X27570000Y-27359580D01*
X28570000Y-26550057D02*
X28617619Y-26502438D01*
X28617619Y-26502438D02*
X28712857Y-26454819D01*
X28712857Y-26454819D02*
X28950952Y-26454819D01*
X28950952Y-26454819D02*
X29046190Y-26502438D01*
X29046190Y-26502438D02*
X29093809Y-26550057D01*
X29093809Y-26550057D02*
X29141428Y-26645295D01*
X29141428Y-26645295D02*
X29141428Y-26740533D01*
X29141428Y-26740533D02*
X29093809Y-26883390D01*
X29093809Y-26883390D02*
X28522381Y-27454819D01*
X28522381Y-27454819D02*
X29141428Y-27454819D01*
X29570000Y-27073866D02*
X30331905Y-27073866D01*
X31379523Y-27359580D02*
X31331904Y-27407200D01*
X31331904Y-27407200D02*
X31189047Y-27454819D01*
X31189047Y-27454819D02*
X31093809Y-27454819D01*
X31093809Y-27454819D02*
X30950952Y-27407200D01*
X30950952Y-27407200D02*
X30855714Y-27311961D01*
X30855714Y-27311961D02*
X30808095Y-27216723D01*
X30808095Y-27216723D02*
X30760476Y-27026247D01*
X30760476Y-27026247D02*
X30760476Y-26883390D01*
X30760476Y-26883390D02*
X30808095Y-26692914D01*
X30808095Y-26692914D02*
X30855714Y-26597676D01*
X30855714Y-26597676D02*
X30950952Y-26502438D01*
X30950952Y-26502438D02*
X31093809Y-26454819D01*
X31093809Y-26454819D02*
X31189047Y-26454819D01*
X31189047Y-26454819D02*
X31331904Y-26502438D01*
X31331904Y-26502438D02*
X31379523Y-26550057D01*
X31712857Y-26454819D02*
X32331904Y-26454819D01*
X32331904Y-26454819D02*
X31998571Y-26835771D01*
X31998571Y-26835771D02*
X32141428Y-26835771D01*
X32141428Y-26835771D02*
X32236666Y-26883390D01*
X32236666Y-26883390D02*
X32284285Y-26931009D01*
X32284285Y-26931009D02*
X32331904Y-27026247D01*
X32331904Y-27026247D02*
X32331904Y-27264342D01*
X32331904Y-27264342D02*
X32284285Y-27359580D01*
X32284285Y-27359580D02*
X32236666Y-27407200D01*
X32236666Y-27407200D02*
X32141428Y-27454819D01*
X32141428Y-27454819D02*
X31855714Y-27454819D01*
X31855714Y-27454819D02*
X31760476Y-27407200D01*
X31760476Y-27407200D02*
X31712857Y-27359580D01*
X32760476Y-27073866D02*
X33522381Y-27073866D01*
X33998571Y-27454819D02*
X33998571Y-26454819D01*
X33998571Y-26454819D02*
X34236666Y-26454819D01*
X34236666Y-26454819D02*
X34379523Y-26502438D01*
X34379523Y-26502438D02*
X34474761Y-26597676D01*
X34474761Y-26597676D02*
X34522380Y-26692914D01*
X34522380Y-26692914D02*
X34569999Y-26883390D01*
X34569999Y-26883390D02*
X34569999Y-27026247D01*
X34569999Y-27026247D02*
X34522380Y-27216723D01*
X34522380Y-27216723D02*
X34474761Y-27311961D01*
X34474761Y-27311961D02*
X34379523Y-27407200D01*
X34379523Y-27407200D02*
X34236666Y-27454819D01*
X34236666Y-27454819D02*
X33998571Y-27454819D01*
X35379523Y-27407200D02*
X35284285Y-27454819D01*
X35284285Y-27454819D02*
X35093809Y-27454819D01*
X35093809Y-27454819D02*
X34998571Y-27407200D01*
X34998571Y-27407200D02*
X34950952Y-27311961D01*
X34950952Y-27311961D02*
X34950952Y-26931009D01*
X34950952Y-26931009D02*
X34998571Y-26835771D01*
X34998571Y-26835771D02*
X35093809Y-26788152D01*
X35093809Y-26788152D02*
X35284285Y-26788152D01*
X35284285Y-26788152D02*
X35379523Y-26835771D01*
X35379523Y-26835771D02*
X35427142Y-26931009D01*
X35427142Y-26931009D02*
X35427142Y-27026247D01*
X35427142Y-27026247D02*
X34950952Y-27121485D01*
X35760476Y-26788152D02*
X35998571Y-27454819D01*
X35998571Y-27454819D02*
X36236666Y-26788152D01*
X36617619Y-27454819D02*
X36617619Y-26454819D01*
X37189047Y-27454819D02*
X36760476Y-26883390D01*
X37189047Y-26454819D02*
X36617619Y-27026247D01*
X37617619Y-27454819D02*
X37617619Y-26788152D01*
X37617619Y-26454819D02*
X37570000Y-26502438D01*
X37570000Y-26502438D02*
X37617619Y-26550057D01*
X37617619Y-26550057D02*
X37665238Y-26502438D01*
X37665238Y-26502438D02*
X37617619Y-26454819D01*
X37617619Y-26454819D02*
X37617619Y-26550057D01*
X37950952Y-26788152D02*
X38331904Y-26788152D01*
X38093809Y-26454819D02*
X38093809Y-27311961D01*
X38093809Y-27311961D02*
X38141428Y-27407200D01*
X38141428Y-27407200D02*
X38236666Y-27454819D01*
X38236666Y-27454819D02*
X38331904Y-27454819D01*
X39236666Y-27359580D02*
X39189047Y-27407200D01*
X39189047Y-27407200D02*
X39046190Y-27454819D01*
X39046190Y-27454819D02*
X38950952Y-27454819D01*
X38950952Y-27454819D02*
X38808095Y-27407200D01*
X38808095Y-27407200D02*
X38712857Y-27311961D01*
X38712857Y-27311961D02*
X38665238Y-27216723D01*
X38665238Y-27216723D02*
X38617619Y-27026247D01*
X38617619Y-27026247D02*
X38617619Y-26883390D01*
X38617619Y-26883390D02*
X38665238Y-26692914D01*
X38665238Y-26692914D02*
X38712857Y-26597676D01*
X38712857Y-26597676D02*
X38808095Y-26502438D01*
X38808095Y-26502438D02*
X38950952Y-26454819D01*
X38950952Y-26454819D02*
X39046190Y-26454819D01*
X39046190Y-26454819D02*
X39189047Y-26502438D01*
X39189047Y-26502438D02*
X39236666Y-26550057D01*
X39665238Y-27073866D02*
X40427143Y-27073866D01*
X41093809Y-26454819D02*
X41189047Y-26454819D01*
X41189047Y-26454819D02*
X41284285Y-26502438D01*
X41284285Y-26502438D02*
X41331904Y-26550057D01*
X41331904Y-26550057D02*
X41379523Y-26645295D01*
X41379523Y-26645295D02*
X41427142Y-26835771D01*
X41427142Y-26835771D02*
X41427142Y-27073866D01*
X41427142Y-27073866D02*
X41379523Y-27264342D01*
X41379523Y-27264342D02*
X41331904Y-27359580D01*
X41331904Y-27359580D02*
X41284285Y-27407200D01*
X41284285Y-27407200D02*
X41189047Y-27454819D01*
X41189047Y-27454819D02*
X41093809Y-27454819D01*
X41093809Y-27454819D02*
X40998571Y-27407200D01*
X40998571Y-27407200D02*
X40950952Y-27359580D01*
X40950952Y-27359580D02*
X40903333Y-27264342D01*
X40903333Y-27264342D02*
X40855714Y-27073866D01*
X40855714Y-27073866D02*
X40855714Y-26835771D01*
X40855714Y-26835771D02*
X40903333Y-26645295D01*
X40903333Y-26645295D02*
X40950952Y-26550057D01*
X40950952Y-26550057D02*
X40998571Y-26502438D01*
X40998571Y-26502438D02*
X41093809Y-26454819D01*
X41808095Y-26550057D02*
X41855714Y-26502438D01*
X41855714Y-26502438D02*
X41950952Y-26454819D01*
X41950952Y-26454819D02*
X42189047Y-26454819D01*
X42189047Y-26454819D02*
X42284285Y-26502438D01*
X42284285Y-26502438D02*
X42331904Y-26550057D01*
X42331904Y-26550057D02*
X42379523Y-26645295D01*
X42379523Y-26645295D02*
X42379523Y-26740533D01*
X42379523Y-26740533D02*
X42331904Y-26883390D01*
X42331904Y-26883390D02*
X41760476Y-27454819D01*
X41760476Y-27454819D02*
X42379523Y-27454819D01*
X22912438Y-19194398D02*
X22864819Y-19289636D01*
X22864819Y-19289636D02*
X22864819Y-19432493D01*
X22864819Y-19432493D02*
X22912438Y-19575350D01*
X22912438Y-19575350D02*
X23007676Y-19670588D01*
X23007676Y-19670588D02*
X23102914Y-19718207D01*
X23102914Y-19718207D02*
X23293390Y-19765826D01*
X23293390Y-19765826D02*
X23436247Y-19765826D01*
X23436247Y-19765826D02*
X23626723Y-19718207D01*
X23626723Y-19718207D02*
X23721961Y-19670588D01*
X23721961Y-19670588D02*
X23817200Y-19575350D01*
X23817200Y-19575350D02*
X23864819Y-19432493D01*
X23864819Y-19432493D02*
X23864819Y-19337255D01*
X23864819Y-19337255D02*
X23817200Y-19194398D01*
X23817200Y-19194398D02*
X23769580Y-19146779D01*
X23769580Y-19146779D02*
X23436247Y-19146779D01*
X23436247Y-19146779D02*
X23436247Y-19337255D01*
X23864819Y-18718207D02*
X22864819Y-18718207D01*
X22864819Y-18718207D02*
X23864819Y-18146779D01*
X23864819Y-18146779D02*
X22864819Y-18146779D01*
X23864819Y-17670588D02*
X22864819Y-17670588D01*
X22864819Y-17670588D02*
X22864819Y-17432493D01*
X22864819Y-17432493D02*
X22912438Y-17289636D01*
X22912438Y-17289636D02*
X23007676Y-17194398D01*
X23007676Y-17194398D02*
X23102914Y-17146779D01*
X23102914Y-17146779D02*
X23293390Y-17099160D01*
X23293390Y-17099160D02*
X23436247Y-17099160D01*
X23436247Y-17099160D02*
X23626723Y-17146779D01*
X23626723Y-17146779D02*
X23721961Y-17194398D01*
X23721961Y-17194398D02*
X23817200Y-17289636D01*
X23817200Y-17289636D02*
X23864819Y-17432493D01*
X23864819Y-17432493D02*
X23864819Y-17670588D01*
X58472438Y-19194398D02*
X58424819Y-19289636D01*
X58424819Y-19289636D02*
X58424819Y-19432493D01*
X58424819Y-19432493D02*
X58472438Y-19575350D01*
X58472438Y-19575350D02*
X58567676Y-19670588D01*
X58567676Y-19670588D02*
X58662914Y-19718207D01*
X58662914Y-19718207D02*
X58853390Y-19765826D01*
X58853390Y-19765826D02*
X58996247Y-19765826D01*
X58996247Y-19765826D02*
X59186723Y-19718207D01*
X59186723Y-19718207D02*
X59281961Y-19670588D01*
X59281961Y-19670588D02*
X59377200Y-19575350D01*
X59377200Y-19575350D02*
X59424819Y-19432493D01*
X59424819Y-19432493D02*
X59424819Y-19337255D01*
X59424819Y-19337255D02*
X59377200Y-19194398D01*
X59377200Y-19194398D02*
X59329580Y-19146779D01*
X59329580Y-19146779D02*
X58996247Y-19146779D01*
X58996247Y-19146779D02*
X58996247Y-19337255D01*
X59424819Y-18718207D02*
X58424819Y-18718207D01*
X58424819Y-18718207D02*
X59424819Y-18146779D01*
X59424819Y-18146779D02*
X58424819Y-18146779D01*
X59424819Y-17670588D02*
X58424819Y-17670588D01*
X58424819Y-17670588D02*
X58424819Y-17432493D01*
X58424819Y-17432493D02*
X58472438Y-17289636D01*
X58472438Y-17289636D02*
X58567676Y-17194398D01*
X58567676Y-17194398D02*
X58662914Y-17146779D01*
X58662914Y-17146779D02*
X58853390Y-17099160D01*
X58853390Y-17099160D02*
X58996247Y-17099160D01*
X58996247Y-17099160D02*
X59186723Y-17146779D01*
X59186723Y-17146779D02*
X59281961Y-17194398D01*
X59281961Y-17194398D02*
X59377200Y-17289636D01*
X59377200Y-17289636D02*
X59424819Y-17432493D01*
X59424819Y-17432493D02*
X59424819Y-17670588D01*
X55932438Y-19194398D02*
X55884819Y-19289636D01*
X55884819Y-19289636D02*
X55884819Y-19432493D01*
X55884819Y-19432493D02*
X55932438Y-19575350D01*
X55932438Y-19575350D02*
X56027676Y-19670588D01*
X56027676Y-19670588D02*
X56122914Y-19718207D01*
X56122914Y-19718207D02*
X56313390Y-19765826D01*
X56313390Y-19765826D02*
X56456247Y-19765826D01*
X56456247Y-19765826D02*
X56646723Y-19718207D01*
X56646723Y-19718207D02*
X56741961Y-19670588D01*
X56741961Y-19670588D02*
X56837200Y-19575350D01*
X56837200Y-19575350D02*
X56884819Y-19432493D01*
X56884819Y-19432493D02*
X56884819Y-19337255D01*
X56884819Y-19337255D02*
X56837200Y-19194398D01*
X56837200Y-19194398D02*
X56789580Y-19146779D01*
X56789580Y-19146779D02*
X56456247Y-19146779D01*
X56456247Y-19146779D02*
X56456247Y-19337255D01*
X56884819Y-18718207D02*
X55884819Y-18718207D01*
X55884819Y-18718207D02*
X56884819Y-18146779D01*
X56884819Y-18146779D02*
X55884819Y-18146779D01*
X56884819Y-17670588D02*
X55884819Y-17670588D01*
X55884819Y-17670588D02*
X55884819Y-17432493D01*
X55884819Y-17432493D02*
X55932438Y-17289636D01*
X55932438Y-17289636D02*
X56027676Y-17194398D01*
X56027676Y-17194398D02*
X56122914Y-17146779D01*
X56122914Y-17146779D02*
X56313390Y-17099160D01*
X56313390Y-17099160D02*
X56456247Y-17099160D01*
X56456247Y-17099160D02*
X56646723Y-17146779D01*
X56646723Y-17146779D02*
X56741961Y-17194398D01*
X56741961Y-17194398D02*
X56837200Y-17289636D01*
X56837200Y-17289636D02*
X56884819Y-17432493D01*
X56884819Y-17432493D02*
X56884819Y-17670588D01*
X33072438Y-21337255D02*
X33024819Y-21432493D01*
X33024819Y-21432493D02*
X33024819Y-21575350D01*
X33024819Y-21575350D02*
X33072438Y-21718207D01*
X33072438Y-21718207D02*
X33167676Y-21813445D01*
X33167676Y-21813445D02*
X33262914Y-21861064D01*
X33262914Y-21861064D02*
X33453390Y-21908683D01*
X33453390Y-21908683D02*
X33596247Y-21908683D01*
X33596247Y-21908683D02*
X33786723Y-21861064D01*
X33786723Y-21861064D02*
X33881961Y-21813445D01*
X33881961Y-21813445D02*
X33977200Y-21718207D01*
X33977200Y-21718207D02*
X34024819Y-21575350D01*
X34024819Y-21575350D02*
X34024819Y-21480112D01*
X34024819Y-21480112D02*
X33977200Y-21337255D01*
X33977200Y-21337255D02*
X33929580Y-21289636D01*
X33929580Y-21289636D02*
X33596247Y-21289636D01*
X33596247Y-21289636D02*
X33596247Y-21480112D01*
X34024819Y-20861064D02*
X33024819Y-20861064D01*
X33024819Y-20861064D02*
X33024819Y-20480112D01*
X33024819Y-20480112D02*
X33072438Y-20384874D01*
X33072438Y-20384874D02*
X33120057Y-20337255D01*
X33120057Y-20337255D02*
X33215295Y-20289636D01*
X33215295Y-20289636D02*
X33358152Y-20289636D01*
X33358152Y-20289636D02*
X33453390Y-20337255D01*
X33453390Y-20337255D02*
X33501009Y-20384874D01*
X33501009Y-20384874D02*
X33548628Y-20480112D01*
X33548628Y-20480112D02*
X33548628Y-20861064D01*
X34024819Y-19861064D02*
X33024819Y-19861064D01*
X33024819Y-19194398D02*
X33024819Y-19003922D01*
X33024819Y-19003922D02*
X33072438Y-18908684D01*
X33072438Y-18908684D02*
X33167676Y-18813446D01*
X33167676Y-18813446D02*
X33358152Y-18765827D01*
X33358152Y-18765827D02*
X33691485Y-18765827D01*
X33691485Y-18765827D02*
X33881961Y-18813446D01*
X33881961Y-18813446D02*
X33977200Y-18908684D01*
X33977200Y-18908684D02*
X34024819Y-19003922D01*
X34024819Y-19003922D02*
X34024819Y-19194398D01*
X34024819Y-19194398D02*
X33977200Y-19289636D01*
X33977200Y-19289636D02*
X33881961Y-19384874D01*
X33881961Y-19384874D02*
X33691485Y-19432493D01*
X33691485Y-19432493D02*
X33358152Y-19432493D01*
X33358152Y-19432493D02*
X33167676Y-19384874D01*
X33167676Y-19384874D02*
X33072438Y-19289636D01*
X33072438Y-19289636D02*
X33024819Y-19194398D01*
X33024819Y-18432493D02*
X33024819Y-17813446D01*
X33024819Y-17813446D02*
X33405771Y-18146779D01*
X33405771Y-18146779D02*
X33405771Y-18003922D01*
X33405771Y-18003922D02*
X33453390Y-17908684D01*
X33453390Y-17908684D02*
X33501009Y-17861065D01*
X33501009Y-17861065D02*
X33596247Y-17813446D01*
X33596247Y-17813446D02*
X33834342Y-17813446D01*
X33834342Y-17813446D02*
X33929580Y-17861065D01*
X33929580Y-17861065D02*
X33977200Y-17908684D01*
X33977200Y-17908684D02*
X34024819Y-18003922D01*
X34024819Y-18003922D02*
X34024819Y-18289636D01*
X34024819Y-18289636D02*
X33977200Y-18384874D01*
X33977200Y-18384874D02*
X33929580Y-18432493D01*
X33643866Y-17527731D02*
X33596247Y-17480112D01*
X33596247Y-17480112D02*
X33548628Y-17384874D01*
X33548628Y-17384874D02*
X33643866Y-17194398D01*
X33643866Y-17194398D02*
X33596247Y-17099160D01*
X33596247Y-17099160D02*
X33548628Y-17051541D01*
X40692438Y-36269411D02*
X40644819Y-36364649D01*
X40644819Y-36364649D02*
X40644819Y-36507506D01*
X40644819Y-36507506D02*
X40692438Y-36650363D01*
X40692438Y-36650363D02*
X40787676Y-36745601D01*
X40787676Y-36745601D02*
X40882914Y-36793220D01*
X40882914Y-36793220D02*
X41073390Y-36840839D01*
X41073390Y-36840839D02*
X41216247Y-36840839D01*
X41216247Y-36840839D02*
X41406723Y-36793220D01*
X41406723Y-36793220D02*
X41501961Y-36745601D01*
X41501961Y-36745601D02*
X41597200Y-36650363D01*
X41597200Y-36650363D02*
X41644819Y-36507506D01*
X41644819Y-36507506D02*
X41644819Y-36412268D01*
X41644819Y-36412268D02*
X41597200Y-36269411D01*
X41597200Y-36269411D02*
X41549580Y-36221792D01*
X41549580Y-36221792D02*
X41216247Y-36221792D01*
X41216247Y-36221792D02*
X41216247Y-36412268D01*
X41644819Y-35793220D02*
X40644819Y-35793220D01*
X40644819Y-35793220D02*
X40644819Y-35412268D01*
X40644819Y-35412268D02*
X40692438Y-35317030D01*
X40692438Y-35317030D02*
X40740057Y-35269411D01*
X40740057Y-35269411D02*
X40835295Y-35221792D01*
X40835295Y-35221792D02*
X40978152Y-35221792D01*
X40978152Y-35221792D02*
X41073390Y-35269411D01*
X41073390Y-35269411D02*
X41121009Y-35317030D01*
X41121009Y-35317030D02*
X41168628Y-35412268D01*
X41168628Y-35412268D02*
X41168628Y-35793220D01*
X41644819Y-34793220D02*
X40644819Y-34793220D01*
X40644819Y-34126554D02*
X40644819Y-33936078D01*
X40644819Y-33936078D02*
X40692438Y-33840840D01*
X40692438Y-33840840D02*
X40787676Y-33745602D01*
X40787676Y-33745602D02*
X40978152Y-33697983D01*
X40978152Y-33697983D02*
X41311485Y-33697983D01*
X41311485Y-33697983D02*
X41501961Y-33745602D01*
X41501961Y-33745602D02*
X41597200Y-33840840D01*
X41597200Y-33840840D02*
X41644819Y-33936078D01*
X41644819Y-33936078D02*
X41644819Y-34126554D01*
X41644819Y-34126554D02*
X41597200Y-34221792D01*
X41597200Y-34221792D02*
X41501961Y-34317030D01*
X41501961Y-34317030D02*
X41311485Y-34364649D01*
X41311485Y-34364649D02*
X40978152Y-34364649D01*
X40978152Y-34364649D02*
X40787676Y-34317030D01*
X40787676Y-34317030D02*
X40692438Y-34221792D01*
X40692438Y-34221792D02*
X40644819Y-34126554D01*
X40644819Y-32840840D02*
X40644819Y-33031316D01*
X40644819Y-33031316D02*
X40692438Y-33126554D01*
X40692438Y-33126554D02*
X40740057Y-33174173D01*
X40740057Y-33174173D02*
X40882914Y-33269411D01*
X40882914Y-33269411D02*
X41073390Y-33317030D01*
X41073390Y-33317030D02*
X41454342Y-33317030D01*
X41454342Y-33317030D02*
X41549580Y-33269411D01*
X41549580Y-33269411D02*
X41597200Y-33221792D01*
X41597200Y-33221792D02*
X41644819Y-33126554D01*
X41644819Y-33126554D02*
X41644819Y-32936078D01*
X41644819Y-32936078D02*
X41597200Y-32840840D01*
X41597200Y-32840840D02*
X41549580Y-32793221D01*
X41549580Y-32793221D02*
X41454342Y-32745602D01*
X41454342Y-32745602D02*
X41216247Y-32745602D01*
X41216247Y-32745602D02*
X41121009Y-32793221D01*
X41121009Y-32793221D02*
X41073390Y-32840840D01*
X41073390Y-32840840D02*
X41025771Y-32936078D01*
X41025771Y-32936078D02*
X41025771Y-33126554D01*
X41025771Y-33126554D02*
X41073390Y-33221792D01*
X41073390Y-33221792D02*
X41121009Y-33269411D01*
X41121009Y-33269411D02*
X41216247Y-33317030D01*
X41263866Y-32459887D02*
X41216247Y-32412268D01*
X41216247Y-32412268D02*
X41168628Y-32317030D01*
X41168628Y-32317030D02*
X41263866Y-32126554D01*
X41263866Y-32126554D02*
X41216247Y-32031316D01*
X41216247Y-32031316D02*
X41168628Y-31983697D01*
X38152438Y-36269411D02*
X38104819Y-36364649D01*
X38104819Y-36364649D02*
X38104819Y-36507506D01*
X38104819Y-36507506D02*
X38152438Y-36650363D01*
X38152438Y-36650363D02*
X38247676Y-36745601D01*
X38247676Y-36745601D02*
X38342914Y-36793220D01*
X38342914Y-36793220D02*
X38533390Y-36840839D01*
X38533390Y-36840839D02*
X38676247Y-36840839D01*
X38676247Y-36840839D02*
X38866723Y-36793220D01*
X38866723Y-36793220D02*
X38961961Y-36745601D01*
X38961961Y-36745601D02*
X39057200Y-36650363D01*
X39057200Y-36650363D02*
X39104819Y-36507506D01*
X39104819Y-36507506D02*
X39104819Y-36412268D01*
X39104819Y-36412268D02*
X39057200Y-36269411D01*
X39057200Y-36269411D02*
X39009580Y-36221792D01*
X39009580Y-36221792D02*
X38676247Y-36221792D01*
X38676247Y-36221792D02*
X38676247Y-36412268D01*
X39104819Y-35793220D02*
X38104819Y-35793220D01*
X38104819Y-35793220D02*
X38104819Y-35412268D01*
X38104819Y-35412268D02*
X38152438Y-35317030D01*
X38152438Y-35317030D02*
X38200057Y-35269411D01*
X38200057Y-35269411D02*
X38295295Y-35221792D01*
X38295295Y-35221792D02*
X38438152Y-35221792D01*
X38438152Y-35221792D02*
X38533390Y-35269411D01*
X38533390Y-35269411D02*
X38581009Y-35317030D01*
X38581009Y-35317030D02*
X38628628Y-35412268D01*
X38628628Y-35412268D02*
X38628628Y-35793220D01*
X39104819Y-34793220D02*
X38104819Y-34793220D01*
X38104819Y-34126554D02*
X38104819Y-33936078D01*
X38104819Y-33936078D02*
X38152438Y-33840840D01*
X38152438Y-33840840D02*
X38247676Y-33745602D01*
X38247676Y-33745602D02*
X38438152Y-33697983D01*
X38438152Y-33697983D02*
X38771485Y-33697983D01*
X38771485Y-33697983D02*
X38961961Y-33745602D01*
X38961961Y-33745602D02*
X39057200Y-33840840D01*
X39057200Y-33840840D02*
X39104819Y-33936078D01*
X39104819Y-33936078D02*
X39104819Y-34126554D01*
X39104819Y-34126554D02*
X39057200Y-34221792D01*
X39057200Y-34221792D02*
X38961961Y-34317030D01*
X38961961Y-34317030D02*
X38771485Y-34364649D01*
X38771485Y-34364649D02*
X38438152Y-34364649D01*
X38438152Y-34364649D02*
X38247676Y-34317030D01*
X38247676Y-34317030D02*
X38152438Y-34221792D01*
X38152438Y-34221792D02*
X38104819Y-34126554D01*
X38104819Y-32793221D02*
X38104819Y-33269411D01*
X38104819Y-33269411D02*
X38581009Y-33317030D01*
X38581009Y-33317030D02*
X38533390Y-33269411D01*
X38533390Y-33269411D02*
X38485771Y-33174173D01*
X38485771Y-33174173D02*
X38485771Y-32936078D01*
X38485771Y-32936078D02*
X38533390Y-32840840D01*
X38533390Y-32840840D02*
X38581009Y-32793221D01*
X38581009Y-32793221D02*
X38676247Y-32745602D01*
X38676247Y-32745602D02*
X38914342Y-32745602D01*
X38914342Y-32745602D02*
X39009580Y-32793221D01*
X39009580Y-32793221D02*
X39057200Y-32840840D01*
X39057200Y-32840840D02*
X39104819Y-32936078D01*
X39104819Y-32936078D02*
X39104819Y-33174173D01*
X39104819Y-33174173D02*
X39057200Y-33269411D01*
X39057200Y-33269411D02*
X39009580Y-33317030D01*
X38723866Y-32459887D02*
X38676247Y-32412268D01*
X38676247Y-32412268D02*
X38628628Y-32317030D01*
X38628628Y-32317030D02*
X38723866Y-32126554D01*
X38723866Y-32126554D02*
X38676247Y-32031316D01*
X38676247Y-32031316D02*
X38628628Y-31983697D01*
X48312438Y-19194398D02*
X48264819Y-19289636D01*
X48264819Y-19289636D02*
X48264819Y-19432493D01*
X48264819Y-19432493D02*
X48312438Y-19575350D01*
X48312438Y-19575350D02*
X48407676Y-19670588D01*
X48407676Y-19670588D02*
X48502914Y-19718207D01*
X48502914Y-19718207D02*
X48693390Y-19765826D01*
X48693390Y-19765826D02*
X48836247Y-19765826D01*
X48836247Y-19765826D02*
X49026723Y-19718207D01*
X49026723Y-19718207D02*
X49121961Y-19670588D01*
X49121961Y-19670588D02*
X49217200Y-19575350D01*
X49217200Y-19575350D02*
X49264819Y-19432493D01*
X49264819Y-19432493D02*
X49264819Y-19337255D01*
X49264819Y-19337255D02*
X49217200Y-19194398D01*
X49217200Y-19194398D02*
X49169580Y-19146779D01*
X49169580Y-19146779D02*
X48836247Y-19146779D01*
X48836247Y-19146779D02*
X48836247Y-19337255D01*
X49264819Y-18718207D02*
X48264819Y-18718207D01*
X48264819Y-18718207D02*
X49264819Y-18146779D01*
X49264819Y-18146779D02*
X48264819Y-18146779D01*
X49264819Y-17670588D02*
X48264819Y-17670588D01*
X48264819Y-17670588D02*
X48264819Y-17432493D01*
X48264819Y-17432493D02*
X48312438Y-17289636D01*
X48312438Y-17289636D02*
X48407676Y-17194398D01*
X48407676Y-17194398D02*
X48502914Y-17146779D01*
X48502914Y-17146779D02*
X48693390Y-17099160D01*
X48693390Y-17099160D02*
X48836247Y-17099160D01*
X48836247Y-17099160D02*
X49026723Y-17146779D01*
X49026723Y-17146779D02*
X49121961Y-17194398D01*
X49121961Y-17194398D02*
X49217200Y-17289636D01*
X49217200Y-17289636D02*
X49264819Y-17432493D01*
X49264819Y-17432493D02*
X49264819Y-17670588D01*
X50852438Y-28622969D02*
X50804819Y-28718207D01*
X50804819Y-28718207D02*
X50804819Y-28861064D01*
X50804819Y-28861064D02*
X50852438Y-29003921D01*
X50852438Y-29003921D02*
X50947676Y-29099159D01*
X50947676Y-29099159D02*
X51042914Y-29146778D01*
X51042914Y-29146778D02*
X51233390Y-29194397D01*
X51233390Y-29194397D02*
X51376247Y-29194397D01*
X51376247Y-29194397D02*
X51566723Y-29146778D01*
X51566723Y-29146778D02*
X51661961Y-29099159D01*
X51661961Y-29099159D02*
X51757200Y-29003921D01*
X51757200Y-29003921D02*
X51804819Y-28861064D01*
X51804819Y-28861064D02*
X51804819Y-28765826D01*
X51804819Y-28765826D02*
X51757200Y-28622969D01*
X51757200Y-28622969D02*
X51709580Y-28575350D01*
X51709580Y-28575350D02*
X51376247Y-28575350D01*
X51376247Y-28575350D02*
X51376247Y-28765826D01*
X51804819Y-28146778D02*
X50804819Y-28146778D01*
X50804819Y-28146778D02*
X50804819Y-27765826D01*
X50804819Y-27765826D02*
X50852438Y-27670588D01*
X50852438Y-27670588D02*
X50900057Y-27622969D01*
X50900057Y-27622969D02*
X50995295Y-27575350D01*
X50995295Y-27575350D02*
X51138152Y-27575350D01*
X51138152Y-27575350D02*
X51233390Y-27622969D01*
X51233390Y-27622969D02*
X51281009Y-27670588D01*
X51281009Y-27670588D02*
X51328628Y-27765826D01*
X51328628Y-27765826D02*
X51328628Y-28146778D01*
X51804819Y-27146778D02*
X50804819Y-27146778D01*
X50804819Y-26480112D02*
X50804819Y-26289636D01*
X50804819Y-26289636D02*
X50852438Y-26194398D01*
X50852438Y-26194398D02*
X50947676Y-26099160D01*
X50947676Y-26099160D02*
X51138152Y-26051541D01*
X51138152Y-26051541D02*
X51471485Y-26051541D01*
X51471485Y-26051541D02*
X51661961Y-26099160D01*
X51661961Y-26099160D02*
X51757200Y-26194398D01*
X51757200Y-26194398D02*
X51804819Y-26289636D01*
X51804819Y-26289636D02*
X51804819Y-26480112D01*
X51804819Y-26480112D02*
X51757200Y-26575350D01*
X51757200Y-26575350D02*
X51661961Y-26670588D01*
X51661961Y-26670588D02*
X51471485Y-26718207D01*
X51471485Y-26718207D02*
X51138152Y-26718207D01*
X51138152Y-26718207D02*
X50947676Y-26670588D01*
X50947676Y-26670588D02*
X50852438Y-26575350D01*
X50852438Y-26575350D02*
X50804819Y-26480112D01*
X51804819Y-25099160D02*
X51804819Y-25670588D01*
X51804819Y-25384874D02*
X50804819Y-25384874D01*
X50804819Y-25384874D02*
X50947676Y-25480112D01*
X50947676Y-25480112D02*
X51042914Y-25575350D01*
X51042914Y-25575350D02*
X51090533Y-25670588D01*
X51233390Y-24527731D02*
X51185771Y-24622969D01*
X51185771Y-24622969D02*
X51138152Y-24670588D01*
X51138152Y-24670588D02*
X51042914Y-24718207D01*
X51042914Y-24718207D02*
X50995295Y-24718207D01*
X50995295Y-24718207D02*
X50900057Y-24670588D01*
X50900057Y-24670588D02*
X50852438Y-24622969D01*
X50852438Y-24622969D02*
X50804819Y-24527731D01*
X50804819Y-24527731D02*
X50804819Y-24337255D01*
X50804819Y-24337255D02*
X50852438Y-24242017D01*
X50852438Y-24242017D02*
X50900057Y-24194398D01*
X50900057Y-24194398D02*
X50995295Y-24146779D01*
X50995295Y-24146779D02*
X51042914Y-24146779D01*
X51042914Y-24146779D02*
X51138152Y-24194398D01*
X51138152Y-24194398D02*
X51185771Y-24242017D01*
X51185771Y-24242017D02*
X51233390Y-24337255D01*
X51233390Y-24337255D02*
X51233390Y-24527731D01*
X51233390Y-24527731D02*
X51281009Y-24622969D01*
X51281009Y-24622969D02*
X51328628Y-24670588D01*
X51328628Y-24670588D02*
X51423866Y-24718207D01*
X51423866Y-24718207D02*
X51614342Y-24718207D01*
X51614342Y-24718207D02*
X51709580Y-24670588D01*
X51709580Y-24670588D02*
X51757200Y-24622969D01*
X51757200Y-24622969D02*
X51804819Y-24527731D01*
X51804819Y-24527731D02*
X51804819Y-24337255D01*
X51804819Y-24337255D02*
X51757200Y-24242017D01*
X51757200Y-24242017D02*
X51709580Y-24194398D01*
X51709580Y-24194398D02*
X51614342Y-24146779D01*
X51614342Y-24146779D02*
X51423866Y-24146779D01*
X51423866Y-24146779D02*
X51328628Y-24194398D01*
X51328628Y-24194398D02*
X51281009Y-24242017D01*
X51281009Y-24242017D02*
X51233390Y-24337255D01*
X50757200Y-23003922D02*
X52042914Y-23861064D01*
X50804819Y-22670588D02*
X51614342Y-22670588D01*
X51614342Y-22670588D02*
X51709580Y-22622969D01*
X51709580Y-22622969D02*
X51757200Y-22575350D01*
X51757200Y-22575350D02*
X51804819Y-22480112D01*
X51804819Y-22480112D02*
X51804819Y-22289636D01*
X51804819Y-22289636D02*
X51757200Y-22194398D01*
X51757200Y-22194398D02*
X51709580Y-22146779D01*
X51709580Y-22146779D02*
X51614342Y-22099160D01*
X51614342Y-22099160D02*
X50804819Y-22099160D01*
X51757200Y-21670588D02*
X51804819Y-21527731D01*
X51804819Y-21527731D02*
X51804819Y-21289636D01*
X51804819Y-21289636D02*
X51757200Y-21194398D01*
X51757200Y-21194398D02*
X51709580Y-21146779D01*
X51709580Y-21146779D02*
X51614342Y-21099160D01*
X51614342Y-21099160D02*
X51519104Y-21099160D01*
X51519104Y-21099160D02*
X51423866Y-21146779D01*
X51423866Y-21146779D02*
X51376247Y-21194398D01*
X51376247Y-21194398D02*
X51328628Y-21289636D01*
X51328628Y-21289636D02*
X51281009Y-21480112D01*
X51281009Y-21480112D02*
X51233390Y-21575350D01*
X51233390Y-21575350D02*
X51185771Y-21622969D01*
X51185771Y-21622969D02*
X51090533Y-21670588D01*
X51090533Y-21670588D02*
X50995295Y-21670588D01*
X50995295Y-21670588D02*
X50900057Y-21622969D01*
X50900057Y-21622969D02*
X50852438Y-21575350D01*
X50852438Y-21575350D02*
X50804819Y-21480112D01*
X50804819Y-21480112D02*
X50804819Y-21242017D01*
X50804819Y-21242017D02*
X50852438Y-21099160D01*
X51281009Y-20337255D02*
X51328628Y-20194398D01*
X51328628Y-20194398D02*
X51376247Y-20146779D01*
X51376247Y-20146779D02*
X51471485Y-20099160D01*
X51471485Y-20099160D02*
X51614342Y-20099160D01*
X51614342Y-20099160D02*
X51709580Y-20146779D01*
X51709580Y-20146779D02*
X51757200Y-20194398D01*
X51757200Y-20194398D02*
X51804819Y-20289636D01*
X51804819Y-20289636D02*
X51804819Y-20670588D01*
X51804819Y-20670588D02*
X50804819Y-20670588D01*
X50804819Y-20670588D02*
X50804819Y-20337255D01*
X50804819Y-20337255D02*
X50852438Y-20242017D01*
X50852438Y-20242017D02*
X50900057Y-20194398D01*
X50900057Y-20194398D02*
X50995295Y-20146779D01*
X50995295Y-20146779D02*
X51090533Y-20146779D01*
X51090533Y-20146779D02*
X51185771Y-20194398D01*
X51185771Y-20194398D02*
X51233390Y-20242017D01*
X51233390Y-20242017D02*
X51281009Y-20337255D01*
X51281009Y-20337255D02*
X51281009Y-20670588D01*
X51900057Y-19908684D02*
X51900057Y-19146779D01*
X51804819Y-18908683D02*
X50804819Y-18908683D01*
X50804819Y-18908683D02*
X50804819Y-18670588D01*
X50804819Y-18670588D02*
X50852438Y-18527731D01*
X50852438Y-18527731D02*
X50947676Y-18432493D01*
X50947676Y-18432493D02*
X51042914Y-18384874D01*
X51042914Y-18384874D02*
X51233390Y-18337255D01*
X51233390Y-18337255D02*
X51376247Y-18337255D01*
X51376247Y-18337255D02*
X51566723Y-18384874D01*
X51566723Y-18384874D02*
X51661961Y-18432493D01*
X51661961Y-18432493D02*
X51757200Y-18527731D01*
X51757200Y-18527731D02*
X51804819Y-18670588D01*
X51804819Y-18670588D02*
X51804819Y-18908683D01*
X51423866Y-17908683D02*
X51423866Y-17146779D01*
X53344819Y-36317030D02*
X53344819Y-36793220D01*
X53344819Y-36793220D02*
X53821009Y-36840839D01*
X53821009Y-36840839D02*
X53773390Y-36793220D01*
X53773390Y-36793220D02*
X53725771Y-36697982D01*
X53725771Y-36697982D02*
X53725771Y-36459887D01*
X53725771Y-36459887D02*
X53773390Y-36364649D01*
X53773390Y-36364649D02*
X53821009Y-36317030D01*
X53821009Y-36317030D02*
X53916247Y-36269411D01*
X53916247Y-36269411D02*
X54154342Y-36269411D01*
X54154342Y-36269411D02*
X54249580Y-36317030D01*
X54249580Y-36317030D02*
X54297200Y-36364649D01*
X54297200Y-36364649D02*
X54344819Y-36459887D01*
X54344819Y-36459887D02*
X54344819Y-36697982D01*
X54344819Y-36697982D02*
X54297200Y-36793220D01*
X54297200Y-36793220D02*
X54249580Y-36840839D01*
X53344819Y-35983696D02*
X54344819Y-35650363D01*
X54344819Y-35650363D02*
X53344819Y-35317030D01*
X19371504Y-29661904D02*
X19371504Y-29185714D01*
X19657219Y-29757142D02*
X18657219Y-29423809D01*
X18657219Y-29423809D02*
X19657219Y-29090476D01*
X18990552Y-28757142D02*
X19657219Y-28757142D01*
X19085790Y-28757142D02*
X19038171Y-28709523D01*
X19038171Y-28709523D02*
X18990552Y-28614285D01*
X18990552Y-28614285D02*
X18990552Y-28471428D01*
X18990552Y-28471428D02*
X19038171Y-28376190D01*
X19038171Y-28376190D02*
X19133409Y-28328571D01*
X19133409Y-28328571D02*
X19657219Y-28328571D01*
X18990552Y-27995237D02*
X18990552Y-27614285D01*
X18657219Y-27852380D02*
X19514361Y-27852380D01*
X19514361Y-27852380D02*
X19609600Y-27804761D01*
X19609600Y-27804761D02*
X19657219Y-27709523D01*
X19657219Y-27709523D02*
X19657219Y-27614285D01*
X19609600Y-26899999D02*
X19657219Y-26995237D01*
X19657219Y-26995237D02*
X19657219Y-27185713D01*
X19657219Y-27185713D02*
X19609600Y-27280951D01*
X19609600Y-27280951D02*
X19514361Y-27328570D01*
X19514361Y-27328570D02*
X19133409Y-27328570D01*
X19133409Y-27328570D02*
X19038171Y-27280951D01*
X19038171Y-27280951D02*
X18990552Y-27185713D01*
X18990552Y-27185713D02*
X18990552Y-26995237D01*
X18990552Y-26995237D02*
X19038171Y-26899999D01*
X19038171Y-26899999D02*
X19133409Y-26852380D01*
X19133409Y-26852380D02*
X19228647Y-26852380D01*
X19228647Y-26852380D02*
X19323885Y-27328570D01*
X18990552Y-26423808D02*
X19657219Y-26423808D01*
X19085790Y-26423808D02*
X19038171Y-26376189D01*
X19038171Y-26376189D02*
X18990552Y-26280951D01*
X18990552Y-26280951D02*
X18990552Y-26138094D01*
X18990552Y-26138094D02*
X19038171Y-26042856D01*
X19038171Y-26042856D02*
X19133409Y-25995237D01*
X19133409Y-25995237D02*
X19657219Y-25995237D01*
X18990552Y-25519046D02*
X19657219Y-25519046D01*
X19085790Y-25519046D02*
X19038171Y-25471427D01*
X19038171Y-25471427D02*
X18990552Y-25376189D01*
X18990552Y-25376189D02*
X18990552Y-25233332D01*
X18990552Y-25233332D02*
X19038171Y-25138094D01*
X19038171Y-25138094D02*
X19133409Y-25090475D01*
X19133409Y-25090475D02*
X19657219Y-25090475D01*
X19657219Y-24185713D02*
X19133409Y-24185713D01*
X19133409Y-24185713D02*
X19038171Y-24233332D01*
X19038171Y-24233332D02*
X18990552Y-24328570D01*
X18990552Y-24328570D02*
X18990552Y-24519046D01*
X18990552Y-24519046D02*
X19038171Y-24614284D01*
X19609600Y-24185713D02*
X19657219Y-24280951D01*
X19657219Y-24280951D02*
X19657219Y-24519046D01*
X19657219Y-24519046D02*
X19609600Y-24614284D01*
X19609600Y-24614284D02*
X19514361Y-24661903D01*
X19514361Y-24661903D02*
X19419123Y-24661903D01*
X19419123Y-24661903D02*
X19323885Y-24614284D01*
X19323885Y-24614284D02*
X19276266Y-24519046D01*
X19276266Y-24519046D02*
X19276266Y-24280951D01*
X19276266Y-24280951D02*
X19228647Y-24185713D01*
X55884819Y-36317030D02*
X55884819Y-36793220D01*
X55884819Y-36793220D02*
X56361009Y-36840839D01*
X56361009Y-36840839D02*
X56313390Y-36793220D01*
X56313390Y-36793220D02*
X56265771Y-36697982D01*
X56265771Y-36697982D02*
X56265771Y-36459887D01*
X56265771Y-36459887D02*
X56313390Y-36364649D01*
X56313390Y-36364649D02*
X56361009Y-36317030D01*
X56361009Y-36317030D02*
X56456247Y-36269411D01*
X56456247Y-36269411D02*
X56694342Y-36269411D01*
X56694342Y-36269411D02*
X56789580Y-36317030D01*
X56789580Y-36317030D02*
X56837200Y-36364649D01*
X56837200Y-36364649D02*
X56884819Y-36459887D01*
X56884819Y-36459887D02*
X56884819Y-36697982D01*
X56884819Y-36697982D02*
X56837200Y-36793220D01*
X56837200Y-36793220D02*
X56789580Y-36840839D01*
X55884819Y-35983696D02*
X56884819Y-35650363D01*
X56884819Y-35650363D02*
X55884819Y-35317030D01*
X48312438Y-36269411D02*
X48264819Y-36364649D01*
X48264819Y-36364649D02*
X48264819Y-36507506D01*
X48264819Y-36507506D02*
X48312438Y-36650363D01*
X48312438Y-36650363D02*
X48407676Y-36745601D01*
X48407676Y-36745601D02*
X48502914Y-36793220D01*
X48502914Y-36793220D02*
X48693390Y-36840839D01*
X48693390Y-36840839D02*
X48836247Y-36840839D01*
X48836247Y-36840839D02*
X49026723Y-36793220D01*
X49026723Y-36793220D02*
X49121961Y-36745601D01*
X49121961Y-36745601D02*
X49217200Y-36650363D01*
X49217200Y-36650363D02*
X49264819Y-36507506D01*
X49264819Y-36507506D02*
X49264819Y-36412268D01*
X49264819Y-36412268D02*
X49217200Y-36269411D01*
X49217200Y-36269411D02*
X49169580Y-36221792D01*
X49169580Y-36221792D02*
X48836247Y-36221792D01*
X48836247Y-36221792D02*
X48836247Y-36412268D01*
X49264819Y-35793220D02*
X48264819Y-35793220D01*
X48264819Y-35793220D02*
X48264819Y-35412268D01*
X48264819Y-35412268D02*
X48312438Y-35317030D01*
X48312438Y-35317030D02*
X48360057Y-35269411D01*
X48360057Y-35269411D02*
X48455295Y-35221792D01*
X48455295Y-35221792D02*
X48598152Y-35221792D01*
X48598152Y-35221792D02*
X48693390Y-35269411D01*
X48693390Y-35269411D02*
X48741009Y-35317030D01*
X48741009Y-35317030D02*
X48788628Y-35412268D01*
X48788628Y-35412268D02*
X48788628Y-35793220D01*
X49264819Y-34793220D02*
X48264819Y-34793220D01*
X48264819Y-34126554D02*
X48264819Y-33936078D01*
X48264819Y-33936078D02*
X48312438Y-33840840D01*
X48312438Y-33840840D02*
X48407676Y-33745602D01*
X48407676Y-33745602D02*
X48598152Y-33697983D01*
X48598152Y-33697983D02*
X48931485Y-33697983D01*
X48931485Y-33697983D02*
X49121961Y-33745602D01*
X49121961Y-33745602D02*
X49217200Y-33840840D01*
X49217200Y-33840840D02*
X49264819Y-33936078D01*
X49264819Y-33936078D02*
X49264819Y-34126554D01*
X49264819Y-34126554D02*
X49217200Y-34221792D01*
X49217200Y-34221792D02*
X49121961Y-34317030D01*
X49121961Y-34317030D02*
X48931485Y-34364649D01*
X48931485Y-34364649D02*
X48598152Y-34364649D01*
X48598152Y-34364649D02*
X48407676Y-34317030D01*
X48407676Y-34317030D02*
X48312438Y-34221792D01*
X48312438Y-34221792D02*
X48264819Y-34126554D01*
X48693390Y-33126554D02*
X48645771Y-33221792D01*
X48645771Y-33221792D02*
X48598152Y-33269411D01*
X48598152Y-33269411D02*
X48502914Y-33317030D01*
X48502914Y-33317030D02*
X48455295Y-33317030D01*
X48455295Y-33317030D02*
X48360057Y-33269411D01*
X48360057Y-33269411D02*
X48312438Y-33221792D01*
X48312438Y-33221792D02*
X48264819Y-33126554D01*
X48264819Y-33126554D02*
X48264819Y-32936078D01*
X48264819Y-32936078D02*
X48312438Y-32840840D01*
X48312438Y-32840840D02*
X48360057Y-32793221D01*
X48360057Y-32793221D02*
X48455295Y-32745602D01*
X48455295Y-32745602D02*
X48502914Y-32745602D01*
X48502914Y-32745602D02*
X48598152Y-32793221D01*
X48598152Y-32793221D02*
X48645771Y-32840840D01*
X48645771Y-32840840D02*
X48693390Y-32936078D01*
X48693390Y-32936078D02*
X48693390Y-33126554D01*
X48693390Y-33126554D02*
X48741009Y-33221792D01*
X48741009Y-33221792D02*
X48788628Y-33269411D01*
X48788628Y-33269411D02*
X48883866Y-33317030D01*
X48883866Y-33317030D02*
X49074342Y-33317030D01*
X49074342Y-33317030D02*
X49169580Y-33269411D01*
X49169580Y-33269411D02*
X49217200Y-33221792D01*
X49217200Y-33221792D02*
X49264819Y-33126554D01*
X49264819Y-33126554D02*
X49264819Y-32936078D01*
X49264819Y-32936078D02*
X49217200Y-32840840D01*
X49217200Y-32840840D02*
X49169580Y-32793221D01*
X49169580Y-32793221D02*
X49074342Y-32745602D01*
X49074342Y-32745602D02*
X48883866Y-32745602D01*
X48883866Y-32745602D02*
X48788628Y-32793221D01*
X48788628Y-32793221D02*
X48741009Y-32840840D01*
X48741009Y-32840840D02*
X48693390Y-32936078D01*
X48883866Y-32459887D02*
X48836247Y-32412268D01*
X48836247Y-32412268D02*
X48788628Y-32317030D01*
X48788628Y-32317030D02*
X48883866Y-32126554D01*
X48883866Y-32126554D02*
X48836247Y-32031316D01*
X48836247Y-32031316D02*
X48788628Y-31983697D01*
X35612438Y-36269411D02*
X35564819Y-36364649D01*
X35564819Y-36364649D02*
X35564819Y-36507506D01*
X35564819Y-36507506D02*
X35612438Y-36650363D01*
X35612438Y-36650363D02*
X35707676Y-36745601D01*
X35707676Y-36745601D02*
X35802914Y-36793220D01*
X35802914Y-36793220D02*
X35993390Y-36840839D01*
X35993390Y-36840839D02*
X36136247Y-36840839D01*
X36136247Y-36840839D02*
X36326723Y-36793220D01*
X36326723Y-36793220D02*
X36421961Y-36745601D01*
X36421961Y-36745601D02*
X36517200Y-36650363D01*
X36517200Y-36650363D02*
X36564819Y-36507506D01*
X36564819Y-36507506D02*
X36564819Y-36412268D01*
X36564819Y-36412268D02*
X36517200Y-36269411D01*
X36517200Y-36269411D02*
X36469580Y-36221792D01*
X36469580Y-36221792D02*
X36136247Y-36221792D01*
X36136247Y-36221792D02*
X36136247Y-36412268D01*
X36564819Y-35793220D02*
X35564819Y-35793220D01*
X35564819Y-35793220D02*
X35564819Y-35412268D01*
X35564819Y-35412268D02*
X35612438Y-35317030D01*
X35612438Y-35317030D02*
X35660057Y-35269411D01*
X35660057Y-35269411D02*
X35755295Y-35221792D01*
X35755295Y-35221792D02*
X35898152Y-35221792D01*
X35898152Y-35221792D02*
X35993390Y-35269411D01*
X35993390Y-35269411D02*
X36041009Y-35317030D01*
X36041009Y-35317030D02*
X36088628Y-35412268D01*
X36088628Y-35412268D02*
X36088628Y-35793220D01*
X36564819Y-34793220D02*
X35564819Y-34793220D01*
X35564819Y-34126554D02*
X35564819Y-33936078D01*
X35564819Y-33936078D02*
X35612438Y-33840840D01*
X35612438Y-33840840D02*
X35707676Y-33745602D01*
X35707676Y-33745602D02*
X35898152Y-33697983D01*
X35898152Y-33697983D02*
X36231485Y-33697983D01*
X36231485Y-33697983D02*
X36421961Y-33745602D01*
X36421961Y-33745602D02*
X36517200Y-33840840D01*
X36517200Y-33840840D02*
X36564819Y-33936078D01*
X36564819Y-33936078D02*
X36564819Y-34126554D01*
X36564819Y-34126554D02*
X36517200Y-34221792D01*
X36517200Y-34221792D02*
X36421961Y-34317030D01*
X36421961Y-34317030D02*
X36231485Y-34364649D01*
X36231485Y-34364649D02*
X35898152Y-34364649D01*
X35898152Y-34364649D02*
X35707676Y-34317030D01*
X35707676Y-34317030D02*
X35612438Y-34221792D01*
X35612438Y-34221792D02*
X35564819Y-34126554D01*
X35898152Y-32840840D02*
X36564819Y-32840840D01*
X35517200Y-33078935D02*
X36231485Y-33317030D01*
X36231485Y-33317030D02*
X36231485Y-32697983D01*
X36183866Y-32459887D02*
X36136247Y-32412268D01*
X36136247Y-32412268D02*
X36088628Y-32317030D01*
X36088628Y-32317030D02*
X36183866Y-32126554D01*
X36183866Y-32126554D02*
X36136247Y-32031316D01*
X36136247Y-32031316D02*
X36088628Y-31983697D01*
X50852438Y-36269411D02*
X50804819Y-36364649D01*
X50804819Y-36364649D02*
X50804819Y-36507506D01*
X50804819Y-36507506D02*
X50852438Y-36650363D01*
X50852438Y-36650363D02*
X50947676Y-36745601D01*
X50947676Y-36745601D02*
X51042914Y-36793220D01*
X51042914Y-36793220D02*
X51233390Y-36840839D01*
X51233390Y-36840839D02*
X51376247Y-36840839D01*
X51376247Y-36840839D02*
X51566723Y-36793220D01*
X51566723Y-36793220D02*
X51661961Y-36745601D01*
X51661961Y-36745601D02*
X51757200Y-36650363D01*
X51757200Y-36650363D02*
X51804819Y-36507506D01*
X51804819Y-36507506D02*
X51804819Y-36412268D01*
X51804819Y-36412268D02*
X51757200Y-36269411D01*
X51757200Y-36269411D02*
X51709580Y-36221792D01*
X51709580Y-36221792D02*
X51376247Y-36221792D01*
X51376247Y-36221792D02*
X51376247Y-36412268D01*
X51804819Y-35793220D02*
X50804819Y-35793220D01*
X50804819Y-35793220D02*
X50804819Y-35412268D01*
X50804819Y-35412268D02*
X50852438Y-35317030D01*
X50852438Y-35317030D02*
X50900057Y-35269411D01*
X50900057Y-35269411D02*
X50995295Y-35221792D01*
X50995295Y-35221792D02*
X51138152Y-35221792D01*
X51138152Y-35221792D02*
X51233390Y-35269411D01*
X51233390Y-35269411D02*
X51281009Y-35317030D01*
X51281009Y-35317030D02*
X51328628Y-35412268D01*
X51328628Y-35412268D02*
X51328628Y-35793220D01*
X51804819Y-34793220D02*
X50804819Y-34793220D01*
X50804819Y-34126554D02*
X50804819Y-33936078D01*
X50804819Y-33936078D02*
X50852438Y-33840840D01*
X50852438Y-33840840D02*
X50947676Y-33745602D01*
X50947676Y-33745602D02*
X51138152Y-33697983D01*
X51138152Y-33697983D02*
X51471485Y-33697983D01*
X51471485Y-33697983D02*
X51661961Y-33745602D01*
X51661961Y-33745602D02*
X51757200Y-33840840D01*
X51757200Y-33840840D02*
X51804819Y-33936078D01*
X51804819Y-33936078D02*
X51804819Y-34126554D01*
X51804819Y-34126554D02*
X51757200Y-34221792D01*
X51757200Y-34221792D02*
X51661961Y-34317030D01*
X51661961Y-34317030D02*
X51471485Y-34364649D01*
X51471485Y-34364649D02*
X51138152Y-34364649D01*
X51138152Y-34364649D02*
X50947676Y-34317030D01*
X50947676Y-34317030D02*
X50852438Y-34221792D01*
X50852438Y-34221792D02*
X50804819Y-34126554D01*
X51804819Y-33221792D02*
X51804819Y-33031316D01*
X51804819Y-33031316D02*
X51757200Y-32936078D01*
X51757200Y-32936078D02*
X51709580Y-32888459D01*
X51709580Y-32888459D02*
X51566723Y-32793221D01*
X51566723Y-32793221D02*
X51376247Y-32745602D01*
X51376247Y-32745602D02*
X50995295Y-32745602D01*
X50995295Y-32745602D02*
X50900057Y-32793221D01*
X50900057Y-32793221D02*
X50852438Y-32840840D01*
X50852438Y-32840840D02*
X50804819Y-32936078D01*
X50804819Y-32936078D02*
X50804819Y-33126554D01*
X50804819Y-33126554D02*
X50852438Y-33221792D01*
X50852438Y-33221792D02*
X50900057Y-33269411D01*
X50900057Y-33269411D02*
X50995295Y-33317030D01*
X50995295Y-33317030D02*
X51233390Y-33317030D01*
X51233390Y-33317030D02*
X51328628Y-33269411D01*
X51328628Y-33269411D02*
X51376247Y-33221792D01*
X51376247Y-33221792D02*
X51423866Y-33126554D01*
X51423866Y-33126554D02*
X51423866Y-32936078D01*
X51423866Y-32936078D02*
X51376247Y-32840840D01*
X51376247Y-32840840D02*
X51328628Y-32793221D01*
X51328628Y-32793221D02*
X51233390Y-32745602D01*
X51423866Y-32459887D02*
X51376247Y-32412268D01*
X51376247Y-32412268D02*
X51328628Y-32317030D01*
X51328628Y-32317030D02*
X51423866Y-32126554D01*
X51423866Y-32126554D02*
X51376247Y-32031316D01*
X51376247Y-32031316D02*
X51328628Y-31983697D01*
X53392438Y-28622969D02*
X53344819Y-28718207D01*
X53344819Y-28718207D02*
X53344819Y-28861064D01*
X53344819Y-28861064D02*
X53392438Y-29003921D01*
X53392438Y-29003921D02*
X53487676Y-29099159D01*
X53487676Y-29099159D02*
X53582914Y-29146778D01*
X53582914Y-29146778D02*
X53773390Y-29194397D01*
X53773390Y-29194397D02*
X53916247Y-29194397D01*
X53916247Y-29194397D02*
X54106723Y-29146778D01*
X54106723Y-29146778D02*
X54201961Y-29099159D01*
X54201961Y-29099159D02*
X54297200Y-29003921D01*
X54297200Y-29003921D02*
X54344819Y-28861064D01*
X54344819Y-28861064D02*
X54344819Y-28765826D01*
X54344819Y-28765826D02*
X54297200Y-28622969D01*
X54297200Y-28622969D02*
X54249580Y-28575350D01*
X54249580Y-28575350D02*
X53916247Y-28575350D01*
X53916247Y-28575350D02*
X53916247Y-28765826D01*
X54344819Y-28146778D02*
X53344819Y-28146778D01*
X53344819Y-28146778D02*
X53344819Y-27765826D01*
X53344819Y-27765826D02*
X53392438Y-27670588D01*
X53392438Y-27670588D02*
X53440057Y-27622969D01*
X53440057Y-27622969D02*
X53535295Y-27575350D01*
X53535295Y-27575350D02*
X53678152Y-27575350D01*
X53678152Y-27575350D02*
X53773390Y-27622969D01*
X53773390Y-27622969D02*
X53821009Y-27670588D01*
X53821009Y-27670588D02*
X53868628Y-27765826D01*
X53868628Y-27765826D02*
X53868628Y-28146778D01*
X54344819Y-27146778D02*
X53344819Y-27146778D01*
X53344819Y-26480112D02*
X53344819Y-26289636D01*
X53344819Y-26289636D02*
X53392438Y-26194398D01*
X53392438Y-26194398D02*
X53487676Y-26099160D01*
X53487676Y-26099160D02*
X53678152Y-26051541D01*
X53678152Y-26051541D02*
X54011485Y-26051541D01*
X54011485Y-26051541D02*
X54201961Y-26099160D01*
X54201961Y-26099160D02*
X54297200Y-26194398D01*
X54297200Y-26194398D02*
X54344819Y-26289636D01*
X54344819Y-26289636D02*
X54344819Y-26480112D01*
X54344819Y-26480112D02*
X54297200Y-26575350D01*
X54297200Y-26575350D02*
X54201961Y-26670588D01*
X54201961Y-26670588D02*
X54011485Y-26718207D01*
X54011485Y-26718207D02*
X53678152Y-26718207D01*
X53678152Y-26718207D02*
X53487676Y-26670588D01*
X53487676Y-26670588D02*
X53392438Y-26575350D01*
X53392438Y-26575350D02*
X53344819Y-26480112D01*
X54344819Y-25099160D02*
X54344819Y-25670588D01*
X54344819Y-25384874D02*
X53344819Y-25384874D01*
X53344819Y-25384874D02*
X53487676Y-25480112D01*
X53487676Y-25480112D02*
X53582914Y-25575350D01*
X53582914Y-25575350D02*
X53630533Y-25670588D01*
X54344819Y-24622969D02*
X54344819Y-24432493D01*
X54344819Y-24432493D02*
X54297200Y-24337255D01*
X54297200Y-24337255D02*
X54249580Y-24289636D01*
X54249580Y-24289636D02*
X54106723Y-24194398D01*
X54106723Y-24194398D02*
X53916247Y-24146779D01*
X53916247Y-24146779D02*
X53535295Y-24146779D01*
X53535295Y-24146779D02*
X53440057Y-24194398D01*
X53440057Y-24194398D02*
X53392438Y-24242017D01*
X53392438Y-24242017D02*
X53344819Y-24337255D01*
X53344819Y-24337255D02*
X53344819Y-24527731D01*
X53344819Y-24527731D02*
X53392438Y-24622969D01*
X53392438Y-24622969D02*
X53440057Y-24670588D01*
X53440057Y-24670588D02*
X53535295Y-24718207D01*
X53535295Y-24718207D02*
X53773390Y-24718207D01*
X53773390Y-24718207D02*
X53868628Y-24670588D01*
X53868628Y-24670588D02*
X53916247Y-24622969D01*
X53916247Y-24622969D02*
X53963866Y-24527731D01*
X53963866Y-24527731D02*
X53963866Y-24337255D01*
X53963866Y-24337255D02*
X53916247Y-24242017D01*
X53916247Y-24242017D02*
X53868628Y-24194398D01*
X53868628Y-24194398D02*
X53773390Y-24146779D01*
X53297200Y-23003922D02*
X54582914Y-23861064D01*
X53344819Y-22670588D02*
X54154342Y-22670588D01*
X54154342Y-22670588D02*
X54249580Y-22622969D01*
X54249580Y-22622969D02*
X54297200Y-22575350D01*
X54297200Y-22575350D02*
X54344819Y-22480112D01*
X54344819Y-22480112D02*
X54344819Y-22289636D01*
X54344819Y-22289636D02*
X54297200Y-22194398D01*
X54297200Y-22194398D02*
X54249580Y-22146779D01*
X54249580Y-22146779D02*
X54154342Y-22099160D01*
X54154342Y-22099160D02*
X53344819Y-22099160D01*
X54297200Y-21670588D02*
X54344819Y-21527731D01*
X54344819Y-21527731D02*
X54344819Y-21289636D01*
X54344819Y-21289636D02*
X54297200Y-21194398D01*
X54297200Y-21194398D02*
X54249580Y-21146779D01*
X54249580Y-21146779D02*
X54154342Y-21099160D01*
X54154342Y-21099160D02*
X54059104Y-21099160D01*
X54059104Y-21099160D02*
X53963866Y-21146779D01*
X53963866Y-21146779D02*
X53916247Y-21194398D01*
X53916247Y-21194398D02*
X53868628Y-21289636D01*
X53868628Y-21289636D02*
X53821009Y-21480112D01*
X53821009Y-21480112D02*
X53773390Y-21575350D01*
X53773390Y-21575350D02*
X53725771Y-21622969D01*
X53725771Y-21622969D02*
X53630533Y-21670588D01*
X53630533Y-21670588D02*
X53535295Y-21670588D01*
X53535295Y-21670588D02*
X53440057Y-21622969D01*
X53440057Y-21622969D02*
X53392438Y-21575350D01*
X53392438Y-21575350D02*
X53344819Y-21480112D01*
X53344819Y-21480112D02*
X53344819Y-21242017D01*
X53344819Y-21242017D02*
X53392438Y-21099160D01*
X53821009Y-20337255D02*
X53868628Y-20194398D01*
X53868628Y-20194398D02*
X53916247Y-20146779D01*
X53916247Y-20146779D02*
X54011485Y-20099160D01*
X54011485Y-20099160D02*
X54154342Y-20099160D01*
X54154342Y-20099160D02*
X54249580Y-20146779D01*
X54249580Y-20146779D02*
X54297200Y-20194398D01*
X54297200Y-20194398D02*
X54344819Y-20289636D01*
X54344819Y-20289636D02*
X54344819Y-20670588D01*
X54344819Y-20670588D02*
X53344819Y-20670588D01*
X53344819Y-20670588D02*
X53344819Y-20337255D01*
X53344819Y-20337255D02*
X53392438Y-20242017D01*
X53392438Y-20242017D02*
X53440057Y-20194398D01*
X53440057Y-20194398D02*
X53535295Y-20146779D01*
X53535295Y-20146779D02*
X53630533Y-20146779D01*
X53630533Y-20146779D02*
X53725771Y-20194398D01*
X53725771Y-20194398D02*
X53773390Y-20242017D01*
X53773390Y-20242017D02*
X53821009Y-20337255D01*
X53821009Y-20337255D02*
X53821009Y-20670588D01*
X54344819Y-19670588D02*
X53344819Y-19670588D01*
X53344819Y-19670588D02*
X53344819Y-19432493D01*
X53344819Y-19432493D02*
X53392438Y-19289636D01*
X53392438Y-19289636D02*
X53487676Y-19194398D01*
X53487676Y-19194398D02*
X53582914Y-19146779D01*
X53582914Y-19146779D02*
X53773390Y-19099160D01*
X53773390Y-19099160D02*
X53916247Y-19099160D01*
X53916247Y-19099160D02*
X54106723Y-19146779D01*
X54106723Y-19146779D02*
X54201961Y-19194398D01*
X54201961Y-19194398D02*
X54297200Y-19289636D01*
X54297200Y-19289636D02*
X54344819Y-19432493D01*
X54344819Y-19432493D02*
X54344819Y-19670588D01*
X54440057Y-18908684D02*
X54440057Y-18146779D01*
X53963866Y-17908683D02*
X53963866Y-17146779D01*
X54344819Y-17527731D02*
X53582914Y-17527731D01*
X31484819Y-36221792D02*
X31008628Y-36555125D01*
X31484819Y-36793220D02*
X30484819Y-36793220D01*
X30484819Y-36793220D02*
X30484819Y-36412268D01*
X30484819Y-36412268D02*
X30532438Y-36317030D01*
X30532438Y-36317030D02*
X30580057Y-36269411D01*
X30580057Y-36269411D02*
X30675295Y-36221792D01*
X30675295Y-36221792D02*
X30818152Y-36221792D01*
X30818152Y-36221792D02*
X30913390Y-36269411D01*
X30913390Y-36269411D02*
X30961009Y-36317030D01*
X30961009Y-36317030D02*
X31008628Y-36412268D01*
X31008628Y-36412268D02*
X31008628Y-36793220D01*
X31437200Y-35840839D02*
X31484819Y-35697982D01*
X31484819Y-35697982D02*
X31484819Y-35459887D01*
X31484819Y-35459887D02*
X31437200Y-35364649D01*
X31437200Y-35364649D02*
X31389580Y-35317030D01*
X31389580Y-35317030D02*
X31294342Y-35269411D01*
X31294342Y-35269411D02*
X31199104Y-35269411D01*
X31199104Y-35269411D02*
X31103866Y-35317030D01*
X31103866Y-35317030D02*
X31056247Y-35364649D01*
X31056247Y-35364649D02*
X31008628Y-35459887D01*
X31008628Y-35459887D02*
X30961009Y-35650363D01*
X30961009Y-35650363D02*
X30913390Y-35745601D01*
X30913390Y-35745601D02*
X30865771Y-35793220D01*
X30865771Y-35793220D02*
X30770533Y-35840839D01*
X30770533Y-35840839D02*
X30675295Y-35840839D01*
X30675295Y-35840839D02*
X30580057Y-35793220D01*
X30580057Y-35793220D02*
X30532438Y-35745601D01*
X30532438Y-35745601D02*
X30484819Y-35650363D01*
X30484819Y-35650363D02*
X30484819Y-35412268D01*
X30484819Y-35412268D02*
X30532438Y-35269411D01*
X30484819Y-34983696D02*
X30484819Y-34412268D01*
X31484819Y-34697982D02*
X30484819Y-34697982D01*
X25452438Y-21337255D02*
X25404819Y-21432493D01*
X25404819Y-21432493D02*
X25404819Y-21575350D01*
X25404819Y-21575350D02*
X25452438Y-21718207D01*
X25452438Y-21718207D02*
X25547676Y-21813445D01*
X25547676Y-21813445D02*
X25642914Y-21861064D01*
X25642914Y-21861064D02*
X25833390Y-21908683D01*
X25833390Y-21908683D02*
X25976247Y-21908683D01*
X25976247Y-21908683D02*
X26166723Y-21861064D01*
X26166723Y-21861064D02*
X26261961Y-21813445D01*
X26261961Y-21813445D02*
X26357200Y-21718207D01*
X26357200Y-21718207D02*
X26404819Y-21575350D01*
X26404819Y-21575350D02*
X26404819Y-21480112D01*
X26404819Y-21480112D02*
X26357200Y-21337255D01*
X26357200Y-21337255D02*
X26309580Y-21289636D01*
X26309580Y-21289636D02*
X25976247Y-21289636D01*
X25976247Y-21289636D02*
X25976247Y-21480112D01*
X26404819Y-20861064D02*
X25404819Y-20861064D01*
X25404819Y-20861064D02*
X25404819Y-20480112D01*
X25404819Y-20480112D02*
X25452438Y-20384874D01*
X25452438Y-20384874D02*
X25500057Y-20337255D01*
X25500057Y-20337255D02*
X25595295Y-20289636D01*
X25595295Y-20289636D02*
X25738152Y-20289636D01*
X25738152Y-20289636D02*
X25833390Y-20337255D01*
X25833390Y-20337255D02*
X25881009Y-20384874D01*
X25881009Y-20384874D02*
X25928628Y-20480112D01*
X25928628Y-20480112D02*
X25928628Y-20861064D01*
X26404819Y-19861064D02*
X25404819Y-19861064D01*
X25404819Y-19194398D02*
X25404819Y-19003922D01*
X25404819Y-19003922D02*
X25452438Y-18908684D01*
X25452438Y-18908684D02*
X25547676Y-18813446D01*
X25547676Y-18813446D02*
X25738152Y-18765827D01*
X25738152Y-18765827D02*
X26071485Y-18765827D01*
X26071485Y-18765827D02*
X26261961Y-18813446D01*
X26261961Y-18813446D02*
X26357200Y-18908684D01*
X26357200Y-18908684D02*
X26404819Y-19003922D01*
X26404819Y-19003922D02*
X26404819Y-19194398D01*
X26404819Y-19194398D02*
X26357200Y-19289636D01*
X26357200Y-19289636D02*
X26261961Y-19384874D01*
X26261961Y-19384874D02*
X26071485Y-19432493D01*
X26071485Y-19432493D02*
X25738152Y-19432493D01*
X25738152Y-19432493D02*
X25547676Y-19384874D01*
X25547676Y-19384874D02*
X25452438Y-19289636D01*
X25452438Y-19289636D02*
X25404819Y-19194398D01*
X25404819Y-18146779D02*
X25404819Y-18051541D01*
X25404819Y-18051541D02*
X25452438Y-17956303D01*
X25452438Y-17956303D02*
X25500057Y-17908684D01*
X25500057Y-17908684D02*
X25595295Y-17861065D01*
X25595295Y-17861065D02*
X25785771Y-17813446D01*
X25785771Y-17813446D02*
X26023866Y-17813446D01*
X26023866Y-17813446D02*
X26214342Y-17861065D01*
X26214342Y-17861065D02*
X26309580Y-17908684D01*
X26309580Y-17908684D02*
X26357200Y-17956303D01*
X26357200Y-17956303D02*
X26404819Y-18051541D01*
X26404819Y-18051541D02*
X26404819Y-18146779D01*
X26404819Y-18146779D02*
X26357200Y-18242017D01*
X26357200Y-18242017D02*
X26309580Y-18289636D01*
X26309580Y-18289636D02*
X26214342Y-18337255D01*
X26214342Y-18337255D02*
X26023866Y-18384874D01*
X26023866Y-18384874D02*
X25785771Y-18384874D01*
X25785771Y-18384874D02*
X25595295Y-18337255D01*
X25595295Y-18337255D02*
X25500057Y-18289636D01*
X25500057Y-18289636D02*
X25452438Y-18242017D01*
X25452438Y-18242017D02*
X25404819Y-18146779D01*
X26023866Y-17527731D02*
X25976247Y-17480112D01*
X25976247Y-17480112D02*
X25928628Y-17384874D01*
X25928628Y-17384874D02*
X26023866Y-17194398D01*
X26023866Y-17194398D02*
X25976247Y-17099160D01*
X25976247Y-17099160D02*
X25928628Y-17051541D01*
X43232438Y-36269411D02*
X43184819Y-36364649D01*
X43184819Y-36364649D02*
X43184819Y-36507506D01*
X43184819Y-36507506D02*
X43232438Y-36650363D01*
X43232438Y-36650363D02*
X43327676Y-36745601D01*
X43327676Y-36745601D02*
X43422914Y-36793220D01*
X43422914Y-36793220D02*
X43613390Y-36840839D01*
X43613390Y-36840839D02*
X43756247Y-36840839D01*
X43756247Y-36840839D02*
X43946723Y-36793220D01*
X43946723Y-36793220D02*
X44041961Y-36745601D01*
X44041961Y-36745601D02*
X44137200Y-36650363D01*
X44137200Y-36650363D02*
X44184819Y-36507506D01*
X44184819Y-36507506D02*
X44184819Y-36412268D01*
X44184819Y-36412268D02*
X44137200Y-36269411D01*
X44137200Y-36269411D02*
X44089580Y-36221792D01*
X44089580Y-36221792D02*
X43756247Y-36221792D01*
X43756247Y-36221792D02*
X43756247Y-36412268D01*
X44184819Y-35793220D02*
X43184819Y-35793220D01*
X43184819Y-35793220D02*
X43184819Y-35412268D01*
X43184819Y-35412268D02*
X43232438Y-35317030D01*
X43232438Y-35317030D02*
X43280057Y-35269411D01*
X43280057Y-35269411D02*
X43375295Y-35221792D01*
X43375295Y-35221792D02*
X43518152Y-35221792D01*
X43518152Y-35221792D02*
X43613390Y-35269411D01*
X43613390Y-35269411D02*
X43661009Y-35317030D01*
X43661009Y-35317030D02*
X43708628Y-35412268D01*
X43708628Y-35412268D02*
X43708628Y-35793220D01*
X44184819Y-34793220D02*
X43184819Y-34793220D01*
X43184819Y-34126554D02*
X43184819Y-33936078D01*
X43184819Y-33936078D02*
X43232438Y-33840840D01*
X43232438Y-33840840D02*
X43327676Y-33745602D01*
X43327676Y-33745602D02*
X43518152Y-33697983D01*
X43518152Y-33697983D02*
X43851485Y-33697983D01*
X43851485Y-33697983D02*
X44041961Y-33745602D01*
X44041961Y-33745602D02*
X44137200Y-33840840D01*
X44137200Y-33840840D02*
X44184819Y-33936078D01*
X44184819Y-33936078D02*
X44184819Y-34126554D01*
X44184819Y-34126554D02*
X44137200Y-34221792D01*
X44137200Y-34221792D02*
X44041961Y-34317030D01*
X44041961Y-34317030D02*
X43851485Y-34364649D01*
X43851485Y-34364649D02*
X43518152Y-34364649D01*
X43518152Y-34364649D02*
X43327676Y-34317030D01*
X43327676Y-34317030D02*
X43232438Y-34221792D01*
X43232438Y-34221792D02*
X43184819Y-34126554D01*
X43184819Y-33364649D02*
X43184819Y-32697983D01*
X43184819Y-32697983D02*
X44184819Y-33126554D01*
X43803866Y-32459887D02*
X43756247Y-32412268D01*
X43756247Y-32412268D02*
X43708628Y-32317030D01*
X43708628Y-32317030D02*
X43803866Y-32126554D01*
X43803866Y-32126554D02*
X43756247Y-32031316D01*
X43756247Y-32031316D02*
X43708628Y-31983697D01*
X27944819Y-36888458D02*
X27944819Y-36269411D01*
X27944819Y-36269411D02*
X28325771Y-36602744D01*
X28325771Y-36602744D02*
X28325771Y-36459887D01*
X28325771Y-36459887D02*
X28373390Y-36364649D01*
X28373390Y-36364649D02*
X28421009Y-36317030D01*
X28421009Y-36317030D02*
X28516247Y-36269411D01*
X28516247Y-36269411D02*
X28754342Y-36269411D01*
X28754342Y-36269411D02*
X28849580Y-36317030D01*
X28849580Y-36317030D02*
X28897200Y-36364649D01*
X28897200Y-36364649D02*
X28944819Y-36459887D01*
X28944819Y-36459887D02*
X28944819Y-36745601D01*
X28944819Y-36745601D02*
X28897200Y-36840839D01*
X28897200Y-36840839D02*
X28849580Y-36888458D01*
X27944819Y-35983696D02*
X28944819Y-35650363D01*
X28944819Y-35650363D02*
X27944819Y-35317030D01*
X27944819Y-35078934D02*
X27944819Y-34459887D01*
X27944819Y-34459887D02*
X28325771Y-34793220D01*
X28325771Y-34793220D02*
X28325771Y-34650363D01*
X28325771Y-34650363D02*
X28373390Y-34555125D01*
X28373390Y-34555125D02*
X28421009Y-34507506D01*
X28421009Y-34507506D02*
X28516247Y-34459887D01*
X28516247Y-34459887D02*
X28754342Y-34459887D01*
X28754342Y-34459887D02*
X28849580Y-34507506D01*
X28849580Y-34507506D02*
X28897200Y-34555125D01*
X28897200Y-34555125D02*
X28944819Y-34650363D01*
X28944819Y-34650363D02*
X28944819Y-34936077D01*
X28944819Y-34936077D02*
X28897200Y-35031315D01*
X28897200Y-35031315D02*
X28849580Y-35078934D01*
X38152438Y-22289636D02*
X38104819Y-22384874D01*
X38104819Y-22384874D02*
X38104819Y-22527731D01*
X38104819Y-22527731D02*
X38152438Y-22670588D01*
X38152438Y-22670588D02*
X38247676Y-22765826D01*
X38247676Y-22765826D02*
X38342914Y-22813445D01*
X38342914Y-22813445D02*
X38533390Y-22861064D01*
X38533390Y-22861064D02*
X38676247Y-22861064D01*
X38676247Y-22861064D02*
X38866723Y-22813445D01*
X38866723Y-22813445D02*
X38961961Y-22765826D01*
X38961961Y-22765826D02*
X39057200Y-22670588D01*
X39057200Y-22670588D02*
X39104819Y-22527731D01*
X39104819Y-22527731D02*
X39104819Y-22432493D01*
X39104819Y-22432493D02*
X39057200Y-22289636D01*
X39057200Y-22289636D02*
X39009580Y-22242017D01*
X39009580Y-22242017D02*
X38676247Y-22242017D01*
X38676247Y-22242017D02*
X38676247Y-22432493D01*
X39104819Y-21813445D02*
X38104819Y-21813445D01*
X38104819Y-21813445D02*
X38104819Y-21432493D01*
X38104819Y-21432493D02*
X38152438Y-21337255D01*
X38152438Y-21337255D02*
X38200057Y-21289636D01*
X38200057Y-21289636D02*
X38295295Y-21242017D01*
X38295295Y-21242017D02*
X38438152Y-21242017D01*
X38438152Y-21242017D02*
X38533390Y-21289636D01*
X38533390Y-21289636D02*
X38581009Y-21337255D01*
X38581009Y-21337255D02*
X38628628Y-21432493D01*
X38628628Y-21432493D02*
X38628628Y-21813445D01*
X39104819Y-20813445D02*
X38104819Y-20813445D01*
X38104819Y-20146779D02*
X38104819Y-19956303D01*
X38104819Y-19956303D02*
X38152438Y-19861065D01*
X38152438Y-19861065D02*
X38247676Y-19765827D01*
X38247676Y-19765827D02*
X38438152Y-19718208D01*
X38438152Y-19718208D02*
X38771485Y-19718208D01*
X38771485Y-19718208D02*
X38961961Y-19765827D01*
X38961961Y-19765827D02*
X39057200Y-19861065D01*
X39057200Y-19861065D02*
X39104819Y-19956303D01*
X39104819Y-19956303D02*
X39104819Y-20146779D01*
X39104819Y-20146779D02*
X39057200Y-20242017D01*
X39057200Y-20242017D02*
X38961961Y-20337255D01*
X38961961Y-20337255D02*
X38771485Y-20384874D01*
X38771485Y-20384874D02*
X38438152Y-20384874D01*
X38438152Y-20384874D02*
X38247676Y-20337255D01*
X38247676Y-20337255D02*
X38152438Y-20242017D01*
X38152438Y-20242017D02*
X38104819Y-20146779D01*
X39104819Y-18765827D02*
X39104819Y-19337255D01*
X39104819Y-19051541D02*
X38104819Y-19051541D01*
X38104819Y-19051541D02*
X38247676Y-19146779D01*
X38247676Y-19146779D02*
X38342914Y-19242017D01*
X38342914Y-19242017D02*
X38390533Y-19337255D01*
X38104819Y-18146779D02*
X38104819Y-18051541D01*
X38104819Y-18051541D02*
X38152438Y-17956303D01*
X38152438Y-17956303D02*
X38200057Y-17908684D01*
X38200057Y-17908684D02*
X38295295Y-17861065D01*
X38295295Y-17861065D02*
X38485771Y-17813446D01*
X38485771Y-17813446D02*
X38723866Y-17813446D01*
X38723866Y-17813446D02*
X38914342Y-17861065D01*
X38914342Y-17861065D02*
X39009580Y-17908684D01*
X39009580Y-17908684D02*
X39057200Y-17956303D01*
X39057200Y-17956303D02*
X39104819Y-18051541D01*
X39104819Y-18051541D02*
X39104819Y-18146779D01*
X39104819Y-18146779D02*
X39057200Y-18242017D01*
X39057200Y-18242017D02*
X39009580Y-18289636D01*
X39009580Y-18289636D02*
X38914342Y-18337255D01*
X38914342Y-18337255D02*
X38723866Y-18384874D01*
X38723866Y-18384874D02*
X38485771Y-18384874D01*
X38485771Y-18384874D02*
X38295295Y-18337255D01*
X38295295Y-18337255D02*
X38200057Y-18289636D01*
X38200057Y-18289636D02*
X38152438Y-18242017D01*
X38152438Y-18242017D02*
X38104819Y-18146779D01*
X38723866Y-17527731D02*
X38676247Y-17480112D01*
X38676247Y-17480112D02*
X38628628Y-17384874D01*
X38628628Y-17384874D02*
X38723866Y-17194398D01*
X38723866Y-17194398D02*
X38676247Y-17099160D01*
X38676247Y-17099160D02*
X38628628Y-17051541D01*
X25404819Y-36858458D02*
X25404819Y-36239411D01*
X25404819Y-36239411D02*
X25785771Y-36572744D01*
X25785771Y-36572744D02*
X25785771Y-36429887D01*
X25785771Y-36429887D02*
X25833390Y-36334649D01*
X25833390Y-36334649D02*
X25881009Y-36287030D01*
X25881009Y-36287030D02*
X25976247Y-36239411D01*
X25976247Y-36239411D02*
X26214342Y-36239411D01*
X26214342Y-36239411D02*
X26309580Y-36287030D01*
X26309580Y-36287030D02*
X26357200Y-36334649D01*
X26357200Y-36334649D02*
X26404819Y-36429887D01*
X26404819Y-36429887D02*
X26404819Y-36715601D01*
X26404819Y-36715601D02*
X26357200Y-36810839D01*
X26357200Y-36810839D02*
X26309580Y-36858458D01*
X25404819Y-35953696D02*
X26404819Y-35620363D01*
X26404819Y-35620363D02*
X25404819Y-35287030D01*
X25404819Y-35048934D02*
X25404819Y-34429887D01*
X25404819Y-34429887D02*
X25785771Y-34763220D01*
X25785771Y-34763220D02*
X25785771Y-34620363D01*
X25785771Y-34620363D02*
X25833390Y-34525125D01*
X25833390Y-34525125D02*
X25881009Y-34477506D01*
X25881009Y-34477506D02*
X25976247Y-34429887D01*
X25976247Y-34429887D02*
X26214342Y-34429887D01*
X26214342Y-34429887D02*
X26309580Y-34477506D01*
X26309580Y-34477506D02*
X26357200Y-34525125D01*
X26357200Y-34525125D02*
X26404819Y-34620363D01*
X26404819Y-34620363D02*
X26404819Y-34906077D01*
X26404819Y-34906077D02*
X26357200Y-35001315D01*
X26357200Y-35001315D02*
X26309580Y-35048934D01*
X33072438Y-36269411D02*
X33024819Y-36364649D01*
X33024819Y-36364649D02*
X33024819Y-36507506D01*
X33024819Y-36507506D02*
X33072438Y-36650363D01*
X33072438Y-36650363D02*
X33167676Y-36745601D01*
X33167676Y-36745601D02*
X33262914Y-36793220D01*
X33262914Y-36793220D02*
X33453390Y-36840839D01*
X33453390Y-36840839D02*
X33596247Y-36840839D01*
X33596247Y-36840839D02*
X33786723Y-36793220D01*
X33786723Y-36793220D02*
X33881961Y-36745601D01*
X33881961Y-36745601D02*
X33977200Y-36650363D01*
X33977200Y-36650363D02*
X34024819Y-36507506D01*
X34024819Y-36507506D02*
X34024819Y-36412268D01*
X34024819Y-36412268D02*
X33977200Y-36269411D01*
X33977200Y-36269411D02*
X33929580Y-36221792D01*
X33929580Y-36221792D02*
X33596247Y-36221792D01*
X33596247Y-36221792D02*
X33596247Y-36412268D01*
X34024819Y-35793220D02*
X33024819Y-35793220D01*
X33024819Y-35793220D02*
X34024819Y-35221792D01*
X34024819Y-35221792D02*
X33024819Y-35221792D01*
X34024819Y-34745601D02*
X33024819Y-34745601D01*
X33024819Y-34745601D02*
X33024819Y-34507506D01*
X33024819Y-34507506D02*
X33072438Y-34364649D01*
X33072438Y-34364649D02*
X33167676Y-34269411D01*
X33167676Y-34269411D02*
X33262914Y-34221792D01*
X33262914Y-34221792D02*
X33453390Y-34174173D01*
X33453390Y-34174173D02*
X33596247Y-34174173D01*
X33596247Y-34174173D02*
X33786723Y-34221792D01*
X33786723Y-34221792D02*
X33881961Y-34269411D01*
X33881961Y-34269411D02*
X33977200Y-34364649D01*
X33977200Y-34364649D02*
X34024819Y-34507506D01*
X34024819Y-34507506D02*
X34024819Y-34745601D01*
X40692438Y-19194398D02*
X40644819Y-19289636D01*
X40644819Y-19289636D02*
X40644819Y-19432493D01*
X40644819Y-19432493D02*
X40692438Y-19575350D01*
X40692438Y-19575350D02*
X40787676Y-19670588D01*
X40787676Y-19670588D02*
X40882914Y-19718207D01*
X40882914Y-19718207D02*
X41073390Y-19765826D01*
X41073390Y-19765826D02*
X41216247Y-19765826D01*
X41216247Y-19765826D02*
X41406723Y-19718207D01*
X41406723Y-19718207D02*
X41501961Y-19670588D01*
X41501961Y-19670588D02*
X41597200Y-19575350D01*
X41597200Y-19575350D02*
X41644819Y-19432493D01*
X41644819Y-19432493D02*
X41644819Y-19337255D01*
X41644819Y-19337255D02*
X41597200Y-19194398D01*
X41597200Y-19194398D02*
X41549580Y-19146779D01*
X41549580Y-19146779D02*
X41216247Y-19146779D01*
X41216247Y-19146779D02*
X41216247Y-19337255D01*
X41644819Y-18718207D02*
X40644819Y-18718207D01*
X40644819Y-18718207D02*
X41644819Y-18146779D01*
X41644819Y-18146779D02*
X40644819Y-18146779D01*
X41644819Y-17670588D02*
X40644819Y-17670588D01*
X40644819Y-17670588D02*
X40644819Y-17432493D01*
X40644819Y-17432493D02*
X40692438Y-17289636D01*
X40692438Y-17289636D02*
X40787676Y-17194398D01*
X40787676Y-17194398D02*
X40882914Y-17146779D01*
X40882914Y-17146779D02*
X41073390Y-17099160D01*
X41073390Y-17099160D02*
X41216247Y-17099160D01*
X41216247Y-17099160D02*
X41406723Y-17146779D01*
X41406723Y-17146779D02*
X41501961Y-17194398D01*
X41501961Y-17194398D02*
X41597200Y-17289636D01*
X41597200Y-17289636D02*
X41644819Y-17432493D01*
X41644819Y-17432493D02*
X41644819Y-17670588D01*
X45772438Y-27337255D02*
X45724819Y-27432493D01*
X45724819Y-27432493D02*
X45724819Y-27575350D01*
X45724819Y-27575350D02*
X45772438Y-27718207D01*
X45772438Y-27718207D02*
X45867676Y-27813445D01*
X45867676Y-27813445D02*
X45962914Y-27861064D01*
X45962914Y-27861064D02*
X46153390Y-27908683D01*
X46153390Y-27908683D02*
X46296247Y-27908683D01*
X46296247Y-27908683D02*
X46486723Y-27861064D01*
X46486723Y-27861064D02*
X46581961Y-27813445D01*
X46581961Y-27813445D02*
X46677200Y-27718207D01*
X46677200Y-27718207D02*
X46724819Y-27575350D01*
X46724819Y-27575350D02*
X46724819Y-27480112D01*
X46724819Y-27480112D02*
X46677200Y-27337255D01*
X46677200Y-27337255D02*
X46629580Y-27289636D01*
X46629580Y-27289636D02*
X46296247Y-27289636D01*
X46296247Y-27289636D02*
X46296247Y-27480112D01*
X46724819Y-26861064D02*
X45724819Y-26861064D01*
X45724819Y-26861064D02*
X45724819Y-26480112D01*
X45724819Y-26480112D02*
X45772438Y-26384874D01*
X45772438Y-26384874D02*
X45820057Y-26337255D01*
X45820057Y-26337255D02*
X45915295Y-26289636D01*
X45915295Y-26289636D02*
X46058152Y-26289636D01*
X46058152Y-26289636D02*
X46153390Y-26337255D01*
X46153390Y-26337255D02*
X46201009Y-26384874D01*
X46201009Y-26384874D02*
X46248628Y-26480112D01*
X46248628Y-26480112D02*
X46248628Y-26861064D01*
X46724819Y-25861064D02*
X45724819Y-25861064D01*
X45724819Y-25194398D02*
X45724819Y-25003922D01*
X45724819Y-25003922D02*
X45772438Y-24908684D01*
X45772438Y-24908684D02*
X45867676Y-24813446D01*
X45867676Y-24813446D02*
X46058152Y-24765827D01*
X46058152Y-24765827D02*
X46391485Y-24765827D01*
X46391485Y-24765827D02*
X46581961Y-24813446D01*
X46581961Y-24813446D02*
X46677200Y-24908684D01*
X46677200Y-24908684D02*
X46724819Y-25003922D01*
X46724819Y-25003922D02*
X46724819Y-25194398D01*
X46724819Y-25194398D02*
X46677200Y-25289636D01*
X46677200Y-25289636D02*
X46581961Y-25384874D01*
X46581961Y-25384874D02*
X46391485Y-25432493D01*
X46391485Y-25432493D02*
X46058152Y-25432493D01*
X46058152Y-25432493D02*
X45867676Y-25384874D01*
X45867676Y-25384874D02*
X45772438Y-25289636D01*
X45772438Y-25289636D02*
X45724819Y-25194398D01*
X45820057Y-24384874D02*
X45772438Y-24337255D01*
X45772438Y-24337255D02*
X45724819Y-24242017D01*
X45724819Y-24242017D02*
X45724819Y-24003922D01*
X45724819Y-24003922D02*
X45772438Y-23908684D01*
X45772438Y-23908684D02*
X45820057Y-23861065D01*
X45820057Y-23861065D02*
X45915295Y-23813446D01*
X45915295Y-23813446D02*
X46010533Y-23813446D01*
X46010533Y-23813446D02*
X46153390Y-23861065D01*
X46153390Y-23861065D02*
X46724819Y-24432493D01*
X46724819Y-24432493D02*
X46724819Y-23813446D01*
X46724819Y-22861065D02*
X46724819Y-23432493D01*
X46724819Y-23146779D02*
X45724819Y-23146779D01*
X45724819Y-23146779D02*
X45867676Y-23242017D01*
X45867676Y-23242017D02*
X45962914Y-23337255D01*
X45962914Y-23337255D02*
X46010533Y-23432493D01*
X45677200Y-21718208D02*
X46962914Y-22575350D01*
X45724819Y-21384874D02*
X46534342Y-21384874D01*
X46534342Y-21384874D02*
X46629580Y-21337255D01*
X46629580Y-21337255D02*
X46677200Y-21289636D01*
X46677200Y-21289636D02*
X46724819Y-21194398D01*
X46724819Y-21194398D02*
X46724819Y-21003922D01*
X46724819Y-21003922D02*
X46677200Y-20908684D01*
X46677200Y-20908684D02*
X46629580Y-20861065D01*
X46629580Y-20861065D02*
X46534342Y-20813446D01*
X46534342Y-20813446D02*
X45724819Y-20813446D01*
X45724819Y-20146779D02*
X45724819Y-20051541D01*
X45724819Y-20051541D02*
X45772438Y-19956303D01*
X45772438Y-19956303D02*
X45820057Y-19908684D01*
X45820057Y-19908684D02*
X45915295Y-19861065D01*
X45915295Y-19861065D02*
X46105771Y-19813446D01*
X46105771Y-19813446D02*
X46343866Y-19813446D01*
X46343866Y-19813446D02*
X46534342Y-19861065D01*
X46534342Y-19861065D02*
X46629580Y-19908684D01*
X46629580Y-19908684D02*
X46677200Y-19956303D01*
X46677200Y-19956303D02*
X46724819Y-20051541D01*
X46724819Y-20051541D02*
X46724819Y-20146779D01*
X46724819Y-20146779D02*
X46677200Y-20242017D01*
X46677200Y-20242017D02*
X46629580Y-20289636D01*
X46629580Y-20289636D02*
X46534342Y-20337255D01*
X46534342Y-20337255D02*
X46343866Y-20384874D01*
X46343866Y-20384874D02*
X46105771Y-20384874D01*
X46105771Y-20384874D02*
X45915295Y-20337255D01*
X45915295Y-20337255D02*
X45820057Y-20289636D01*
X45820057Y-20289636D02*
X45772438Y-20242017D01*
X45772438Y-20242017D02*
X45724819Y-20146779D01*
X45724819Y-19527731D02*
X45724819Y-18956303D01*
X46724819Y-19242017D02*
X45724819Y-19242017D01*
X45724819Y-18718207D02*
X46724819Y-18051541D01*
X45724819Y-18051541D02*
X46724819Y-18718207D01*
X46724819Y-17670588D02*
X45724819Y-17670588D01*
X45724819Y-17670588D02*
X45724819Y-17432493D01*
X45724819Y-17432493D02*
X45772438Y-17289636D01*
X45772438Y-17289636D02*
X45867676Y-17194398D01*
X45867676Y-17194398D02*
X45962914Y-17146779D01*
X45962914Y-17146779D02*
X46153390Y-17099160D01*
X46153390Y-17099160D02*
X46296247Y-17099160D01*
X46296247Y-17099160D02*
X46486723Y-17146779D01*
X46486723Y-17146779D02*
X46581961Y-17194398D01*
X46581961Y-17194398D02*
X46677200Y-17289636D01*
X46677200Y-17289636D02*
X46724819Y-17432493D01*
X46724819Y-17432493D02*
X46724819Y-17670588D01*
X27992438Y-21337255D02*
X27944819Y-21432493D01*
X27944819Y-21432493D02*
X27944819Y-21575350D01*
X27944819Y-21575350D02*
X27992438Y-21718207D01*
X27992438Y-21718207D02*
X28087676Y-21813445D01*
X28087676Y-21813445D02*
X28182914Y-21861064D01*
X28182914Y-21861064D02*
X28373390Y-21908683D01*
X28373390Y-21908683D02*
X28516247Y-21908683D01*
X28516247Y-21908683D02*
X28706723Y-21861064D01*
X28706723Y-21861064D02*
X28801961Y-21813445D01*
X28801961Y-21813445D02*
X28897200Y-21718207D01*
X28897200Y-21718207D02*
X28944819Y-21575350D01*
X28944819Y-21575350D02*
X28944819Y-21480112D01*
X28944819Y-21480112D02*
X28897200Y-21337255D01*
X28897200Y-21337255D02*
X28849580Y-21289636D01*
X28849580Y-21289636D02*
X28516247Y-21289636D01*
X28516247Y-21289636D02*
X28516247Y-21480112D01*
X28944819Y-20861064D02*
X27944819Y-20861064D01*
X27944819Y-20861064D02*
X27944819Y-20480112D01*
X27944819Y-20480112D02*
X27992438Y-20384874D01*
X27992438Y-20384874D02*
X28040057Y-20337255D01*
X28040057Y-20337255D02*
X28135295Y-20289636D01*
X28135295Y-20289636D02*
X28278152Y-20289636D01*
X28278152Y-20289636D02*
X28373390Y-20337255D01*
X28373390Y-20337255D02*
X28421009Y-20384874D01*
X28421009Y-20384874D02*
X28468628Y-20480112D01*
X28468628Y-20480112D02*
X28468628Y-20861064D01*
X28944819Y-19861064D02*
X27944819Y-19861064D01*
X27944819Y-19194398D02*
X27944819Y-19003922D01*
X27944819Y-19003922D02*
X27992438Y-18908684D01*
X27992438Y-18908684D02*
X28087676Y-18813446D01*
X28087676Y-18813446D02*
X28278152Y-18765827D01*
X28278152Y-18765827D02*
X28611485Y-18765827D01*
X28611485Y-18765827D02*
X28801961Y-18813446D01*
X28801961Y-18813446D02*
X28897200Y-18908684D01*
X28897200Y-18908684D02*
X28944819Y-19003922D01*
X28944819Y-19003922D02*
X28944819Y-19194398D01*
X28944819Y-19194398D02*
X28897200Y-19289636D01*
X28897200Y-19289636D02*
X28801961Y-19384874D01*
X28801961Y-19384874D02*
X28611485Y-19432493D01*
X28611485Y-19432493D02*
X28278152Y-19432493D01*
X28278152Y-19432493D02*
X28087676Y-19384874D01*
X28087676Y-19384874D02*
X27992438Y-19289636D01*
X27992438Y-19289636D02*
X27944819Y-19194398D01*
X28944819Y-17813446D02*
X28944819Y-18384874D01*
X28944819Y-18099160D02*
X27944819Y-18099160D01*
X27944819Y-18099160D02*
X28087676Y-18194398D01*
X28087676Y-18194398D02*
X28182914Y-18289636D01*
X28182914Y-18289636D02*
X28230533Y-18384874D01*
X28563866Y-17527731D02*
X28516247Y-17480112D01*
X28516247Y-17480112D02*
X28468628Y-17384874D01*
X28468628Y-17384874D02*
X28563866Y-17194398D01*
X28563866Y-17194398D02*
X28516247Y-17099160D01*
X28516247Y-17099160D02*
X28468628Y-17051541D01*
X43232438Y-27575350D02*
X43184819Y-27670588D01*
X43184819Y-27670588D02*
X43184819Y-27813445D01*
X43184819Y-27813445D02*
X43232438Y-27956302D01*
X43232438Y-27956302D02*
X43327676Y-28051540D01*
X43327676Y-28051540D02*
X43422914Y-28099159D01*
X43422914Y-28099159D02*
X43613390Y-28146778D01*
X43613390Y-28146778D02*
X43756247Y-28146778D01*
X43756247Y-28146778D02*
X43946723Y-28099159D01*
X43946723Y-28099159D02*
X44041961Y-28051540D01*
X44041961Y-28051540D02*
X44137200Y-27956302D01*
X44137200Y-27956302D02*
X44184819Y-27813445D01*
X44184819Y-27813445D02*
X44184819Y-27718207D01*
X44184819Y-27718207D02*
X44137200Y-27575350D01*
X44137200Y-27575350D02*
X44089580Y-27527731D01*
X44089580Y-27527731D02*
X43756247Y-27527731D01*
X43756247Y-27527731D02*
X43756247Y-27718207D01*
X44184819Y-27099159D02*
X43184819Y-27099159D01*
X43184819Y-27099159D02*
X43184819Y-26718207D01*
X43184819Y-26718207D02*
X43232438Y-26622969D01*
X43232438Y-26622969D02*
X43280057Y-26575350D01*
X43280057Y-26575350D02*
X43375295Y-26527731D01*
X43375295Y-26527731D02*
X43518152Y-26527731D01*
X43518152Y-26527731D02*
X43613390Y-26575350D01*
X43613390Y-26575350D02*
X43661009Y-26622969D01*
X43661009Y-26622969D02*
X43708628Y-26718207D01*
X43708628Y-26718207D02*
X43708628Y-27099159D01*
X44184819Y-26099159D02*
X43184819Y-26099159D01*
X43184819Y-25432493D02*
X43184819Y-25242017D01*
X43184819Y-25242017D02*
X43232438Y-25146779D01*
X43232438Y-25146779D02*
X43327676Y-25051541D01*
X43327676Y-25051541D02*
X43518152Y-25003922D01*
X43518152Y-25003922D02*
X43851485Y-25003922D01*
X43851485Y-25003922D02*
X44041961Y-25051541D01*
X44041961Y-25051541D02*
X44137200Y-25146779D01*
X44137200Y-25146779D02*
X44184819Y-25242017D01*
X44184819Y-25242017D02*
X44184819Y-25432493D01*
X44184819Y-25432493D02*
X44137200Y-25527731D01*
X44137200Y-25527731D02*
X44041961Y-25622969D01*
X44041961Y-25622969D02*
X43851485Y-25670588D01*
X43851485Y-25670588D02*
X43518152Y-25670588D01*
X43518152Y-25670588D02*
X43327676Y-25622969D01*
X43327676Y-25622969D02*
X43232438Y-25527731D01*
X43232438Y-25527731D02*
X43184819Y-25432493D01*
X43280057Y-24622969D02*
X43232438Y-24575350D01*
X43232438Y-24575350D02*
X43184819Y-24480112D01*
X43184819Y-24480112D02*
X43184819Y-24242017D01*
X43184819Y-24242017D02*
X43232438Y-24146779D01*
X43232438Y-24146779D02*
X43280057Y-24099160D01*
X43280057Y-24099160D02*
X43375295Y-24051541D01*
X43375295Y-24051541D02*
X43470533Y-24051541D01*
X43470533Y-24051541D02*
X43613390Y-24099160D01*
X43613390Y-24099160D02*
X44184819Y-24670588D01*
X44184819Y-24670588D02*
X44184819Y-24051541D01*
X43184819Y-23432493D02*
X43184819Y-23337255D01*
X43184819Y-23337255D02*
X43232438Y-23242017D01*
X43232438Y-23242017D02*
X43280057Y-23194398D01*
X43280057Y-23194398D02*
X43375295Y-23146779D01*
X43375295Y-23146779D02*
X43565771Y-23099160D01*
X43565771Y-23099160D02*
X43803866Y-23099160D01*
X43803866Y-23099160D02*
X43994342Y-23146779D01*
X43994342Y-23146779D02*
X44089580Y-23194398D01*
X44089580Y-23194398D02*
X44137200Y-23242017D01*
X44137200Y-23242017D02*
X44184819Y-23337255D01*
X44184819Y-23337255D02*
X44184819Y-23432493D01*
X44184819Y-23432493D02*
X44137200Y-23527731D01*
X44137200Y-23527731D02*
X44089580Y-23575350D01*
X44089580Y-23575350D02*
X43994342Y-23622969D01*
X43994342Y-23622969D02*
X43803866Y-23670588D01*
X43803866Y-23670588D02*
X43565771Y-23670588D01*
X43565771Y-23670588D02*
X43375295Y-23622969D01*
X43375295Y-23622969D02*
X43280057Y-23575350D01*
X43280057Y-23575350D02*
X43232438Y-23527731D01*
X43232438Y-23527731D02*
X43184819Y-23432493D01*
X43137200Y-21956303D02*
X44422914Y-22813445D01*
X43184819Y-21622969D02*
X43994342Y-21622969D01*
X43994342Y-21622969D02*
X44089580Y-21575350D01*
X44089580Y-21575350D02*
X44137200Y-21527731D01*
X44137200Y-21527731D02*
X44184819Y-21432493D01*
X44184819Y-21432493D02*
X44184819Y-21242017D01*
X44184819Y-21242017D02*
X44137200Y-21146779D01*
X44137200Y-21146779D02*
X44089580Y-21099160D01*
X44089580Y-21099160D02*
X43994342Y-21051541D01*
X43994342Y-21051541D02*
X43184819Y-21051541D01*
X43184819Y-20384874D02*
X43184819Y-20289636D01*
X43184819Y-20289636D02*
X43232438Y-20194398D01*
X43232438Y-20194398D02*
X43280057Y-20146779D01*
X43280057Y-20146779D02*
X43375295Y-20099160D01*
X43375295Y-20099160D02*
X43565771Y-20051541D01*
X43565771Y-20051541D02*
X43803866Y-20051541D01*
X43803866Y-20051541D02*
X43994342Y-20099160D01*
X43994342Y-20099160D02*
X44089580Y-20146779D01*
X44089580Y-20146779D02*
X44137200Y-20194398D01*
X44137200Y-20194398D02*
X44184819Y-20289636D01*
X44184819Y-20289636D02*
X44184819Y-20384874D01*
X44184819Y-20384874D02*
X44137200Y-20480112D01*
X44137200Y-20480112D02*
X44089580Y-20527731D01*
X44089580Y-20527731D02*
X43994342Y-20575350D01*
X43994342Y-20575350D02*
X43803866Y-20622969D01*
X43803866Y-20622969D02*
X43565771Y-20622969D01*
X43565771Y-20622969D02*
X43375295Y-20575350D01*
X43375295Y-20575350D02*
X43280057Y-20527731D01*
X43280057Y-20527731D02*
X43232438Y-20480112D01*
X43232438Y-20480112D02*
X43184819Y-20384874D01*
X44184819Y-19051541D02*
X43708628Y-19384874D01*
X44184819Y-19622969D02*
X43184819Y-19622969D01*
X43184819Y-19622969D02*
X43184819Y-19242017D01*
X43184819Y-19242017D02*
X43232438Y-19146779D01*
X43232438Y-19146779D02*
X43280057Y-19099160D01*
X43280057Y-19099160D02*
X43375295Y-19051541D01*
X43375295Y-19051541D02*
X43518152Y-19051541D01*
X43518152Y-19051541D02*
X43613390Y-19099160D01*
X43613390Y-19099160D02*
X43661009Y-19146779D01*
X43661009Y-19146779D02*
X43708628Y-19242017D01*
X43708628Y-19242017D02*
X43708628Y-19622969D01*
X43184819Y-18718207D02*
X44184819Y-18051541D01*
X43184819Y-18051541D02*
X44184819Y-18718207D01*
X44184819Y-17670588D02*
X43184819Y-17670588D01*
X43184819Y-17670588D02*
X43184819Y-17432493D01*
X43184819Y-17432493D02*
X43232438Y-17289636D01*
X43232438Y-17289636D02*
X43327676Y-17194398D01*
X43327676Y-17194398D02*
X43422914Y-17146779D01*
X43422914Y-17146779D02*
X43613390Y-17099160D01*
X43613390Y-17099160D02*
X43756247Y-17099160D01*
X43756247Y-17099160D02*
X43946723Y-17146779D01*
X43946723Y-17146779D02*
X44041961Y-17194398D01*
X44041961Y-17194398D02*
X44137200Y-17289636D01*
X44137200Y-17289636D02*
X44184819Y-17432493D01*
X44184819Y-17432493D02*
X44184819Y-17670588D01*
X58472438Y-36269411D02*
X58424819Y-36364649D01*
X58424819Y-36364649D02*
X58424819Y-36507506D01*
X58424819Y-36507506D02*
X58472438Y-36650363D01*
X58472438Y-36650363D02*
X58567676Y-36745601D01*
X58567676Y-36745601D02*
X58662914Y-36793220D01*
X58662914Y-36793220D02*
X58853390Y-36840839D01*
X58853390Y-36840839D02*
X58996247Y-36840839D01*
X58996247Y-36840839D02*
X59186723Y-36793220D01*
X59186723Y-36793220D02*
X59281961Y-36745601D01*
X59281961Y-36745601D02*
X59377200Y-36650363D01*
X59377200Y-36650363D02*
X59424819Y-36507506D01*
X59424819Y-36507506D02*
X59424819Y-36412268D01*
X59424819Y-36412268D02*
X59377200Y-36269411D01*
X59377200Y-36269411D02*
X59329580Y-36221792D01*
X59329580Y-36221792D02*
X58996247Y-36221792D01*
X58996247Y-36221792D02*
X58996247Y-36412268D01*
X59424819Y-35793220D02*
X58424819Y-35793220D01*
X58424819Y-35793220D02*
X59424819Y-35221792D01*
X59424819Y-35221792D02*
X58424819Y-35221792D01*
X59424819Y-34745601D02*
X58424819Y-34745601D01*
X58424819Y-34745601D02*
X58424819Y-34507506D01*
X58424819Y-34507506D02*
X58472438Y-34364649D01*
X58472438Y-34364649D02*
X58567676Y-34269411D01*
X58567676Y-34269411D02*
X58662914Y-34221792D01*
X58662914Y-34221792D02*
X58853390Y-34174173D01*
X58853390Y-34174173D02*
X58996247Y-34174173D01*
X58996247Y-34174173D02*
X59186723Y-34221792D01*
X59186723Y-34221792D02*
X59281961Y-34269411D01*
X59281961Y-34269411D02*
X59377200Y-34364649D01*
X59377200Y-34364649D02*
X59424819Y-34507506D01*
X59424819Y-34507506D02*
X59424819Y-34745601D01*
X30532438Y-21337255D02*
X30484819Y-21432493D01*
X30484819Y-21432493D02*
X30484819Y-21575350D01*
X30484819Y-21575350D02*
X30532438Y-21718207D01*
X30532438Y-21718207D02*
X30627676Y-21813445D01*
X30627676Y-21813445D02*
X30722914Y-21861064D01*
X30722914Y-21861064D02*
X30913390Y-21908683D01*
X30913390Y-21908683D02*
X31056247Y-21908683D01*
X31056247Y-21908683D02*
X31246723Y-21861064D01*
X31246723Y-21861064D02*
X31341961Y-21813445D01*
X31341961Y-21813445D02*
X31437200Y-21718207D01*
X31437200Y-21718207D02*
X31484819Y-21575350D01*
X31484819Y-21575350D02*
X31484819Y-21480112D01*
X31484819Y-21480112D02*
X31437200Y-21337255D01*
X31437200Y-21337255D02*
X31389580Y-21289636D01*
X31389580Y-21289636D02*
X31056247Y-21289636D01*
X31056247Y-21289636D02*
X31056247Y-21480112D01*
X31484819Y-20861064D02*
X30484819Y-20861064D01*
X30484819Y-20861064D02*
X30484819Y-20480112D01*
X30484819Y-20480112D02*
X30532438Y-20384874D01*
X30532438Y-20384874D02*
X30580057Y-20337255D01*
X30580057Y-20337255D02*
X30675295Y-20289636D01*
X30675295Y-20289636D02*
X30818152Y-20289636D01*
X30818152Y-20289636D02*
X30913390Y-20337255D01*
X30913390Y-20337255D02*
X30961009Y-20384874D01*
X30961009Y-20384874D02*
X31008628Y-20480112D01*
X31008628Y-20480112D02*
X31008628Y-20861064D01*
X31484819Y-19861064D02*
X30484819Y-19861064D01*
X30484819Y-19194398D02*
X30484819Y-19003922D01*
X30484819Y-19003922D02*
X30532438Y-18908684D01*
X30532438Y-18908684D02*
X30627676Y-18813446D01*
X30627676Y-18813446D02*
X30818152Y-18765827D01*
X30818152Y-18765827D02*
X31151485Y-18765827D01*
X31151485Y-18765827D02*
X31341961Y-18813446D01*
X31341961Y-18813446D02*
X31437200Y-18908684D01*
X31437200Y-18908684D02*
X31484819Y-19003922D01*
X31484819Y-19003922D02*
X31484819Y-19194398D01*
X31484819Y-19194398D02*
X31437200Y-19289636D01*
X31437200Y-19289636D02*
X31341961Y-19384874D01*
X31341961Y-19384874D02*
X31151485Y-19432493D01*
X31151485Y-19432493D02*
X30818152Y-19432493D01*
X30818152Y-19432493D02*
X30627676Y-19384874D01*
X30627676Y-19384874D02*
X30532438Y-19289636D01*
X30532438Y-19289636D02*
X30484819Y-19194398D01*
X30580057Y-18384874D02*
X30532438Y-18337255D01*
X30532438Y-18337255D02*
X30484819Y-18242017D01*
X30484819Y-18242017D02*
X30484819Y-18003922D01*
X30484819Y-18003922D02*
X30532438Y-17908684D01*
X30532438Y-17908684D02*
X30580057Y-17861065D01*
X30580057Y-17861065D02*
X30675295Y-17813446D01*
X30675295Y-17813446D02*
X30770533Y-17813446D01*
X30770533Y-17813446D02*
X30913390Y-17861065D01*
X30913390Y-17861065D02*
X31484819Y-18432493D01*
X31484819Y-18432493D02*
X31484819Y-17813446D01*
X31103866Y-17527731D02*
X31056247Y-17480112D01*
X31056247Y-17480112D02*
X31008628Y-17384874D01*
X31008628Y-17384874D02*
X31103866Y-17194398D01*
X31103866Y-17194398D02*
X31056247Y-17099160D01*
X31056247Y-17099160D02*
X31008628Y-17051541D01*
X45772438Y-36269411D02*
X45724819Y-36364649D01*
X45724819Y-36364649D02*
X45724819Y-36507506D01*
X45724819Y-36507506D02*
X45772438Y-36650363D01*
X45772438Y-36650363D02*
X45867676Y-36745601D01*
X45867676Y-36745601D02*
X45962914Y-36793220D01*
X45962914Y-36793220D02*
X46153390Y-36840839D01*
X46153390Y-36840839D02*
X46296247Y-36840839D01*
X46296247Y-36840839D02*
X46486723Y-36793220D01*
X46486723Y-36793220D02*
X46581961Y-36745601D01*
X46581961Y-36745601D02*
X46677200Y-36650363D01*
X46677200Y-36650363D02*
X46724819Y-36507506D01*
X46724819Y-36507506D02*
X46724819Y-36412268D01*
X46724819Y-36412268D02*
X46677200Y-36269411D01*
X46677200Y-36269411D02*
X46629580Y-36221792D01*
X46629580Y-36221792D02*
X46296247Y-36221792D01*
X46296247Y-36221792D02*
X46296247Y-36412268D01*
X46724819Y-35793220D02*
X45724819Y-35793220D01*
X45724819Y-35793220D02*
X46724819Y-35221792D01*
X46724819Y-35221792D02*
X45724819Y-35221792D01*
X46724819Y-34745601D02*
X45724819Y-34745601D01*
X45724819Y-34745601D02*
X45724819Y-34507506D01*
X45724819Y-34507506D02*
X45772438Y-34364649D01*
X45772438Y-34364649D02*
X45867676Y-34269411D01*
X45867676Y-34269411D02*
X45962914Y-34221792D01*
X45962914Y-34221792D02*
X46153390Y-34174173D01*
X46153390Y-34174173D02*
X46296247Y-34174173D01*
X46296247Y-34174173D02*
X46486723Y-34221792D01*
X46486723Y-34221792D02*
X46581961Y-34269411D01*
X46581961Y-34269411D02*
X46677200Y-34364649D01*
X46677200Y-34364649D02*
X46724819Y-34507506D01*
X46724819Y-34507506D02*
X46724819Y-34745601D01*
X35612438Y-19194398D02*
X35564819Y-19289636D01*
X35564819Y-19289636D02*
X35564819Y-19432493D01*
X35564819Y-19432493D02*
X35612438Y-19575350D01*
X35612438Y-19575350D02*
X35707676Y-19670588D01*
X35707676Y-19670588D02*
X35802914Y-19718207D01*
X35802914Y-19718207D02*
X35993390Y-19765826D01*
X35993390Y-19765826D02*
X36136247Y-19765826D01*
X36136247Y-19765826D02*
X36326723Y-19718207D01*
X36326723Y-19718207D02*
X36421961Y-19670588D01*
X36421961Y-19670588D02*
X36517200Y-19575350D01*
X36517200Y-19575350D02*
X36564819Y-19432493D01*
X36564819Y-19432493D02*
X36564819Y-19337255D01*
X36564819Y-19337255D02*
X36517200Y-19194398D01*
X36517200Y-19194398D02*
X36469580Y-19146779D01*
X36469580Y-19146779D02*
X36136247Y-19146779D01*
X36136247Y-19146779D02*
X36136247Y-19337255D01*
X36564819Y-18718207D02*
X35564819Y-18718207D01*
X35564819Y-18718207D02*
X36564819Y-18146779D01*
X36564819Y-18146779D02*
X35564819Y-18146779D01*
X36564819Y-17670588D02*
X35564819Y-17670588D01*
X35564819Y-17670588D02*
X35564819Y-17432493D01*
X35564819Y-17432493D02*
X35612438Y-17289636D01*
X35612438Y-17289636D02*
X35707676Y-17194398D01*
X35707676Y-17194398D02*
X35802914Y-17146779D01*
X35802914Y-17146779D02*
X35993390Y-17099160D01*
X35993390Y-17099160D02*
X36136247Y-17099160D01*
X36136247Y-17099160D02*
X36326723Y-17146779D01*
X36326723Y-17146779D02*
X36421961Y-17194398D01*
X36421961Y-17194398D02*
X36517200Y-17289636D01*
X36517200Y-17289636D02*
X36564819Y-17432493D01*
X36564819Y-17432493D02*
X36564819Y-17670588D01*
X59617819Y-28231904D02*
X60427342Y-28231904D01*
X60427342Y-28231904D02*
X60522580Y-28184285D01*
X60522580Y-28184285D02*
X60570200Y-28136666D01*
X60570200Y-28136666D02*
X60617819Y-28041428D01*
X60617819Y-28041428D02*
X60617819Y-27850952D01*
X60617819Y-27850952D02*
X60570200Y-27755714D01*
X60570200Y-27755714D02*
X60522580Y-27708095D01*
X60522580Y-27708095D02*
X60427342Y-27660476D01*
X60427342Y-27660476D02*
X59617819Y-27660476D01*
X60570200Y-27231904D02*
X60617819Y-27089047D01*
X60617819Y-27089047D02*
X60617819Y-26850952D01*
X60617819Y-26850952D02*
X60570200Y-26755714D01*
X60570200Y-26755714D02*
X60522580Y-26708095D01*
X60522580Y-26708095D02*
X60427342Y-26660476D01*
X60427342Y-26660476D02*
X60332104Y-26660476D01*
X60332104Y-26660476D02*
X60236866Y-26708095D01*
X60236866Y-26708095D02*
X60189247Y-26755714D01*
X60189247Y-26755714D02*
X60141628Y-26850952D01*
X60141628Y-26850952D02*
X60094009Y-27041428D01*
X60094009Y-27041428D02*
X60046390Y-27136666D01*
X60046390Y-27136666D02*
X59998771Y-27184285D01*
X59998771Y-27184285D02*
X59903533Y-27231904D01*
X59903533Y-27231904D02*
X59808295Y-27231904D01*
X59808295Y-27231904D02*
X59713057Y-27184285D01*
X59713057Y-27184285D02*
X59665438Y-27136666D01*
X59665438Y-27136666D02*
X59617819Y-27041428D01*
X59617819Y-27041428D02*
X59617819Y-26803333D01*
X59617819Y-26803333D02*
X59665438Y-26660476D01*
X60094009Y-25898571D02*
X60141628Y-25755714D01*
X60141628Y-25755714D02*
X60189247Y-25708095D01*
X60189247Y-25708095D02*
X60284485Y-25660476D01*
X60284485Y-25660476D02*
X60427342Y-25660476D01*
X60427342Y-25660476D02*
X60522580Y-25708095D01*
X60522580Y-25708095D02*
X60570200Y-25755714D01*
X60570200Y-25755714D02*
X60617819Y-25850952D01*
X60617819Y-25850952D02*
X60617819Y-26231904D01*
X60617819Y-26231904D02*
X59617819Y-26231904D01*
X59617819Y-26231904D02*
X59617819Y-25898571D01*
X59617819Y-25898571D02*
X59665438Y-25803333D01*
X59665438Y-25803333D02*
X59713057Y-25755714D01*
X59713057Y-25755714D02*
X59808295Y-25708095D01*
X59808295Y-25708095D02*
X59903533Y-25708095D01*
X59903533Y-25708095D02*
X59998771Y-25755714D01*
X59998771Y-25755714D02*
X60046390Y-25803333D01*
X60046390Y-25803333D02*
X60094009Y-25898571D01*
X60094009Y-25898571D02*
X60094009Y-26231904D01*
X22912438Y-36269411D02*
X22864819Y-36364649D01*
X22864819Y-36364649D02*
X22864819Y-36507506D01*
X22864819Y-36507506D02*
X22912438Y-36650363D01*
X22912438Y-36650363D02*
X23007676Y-36745601D01*
X23007676Y-36745601D02*
X23102914Y-36793220D01*
X23102914Y-36793220D02*
X23293390Y-36840839D01*
X23293390Y-36840839D02*
X23436247Y-36840839D01*
X23436247Y-36840839D02*
X23626723Y-36793220D01*
X23626723Y-36793220D02*
X23721961Y-36745601D01*
X23721961Y-36745601D02*
X23817200Y-36650363D01*
X23817200Y-36650363D02*
X23864819Y-36507506D01*
X23864819Y-36507506D02*
X23864819Y-36412268D01*
X23864819Y-36412268D02*
X23817200Y-36269411D01*
X23817200Y-36269411D02*
X23769580Y-36221792D01*
X23769580Y-36221792D02*
X23436247Y-36221792D01*
X23436247Y-36221792D02*
X23436247Y-36412268D01*
X23864819Y-35793220D02*
X22864819Y-35793220D01*
X22864819Y-35793220D02*
X23864819Y-35221792D01*
X23864819Y-35221792D02*
X22864819Y-35221792D01*
X23864819Y-34745601D02*
X22864819Y-34745601D01*
X22864819Y-34745601D02*
X22864819Y-34507506D01*
X22864819Y-34507506D02*
X22912438Y-34364649D01*
X22912438Y-34364649D02*
X23007676Y-34269411D01*
X23007676Y-34269411D02*
X23102914Y-34221792D01*
X23102914Y-34221792D02*
X23293390Y-34174173D01*
X23293390Y-34174173D02*
X23436247Y-34174173D01*
X23436247Y-34174173D02*
X23626723Y-34221792D01*
X23626723Y-34221792D02*
X23721961Y-34269411D01*
X23721961Y-34269411D02*
X23817200Y-34364649D01*
X23817200Y-34364649D02*
X23864819Y-34507506D01*
X23864819Y-34507506D02*
X23864819Y-34745601D01*
X44309580Y-70290476D02*
X44357200Y-70338095D01*
X44357200Y-70338095D02*
X44404819Y-70480952D01*
X44404819Y-70480952D02*
X44404819Y-70576190D01*
X44404819Y-70576190D02*
X44357200Y-70719047D01*
X44357200Y-70719047D02*
X44261961Y-70814285D01*
X44261961Y-70814285D02*
X44166723Y-70861904D01*
X44166723Y-70861904D02*
X43976247Y-70909523D01*
X43976247Y-70909523D02*
X43833390Y-70909523D01*
X43833390Y-70909523D02*
X43642914Y-70861904D01*
X43642914Y-70861904D02*
X43547676Y-70814285D01*
X43547676Y-70814285D02*
X43452438Y-70719047D01*
X43452438Y-70719047D02*
X43404819Y-70576190D01*
X43404819Y-70576190D02*
X43404819Y-70480952D01*
X43404819Y-70480952D02*
X43452438Y-70338095D01*
X43452438Y-70338095D02*
X43500057Y-70290476D01*
X44404819Y-69861904D02*
X43404819Y-69861904D01*
X43404819Y-69861904D02*
X44404819Y-69290476D01*
X44404819Y-69290476D02*
X43404819Y-69290476D01*
X43500057Y-68861904D02*
X43452438Y-68814285D01*
X43452438Y-68814285D02*
X43404819Y-68719047D01*
X43404819Y-68719047D02*
X43404819Y-68480952D01*
X43404819Y-68480952D02*
X43452438Y-68385714D01*
X43452438Y-68385714D02*
X43500057Y-68338095D01*
X43500057Y-68338095D02*
X43595295Y-68290476D01*
X43595295Y-68290476D02*
X43690533Y-68290476D01*
X43690533Y-68290476D02*
X43833390Y-68338095D01*
X43833390Y-68338095D02*
X44404819Y-68909523D01*
X44404819Y-68909523D02*
X44404819Y-68290476D01*
X48904819Y-42942857D02*
X48428628Y-43276190D01*
X48904819Y-43514285D02*
X47904819Y-43514285D01*
X47904819Y-43514285D02*
X47904819Y-43133333D01*
X47904819Y-43133333D02*
X47952438Y-43038095D01*
X47952438Y-43038095D02*
X48000057Y-42990476D01*
X48000057Y-42990476D02*
X48095295Y-42942857D01*
X48095295Y-42942857D02*
X48238152Y-42942857D01*
X48238152Y-42942857D02*
X48333390Y-42990476D01*
X48333390Y-42990476D02*
X48381009Y-43038095D01*
X48381009Y-43038095D02*
X48428628Y-43133333D01*
X48428628Y-43133333D02*
X48428628Y-43514285D01*
X48904819Y-41990476D02*
X48904819Y-42561904D01*
X48904819Y-42276190D02*
X47904819Y-42276190D01*
X47904819Y-42276190D02*
X48047676Y-42371428D01*
X48047676Y-42371428D02*
X48142914Y-42466666D01*
X48142914Y-42466666D02*
X48190533Y-42561904D01*
X48000057Y-41609523D02*
X47952438Y-41561904D01*
X47952438Y-41561904D02*
X47904819Y-41466666D01*
X47904819Y-41466666D02*
X47904819Y-41228571D01*
X47904819Y-41228571D02*
X47952438Y-41133333D01*
X47952438Y-41133333D02*
X48000057Y-41085714D01*
X48000057Y-41085714D02*
X48095295Y-41038095D01*
X48095295Y-41038095D02*
X48190533Y-41038095D01*
X48190533Y-41038095D02*
X48333390Y-41085714D01*
X48333390Y-41085714D02*
X48904819Y-41657142D01*
X48904819Y-41657142D02*
X48904819Y-41038095D01*
X47704819Y-68366666D02*
X47228628Y-68699999D01*
X47704819Y-68938094D02*
X46704819Y-68938094D01*
X46704819Y-68938094D02*
X46704819Y-68557142D01*
X46704819Y-68557142D02*
X46752438Y-68461904D01*
X46752438Y-68461904D02*
X46800057Y-68414285D01*
X46800057Y-68414285D02*
X46895295Y-68366666D01*
X46895295Y-68366666D02*
X47038152Y-68366666D01*
X47038152Y-68366666D02*
X47133390Y-68414285D01*
X47133390Y-68414285D02*
X47181009Y-68461904D01*
X47181009Y-68461904D02*
X47228628Y-68557142D01*
X47228628Y-68557142D02*
X47228628Y-68938094D01*
X46704819Y-68033332D02*
X46704819Y-67414285D01*
X46704819Y-67414285D02*
X47085771Y-67747618D01*
X47085771Y-67747618D02*
X47085771Y-67604761D01*
X47085771Y-67604761D02*
X47133390Y-67509523D01*
X47133390Y-67509523D02*
X47181009Y-67461904D01*
X47181009Y-67461904D02*
X47276247Y-67414285D01*
X47276247Y-67414285D02*
X47514342Y-67414285D01*
X47514342Y-67414285D02*
X47609580Y-67461904D01*
X47609580Y-67461904D02*
X47657200Y-67509523D01*
X47657200Y-67509523D02*
X47704819Y-67604761D01*
X47704819Y-67604761D02*
X47704819Y-67890475D01*
X47704819Y-67890475D02*
X47657200Y-67985713D01*
X47657200Y-67985713D02*
X47609580Y-68033332D01*
X53904819Y-68638094D02*
X52904819Y-68638094D01*
X52904819Y-68638094D02*
X52904819Y-68399999D01*
X52904819Y-68399999D02*
X52952438Y-68257142D01*
X52952438Y-68257142D02*
X53047676Y-68161904D01*
X53047676Y-68161904D02*
X53142914Y-68114285D01*
X53142914Y-68114285D02*
X53333390Y-68066666D01*
X53333390Y-68066666D02*
X53476247Y-68066666D01*
X53476247Y-68066666D02*
X53666723Y-68114285D01*
X53666723Y-68114285D02*
X53761961Y-68161904D01*
X53761961Y-68161904D02*
X53857200Y-68257142D01*
X53857200Y-68257142D02*
X53904819Y-68399999D01*
X53904819Y-68399999D02*
X53904819Y-68638094D01*
X53238152Y-67209523D02*
X53904819Y-67209523D01*
X52857200Y-67447618D02*
X53571485Y-67685713D01*
X53571485Y-67685713D02*
X53571485Y-67066666D01*
X33509580Y-61466666D02*
X33557200Y-61514285D01*
X33557200Y-61514285D02*
X33604819Y-61657142D01*
X33604819Y-61657142D02*
X33604819Y-61752380D01*
X33604819Y-61752380D02*
X33557200Y-61895237D01*
X33557200Y-61895237D02*
X33461961Y-61990475D01*
X33461961Y-61990475D02*
X33366723Y-62038094D01*
X33366723Y-62038094D02*
X33176247Y-62085713D01*
X33176247Y-62085713D02*
X33033390Y-62085713D01*
X33033390Y-62085713D02*
X32842914Y-62038094D01*
X32842914Y-62038094D02*
X32747676Y-61990475D01*
X32747676Y-61990475D02*
X32652438Y-61895237D01*
X32652438Y-61895237D02*
X32604819Y-61752380D01*
X32604819Y-61752380D02*
X32604819Y-61657142D01*
X32604819Y-61657142D02*
X32652438Y-61514285D01*
X32652438Y-61514285D02*
X32700057Y-61466666D01*
X33604819Y-60514285D02*
X33604819Y-61085713D01*
X33604819Y-60799999D02*
X32604819Y-60799999D01*
X32604819Y-60799999D02*
X32747676Y-60895237D01*
X32747676Y-60895237D02*
X32842914Y-60990475D01*
X32842914Y-60990475D02*
X32890533Y-61085713D01*
X48083333Y-63454819D02*
X47750000Y-62978628D01*
X47511905Y-63454819D02*
X47511905Y-62454819D01*
X47511905Y-62454819D02*
X47892857Y-62454819D01*
X47892857Y-62454819D02*
X47988095Y-62502438D01*
X47988095Y-62502438D02*
X48035714Y-62550057D01*
X48035714Y-62550057D02*
X48083333Y-62645295D01*
X48083333Y-62645295D02*
X48083333Y-62788152D01*
X48083333Y-62788152D02*
X48035714Y-62883390D01*
X48035714Y-62883390D02*
X47988095Y-62931009D01*
X47988095Y-62931009D02*
X47892857Y-62978628D01*
X47892857Y-62978628D02*
X47511905Y-62978628D01*
X48940476Y-62788152D02*
X48940476Y-63454819D01*
X48702381Y-62407200D02*
X48464286Y-63121485D01*
X48464286Y-63121485D02*
X49083333Y-63121485D01*
X35554819Y-46233333D02*
X36269104Y-46233333D01*
X36269104Y-46233333D02*
X36411961Y-46280952D01*
X36411961Y-46280952D02*
X36507200Y-46376190D01*
X36507200Y-46376190D02*
X36554819Y-46519047D01*
X36554819Y-46519047D02*
X36554819Y-46614285D01*
X35650057Y-45804761D02*
X35602438Y-45757142D01*
X35602438Y-45757142D02*
X35554819Y-45661904D01*
X35554819Y-45661904D02*
X35554819Y-45423809D01*
X35554819Y-45423809D02*
X35602438Y-45328571D01*
X35602438Y-45328571D02*
X35650057Y-45280952D01*
X35650057Y-45280952D02*
X35745295Y-45233333D01*
X35745295Y-45233333D02*
X35840533Y-45233333D01*
X35840533Y-45233333D02*
X35983390Y-45280952D01*
X35983390Y-45280952D02*
X36554819Y-45852380D01*
X36554819Y-45852380D02*
X36554819Y-45233333D01*
X18216666Y-67504819D02*
X18216666Y-68219104D01*
X18216666Y-68219104D02*
X18169047Y-68361961D01*
X18169047Y-68361961D02*
X18073809Y-68457200D01*
X18073809Y-68457200D02*
X17930952Y-68504819D01*
X17930952Y-68504819D02*
X17835714Y-68504819D01*
X19216666Y-68504819D02*
X18645238Y-68504819D01*
X18930952Y-68504819D02*
X18930952Y-67504819D01*
X18930952Y-67504819D02*
X18835714Y-67647676D01*
X18835714Y-67647676D02*
X18740476Y-67742914D01*
X18740476Y-67742914D02*
X18645238Y-67790533D01*
X40054819Y-42166666D02*
X39578628Y-42499999D01*
X40054819Y-42738094D02*
X39054819Y-42738094D01*
X39054819Y-42738094D02*
X39054819Y-42357142D01*
X39054819Y-42357142D02*
X39102438Y-42261904D01*
X39102438Y-42261904D02*
X39150057Y-42214285D01*
X39150057Y-42214285D02*
X39245295Y-42166666D01*
X39245295Y-42166666D02*
X39388152Y-42166666D01*
X39388152Y-42166666D02*
X39483390Y-42214285D01*
X39483390Y-42214285D02*
X39531009Y-42261904D01*
X39531009Y-42261904D02*
X39578628Y-42357142D01*
X39578628Y-42357142D02*
X39578628Y-42738094D01*
X39483390Y-41595237D02*
X39435771Y-41690475D01*
X39435771Y-41690475D02*
X39388152Y-41738094D01*
X39388152Y-41738094D02*
X39292914Y-41785713D01*
X39292914Y-41785713D02*
X39245295Y-41785713D01*
X39245295Y-41785713D02*
X39150057Y-41738094D01*
X39150057Y-41738094D02*
X39102438Y-41690475D01*
X39102438Y-41690475D02*
X39054819Y-41595237D01*
X39054819Y-41595237D02*
X39054819Y-41404761D01*
X39054819Y-41404761D02*
X39102438Y-41309523D01*
X39102438Y-41309523D02*
X39150057Y-41261904D01*
X39150057Y-41261904D02*
X39245295Y-41214285D01*
X39245295Y-41214285D02*
X39292914Y-41214285D01*
X39292914Y-41214285D02*
X39388152Y-41261904D01*
X39388152Y-41261904D02*
X39435771Y-41309523D01*
X39435771Y-41309523D02*
X39483390Y-41404761D01*
X39483390Y-41404761D02*
X39483390Y-41595237D01*
X39483390Y-41595237D02*
X39531009Y-41690475D01*
X39531009Y-41690475D02*
X39578628Y-41738094D01*
X39578628Y-41738094D02*
X39673866Y-41785713D01*
X39673866Y-41785713D02*
X39864342Y-41785713D01*
X39864342Y-41785713D02*
X39959580Y-41738094D01*
X39959580Y-41738094D02*
X40007200Y-41690475D01*
X40007200Y-41690475D02*
X40054819Y-41595237D01*
X40054819Y-41595237D02*
X40054819Y-41404761D01*
X40054819Y-41404761D02*
X40007200Y-41309523D01*
X40007200Y-41309523D02*
X39959580Y-41261904D01*
X39959580Y-41261904D02*
X39864342Y-41214285D01*
X39864342Y-41214285D02*
X39673866Y-41214285D01*
X39673866Y-41214285D02*
X39578628Y-41261904D01*
X39578628Y-41261904D02*
X39531009Y-41309523D01*
X39531009Y-41309523D02*
X39483390Y-41404761D01*
X37904819Y-24466666D02*
X37428628Y-24799999D01*
X37904819Y-25038094D02*
X36904819Y-25038094D01*
X36904819Y-25038094D02*
X36904819Y-24657142D01*
X36904819Y-24657142D02*
X36952438Y-24561904D01*
X36952438Y-24561904D02*
X37000057Y-24514285D01*
X37000057Y-24514285D02*
X37095295Y-24466666D01*
X37095295Y-24466666D02*
X37238152Y-24466666D01*
X37238152Y-24466666D02*
X37333390Y-24514285D01*
X37333390Y-24514285D02*
X37381009Y-24561904D01*
X37381009Y-24561904D02*
X37428628Y-24657142D01*
X37428628Y-24657142D02*
X37428628Y-25038094D01*
X36904819Y-23609523D02*
X36904819Y-23799999D01*
X36904819Y-23799999D02*
X36952438Y-23895237D01*
X36952438Y-23895237D02*
X37000057Y-23942856D01*
X37000057Y-23942856D02*
X37142914Y-24038094D01*
X37142914Y-24038094D02*
X37333390Y-24085713D01*
X37333390Y-24085713D02*
X37714342Y-24085713D01*
X37714342Y-24085713D02*
X37809580Y-24038094D01*
X37809580Y-24038094D02*
X37857200Y-23990475D01*
X37857200Y-23990475D02*
X37904819Y-23895237D01*
X37904819Y-23895237D02*
X37904819Y-23704761D01*
X37904819Y-23704761D02*
X37857200Y-23609523D01*
X37857200Y-23609523D02*
X37809580Y-23561904D01*
X37809580Y-23561904D02*
X37714342Y-23514285D01*
X37714342Y-23514285D02*
X37476247Y-23514285D01*
X37476247Y-23514285D02*
X37381009Y-23561904D01*
X37381009Y-23561904D02*
X37333390Y-23609523D01*
X37333390Y-23609523D02*
X37285771Y-23704761D01*
X37285771Y-23704761D02*
X37285771Y-23895237D01*
X37285771Y-23895237D02*
X37333390Y-23990475D01*
X37333390Y-23990475D02*
X37381009Y-24038094D01*
X37381009Y-24038094D02*
X37476247Y-24085713D01*
X60104819Y-55361904D02*
X60914342Y-55361904D01*
X60914342Y-55361904D02*
X61009580Y-55314285D01*
X61009580Y-55314285D02*
X61057200Y-55266666D01*
X61057200Y-55266666D02*
X61104819Y-55171428D01*
X61104819Y-55171428D02*
X61104819Y-54980952D01*
X61104819Y-54980952D02*
X61057200Y-54885714D01*
X61057200Y-54885714D02*
X61009580Y-54838095D01*
X61009580Y-54838095D02*
X60914342Y-54790476D01*
X60914342Y-54790476D02*
X60104819Y-54790476D01*
X60200057Y-54361904D02*
X60152438Y-54314285D01*
X60152438Y-54314285D02*
X60104819Y-54219047D01*
X60104819Y-54219047D02*
X60104819Y-53980952D01*
X60104819Y-53980952D02*
X60152438Y-53885714D01*
X60152438Y-53885714D02*
X60200057Y-53838095D01*
X60200057Y-53838095D02*
X60295295Y-53790476D01*
X60295295Y-53790476D02*
X60390533Y-53790476D01*
X60390533Y-53790476D02*
X60533390Y-53838095D01*
X60533390Y-53838095D02*
X61104819Y-54409523D01*
X61104819Y-54409523D02*
X61104819Y-53790476D01*
X60204819Y-58033333D02*
X60919104Y-58033333D01*
X60919104Y-58033333D02*
X61061961Y-58080952D01*
X61061961Y-58080952D02*
X61157200Y-58176190D01*
X61157200Y-58176190D02*
X61204819Y-58319047D01*
X61204819Y-58319047D02*
X61204819Y-58414285D01*
X60204819Y-57652380D02*
X60204819Y-57033333D01*
X60204819Y-57033333D02*
X60585771Y-57366666D01*
X60585771Y-57366666D02*
X60585771Y-57223809D01*
X60585771Y-57223809D02*
X60633390Y-57128571D01*
X60633390Y-57128571D02*
X60681009Y-57080952D01*
X60681009Y-57080952D02*
X60776247Y-57033333D01*
X60776247Y-57033333D02*
X61014342Y-57033333D01*
X61014342Y-57033333D02*
X61109580Y-57080952D01*
X61109580Y-57080952D02*
X61157200Y-57128571D01*
X61157200Y-57128571D02*
X61204819Y-57223809D01*
X61204819Y-57223809D02*
X61204819Y-57509523D01*
X61204819Y-57509523D02*
X61157200Y-57604761D01*
X61157200Y-57604761D02*
X61109580Y-57652380D01*
X33329580Y-52416666D02*
X33377200Y-52464285D01*
X33377200Y-52464285D02*
X33424819Y-52607142D01*
X33424819Y-52607142D02*
X33424819Y-52702380D01*
X33424819Y-52702380D02*
X33377200Y-52845237D01*
X33377200Y-52845237D02*
X33281961Y-52940475D01*
X33281961Y-52940475D02*
X33186723Y-52988094D01*
X33186723Y-52988094D02*
X32996247Y-53035713D01*
X32996247Y-53035713D02*
X32853390Y-53035713D01*
X32853390Y-53035713D02*
X32662914Y-52988094D01*
X32662914Y-52988094D02*
X32567676Y-52940475D01*
X32567676Y-52940475D02*
X32472438Y-52845237D01*
X32472438Y-52845237D02*
X32424819Y-52702380D01*
X32424819Y-52702380D02*
X32424819Y-52607142D01*
X32424819Y-52607142D02*
X32472438Y-52464285D01*
X32472438Y-52464285D02*
X32520057Y-52416666D01*
X32424819Y-52083332D02*
X32424819Y-51464285D01*
X32424819Y-51464285D02*
X32805771Y-51797618D01*
X32805771Y-51797618D02*
X32805771Y-51654761D01*
X32805771Y-51654761D02*
X32853390Y-51559523D01*
X32853390Y-51559523D02*
X32901009Y-51511904D01*
X32901009Y-51511904D02*
X32996247Y-51464285D01*
X32996247Y-51464285D02*
X33234342Y-51464285D01*
X33234342Y-51464285D02*
X33329580Y-51511904D01*
X33329580Y-51511904D02*
X33377200Y-51559523D01*
X33377200Y-51559523D02*
X33424819Y-51654761D01*
X33424819Y-51654761D02*
X33424819Y-51940475D01*
X33424819Y-51940475D02*
X33377200Y-52035713D01*
X33377200Y-52035713D02*
X33329580Y-52083332D01*
X45304819Y-42166666D02*
X44828628Y-42499999D01*
X45304819Y-42738094D02*
X44304819Y-42738094D01*
X44304819Y-42738094D02*
X44304819Y-42357142D01*
X44304819Y-42357142D02*
X44352438Y-42261904D01*
X44352438Y-42261904D02*
X44400057Y-42214285D01*
X44400057Y-42214285D02*
X44495295Y-42166666D01*
X44495295Y-42166666D02*
X44638152Y-42166666D01*
X44638152Y-42166666D02*
X44733390Y-42214285D01*
X44733390Y-42214285D02*
X44781009Y-42261904D01*
X44781009Y-42261904D02*
X44828628Y-42357142D01*
X44828628Y-42357142D02*
X44828628Y-42738094D01*
X45304819Y-41690475D02*
X45304819Y-41499999D01*
X45304819Y-41499999D02*
X45257200Y-41404761D01*
X45257200Y-41404761D02*
X45209580Y-41357142D01*
X45209580Y-41357142D02*
X45066723Y-41261904D01*
X45066723Y-41261904D02*
X44876247Y-41214285D01*
X44876247Y-41214285D02*
X44495295Y-41214285D01*
X44495295Y-41214285D02*
X44400057Y-41261904D01*
X44400057Y-41261904D02*
X44352438Y-41309523D01*
X44352438Y-41309523D02*
X44304819Y-41404761D01*
X44304819Y-41404761D02*
X44304819Y-41595237D01*
X44304819Y-41595237D02*
X44352438Y-41690475D01*
X44352438Y-41690475D02*
X44400057Y-41738094D01*
X44400057Y-41738094D02*
X44495295Y-41785713D01*
X44495295Y-41785713D02*
X44733390Y-41785713D01*
X44733390Y-41785713D02*
X44828628Y-41738094D01*
X44828628Y-41738094D02*
X44876247Y-41690475D01*
X44876247Y-41690475D02*
X44923866Y-41595237D01*
X44923866Y-41595237D02*
X44923866Y-41404761D01*
X44923866Y-41404761D02*
X44876247Y-41309523D01*
X44876247Y-41309523D02*
X44828628Y-41261904D01*
X44828628Y-41261904D02*
X44733390Y-41214285D01*
X32154819Y-24779166D02*
X31678628Y-25112499D01*
X32154819Y-25350594D02*
X31154819Y-25350594D01*
X31154819Y-25350594D02*
X31154819Y-24969642D01*
X31154819Y-24969642D02*
X31202438Y-24874404D01*
X31202438Y-24874404D02*
X31250057Y-24826785D01*
X31250057Y-24826785D02*
X31345295Y-24779166D01*
X31345295Y-24779166D02*
X31488152Y-24779166D01*
X31488152Y-24779166D02*
X31583390Y-24826785D01*
X31583390Y-24826785D02*
X31631009Y-24874404D01*
X31631009Y-24874404D02*
X31678628Y-24969642D01*
X31678628Y-24969642D02*
X31678628Y-25350594D01*
X31154819Y-24445832D02*
X31154819Y-23779166D01*
X31154819Y-23779166D02*
X32154819Y-24207737D01*
X59111905Y-42754819D02*
X59111905Y-41754819D01*
X59111905Y-41754819D02*
X59350000Y-41754819D01*
X59350000Y-41754819D02*
X59492857Y-41802438D01*
X59492857Y-41802438D02*
X59588095Y-41897676D01*
X59588095Y-41897676D02*
X59635714Y-41992914D01*
X59635714Y-41992914D02*
X59683333Y-42183390D01*
X59683333Y-42183390D02*
X59683333Y-42326247D01*
X59683333Y-42326247D02*
X59635714Y-42516723D01*
X59635714Y-42516723D02*
X59588095Y-42611961D01*
X59588095Y-42611961D02*
X59492857Y-42707200D01*
X59492857Y-42707200D02*
X59350000Y-42754819D01*
X59350000Y-42754819D02*
X59111905Y-42754819D01*
X60064286Y-41850057D02*
X60111905Y-41802438D01*
X60111905Y-41802438D02*
X60207143Y-41754819D01*
X60207143Y-41754819D02*
X60445238Y-41754819D01*
X60445238Y-41754819D02*
X60540476Y-41802438D01*
X60540476Y-41802438D02*
X60588095Y-41850057D01*
X60588095Y-41850057D02*
X60635714Y-41945295D01*
X60635714Y-41945295D02*
X60635714Y-42040533D01*
X60635714Y-42040533D02*
X60588095Y-42183390D01*
X60588095Y-42183390D02*
X60016667Y-42754819D01*
X60016667Y-42754819D02*
X60635714Y-42754819D01*
X49783333Y-55159580D02*
X49735714Y-55207200D01*
X49735714Y-55207200D02*
X49592857Y-55254819D01*
X49592857Y-55254819D02*
X49497619Y-55254819D01*
X49497619Y-55254819D02*
X49354762Y-55207200D01*
X49354762Y-55207200D02*
X49259524Y-55111961D01*
X49259524Y-55111961D02*
X49211905Y-55016723D01*
X49211905Y-55016723D02*
X49164286Y-54826247D01*
X49164286Y-54826247D02*
X49164286Y-54683390D01*
X49164286Y-54683390D02*
X49211905Y-54492914D01*
X49211905Y-54492914D02*
X49259524Y-54397676D01*
X49259524Y-54397676D02*
X49354762Y-54302438D01*
X49354762Y-54302438D02*
X49497619Y-54254819D01*
X49497619Y-54254819D02*
X49592857Y-54254819D01*
X49592857Y-54254819D02*
X49735714Y-54302438D01*
X49735714Y-54302438D02*
X49783333Y-54350057D01*
X50164286Y-54350057D02*
X50211905Y-54302438D01*
X50211905Y-54302438D02*
X50307143Y-54254819D01*
X50307143Y-54254819D02*
X50545238Y-54254819D01*
X50545238Y-54254819D02*
X50640476Y-54302438D01*
X50640476Y-54302438D02*
X50688095Y-54350057D01*
X50688095Y-54350057D02*
X50735714Y-54445295D01*
X50735714Y-54445295D02*
X50735714Y-54540533D01*
X50735714Y-54540533D02*
X50688095Y-54683390D01*
X50688095Y-54683390D02*
X50116667Y-55254819D01*
X50116667Y-55254819D02*
X50735714Y-55254819D01*
X42409580Y-70190476D02*
X42457200Y-70238095D01*
X42457200Y-70238095D02*
X42504819Y-70380952D01*
X42504819Y-70380952D02*
X42504819Y-70476190D01*
X42504819Y-70476190D02*
X42457200Y-70619047D01*
X42457200Y-70619047D02*
X42361961Y-70714285D01*
X42361961Y-70714285D02*
X42266723Y-70761904D01*
X42266723Y-70761904D02*
X42076247Y-70809523D01*
X42076247Y-70809523D02*
X41933390Y-70809523D01*
X41933390Y-70809523D02*
X41742914Y-70761904D01*
X41742914Y-70761904D02*
X41647676Y-70714285D01*
X41647676Y-70714285D02*
X41552438Y-70619047D01*
X41552438Y-70619047D02*
X41504819Y-70476190D01*
X41504819Y-70476190D02*
X41504819Y-70380952D01*
X41504819Y-70380952D02*
X41552438Y-70238095D01*
X41552438Y-70238095D02*
X41600057Y-70190476D01*
X42504819Y-69761904D02*
X41504819Y-69761904D01*
X41504819Y-69761904D02*
X42504819Y-69190476D01*
X42504819Y-69190476D02*
X41504819Y-69190476D01*
X42504819Y-68190476D02*
X42504819Y-68761904D01*
X42504819Y-68476190D02*
X41504819Y-68476190D01*
X41504819Y-68476190D02*
X41647676Y-68571428D01*
X41647676Y-68571428D02*
X41742914Y-68666666D01*
X41742914Y-68666666D02*
X41790533Y-68761904D01*
X47104819Y-45238094D02*
X46104819Y-45238094D01*
X46104819Y-45238094D02*
X46104819Y-44999999D01*
X46104819Y-44999999D02*
X46152438Y-44857142D01*
X46152438Y-44857142D02*
X46247676Y-44761904D01*
X46247676Y-44761904D02*
X46342914Y-44714285D01*
X46342914Y-44714285D02*
X46533390Y-44666666D01*
X46533390Y-44666666D02*
X46676247Y-44666666D01*
X46676247Y-44666666D02*
X46866723Y-44714285D01*
X46866723Y-44714285D02*
X46961961Y-44761904D01*
X46961961Y-44761904D02*
X47057200Y-44857142D01*
X47057200Y-44857142D02*
X47104819Y-44999999D01*
X47104819Y-44999999D02*
X47104819Y-45238094D01*
X47104819Y-43714285D02*
X47104819Y-44285713D01*
X47104819Y-43999999D02*
X46104819Y-43999999D01*
X46104819Y-43999999D02*
X46247676Y-44095237D01*
X46247676Y-44095237D02*
X46342914Y-44190475D01*
X46342914Y-44190475D02*
X46390533Y-44285713D01*
%TO.C,C5*%
X51650000Y-63210000D02*
X51650000Y-61800000D01*
X49850000Y-61800000D02*
X49850000Y-63210000D01*
X50000000Y-63360000D02*
X51500000Y-63360000D01*
X51650000Y-59590000D02*
X51650000Y-61000000D01*
X49850000Y-61000000D02*
X49850000Y-59590000D01*
X50000000Y-59440000D02*
X51500000Y-59440000D01*
X50000000Y-63360000D02*
G75*
G02*
X49850000Y-63210000I0J150000D01*
G01*
X51650000Y-63210000D02*
G75*
G02*
X51500000Y-63360000I-150000J0D01*
G01*
X49850000Y-59590000D02*
G75*
G02*
X50000000Y-59440000I150000J0D01*
G01*
X51500000Y-59440000D02*
G75*
G02*
X51650000Y-59590000I0J-150000D01*
G01*
%TO.C,C4*%
X51450000Y-48610000D02*
X51450000Y-47200000D01*
X49650000Y-47200000D02*
X49650000Y-48610000D01*
X49800000Y-48760000D02*
X51300000Y-48760000D01*
X51450000Y-44990000D02*
X51450000Y-46400000D01*
X49650000Y-46400000D02*
X49650000Y-44990000D01*
X49800000Y-44840000D02*
X51300000Y-44840000D01*
X49800000Y-48760000D02*
G75*
G02*
X49650000Y-48610000I0J150000D01*
G01*
X51450000Y-48610000D02*
G75*
G02*
X51300000Y-48760000I-150000J0D01*
G01*
X49650000Y-44990000D02*
G75*
G02*
X49800000Y-44840000I150000J0D01*
G01*
X51300000Y-44840000D02*
G75*
G02*
X51450000Y-44990000I0J-150000D01*
G01*
D13*
%TO.C,U1*%
X35890000Y-53340000D02*
X36145000Y-53340000D01*
X35890000Y-57200000D02*
X35890000Y-53340000D01*
X35890000Y-57200000D02*
X35890000Y-61060000D01*
X35890000Y-61060000D02*
X36145000Y-61060000D01*
X46410000Y-53340000D02*
X46155000Y-53340000D01*
X46410000Y-57200000D02*
X46410000Y-53340000D01*
X46410000Y-57200000D02*
X46410000Y-61060000D01*
X46410000Y-61060000D02*
X46155000Y-61060000D01*
X36145000Y-61912500D02*
X35675000Y-62252500D01*
X35675000Y-61572500D01*
X36145000Y-61912500D01*
G36*
X36145000Y-61912500D02*
G01*
X35675000Y-62252500D01*
X35675000Y-61572500D01*
X36145000Y-61912500D01*
G37*
%TO.C,R10*%
X38510436Y-64965000D02*
X38964564Y-64965000D01*
X38510436Y-66435000D02*
X38964564Y-66435000D01*
%TO.C,R2*%
X28835436Y-63065000D02*
X29289564Y-63065000D01*
X28835436Y-64535000D02*
X29289564Y-64535000D01*
%TO.C,R11*%
X42922936Y-64965000D02*
X43377064Y-64965000D01*
X42922936Y-66435000D02*
X43377064Y-66435000D01*
D12*
%TO.C,D3*%
X31420000Y-66640000D02*
X32460000Y-66640000D01*
X31420000Y-68360000D02*
X31420000Y-66640000D01*
X33410000Y-68360000D02*
X32500000Y-68360000D01*
X34480000Y-66640000D02*
X33450000Y-66640000D01*
X34480000Y-68360000D02*
X34480000Y-66640000D01*
D13*
%TO.C,R5*%
X48027500Y-47387258D02*
X48027500Y-46912742D01*
X49072500Y-47387258D02*
X49072500Y-46912742D01*
%TO.C,R1*%
X29289564Y-65190000D02*
X28835436Y-65190000D01*
X29289564Y-66660000D02*
X28835436Y-66660000D01*
D14*
%TO.C,L1*%
X51450000Y-49100000D02*
X48950000Y-49100000D01*
X51450000Y-51720000D02*
X48950000Y-51720000D01*
D13*
%TO.C,U3*%
X15810000Y-17900000D02*
X21810000Y-17900000D01*
X15810000Y-35900000D02*
X15810000Y-17900000D01*
X21810000Y-35900000D02*
X15810000Y-35900000D01*
X21835000Y-14040000D02*
X21835000Y-39900000D01*
X21835000Y-39900000D02*
X61256000Y-39924000D01*
X61256000Y-14040001D02*
X21835000Y-14040000D01*
X61256000Y-14040001D02*
X61256000Y-22652000D01*
X61256000Y-39924000D02*
X61256000Y-31288000D01*
X57954000Y-31288000D02*
X62703800Y-31288000D01*
X62703800Y-22652000D01*
X57954000Y-22652000D01*
X57954000Y-31288000D01*
D14*
%TO.C,CN2*%
X44850000Y-67300000D02*
X46350000Y-67300000D01*
X44850000Y-79900000D02*
X44850000Y-67300000D01*
X44850000Y-79900000D02*
X59850000Y-79900000D01*
X46350000Y-67300000D02*
X46350000Y-70400000D01*
X48380000Y-70400000D02*
X48860000Y-70400000D01*
X50840000Y-70400000D02*
X51360000Y-70400000D01*
X53340000Y-70400000D02*
X53860000Y-70400000D01*
X55840000Y-70400000D02*
X56360000Y-70400000D01*
X58340000Y-70400000D02*
X58350000Y-70400000D01*
X58350000Y-67300000D02*
X59850000Y-67300000D01*
X58350000Y-70400000D02*
X58350000Y-67300000D01*
X59850000Y-67300000D02*
X59850000Y-79900000D01*
D13*
%TO.C,R12*%
X49415000Y-42272936D02*
X49415000Y-42727064D01*
X50885000Y-42272936D02*
X50885000Y-42727064D01*
%TO.C,R3*%
X45440000Y-65272936D02*
X45440000Y-65727064D01*
X46910000Y-65272936D02*
X46910000Y-65727064D01*
D12*
%TO.C,D4*%
X49520000Y-67040000D02*
X50560000Y-67040000D01*
X49520000Y-68760000D02*
X49520000Y-67040000D01*
X51510000Y-68760000D02*
X50600000Y-68760000D01*
X52580000Y-67040000D02*
X51550000Y-67040000D01*
X52580000Y-68760000D02*
X52580000Y-67040000D01*
D13*
%TO.C,C1*%
X33915000Y-61138748D02*
X33915000Y-61661252D01*
X35385000Y-61138748D02*
X35385000Y-61661252D01*
%TO.C,R4*%
X47540000Y-65727064D02*
X47540000Y-65272936D01*
X49010000Y-65727064D02*
X49010000Y-65272936D01*
%TO.C,J2*%
X37230000Y-44820000D02*
X37230000Y-47480000D01*
X42370000Y-44820000D02*
X37230000Y-44820000D01*
X42370000Y-44820000D02*
X42370000Y-47480000D01*
X42370000Y-47480000D02*
X37230000Y-47480000D01*
X43640000Y-44820000D02*
X44970000Y-44820000D01*
X44970000Y-44820000D02*
X44970000Y-46150000D01*
%TO.C,J1*%
X17220000Y-69050000D02*
X18550000Y-69050000D01*
X17220000Y-70380000D02*
X17220000Y-69050000D01*
X17220000Y-71650000D02*
X17220000Y-79330000D01*
X17220000Y-71650000D02*
X19880000Y-71650000D01*
X17220000Y-79330000D02*
X19880000Y-79330000D01*
X19880000Y-71650000D02*
X19880000Y-79330000D01*
%TO.C,R8*%
X40515000Y-42227064D02*
X40515000Y-41772936D01*
X41985000Y-42227064D02*
X41985000Y-41772936D01*
%TO.C,R6*%
X35015000Y-24714564D02*
X35015000Y-24260436D01*
X36485000Y-24714564D02*
X36485000Y-24260436D01*
D14*
%TO.C,U2*%
X52530000Y-44770000D02*
X59650000Y-44770000D01*
X52530000Y-64510000D02*
X52530000Y-44770000D01*
X59650000Y-64510000D02*
X52530000Y-64510000D01*
X59650000Y-64510000D02*
X59650000Y-44860000D01*
D13*
%TO.C,J3*%
X60220000Y-58730000D02*
X61550000Y-58730000D01*
X60220000Y-60060000D02*
X60220000Y-58730000D01*
X60220000Y-61330000D02*
X60220000Y-63930000D01*
X60220000Y-61330000D02*
X62880000Y-61330000D01*
X60220000Y-63930000D02*
X62880000Y-63930000D01*
X62880000Y-61330000D02*
X62880000Y-63930000D01*
%TO.C,C3*%
X33915000Y-52511252D02*
X33915000Y-51988748D01*
X35385000Y-52511252D02*
X35385000Y-51988748D01*
%TO.C,R9*%
X42415000Y-41772936D02*
X42415000Y-42227064D01*
X43885000Y-41772936D02*
X43885000Y-42227064D01*
%TO.C,R7*%
X32815000Y-24272936D02*
X32815000Y-24727064D01*
X34285000Y-24272936D02*
X34285000Y-24727064D01*
%TO.C,D2*%
X58760000Y-40750000D02*
X53250000Y-40750000D01*
X58760000Y-44050000D02*
X53250000Y-44050000D01*
X58760000Y-44050000D02*
X58760000Y-40750000D01*
D12*
%TO.C,C2*%
X47890000Y-53750000D02*
X47890000Y-52250000D01*
X48040000Y-52100000D02*
X49450000Y-52100000D01*
X49450000Y-53900000D02*
X48040000Y-53900000D01*
X50250000Y-53900000D02*
X51660000Y-53900000D01*
X51660000Y-52100000D02*
X50250000Y-52100000D01*
X51810000Y-53750000D02*
X51810000Y-52250000D01*
X47890000Y-52250000D02*
G75*
G02*
X48040000Y-52100000I150000J0D01*
G01*
X48040000Y-53900000D02*
G75*
G02*
X47890000Y-53750000I0J150000D01*
G01*
X51660000Y-52100000D02*
G75*
G02*
X51810000Y-52250000I0J-150000D01*
G01*
X51810000Y-53750000D02*
G75*
G02*
X51660000Y-53900000I-150000J0D01*
G01*
D14*
%TO.C,CN1*%
X26050000Y-67200000D02*
X27550000Y-67200000D01*
X26050000Y-79800000D02*
X26050000Y-67200000D01*
X26050000Y-79800000D02*
X41050000Y-79800000D01*
X27550000Y-67200000D02*
X27550000Y-70300000D01*
X29580000Y-70300000D02*
X30060000Y-70300000D01*
X32040000Y-70300000D02*
X32560000Y-70300000D01*
X34540000Y-70300000D02*
X35060000Y-70300000D01*
X37040000Y-70300000D02*
X37560000Y-70300000D01*
X39540000Y-70300000D02*
X39550000Y-70300000D01*
X39550000Y-67200000D02*
X41050000Y-67200000D01*
X39550000Y-70300000D02*
X39550000Y-67200000D01*
X41050000Y-67200000D02*
X41050000Y-79800000D01*
D13*
%TO.C,D1*%
X45690000Y-46200000D02*
X45690000Y-48885000D01*
X45690000Y-48885000D02*
X47610000Y-48885000D01*
X47610000Y-48885000D02*
X47610000Y-46200000D01*
%TD*%
%LPC*%
D15*
%TO.C,C5*%
X50750000Y-62400000D03*
X50750000Y-60400000D03*
%TD*%
%TO.C,C4*%
X50550000Y-47800000D03*
X50550000Y-45800000D03*
%TD*%
D16*
%TO.C,U1*%
X36705000Y-61850000D03*
X37975000Y-61850000D03*
X39245000Y-61850000D03*
X40515000Y-61850000D03*
X41785000Y-61850000D03*
X43055000Y-61850000D03*
X44325000Y-61850000D03*
X45595000Y-61850000D03*
X45595000Y-52550000D03*
X44325000Y-52550000D03*
X43055000Y-52550000D03*
X41785000Y-52550000D03*
X40515000Y-52550000D03*
X39245000Y-52550000D03*
X37975000Y-52550000D03*
X36705000Y-52550000D03*
%TD*%
D17*
%TO.C,R10*%
X37825000Y-65700000D03*
X39650000Y-65700000D03*
%TD*%
%TO.C,R2*%
X28150000Y-63800000D03*
X29975000Y-63800000D03*
%TD*%
%TO.C,R11*%
X42237500Y-65700000D03*
X44062500Y-65700000D03*
%TD*%
D18*
%TO.C,D3*%
X31950000Y-68600000D03*
X33950000Y-68600000D03*
X32950000Y-66400000D03*
%TD*%
D19*
%TO.C,R5*%
X48550000Y-47975000D03*
X48550000Y-46325000D03*
%TD*%
D20*
%TO.C,R1*%
X29975000Y-65925000D03*
X28150000Y-65925000D03*
%TD*%
D21*
%TO.C,L1*%
X51150000Y-50400000D03*
X49250000Y-50400000D03*
%TD*%
D22*
%TO.C,U3*%
X23410000Y-38400000D03*
D23*
X25950000Y-38400000D03*
X28490000Y-38400000D03*
X31030000Y-38400000D03*
X33570000Y-38400000D03*
X36110000Y-38400000D03*
X38650000Y-38400000D03*
X41190000Y-38400000D03*
X43730000Y-38400000D03*
X46270000Y-38400000D03*
X48810000Y-38400000D03*
X51350000Y-38400000D03*
X53890000Y-38400000D03*
X56430000Y-38400000D03*
X58970000Y-38400000D03*
X58970000Y-15540000D03*
X56430000Y-15540000D03*
X53890000Y-15540000D03*
X51350000Y-15540000D03*
X48810000Y-15540000D03*
X46270000Y-15540000D03*
X43730000Y-15540000D03*
X41190000Y-15540000D03*
X38650000Y-15540000D03*
X36110000Y-15540000D03*
X33570000Y-15540000D03*
X31030000Y-15540000D03*
X28490000Y-15540000D03*
X25950000Y-15540000D03*
X23410000Y-15540000D03*
%TD*%
D24*
%TO.C,CN2*%
X52350000Y-77200000D03*
D25*
X47350000Y-70700000D03*
D26*
X49850000Y-70700000D03*
X52350000Y-70700000D03*
X54850000Y-70700000D03*
X57350000Y-70700000D03*
%TD*%
D27*
%TO.C,R12*%
X50150000Y-41587500D03*
X50150000Y-43412500D03*
%TD*%
%TO.C,R3*%
X46175000Y-64587500D03*
X46175000Y-66412500D03*
%TD*%
D18*
%TO.C,D4*%
X50050000Y-69000000D03*
X52050000Y-69000000D03*
X51050000Y-66800000D03*
%TD*%
D28*
%TO.C,C1*%
X34650000Y-60450000D03*
X34650000Y-62350000D03*
%TD*%
D29*
%TO.C,R4*%
X48275000Y-66412500D03*
X48275000Y-64587500D03*
%TD*%
D30*
%TO.C,J2*%
X43640000Y-46150000D03*
D31*
X41100000Y-46150000D03*
X38560000Y-46150000D03*
%TD*%
D30*
%TO.C,J1*%
X18550000Y-70380000D03*
D31*
X18550000Y-72920000D03*
X18550000Y-75460000D03*
X18550000Y-78000000D03*
%TD*%
D29*
%TO.C,R8*%
X41250000Y-42912500D03*
X41250000Y-41087500D03*
%TD*%
%TO.C,R6*%
X35750000Y-25400000D03*
X35750000Y-23575000D03*
%TD*%
D25*
%TO.C,U2*%
X53550000Y-62300000D03*
D26*
X53550000Y-59760000D03*
X53550000Y-54680000D03*
X53550000Y-49600000D03*
%TD*%
D30*
%TO.C,J3*%
X61550000Y-60060000D03*
D31*
X61550000Y-62600000D03*
%TD*%
D32*
%TO.C,C3*%
X34650000Y-53200000D03*
X34650000Y-51300000D03*
%TD*%
D27*
%TO.C,R9*%
X43150000Y-41087500D03*
X43150000Y-42912500D03*
%TD*%
%TO.C,R7*%
X33550000Y-23587500D03*
X33550000Y-25412500D03*
%TD*%
D33*
%TO.C,D2*%
X57250000Y-42400000D03*
X53250000Y-42400000D03*
%TD*%
D34*
%TO.C,C2*%
X48850000Y-53000000D03*
X50850000Y-53000000D03*
%TD*%
D24*
%TO.C,CN1*%
X33550000Y-77100000D03*
D25*
X28550000Y-70600000D03*
D26*
X31050000Y-70600000D03*
X33550000Y-70600000D03*
X36050000Y-70600000D03*
X38550000Y-70600000D03*
%TD*%
D35*
%TO.C,D1*%
X46650000Y-48137500D03*
X46650000Y-46262500D03*
%TD*%
%LPD*%
M02*
