%TF.GenerationSoftware,KiCad,Pcbnew,8.0.8*%
%TF.CreationDate,2025-06-05T09:36:50+02:00*%
%TF.ProjectId,heishamon-lr-pdc,68656973-6861-46d6-9f6e-2d6c722d7064,rev?*%
%TF.SameCoordinates,Original*%
%TF.FileFunction,Copper,L2,Bot*%
%TF.FilePolarity,Positive*%
%FSLAX46Y46*%
G04 Gerber Fmt 4.6, Leading zero omitted, Abs format (unit mm)*
G04 Created by KiCad (PCBNEW 8.0.8) date 2025-06-05 09:36:50*
%MOMM*%
%LPD*%
G01*
G04 APERTURE LIST*
%TA.AperFunction,ComponentPad*%
%ADD10R,1.200000X2.000000*%
%TD*%
%TA.AperFunction,ComponentPad*%
%ADD11O,1.200000X2.000000*%
%TD*%
%TA.AperFunction,ComponentPad*%
%ADD12C,2.800000*%
%TD*%
%TA.AperFunction,ComponentPad*%
%ADD13R,1.600000X1.600000*%
%TD*%
%TA.AperFunction,ComponentPad*%
%ADD14C,1.600000*%
%TD*%
%TA.AperFunction,ComponentPad*%
%ADD15R,1.700000X1.700000*%
%TD*%
%TA.AperFunction,ComponentPad*%
%ADD16O,1.700000X1.700000*%
%TD*%
%TA.AperFunction,ViaPad*%
%ADD17C,0.600000*%
%TD*%
%TA.AperFunction,ViaPad*%
%ADD18C,0.500000*%
%TD*%
%TA.AperFunction,Conductor*%
%ADD19C,0.200000*%
%TD*%
%TA.AperFunction,Conductor*%
%ADD20C,0.500000*%
%TD*%
G04 APERTURE END LIST*
D10*
%TO.P,U3,1,GND*%
%TO.N,GND*%
X23410000Y-38400000D03*
D11*
%TO.P,U3,2,3V3*%
%TO.N,+3V3*%
X25950000Y-38400000D03*
%TO.P,U3,3,3V3*%
X28490000Y-38400000D03*
%TO.P,U3,4,RST*%
%TO.N,unconnected-(U3-RST-Pad4)*%
X31030000Y-38400000D03*
%TO.P,U3,5,GND*%
%TO.N,GND*%
X33570000Y-38400000D03*
%TO.P,U3,6,GPIO4*%
%TO.N,unconnected-(U3-GPIO4-Pad6)*%
X36110000Y-38400000D03*
%TO.P,U3,7,GPIO5*%
%TO.N,unconnected-(U3-GPIO5-Pad7)*%
X38650000Y-38400000D03*
%TO.P,U3,8,GPIO6*%
%TO.N,Net-(U3-GPIO6)*%
X41190000Y-38400000D03*
%TO.P,U3,9,GPIO7*%
%TO.N,Net-(U3-GPIO7)*%
X43730000Y-38400000D03*
%TO.P,U3,10,GND*%
%TO.N,GND*%
X46270000Y-38400000D03*
%TO.P,U3,11,GPIO8/RGB_LED*%
%TO.N,unconnected-(U3-GPIO8{slash}RGB_LED-Pad11)*%
X48810000Y-38400000D03*
%TO.P,U3,12,GPIO9*%
%TO.N,unconnected-(U3-GPIO9-Pad12)*%
X51350000Y-38400000D03*
%TO.P,U3,13,5V*%
%TO.N,5V*%
X53890000Y-38400000D03*
%TO.P,U3,14,5V*%
X56430000Y-38400000D03*
%TO.P,U3,15,GND*%
%TO.N,GND*%
X58970000Y-38400000D03*
%TO.P,U3,16,GND*%
X58970000Y-15540000D03*
%TO.P,U3,17,GND*%
X56430000Y-15540000D03*
%TO.P,U3,18,GPIO19/USBD_+*%
%TO.N,unconnected-(U3-GPIO19{slash}USBD_+-Pad18)*%
X53890000Y-15540000D03*
%TO.P,U3,19,GPIO18/USBD_-*%
%TO.N,unconnected-(U3-GPIO18{slash}USBD_--Pad19)*%
X51350000Y-15540000D03*
%TO.P,U3,20,GND*%
%TO.N,GND*%
X48810000Y-15540000D03*
%TO.P,U3,21,GPIO21/U0TXD*%
%TO.N,unconnected-(U3-GPIO21{slash}U0TXD-Pad21)*%
X46270000Y-15540000D03*
%TO.P,U3,22,GPIO20/U0RXD*%
%TO.N,unconnected-(U3-GPIO20{slash}U0RXD-Pad22)*%
X43730000Y-15540000D03*
%TO.P,U3,23,GND*%
%TO.N,GND*%
X41190000Y-15540000D03*
%TO.P,U3,24,GPIO10*%
%TO.N,unconnected-(U3-GPIO10-Pad24)*%
X38650000Y-15540000D03*
%TO.P,U3,25,GND*%
%TO.N,GND*%
X36110000Y-15540000D03*
%TO.P,U3,26,GPIO3*%
%TO.N,Net-(U3-GPIO3)*%
X33570000Y-15540000D03*
%TO.P,U3,27,GPIO2*%
%TO.N,Net-(U3-GPIO2)*%
X31030000Y-15540000D03*
%TO.P,U3,28,GPIO1*%
%TO.N,unconnected-(U3-GPIO1-Pad28)*%
X28490000Y-15540000D03*
%TO.P,U3,29,GPIO0*%
%TO.N,unconnected-(U3-GPIO0-Pad29)*%
X25950000Y-15540000D03*
%TO.P,U3,30,GND*%
%TO.N,GND*%
X23410000Y-15540000D03*
%TD*%
D12*
%TO.P,CN2,*%
%TO.N,*%
X52350000Y-77200000D03*
D13*
%TO.P,CN2,1,1*%
%TO.N,+5_HP*%
X47350000Y-70700000D03*
D14*
%TO.P,CN2,2,2*%
%TO.N,Net-(CN2-Pad2)*%
X49850000Y-70700000D03*
%TO.P,CN2,3,3*%
%TO.N,Net-(CN2-Pad3)*%
X52350000Y-70700000D03*
%TO.P,CN2,4,4*%
%TO.N,unconnected-(CN2-Pad4)*%
X54850000Y-70700000D03*
%TO.P,CN2,5,5*%
%TO.N,GNDD*%
X57350000Y-70700000D03*
%TD*%
D15*
%TO.P,J2,1,Pin_1*%
%TO.N,GND*%
X43640000Y-46150000D03*
D16*
%TO.P,J2,2,Pin_2*%
%TO.N,ESP_TX*%
X41100000Y-46150000D03*
%TO.P,J2,3,Pin_3*%
%TO.N,ESP_RX*%
X38560000Y-46150000D03*
%TD*%
D15*
%TO.P,J1,1,Pin_1*%
%TO.N,+5_HP*%
X18550000Y-70380000D03*
D16*
%TO.P,J1,2,Pin_2*%
%TO.N,GNDD*%
X18550000Y-72920000D03*
%TO.P,J1,3,Pin_3*%
%TO.N,/TX (HP >)*%
X18550000Y-75460000D03*
%TO.P,J1,4,Pin_4*%
%TO.N,/RX (HP <)*%
X18550000Y-78000000D03*
%TD*%
D13*
%TO.P,U2,1,VIN*%
%TO.N,VCC_IN*%
X53550000Y-62300000D03*
D14*
%TO.P,U2,2,GND*%
%TO.N,GNDD*%
X53550000Y-59760000D03*
%TO.P,U2,4,0V*%
%TO.N,GND*%
X53550000Y-54680000D03*
%TO.P,U2,6,+VO*%
%TO.N,Net-(U2-+VO)*%
X53550000Y-49600000D03*
%TD*%
D15*
%TO.P,J3,1,Pin_1*%
%TO.N,GNDD*%
X61550000Y-60060000D03*
D16*
%TO.P,J3,2,Pin_2*%
%TO.N,VCC_IN*%
X61550000Y-62600000D03*
%TD*%
D12*
%TO.P,CN1,*%
%TO.N,*%
X33550000Y-77100000D03*
D13*
%TO.P,CN1,1,1*%
%TO.N,+5_HP*%
X28550000Y-70600000D03*
D14*
%TO.P,CN1,2,2*%
%TO.N,Net-(CN1-Pad2)*%
X31050000Y-70600000D03*
%TO.P,CN1,3,3*%
%TO.N,Net-(CN1-Pad3)*%
X33550000Y-70600000D03*
%TO.P,CN1,4,4*%
%TO.N,+12_HP*%
X36050000Y-70600000D03*
%TO.P,CN1,5,5*%
%TO.N,GNDD*%
X38550000Y-70600000D03*
%TD*%
D17*
%TO.N,GNDD*%
X33850000Y-66100000D03*
X57250000Y-59800000D03*
X51050000Y-66000000D03*
X33250000Y-62400000D03*
X46450000Y-61800000D03*
X59650000Y-59200000D03*
X20250000Y-74100000D03*
X55850000Y-59800000D03*
%TO.N,+5_HP*%
X44900000Y-65850000D03*
X36650000Y-63400000D03*
%TO.N,GND*%
X43250000Y-48500000D03*
X47150000Y-53100000D03*
X52050000Y-45800000D03*
X36050000Y-50600000D03*
X46650000Y-49300000D03*
X45650000Y-50900000D03*
%TO.N,ESP_RX*%
X42650000Y-40200000D03*
X37975000Y-50775000D03*
D18*
%TO.N,/RX (HP <)*%
X30750000Y-67800000D03*
D17*
X40550000Y-63700000D03*
%TD*%
D19*
%TO.N,/RX (HP <)*%
X30750000Y-67800000D02*
X30750000Y-67300000D01*
X30750000Y-67300000D02*
X33950000Y-64100000D01*
X33950000Y-64100000D02*
X40150000Y-64100000D01*
X40150000Y-64100000D02*
X40550000Y-63700000D01*
D20*
%TO.N,+5_HP*%
X45350000Y-73000000D02*
X47350000Y-71000000D01*
X29150000Y-73000000D02*
X45350000Y-73000000D01*
X28330000Y-70380000D02*
X28550000Y-70600000D01*
X37950000Y-62100000D02*
X36650000Y-63400000D01*
X18550000Y-70380000D02*
X28330000Y-70380000D01*
X28550000Y-72400000D02*
X29150000Y-73000000D01*
X41150000Y-62100000D02*
X37950000Y-62100000D01*
X47350000Y-70700000D02*
X47350000Y-68300000D01*
X44900000Y-65850000D02*
X41150000Y-62100000D01*
X28550000Y-70600000D02*
X28550000Y-72400000D01*
X47350000Y-71000000D02*
X47350000Y-70700000D01*
X47350000Y-68300000D02*
X44900000Y-65850000D01*
D19*
%TO.N,ESP_RX*%
X42650000Y-42060000D02*
X38560000Y-46150000D01*
X38560000Y-50190000D02*
X38560000Y-46150000D01*
X37975000Y-50775000D02*
X38560000Y-50190000D01*
X42650000Y-40200000D02*
X42650000Y-42060000D01*
D20*
%TO.N,VCC_IN*%
X55350000Y-62300000D02*
X53550000Y-62300000D01*
X55650000Y-62600000D02*
X55350000Y-62300000D01*
X61550000Y-62600000D02*
X55650000Y-62600000D01*
%TD*%
%TA.AperFunction,Conductor*%
%TO.N,GND*%
G36*
X25509138Y-13920185D02*
G01*
X25554893Y-13972989D01*
X25564837Y-14042147D01*
X25535812Y-14105703D01*
X25498394Y-14134985D01*
X25373211Y-14198768D01*
X25309575Y-14245003D01*
X25233072Y-14300586D01*
X25233070Y-14300588D01*
X25233069Y-14300588D01*
X25110588Y-14423069D01*
X25110588Y-14423070D01*
X25110586Y-14423072D01*
X25066859Y-14483256D01*
X25008768Y-14563211D01*
X24930128Y-14717552D01*
X24876597Y-14882302D01*
X24866121Y-14948449D01*
X24849500Y-15053389D01*
X24849500Y-16026611D01*
X24876598Y-16197701D01*
X24930127Y-16362445D01*
X25008768Y-16516788D01*
X25110586Y-16656928D01*
X25233072Y-16779414D01*
X25373212Y-16881232D01*
X25527555Y-16959873D01*
X25692299Y-17013402D01*
X25863389Y-17040500D01*
X25863390Y-17040500D01*
X26036610Y-17040500D01*
X26036611Y-17040500D01*
X26207701Y-17013402D01*
X26372445Y-16959873D01*
X26526788Y-16881232D01*
X26666928Y-16779414D01*
X26789414Y-16656928D01*
X26891232Y-16516788D01*
X26969873Y-16362445D01*
X27023402Y-16197701D01*
X27050500Y-16026611D01*
X27050500Y-15053389D01*
X27023402Y-14882299D01*
X26969873Y-14717555D01*
X26891232Y-14563212D01*
X26789414Y-14423072D01*
X26666928Y-14300586D01*
X26526788Y-14198768D01*
X26401606Y-14134985D01*
X26350810Y-14087011D01*
X26334015Y-14019190D01*
X26356552Y-13953055D01*
X26411267Y-13909603D01*
X26457901Y-13900500D01*
X27982099Y-13900500D01*
X28049138Y-13920185D01*
X28094893Y-13972989D01*
X28104837Y-14042147D01*
X28075812Y-14105703D01*
X28038394Y-14134985D01*
X27913211Y-14198768D01*
X27849575Y-14245003D01*
X27773072Y-14300586D01*
X27773070Y-14300588D01*
X27773069Y-14300588D01*
X27650588Y-14423069D01*
X27650588Y-14423070D01*
X27650586Y-14423072D01*
X27606859Y-14483256D01*
X27548768Y-14563211D01*
X27470128Y-14717552D01*
X27416597Y-14882302D01*
X27406121Y-14948449D01*
X27389500Y-15053389D01*
X27389500Y-16026611D01*
X27416598Y-16197701D01*
X27470127Y-16362445D01*
X27548768Y-16516788D01*
X27650586Y-16656928D01*
X27773072Y-16779414D01*
X27913212Y-16881232D01*
X28067555Y-16959873D01*
X28232299Y-17013402D01*
X28403389Y-17040500D01*
X28403390Y-17040500D01*
X28576610Y-17040500D01*
X28576611Y-17040500D01*
X28747701Y-17013402D01*
X28912445Y-16959873D01*
X29066788Y-16881232D01*
X29206928Y-16779414D01*
X29329414Y-16656928D01*
X29431232Y-16516788D01*
X29509873Y-16362445D01*
X29563402Y-16197701D01*
X29590500Y-16026611D01*
X29590500Y-15053389D01*
X29563402Y-14882299D01*
X29509873Y-14717555D01*
X29431232Y-14563212D01*
X29329414Y-14423072D01*
X29206928Y-14300586D01*
X29066788Y-14198768D01*
X28941606Y-14134985D01*
X28890810Y-14087011D01*
X28874015Y-14019190D01*
X28896552Y-13953055D01*
X28951267Y-13909603D01*
X28997901Y-13900500D01*
X30522099Y-13900500D01*
X30589138Y-13920185D01*
X30634893Y-13972989D01*
X30644837Y-14042147D01*
X30615812Y-14105703D01*
X30578394Y-14134985D01*
X30453211Y-14198768D01*
X30389575Y-14245003D01*
X30313072Y-14300586D01*
X30313070Y-14300588D01*
X30313069Y-14300588D01*
X30190588Y-14423069D01*
X30190588Y-14423070D01*
X30190586Y-14423072D01*
X30146859Y-14483256D01*
X30088768Y-14563211D01*
X30010128Y-14717552D01*
X29956597Y-14882302D01*
X29946121Y-14948449D01*
X29929500Y-15053389D01*
X29929500Y-16026611D01*
X29956598Y-16197701D01*
X30010127Y-16362445D01*
X30088768Y-16516788D01*
X30190586Y-16656928D01*
X30313072Y-16779414D01*
X30453212Y-16881232D01*
X30607555Y-16959873D01*
X30772299Y-17013402D01*
X30943389Y-17040500D01*
X30943390Y-17040500D01*
X31116610Y-17040500D01*
X31116611Y-17040500D01*
X31287701Y-17013402D01*
X31452445Y-16959873D01*
X31606788Y-16881232D01*
X31746928Y-16779414D01*
X31869414Y-16656928D01*
X31971232Y-16516788D01*
X32049873Y-16362445D01*
X32103402Y-16197701D01*
X32130500Y-16026611D01*
X32130500Y-15053389D01*
X32103402Y-14882299D01*
X32049873Y-14717555D01*
X31971232Y-14563212D01*
X31869414Y-14423072D01*
X31746928Y-14300586D01*
X31606788Y-14198768D01*
X31481606Y-14134985D01*
X31430810Y-14087011D01*
X31414015Y-14019190D01*
X31436552Y-13953055D01*
X31491267Y-13909603D01*
X31537901Y-13900500D01*
X33062099Y-13900500D01*
X33129138Y-13920185D01*
X33174893Y-13972989D01*
X33184837Y-14042147D01*
X33155812Y-14105703D01*
X33118394Y-14134985D01*
X32993211Y-14198768D01*
X32929575Y-14245003D01*
X32853072Y-14300586D01*
X32853070Y-14300588D01*
X32853069Y-14300588D01*
X32730588Y-14423069D01*
X32730588Y-14423070D01*
X32730586Y-14423072D01*
X32686859Y-14483256D01*
X32628768Y-14563211D01*
X32550128Y-14717552D01*
X32496597Y-14882302D01*
X32486121Y-14948449D01*
X32469500Y-15053389D01*
X32469500Y-16026611D01*
X32496598Y-16197701D01*
X32550127Y-16362445D01*
X32628768Y-16516788D01*
X32730586Y-16656928D01*
X32853072Y-16779414D01*
X32993212Y-16881232D01*
X33147555Y-16959873D01*
X33312299Y-17013402D01*
X33483389Y-17040500D01*
X33483390Y-17040500D01*
X33656610Y-17040500D01*
X33656611Y-17040500D01*
X33827701Y-17013402D01*
X33992445Y-16959873D01*
X34146788Y-16881232D01*
X34286928Y-16779414D01*
X34409414Y-16656928D01*
X34511232Y-16516788D01*
X34589873Y-16362445D01*
X34643402Y-16197701D01*
X34670500Y-16026611D01*
X34670500Y-15053389D01*
X34643402Y-14882299D01*
X34589873Y-14717555D01*
X34511232Y-14563212D01*
X34409414Y-14423072D01*
X34286928Y-14300586D01*
X34146788Y-14198768D01*
X34021606Y-14134985D01*
X33970810Y-14087011D01*
X33954015Y-14019190D01*
X33976552Y-13953055D01*
X34031267Y-13909603D01*
X34077901Y-13900500D01*
X35603200Y-13900500D01*
X35670239Y-13920185D01*
X35715994Y-13972989D01*
X35725938Y-14042147D01*
X35696913Y-14105703D01*
X35659495Y-14134985D01*
X35533475Y-14199195D01*
X35393397Y-14300967D01*
X35270967Y-14423397D01*
X35169195Y-14563475D01*
X35090591Y-14717742D01*
X35037085Y-14882415D01*
X35010000Y-15053428D01*
X35010000Y-15290000D01*
X35794314Y-15290000D01*
X35789920Y-15294394D01*
X35737259Y-15385606D01*
X35710000Y-15487339D01*
X35710000Y-15592661D01*
X35737259Y-15694394D01*
X35789920Y-15785606D01*
X35794314Y-15790000D01*
X35010000Y-15790000D01*
X35010000Y-16026571D01*
X35037085Y-16197584D01*
X35090591Y-16362257D01*
X35169195Y-16516524D01*
X35270967Y-16656602D01*
X35393397Y-16779032D01*
X35533475Y-16880804D01*
X35687744Y-16959408D01*
X35852415Y-17012914D01*
X35852414Y-17012914D01*
X35859999Y-17014115D01*
X35860000Y-17014114D01*
X35860000Y-15855686D01*
X35864394Y-15860080D01*
X35955606Y-15912741D01*
X36057339Y-15940000D01*
X36162661Y-15940000D01*
X36264394Y-15912741D01*
X36355606Y-15860080D01*
X36360000Y-15855686D01*
X36360000Y-17014115D01*
X36367584Y-17012914D01*
X36532255Y-16959408D01*
X36686524Y-16880804D01*
X36826602Y-16779032D01*
X36949032Y-16656602D01*
X37050804Y-16516524D01*
X37129408Y-16362257D01*
X37182914Y-16197584D01*
X37210000Y-16026571D01*
X37210000Y-15790000D01*
X36425686Y-15790000D01*
X36430080Y-15785606D01*
X36482741Y-15694394D01*
X36510000Y-15592661D01*
X36510000Y-15487339D01*
X36482741Y-15385606D01*
X36430080Y-15294394D01*
X36425686Y-15290000D01*
X37210000Y-15290000D01*
X37210000Y-15053428D01*
X37182914Y-14882415D01*
X37129408Y-14717742D01*
X37050804Y-14563475D01*
X36949032Y-14423397D01*
X36826602Y-14300967D01*
X36686524Y-14199195D01*
X36560505Y-14134985D01*
X36509709Y-14087010D01*
X36492914Y-14019189D01*
X36515452Y-13953054D01*
X36570167Y-13909603D01*
X36616800Y-13900500D01*
X38142099Y-13900500D01*
X38209138Y-13920185D01*
X38254893Y-13972989D01*
X38264837Y-14042147D01*
X38235812Y-14105703D01*
X38198394Y-14134985D01*
X38073211Y-14198768D01*
X38009575Y-14245003D01*
X37933072Y-14300586D01*
X37933070Y-14300588D01*
X37933069Y-14300588D01*
X37810588Y-14423069D01*
X37810588Y-14423070D01*
X37810586Y-14423072D01*
X37766859Y-14483256D01*
X37708768Y-14563211D01*
X37630128Y-14717552D01*
X37576597Y-14882302D01*
X37566121Y-14948449D01*
X37549500Y-15053389D01*
X37549500Y-16026611D01*
X37576598Y-16197701D01*
X37630127Y-16362445D01*
X37708768Y-16516788D01*
X37810586Y-16656928D01*
X37933072Y-16779414D01*
X38073212Y-16881232D01*
X38227555Y-16959873D01*
X38392299Y-17013402D01*
X38563389Y-17040500D01*
X38563390Y-17040500D01*
X38736610Y-17040500D01*
X38736611Y-17040500D01*
X38907701Y-17013402D01*
X39072445Y-16959873D01*
X39226788Y-16881232D01*
X39366928Y-16779414D01*
X39489414Y-16656928D01*
X39591232Y-16516788D01*
X39669873Y-16362445D01*
X39723402Y-16197701D01*
X39750500Y-16026611D01*
X39750500Y-15053389D01*
X39723402Y-14882299D01*
X39669873Y-14717555D01*
X39591232Y-14563212D01*
X39489414Y-14423072D01*
X39366928Y-14300586D01*
X39226788Y-14198768D01*
X39101606Y-14134985D01*
X39050810Y-14087011D01*
X39034015Y-14019190D01*
X39056552Y-13953055D01*
X39111267Y-13909603D01*
X39157901Y-13900500D01*
X40683200Y-13900500D01*
X40750239Y-13920185D01*
X40795994Y-13972989D01*
X40805938Y-14042147D01*
X40776913Y-14105703D01*
X40739495Y-14134985D01*
X40613475Y-14199195D01*
X40473397Y-14300967D01*
X40350967Y-14423397D01*
X40249195Y-14563475D01*
X40170591Y-14717742D01*
X40117085Y-14882415D01*
X40090000Y-15053428D01*
X40090000Y-15290000D01*
X40874314Y-15290000D01*
X40869920Y-15294394D01*
X40817259Y-15385606D01*
X40790000Y-15487339D01*
X40790000Y-15592661D01*
X40817259Y-15694394D01*
X40869920Y-15785606D01*
X40874314Y-15790000D01*
X40090000Y-15790000D01*
X40090000Y-16026571D01*
X40117085Y-16197584D01*
X40170591Y-16362257D01*
X40249195Y-16516524D01*
X40350967Y-16656602D01*
X40473397Y-16779032D01*
X40613475Y-16880804D01*
X40767744Y-16959408D01*
X40932415Y-17012914D01*
X40932414Y-17012914D01*
X40939999Y-17014115D01*
X40940000Y-17014114D01*
X40940000Y-15855686D01*
X40944394Y-15860080D01*
X41035606Y-15912741D01*
X41137339Y-15940000D01*
X41242661Y-15940000D01*
X41344394Y-15912741D01*
X41435606Y-15860080D01*
X41440000Y-15855686D01*
X41440000Y-17014115D01*
X41447584Y-17012914D01*
X41612255Y-16959408D01*
X41766524Y-16880804D01*
X41906602Y-16779032D01*
X42029032Y-16656602D01*
X42130804Y-16516524D01*
X42209408Y-16362257D01*
X42262914Y-16197584D01*
X42290000Y-16026571D01*
X42290000Y-15790000D01*
X41505686Y-15790000D01*
X41510080Y-15785606D01*
X41562741Y-15694394D01*
X41590000Y-15592661D01*
X41590000Y-15487339D01*
X41562741Y-15385606D01*
X41510080Y-15294394D01*
X41505686Y-15290000D01*
X42290000Y-15290000D01*
X42290000Y-15053428D01*
X42262914Y-14882415D01*
X42209408Y-14717742D01*
X42130804Y-14563475D01*
X42029032Y-14423397D01*
X41906602Y-14300967D01*
X41766524Y-14199195D01*
X41640505Y-14134985D01*
X41589709Y-14087010D01*
X41572914Y-14019189D01*
X41595452Y-13953054D01*
X41650167Y-13909603D01*
X41696800Y-13900500D01*
X43222099Y-13900500D01*
X43289138Y-13920185D01*
X43334893Y-13972989D01*
X43344837Y-14042147D01*
X43315812Y-14105703D01*
X43278394Y-14134985D01*
X43153211Y-14198768D01*
X43089575Y-14245003D01*
X43013072Y-14300586D01*
X43013070Y-14300588D01*
X43013069Y-14300588D01*
X42890588Y-14423069D01*
X42890588Y-14423070D01*
X42890586Y-14423072D01*
X42846859Y-14483256D01*
X42788768Y-14563211D01*
X42710128Y-14717552D01*
X42656597Y-14882302D01*
X42646121Y-14948449D01*
X42629500Y-15053389D01*
X42629500Y-16026611D01*
X42656598Y-16197701D01*
X42710127Y-16362445D01*
X42788768Y-16516788D01*
X42890586Y-16656928D01*
X43013072Y-16779414D01*
X43153212Y-16881232D01*
X43307555Y-16959873D01*
X43472299Y-17013402D01*
X43643389Y-17040500D01*
X43643390Y-17040500D01*
X43816610Y-17040500D01*
X43816611Y-17040500D01*
X43987701Y-17013402D01*
X44152445Y-16959873D01*
X44306788Y-16881232D01*
X44446928Y-16779414D01*
X44569414Y-16656928D01*
X44671232Y-16516788D01*
X44749873Y-16362445D01*
X44803402Y-16197701D01*
X44830500Y-16026611D01*
X44830500Y-15053389D01*
X44803402Y-14882299D01*
X44749873Y-14717555D01*
X44671232Y-14563212D01*
X44569414Y-14423072D01*
X44446928Y-14300586D01*
X44306788Y-14198768D01*
X44181606Y-14134985D01*
X44130810Y-14087011D01*
X44114015Y-14019190D01*
X44136552Y-13953055D01*
X44191267Y-13909603D01*
X44237901Y-13900500D01*
X45762099Y-13900500D01*
X45829138Y-13920185D01*
X45874893Y-13972989D01*
X45884837Y-14042147D01*
X45855812Y-14105703D01*
X45818394Y-14134985D01*
X45693211Y-14198768D01*
X45629575Y-14245003D01*
X45553072Y-14300586D01*
X45553070Y-14300588D01*
X45553069Y-14300588D01*
X45430588Y-14423069D01*
X45430588Y-14423070D01*
X45430586Y-14423072D01*
X45386859Y-14483256D01*
X45328768Y-14563211D01*
X45250128Y-14717552D01*
X45196597Y-14882302D01*
X45186121Y-14948449D01*
X45169500Y-15053389D01*
X45169500Y-16026611D01*
X45196598Y-16197701D01*
X45250127Y-16362445D01*
X45328768Y-16516788D01*
X45430586Y-16656928D01*
X45553072Y-16779414D01*
X45693212Y-16881232D01*
X45847555Y-16959873D01*
X46012299Y-17013402D01*
X46183389Y-17040500D01*
X46183390Y-17040500D01*
X46356610Y-17040500D01*
X46356611Y-17040500D01*
X46527701Y-17013402D01*
X46692445Y-16959873D01*
X46846788Y-16881232D01*
X46986928Y-16779414D01*
X47109414Y-16656928D01*
X47211232Y-16516788D01*
X47289873Y-16362445D01*
X47343402Y-16197701D01*
X47370500Y-16026611D01*
X47370500Y-15053389D01*
X47343402Y-14882299D01*
X47289873Y-14717555D01*
X47211232Y-14563212D01*
X47109414Y-14423072D01*
X46986928Y-14300586D01*
X46846788Y-14198768D01*
X46721606Y-14134985D01*
X46670810Y-14087011D01*
X46654015Y-14019190D01*
X46676552Y-13953055D01*
X46731267Y-13909603D01*
X46777901Y-13900500D01*
X48303200Y-13900500D01*
X48370239Y-13920185D01*
X48415994Y-13972989D01*
X48425938Y-14042147D01*
X48396913Y-14105703D01*
X48359495Y-14134985D01*
X48233475Y-14199195D01*
X48093397Y-14300967D01*
X47970967Y-14423397D01*
X47869195Y-14563475D01*
X47790591Y-14717742D01*
X47737085Y-14882415D01*
X47710000Y-15053428D01*
X47710000Y-15290000D01*
X48494314Y-15290000D01*
X48489920Y-15294394D01*
X48437259Y-15385606D01*
X48410000Y-15487339D01*
X48410000Y-15592661D01*
X48437259Y-15694394D01*
X48489920Y-15785606D01*
X48494314Y-15790000D01*
X47710000Y-15790000D01*
X47710000Y-16026571D01*
X47737085Y-16197584D01*
X47790591Y-16362257D01*
X47869195Y-16516524D01*
X47970967Y-16656602D01*
X48093397Y-16779032D01*
X48233475Y-16880804D01*
X48387744Y-16959408D01*
X48552415Y-17012914D01*
X48552414Y-17012914D01*
X48559999Y-17014115D01*
X48560000Y-17014114D01*
X48560000Y-15855686D01*
X48564394Y-15860080D01*
X48655606Y-15912741D01*
X48757339Y-15940000D01*
X48862661Y-15940000D01*
X48964394Y-15912741D01*
X49055606Y-15860080D01*
X49060000Y-15855686D01*
X49060000Y-17014115D01*
X49067584Y-17012914D01*
X49232255Y-16959408D01*
X49386524Y-16880804D01*
X49526602Y-16779032D01*
X49649032Y-16656602D01*
X49750804Y-16516524D01*
X49829408Y-16362257D01*
X49882914Y-16197584D01*
X49910000Y-16026571D01*
X49910000Y-15790000D01*
X49125686Y-15790000D01*
X49130080Y-15785606D01*
X49182741Y-15694394D01*
X49210000Y-15592661D01*
X49210000Y-15487339D01*
X49182741Y-15385606D01*
X49130080Y-15294394D01*
X49125686Y-15290000D01*
X49910000Y-15290000D01*
X49910000Y-15053428D01*
X49882914Y-14882415D01*
X49829408Y-14717742D01*
X49750804Y-14563475D01*
X49649032Y-14423397D01*
X49526602Y-14300967D01*
X49386524Y-14199195D01*
X49260505Y-14134985D01*
X49209709Y-14087010D01*
X49192914Y-14019189D01*
X49215452Y-13953054D01*
X49270167Y-13909603D01*
X49316800Y-13900500D01*
X50842099Y-13900500D01*
X50909138Y-13920185D01*
X50954893Y-13972989D01*
X50964837Y-14042147D01*
X50935812Y-14105703D01*
X50898394Y-14134985D01*
X50773211Y-14198768D01*
X50709575Y-14245003D01*
X50633072Y-14300586D01*
X50633070Y-14300588D01*
X50633069Y-14300588D01*
X50510588Y-14423069D01*
X50510588Y-14423070D01*
X50510586Y-14423072D01*
X50466859Y-14483256D01*
X50408768Y-14563211D01*
X50330128Y-14717552D01*
X50276597Y-14882302D01*
X50266121Y-14948449D01*
X50249500Y-15053389D01*
X50249500Y-16026611D01*
X50276598Y-16197701D01*
X50330127Y-16362445D01*
X50408768Y-16516788D01*
X50510586Y-16656928D01*
X50633072Y-16779414D01*
X50773212Y-16881232D01*
X50927555Y-16959873D01*
X51092299Y-17013402D01*
X51263389Y-17040500D01*
X51263390Y-17040500D01*
X51436610Y-17040500D01*
X51436611Y-17040500D01*
X51607701Y-17013402D01*
X51772445Y-16959873D01*
X51926788Y-16881232D01*
X52066928Y-16779414D01*
X52189414Y-16656928D01*
X52291232Y-16516788D01*
X52369873Y-16362445D01*
X52423402Y-16197701D01*
X52450500Y-16026611D01*
X52450500Y-15053389D01*
X52423402Y-14882299D01*
X52369873Y-14717555D01*
X52291232Y-14563212D01*
X52189414Y-14423072D01*
X52066928Y-14300586D01*
X51926788Y-14198768D01*
X51801606Y-14134985D01*
X51750810Y-14087011D01*
X51734015Y-14019190D01*
X51756552Y-13953055D01*
X51811267Y-13909603D01*
X51857901Y-13900500D01*
X53382099Y-13900500D01*
X53449138Y-13920185D01*
X53494893Y-13972989D01*
X53504837Y-14042147D01*
X53475812Y-14105703D01*
X53438394Y-14134985D01*
X53313211Y-14198768D01*
X53249575Y-14245003D01*
X53173072Y-14300586D01*
X53173070Y-14300588D01*
X53173069Y-14300588D01*
X53050588Y-14423069D01*
X53050588Y-14423070D01*
X53050586Y-14423072D01*
X53006859Y-14483256D01*
X52948768Y-14563211D01*
X52870128Y-14717552D01*
X52816597Y-14882302D01*
X52806121Y-14948449D01*
X52789500Y-15053389D01*
X52789500Y-16026611D01*
X52816598Y-16197701D01*
X52870127Y-16362445D01*
X52948768Y-16516788D01*
X53050586Y-16656928D01*
X53173072Y-16779414D01*
X53313212Y-16881232D01*
X53467555Y-16959873D01*
X53632299Y-17013402D01*
X53803389Y-17040500D01*
X53803390Y-17040500D01*
X53976610Y-17040500D01*
X53976611Y-17040500D01*
X54147701Y-17013402D01*
X54312445Y-16959873D01*
X54466788Y-16881232D01*
X54606928Y-16779414D01*
X54729414Y-16656928D01*
X54831232Y-16516788D01*
X54909873Y-16362445D01*
X54963402Y-16197701D01*
X54990500Y-16026611D01*
X54990500Y-15053389D01*
X54963402Y-14882299D01*
X54909873Y-14717555D01*
X54831232Y-14563212D01*
X54729414Y-14423072D01*
X54606928Y-14300586D01*
X54466788Y-14198768D01*
X54341606Y-14134985D01*
X54290810Y-14087011D01*
X54274015Y-14019190D01*
X54296552Y-13953055D01*
X54351267Y-13909603D01*
X54397901Y-13900500D01*
X55923200Y-13900500D01*
X55990239Y-13920185D01*
X56035994Y-13972989D01*
X56045938Y-14042147D01*
X56016913Y-14105703D01*
X55979495Y-14134985D01*
X55853475Y-14199195D01*
X55713397Y-14300967D01*
X55590967Y-14423397D01*
X55489195Y-14563475D01*
X55410591Y-14717742D01*
X55357085Y-14882415D01*
X55330000Y-15053428D01*
X55330000Y-15290000D01*
X56114314Y-15290000D01*
X56109920Y-15294394D01*
X56057259Y-15385606D01*
X56030000Y-15487339D01*
X56030000Y-15592661D01*
X56057259Y-15694394D01*
X56109920Y-15785606D01*
X56114314Y-15790000D01*
X55330000Y-15790000D01*
X55330000Y-16026571D01*
X55357085Y-16197584D01*
X55410591Y-16362257D01*
X55489195Y-16516524D01*
X55590967Y-16656602D01*
X55713397Y-16779032D01*
X55853475Y-16880804D01*
X56007744Y-16959408D01*
X56172415Y-17012914D01*
X56172414Y-17012914D01*
X56179999Y-17014115D01*
X56180000Y-17014114D01*
X56180000Y-15855686D01*
X56184394Y-15860080D01*
X56275606Y-15912741D01*
X56377339Y-15940000D01*
X56482661Y-15940000D01*
X56584394Y-15912741D01*
X56675606Y-15860080D01*
X56680000Y-15855686D01*
X56680000Y-17014115D01*
X56687584Y-17012914D01*
X56852255Y-16959408D01*
X57006524Y-16880804D01*
X57146602Y-16779032D01*
X57269032Y-16656602D01*
X57370804Y-16516524D01*
X57449408Y-16362257D01*
X57502914Y-16197584D01*
X57530000Y-16026571D01*
X57530000Y-15790000D01*
X56745686Y-15790000D01*
X56750080Y-15785606D01*
X56802741Y-15694394D01*
X56830000Y-15592661D01*
X56830000Y-15487339D01*
X56802741Y-15385606D01*
X56750080Y-15294394D01*
X56745686Y-15290000D01*
X57530000Y-15290000D01*
X57530000Y-15053428D01*
X57502914Y-14882415D01*
X57449408Y-14717742D01*
X57370804Y-14563475D01*
X57269032Y-14423397D01*
X57146602Y-14300967D01*
X57006524Y-14199195D01*
X56880505Y-14134985D01*
X56829709Y-14087010D01*
X56812914Y-14019189D01*
X56835452Y-13953054D01*
X56890167Y-13909603D01*
X56936800Y-13900500D01*
X58463200Y-13900500D01*
X58530239Y-13920185D01*
X58575994Y-13972989D01*
X58585938Y-14042147D01*
X58556913Y-14105703D01*
X58519495Y-14134985D01*
X58393475Y-14199195D01*
X58253397Y-14300967D01*
X58130967Y-14423397D01*
X58029195Y-14563475D01*
X57950591Y-14717742D01*
X57897085Y-14882415D01*
X57870000Y-15053428D01*
X57870000Y-15290000D01*
X58654314Y-15290000D01*
X58649920Y-15294394D01*
X58597259Y-15385606D01*
X58570000Y-15487339D01*
X58570000Y-15592661D01*
X58597259Y-15694394D01*
X58649920Y-15785606D01*
X58654314Y-15790000D01*
X57870000Y-15790000D01*
X57870000Y-16026571D01*
X57897085Y-16197584D01*
X57950591Y-16362257D01*
X58029195Y-16516524D01*
X58130967Y-16656602D01*
X58253397Y-16779032D01*
X58393475Y-16880804D01*
X58547744Y-16959408D01*
X58712415Y-17012914D01*
X58712414Y-17012914D01*
X58719999Y-17014115D01*
X58720000Y-17014114D01*
X58720000Y-15855686D01*
X58724394Y-15860080D01*
X58815606Y-15912741D01*
X58917339Y-15940000D01*
X59022661Y-15940000D01*
X59124394Y-15912741D01*
X59215606Y-15860080D01*
X59220000Y-15855686D01*
X59220000Y-17014115D01*
X59227584Y-17012914D01*
X59392255Y-16959408D01*
X59546524Y-16880804D01*
X59686602Y-16779032D01*
X59809032Y-16656602D01*
X59910804Y-16516524D01*
X59989408Y-16362257D01*
X60042914Y-16197584D01*
X60070000Y-16026571D01*
X60070000Y-15790000D01*
X59285686Y-15790000D01*
X59290080Y-15785606D01*
X59342741Y-15694394D01*
X59370000Y-15592661D01*
X59370000Y-15487339D01*
X59342741Y-15385606D01*
X59290080Y-15294394D01*
X59285686Y-15290000D01*
X60070000Y-15290000D01*
X60070000Y-15053428D01*
X60042914Y-14882415D01*
X59989408Y-14717742D01*
X59910804Y-14563475D01*
X59809032Y-14423397D01*
X59686602Y-14300967D01*
X59546524Y-14199195D01*
X59420505Y-14134985D01*
X59369709Y-14087010D01*
X59352914Y-14019189D01*
X59375452Y-13953054D01*
X59430167Y-13909603D01*
X59476800Y-13900500D01*
X61284108Y-13900500D01*
X61345572Y-13900500D01*
X61354418Y-13900816D01*
X61554561Y-13915130D01*
X61572063Y-13917647D01*
X61763797Y-13959355D01*
X61780755Y-13964334D01*
X61927827Y-14019190D01*
X61964609Y-14032909D01*
X61980701Y-14040259D01*
X62152904Y-14134288D01*
X62167784Y-14143849D01*
X62314725Y-14253849D01*
X62324867Y-14261441D01*
X62338237Y-14273027D01*
X62476972Y-14411762D01*
X62488558Y-14425132D01*
X62606146Y-14582210D01*
X62615706Y-14597086D01*
X62634832Y-14632113D01*
X62650000Y-14691538D01*
X62650000Y-56076000D01*
X62630315Y-56143039D01*
X62577511Y-56188794D01*
X62526000Y-56200000D01*
X61450000Y-56200000D01*
X53841973Y-56200000D01*
X53774934Y-56180315D01*
X53729179Y-56127511D01*
X53719235Y-56058353D01*
X53748260Y-55994797D01*
X53807038Y-55957023D01*
X53809880Y-55956225D01*
X53996317Y-55906269D01*
X53996331Y-55906264D01*
X54202478Y-55810136D01*
X54275471Y-55759024D01*
X53638594Y-55122147D01*
X53723698Y-55099344D01*
X53826314Y-55040099D01*
X53910099Y-54956314D01*
X53969344Y-54853698D01*
X53992147Y-54768594D01*
X54629024Y-55405471D01*
X54680136Y-55332478D01*
X54776264Y-55126331D01*
X54776269Y-55126317D01*
X54835139Y-54906610D01*
X54835141Y-54906599D01*
X54854966Y-54680002D01*
X54854966Y-54679997D01*
X54835141Y-54453400D01*
X54835139Y-54453389D01*
X54776269Y-54233682D01*
X54776264Y-54233668D01*
X54680136Y-54027521D01*
X54680132Y-54027513D01*
X54629025Y-53954526D01*
X53992147Y-54591404D01*
X53969344Y-54506302D01*
X53910099Y-54403686D01*
X53826314Y-54319901D01*
X53723698Y-54260656D01*
X53638593Y-54237851D01*
X54275472Y-53600974D01*
X54202478Y-53549863D01*
X53996331Y-53453735D01*
X53996317Y-53453730D01*
X53776610Y-53394860D01*
X53776599Y-53394858D01*
X53550002Y-53375034D01*
X53549998Y-53375034D01*
X53323400Y-53394858D01*
X53323389Y-53394860D01*
X53103682Y-53453730D01*
X53103673Y-53453734D01*
X52897516Y-53549866D01*
X52897512Y-53549868D01*
X52824526Y-53600973D01*
X52824526Y-53600974D01*
X53461405Y-54237852D01*
X53376302Y-54260656D01*
X53273686Y-54319901D01*
X53189901Y-54403686D01*
X53130656Y-54506302D01*
X53107852Y-54591405D01*
X52470974Y-53954526D01*
X52470973Y-53954526D01*
X52419868Y-54027512D01*
X52419866Y-54027516D01*
X52323734Y-54233673D01*
X52323730Y-54233682D01*
X52264860Y-54453389D01*
X52264858Y-54453400D01*
X52245034Y-54679997D01*
X52245034Y-54680002D01*
X52264858Y-54906599D01*
X52264860Y-54906610D01*
X52323730Y-55126317D01*
X52323735Y-55126331D01*
X52419863Y-55332478D01*
X52470974Y-55405472D01*
X53107852Y-54768593D01*
X53130656Y-54853698D01*
X53189901Y-54956314D01*
X53273686Y-55040099D01*
X53376302Y-55099344D01*
X53461405Y-55122147D01*
X52824526Y-55759025D01*
X52897513Y-55810132D01*
X52897521Y-55810136D01*
X53103668Y-55906264D01*
X53103682Y-55906269D01*
X53290120Y-55956225D01*
X53349781Y-55992590D01*
X53380310Y-56055437D01*
X53372015Y-56124813D01*
X53327530Y-56178690D01*
X53260978Y-56199965D01*
X53258027Y-56200000D01*
X52401362Y-56200000D01*
X52334323Y-56180315D01*
X52313681Y-56163681D01*
X50150000Y-54000000D01*
X32401362Y-54000000D01*
X32334323Y-53980315D01*
X32313681Y-53963681D01*
X29124996Y-50774996D01*
X37169435Y-50774996D01*
X37169435Y-50775003D01*
X37189630Y-50954249D01*
X37189631Y-50954254D01*
X37249211Y-51124523D01*
X37345184Y-51277262D01*
X37472738Y-51404816D01*
X37625478Y-51500789D01*
X37795745Y-51560368D01*
X37795750Y-51560369D01*
X37974996Y-51580565D01*
X37975000Y-51580565D01*
X37975004Y-51580565D01*
X38154249Y-51560369D01*
X38154252Y-51560368D01*
X38154255Y-51560368D01*
X38324522Y-51500789D01*
X38477262Y-51404816D01*
X38604816Y-51277262D01*
X38700789Y-51124522D01*
X38760368Y-50954255D01*
X38770161Y-50867329D01*
X38797226Y-50802918D01*
X38805690Y-50793543D01*
X38918506Y-50680728D01*
X38918511Y-50680724D01*
X38928714Y-50670520D01*
X38928716Y-50670520D01*
X39040520Y-50558716D01*
X39107713Y-50442333D01*
X39119577Y-50421785D01*
X39160501Y-50269057D01*
X39160501Y-50110943D01*
X39160501Y-50103348D01*
X39160500Y-50103330D01*
X39160500Y-49599998D01*
X52244532Y-49599998D01*
X52244532Y-49600001D01*
X52264364Y-49826686D01*
X52264366Y-49826697D01*
X52323258Y-50046488D01*
X52323261Y-50046497D01*
X52419431Y-50252732D01*
X52419432Y-50252734D01*
X52549954Y-50439141D01*
X52710858Y-50600045D01*
X52710861Y-50600047D01*
X52897266Y-50730568D01*
X53103504Y-50826739D01*
X53323308Y-50885635D01*
X53481786Y-50899500D01*
X53549998Y-50905468D01*
X53550000Y-50905468D01*
X53550002Y-50905468D01*
X53618214Y-50899500D01*
X53776692Y-50885635D01*
X53996496Y-50826739D01*
X54202734Y-50730568D01*
X54389139Y-50600047D01*
X54550047Y-50439139D01*
X54680568Y-50252734D01*
X54776739Y-50046496D01*
X54835635Y-49826692D01*
X54855468Y-49600000D01*
X54835635Y-49373308D01*
X54776739Y-49153504D01*
X54680568Y-48947266D01*
X54550047Y-48760861D01*
X54550045Y-48760858D01*
X54389141Y-48599954D01*
X54202734Y-48469432D01*
X54202732Y-48469431D01*
X53996497Y-48373261D01*
X53996488Y-48373258D01*
X53776697Y-48314366D01*
X53776693Y-48314365D01*
X53776692Y-48314365D01*
X53776691Y-48314364D01*
X53776686Y-48314364D01*
X53550002Y-48294532D01*
X53549998Y-48294532D01*
X53323313Y-48314364D01*
X53323302Y-48314366D01*
X53103511Y-48373258D01*
X53103502Y-48373261D01*
X52897267Y-48469431D01*
X52897265Y-48469432D01*
X52710858Y-48599954D01*
X52549954Y-48760858D01*
X52419432Y-48947265D01*
X52419431Y-48947267D01*
X52323261Y-49153502D01*
X52323258Y-49153511D01*
X52264366Y-49373302D01*
X52264364Y-49373313D01*
X52244532Y-49599998D01*
X39160500Y-49599998D01*
X39160500Y-47439090D01*
X39180185Y-47372051D01*
X39232101Y-47326706D01*
X39237830Y-47324035D01*
X39431401Y-47188495D01*
X39598495Y-47021401D01*
X39728425Y-46835842D01*
X39783002Y-46792217D01*
X39852500Y-46785023D01*
X39914855Y-46816546D01*
X39931575Y-46835842D01*
X40061500Y-47021395D01*
X40061505Y-47021401D01*
X40228599Y-47188495D01*
X40305135Y-47242086D01*
X40422165Y-47324032D01*
X40422167Y-47324033D01*
X40422170Y-47324035D01*
X40636337Y-47423903D01*
X40864592Y-47485063D01*
X41035319Y-47500000D01*
X41099999Y-47505659D01*
X41100000Y-47505659D01*
X41100001Y-47505659D01*
X41164681Y-47500000D01*
X41335408Y-47485063D01*
X41563663Y-47423903D01*
X41777830Y-47324035D01*
X41971401Y-47188495D01*
X42093717Y-47066178D01*
X42155036Y-47032696D01*
X42224728Y-47037680D01*
X42280662Y-47079551D01*
X42297577Y-47110528D01*
X42346646Y-47242088D01*
X42346649Y-47242093D01*
X42432809Y-47357187D01*
X42432812Y-47357190D01*
X42547906Y-47443350D01*
X42547913Y-47443354D01*
X42682620Y-47493596D01*
X42682627Y-47493598D01*
X42742155Y-47499999D01*
X42742172Y-47500000D01*
X43390000Y-47500000D01*
X43390000Y-46583012D01*
X43447007Y-46615925D01*
X43574174Y-46650000D01*
X43705826Y-46650000D01*
X43832993Y-46615925D01*
X43890000Y-46583012D01*
X43890000Y-47500000D01*
X44537828Y-47500000D01*
X44537844Y-47499999D01*
X44597372Y-47493598D01*
X44597379Y-47493596D01*
X44732086Y-47443354D01*
X44732093Y-47443350D01*
X44847187Y-47357190D01*
X44847190Y-47357187D01*
X44933350Y-47242093D01*
X44933354Y-47242086D01*
X44983596Y-47107379D01*
X44983598Y-47107372D01*
X44989999Y-47047844D01*
X44990000Y-47047827D01*
X44990000Y-46400000D01*
X44073012Y-46400000D01*
X44105925Y-46342993D01*
X44140000Y-46215826D01*
X44140000Y-46084174D01*
X44105925Y-45957007D01*
X44073012Y-45900000D01*
X44990000Y-45900000D01*
X44990000Y-45252172D01*
X44989999Y-45252155D01*
X44983598Y-45192627D01*
X44983596Y-45192620D01*
X44933354Y-45057913D01*
X44933350Y-45057906D01*
X44847190Y-44942812D01*
X44847187Y-44942809D01*
X44732093Y-44856649D01*
X44732086Y-44856645D01*
X44597379Y-44806403D01*
X44597372Y-44806401D01*
X44537844Y-44800000D01*
X43890000Y-44800000D01*
X43890000Y-45716988D01*
X43832993Y-45684075D01*
X43705826Y-45650000D01*
X43574174Y-45650000D01*
X43447007Y-45684075D01*
X43390000Y-45716988D01*
X43390000Y-44800000D01*
X42742155Y-44800000D01*
X42682627Y-44806401D01*
X42682620Y-44806403D01*
X42547913Y-44856645D01*
X42547906Y-44856649D01*
X42432812Y-44942809D01*
X42432809Y-44942812D01*
X42346649Y-45057906D01*
X42346645Y-45057913D01*
X42297578Y-45189470D01*
X42255707Y-45245404D01*
X42190242Y-45269821D01*
X42121969Y-45254969D01*
X42093715Y-45233819D01*
X42049366Y-45189470D01*
X41971401Y-45111505D01*
X41971397Y-45111502D01*
X41971396Y-45111501D01*
X41777834Y-44975967D01*
X41777830Y-44975965D01*
X41706727Y-44942809D01*
X41563663Y-44876097D01*
X41563659Y-44876096D01*
X41563655Y-44876094D01*
X41335413Y-44814938D01*
X41335403Y-44814936D01*
X41100001Y-44794341D01*
X41099998Y-44794341D01*
X41072153Y-44796777D01*
X41003653Y-44783010D01*
X40953470Y-44734395D01*
X40937537Y-44666366D01*
X40960913Y-44600523D01*
X40973659Y-44585574D01*
X43008506Y-42550728D01*
X43008511Y-42550724D01*
X43018714Y-42540520D01*
X43018716Y-42540520D01*
X43130520Y-42428716D01*
X43209577Y-42291784D01*
X43250500Y-42139057D01*
X43250500Y-40782412D01*
X43270185Y-40715373D01*
X43277555Y-40705097D01*
X43279810Y-40702267D01*
X43279816Y-40702262D01*
X43375789Y-40549522D01*
X43435368Y-40379255D01*
X43455565Y-40200000D01*
X43436028Y-40026602D01*
X43448082Y-39957780D01*
X43495431Y-39906400D01*
X43563042Y-39888776D01*
X43578633Y-39890243D01*
X43643389Y-39900500D01*
X43643391Y-39900500D01*
X43816610Y-39900500D01*
X43816611Y-39900500D01*
X43987701Y-39873402D01*
X44152445Y-39819873D01*
X44306788Y-39741232D01*
X44446928Y-39639414D01*
X44569414Y-39516928D01*
X44671232Y-39376788D01*
X44749873Y-39222445D01*
X44803402Y-39057701D01*
X44830500Y-38886611D01*
X44830500Y-37913428D01*
X45170000Y-37913428D01*
X45170000Y-38150000D01*
X45954314Y-38150000D01*
X45949920Y-38154394D01*
X45897259Y-38245606D01*
X45870000Y-38347339D01*
X45870000Y-38452661D01*
X45897259Y-38554394D01*
X45949920Y-38645606D01*
X45954314Y-38650000D01*
X45170000Y-38650000D01*
X45170000Y-38886571D01*
X45197085Y-39057584D01*
X45250591Y-39222257D01*
X45329195Y-39376524D01*
X45430967Y-39516602D01*
X45553397Y-39639032D01*
X45693475Y-39740804D01*
X45847744Y-39819408D01*
X46012415Y-39872914D01*
X46012414Y-39872914D01*
X46019999Y-39874115D01*
X46020000Y-39874114D01*
X46020000Y-38715686D01*
X46024394Y-38720080D01*
X46115606Y-38772741D01*
X46217339Y-38800000D01*
X46322661Y-38800000D01*
X46424394Y-38772741D01*
X46515606Y-38720080D01*
X46520000Y-38715686D01*
X46520000Y-39874115D01*
X46527584Y-39872914D01*
X46692255Y-39819408D01*
X46846524Y-39740804D01*
X46986602Y-39639032D01*
X47109032Y-39516602D01*
X47210804Y-39376524D01*
X47289408Y-39222257D01*
X47342914Y-39057584D01*
X47370000Y-38886571D01*
X47370000Y-38650000D01*
X46585686Y-38650000D01*
X46590080Y-38645606D01*
X46642741Y-38554394D01*
X46670000Y-38452661D01*
X46670000Y-38347339D01*
X46642741Y-38245606D01*
X46590080Y-38154394D01*
X46585686Y-38150000D01*
X47370000Y-38150000D01*
X47370000Y-37913428D01*
X47369994Y-37913389D01*
X47709500Y-37913389D01*
X47709500Y-38886611D01*
X47736598Y-39057701D01*
X47790127Y-39222445D01*
X47868768Y-39376788D01*
X47970586Y-39516928D01*
X48093072Y-39639414D01*
X48233212Y-39741232D01*
X48387555Y-39819873D01*
X48552299Y-39873402D01*
X48723389Y-39900500D01*
X48723390Y-39900500D01*
X48896610Y-39900500D01*
X48896611Y-39900500D01*
X49067701Y-39873402D01*
X49232445Y-39819873D01*
X49386788Y-39741232D01*
X49526928Y-39639414D01*
X49649414Y-39516928D01*
X49751232Y-39376788D01*
X49829873Y-39222445D01*
X49883402Y-39057701D01*
X49910500Y-38886611D01*
X49910500Y-37913389D01*
X50249500Y-37913389D01*
X50249500Y-38886611D01*
X50276598Y-39057701D01*
X50330127Y-39222445D01*
X50408768Y-39376788D01*
X50510586Y-39516928D01*
X50633072Y-39639414D01*
X50773212Y-39741232D01*
X50927555Y-39819873D01*
X51092299Y-39873402D01*
X51263389Y-39900500D01*
X51263390Y-39900500D01*
X51436610Y-39900500D01*
X51436611Y-39900500D01*
X51607701Y-39873402D01*
X51772445Y-39819873D01*
X51926788Y-39741232D01*
X52066928Y-39639414D01*
X52189414Y-39516928D01*
X52291232Y-39376788D01*
X52369873Y-39222445D01*
X52423402Y-39057701D01*
X52450500Y-38886611D01*
X52450500Y-37913389D01*
X52789500Y-37913389D01*
X52789500Y-38886611D01*
X52816598Y-39057701D01*
X52870127Y-39222445D01*
X52948768Y-39376788D01*
X53050586Y-39516928D01*
X53173072Y-39639414D01*
X53313212Y-39741232D01*
X53467555Y-39819873D01*
X53632299Y-39873402D01*
X53803389Y-39900500D01*
X53803390Y-39900500D01*
X53976610Y-39900500D01*
X53976611Y-39900500D01*
X54147701Y-39873402D01*
X54312445Y-39819873D01*
X54466788Y-39741232D01*
X54606928Y-39639414D01*
X54729414Y-39516928D01*
X54831232Y-39376788D01*
X54909873Y-39222445D01*
X54963402Y-39057701D01*
X54990500Y-38886611D01*
X54990500Y-37913389D01*
X55329500Y-37913389D01*
X55329500Y-38886611D01*
X55356598Y-39057701D01*
X55410127Y-39222445D01*
X55488768Y-39376788D01*
X55590586Y-39516928D01*
X55713072Y-39639414D01*
X55853212Y-39741232D01*
X56007555Y-39819873D01*
X56172299Y-39873402D01*
X56343389Y-39900500D01*
X56343390Y-39900500D01*
X56516610Y-39900500D01*
X56516611Y-39900500D01*
X56687701Y-39873402D01*
X56852445Y-39819873D01*
X57006788Y-39741232D01*
X57146928Y-39639414D01*
X57269414Y-39516928D01*
X57371232Y-39376788D01*
X57449873Y-39222445D01*
X57503402Y-39057701D01*
X57530500Y-38886611D01*
X57530500Y-37913428D01*
X57870000Y-37913428D01*
X57870000Y-38150000D01*
X58654314Y-38150000D01*
X58649920Y-38154394D01*
X58597259Y-38245606D01*
X58570000Y-38347339D01*
X58570000Y-38452661D01*
X58597259Y-38554394D01*
X58649920Y-38645606D01*
X58654314Y-38650000D01*
X57870000Y-38650000D01*
X57870000Y-38886571D01*
X57897085Y-39057584D01*
X57950591Y-39222257D01*
X58029195Y-39376524D01*
X58130967Y-39516602D01*
X58253397Y-39639032D01*
X58393475Y-39740804D01*
X58547744Y-39819408D01*
X58712415Y-39872914D01*
X58712414Y-39872914D01*
X58719999Y-39874115D01*
X58720000Y-39874114D01*
X58720000Y-38715686D01*
X58724394Y-38720080D01*
X58815606Y-38772741D01*
X58917339Y-38800000D01*
X59022661Y-38800000D01*
X59124394Y-38772741D01*
X59215606Y-38720080D01*
X59220000Y-38715686D01*
X59220000Y-39874115D01*
X59227584Y-39872914D01*
X59392255Y-39819408D01*
X59546524Y-39740804D01*
X59686602Y-39639032D01*
X59809032Y-39516602D01*
X59910804Y-39376524D01*
X59989408Y-39222257D01*
X60042914Y-39057584D01*
X60070000Y-38886571D01*
X60070000Y-38650000D01*
X59285686Y-38650000D01*
X59290080Y-38645606D01*
X59342741Y-38554394D01*
X59370000Y-38452661D01*
X59370000Y-38347339D01*
X59342741Y-38245606D01*
X59290080Y-38154394D01*
X59285686Y-38150000D01*
X60070000Y-38150000D01*
X60070000Y-37913428D01*
X60042914Y-37742415D01*
X59989408Y-37577742D01*
X59910804Y-37423475D01*
X59809032Y-37283397D01*
X59686602Y-37160967D01*
X59546524Y-37059195D01*
X59392257Y-36980591D01*
X59227589Y-36927087D01*
X59227581Y-36927085D01*
X59220000Y-36925884D01*
X59220000Y-38084314D01*
X59215606Y-38079920D01*
X59124394Y-38027259D01*
X59022661Y-38000000D01*
X58917339Y-38000000D01*
X58815606Y-38027259D01*
X58724394Y-38079920D01*
X58720000Y-38084314D01*
X58720000Y-36925884D01*
X58719999Y-36925884D01*
X58712418Y-36927085D01*
X58712410Y-36927087D01*
X58547742Y-36980591D01*
X58393475Y-37059195D01*
X58253397Y-37160967D01*
X58130967Y-37283397D01*
X58029195Y-37423475D01*
X57950591Y-37577742D01*
X57897085Y-37742415D01*
X57870000Y-37913428D01*
X57530500Y-37913428D01*
X57530500Y-37913389D01*
X57503402Y-37742299D01*
X57449873Y-37577555D01*
X57371232Y-37423212D01*
X57269414Y-37283072D01*
X57146928Y-37160586D01*
X57006788Y-37058768D01*
X56852445Y-36980127D01*
X56687701Y-36926598D01*
X56687699Y-36926597D01*
X56687698Y-36926597D01*
X56556271Y-36905781D01*
X56516611Y-36899500D01*
X56343389Y-36899500D01*
X56303728Y-36905781D01*
X56172302Y-36926597D01*
X56007552Y-36980128D01*
X55853211Y-37058768D01*
X55773256Y-37116859D01*
X55713072Y-37160586D01*
X55713070Y-37160588D01*
X55713069Y-37160588D01*
X55590588Y-37283069D01*
X55590588Y-37283070D01*
X55590586Y-37283072D01*
X55590350Y-37283397D01*
X55488768Y-37423211D01*
X55410128Y-37577552D01*
X55356597Y-37742302D01*
X55329500Y-37913389D01*
X54990500Y-37913389D01*
X54963402Y-37742299D01*
X54909873Y-37577555D01*
X54831232Y-37423212D01*
X54729414Y-37283072D01*
X54606928Y-37160586D01*
X54466788Y-37058768D01*
X54312445Y-36980127D01*
X54147701Y-36926598D01*
X54147699Y-36926597D01*
X54147698Y-36926597D01*
X54016271Y-36905781D01*
X53976611Y-36899500D01*
X53803389Y-36899500D01*
X53763728Y-36905781D01*
X53632302Y-36926597D01*
X53467552Y-36980128D01*
X53313211Y-37058768D01*
X53233256Y-37116859D01*
X53173072Y-37160586D01*
X53173070Y-37160588D01*
X53173069Y-37160588D01*
X53050588Y-37283069D01*
X53050588Y-37283070D01*
X53050586Y-37283072D01*
X53050350Y-37283397D01*
X52948768Y-37423211D01*
X52870128Y-37577552D01*
X52816597Y-37742302D01*
X52789500Y-37913389D01*
X52450500Y-37913389D01*
X52423402Y-37742299D01*
X52369873Y-37577555D01*
X52291232Y-37423212D01*
X52189414Y-37283072D01*
X52066928Y-37160586D01*
X51926788Y-37058768D01*
X51772445Y-36980127D01*
X51607701Y-36926598D01*
X51607699Y-36926597D01*
X51607698Y-36926597D01*
X51476271Y-36905781D01*
X51436611Y-36899500D01*
X51263389Y-36899500D01*
X51223728Y-36905781D01*
X51092302Y-36926597D01*
X50927552Y-36980128D01*
X50773211Y-37058768D01*
X50693256Y-37116859D01*
X50633072Y-37160586D01*
X50633070Y-37160588D01*
X50633069Y-37160588D01*
X50510588Y-37283069D01*
X50510588Y-37283070D01*
X50510586Y-37283072D01*
X50510350Y-37283397D01*
X50408768Y-37423211D01*
X50330128Y-37577552D01*
X50276597Y-37742302D01*
X50249500Y-37913389D01*
X49910500Y-37913389D01*
X49883402Y-37742299D01*
X49829873Y-37577555D01*
X49751232Y-37423212D01*
X49649414Y-37283072D01*
X49526928Y-37160586D01*
X49386788Y-37058768D01*
X49232445Y-36980127D01*
X49067701Y-36926598D01*
X49067699Y-36926597D01*
X49067698Y-36926597D01*
X48936271Y-36905781D01*
X48896611Y-36899500D01*
X48723389Y-36899500D01*
X48683728Y-36905781D01*
X48552302Y-36926597D01*
X48387552Y-36980128D01*
X48233211Y-37058768D01*
X48153256Y-37116859D01*
X48093072Y-37160586D01*
X48093070Y-37160588D01*
X48093069Y-37160588D01*
X47970588Y-37283069D01*
X47970588Y-37283070D01*
X47970586Y-37283072D01*
X47970350Y-37283397D01*
X47868768Y-37423211D01*
X47790128Y-37577552D01*
X47736597Y-37742302D01*
X47709500Y-37913389D01*
X47369994Y-37913389D01*
X47342914Y-37742415D01*
X47289408Y-37577742D01*
X47210804Y-37423475D01*
X47109032Y-37283397D01*
X46986602Y-37160967D01*
X46846524Y-37059195D01*
X46692257Y-36980591D01*
X46527589Y-36927087D01*
X46527581Y-36927085D01*
X46520000Y-36925884D01*
X46520000Y-38084314D01*
X46515606Y-38079920D01*
X46424394Y-38027259D01*
X46322661Y-38000000D01*
X46217339Y-38000000D01*
X46115606Y-38027259D01*
X46024394Y-38079920D01*
X46020000Y-38084314D01*
X46020000Y-36925884D01*
X46019999Y-36925884D01*
X46012418Y-36927085D01*
X46012410Y-36927087D01*
X45847742Y-36980591D01*
X45693475Y-37059195D01*
X45553397Y-37160967D01*
X45430967Y-37283397D01*
X45329195Y-37423475D01*
X45250591Y-37577742D01*
X45197085Y-37742415D01*
X45170000Y-37913428D01*
X44830500Y-37913428D01*
X44830500Y-37913389D01*
X44803402Y-37742299D01*
X44749873Y-37577555D01*
X44671232Y-37423212D01*
X44569414Y-37283072D01*
X44446928Y-37160586D01*
X44306788Y-37058768D01*
X44152445Y-36980127D01*
X43987701Y-36926598D01*
X43987699Y-36926597D01*
X43987698Y-36926597D01*
X43856271Y-36905781D01*
X43816611Y-36899500D01*
X43643389Y-36899500D01*
X43603728Y-36905781D01*
X43472302Y-36926597D01*
X43307552Y-36980128D01*
X43153211Y-37058768D01*
X43073256Y-37116859D01*
X43013072Y-37160586D01*
X43013070Y-37160588D01*
X43013069Y-37160588D01*
X42890588Y-37283069D01*
X42890588Y-37283070D01*
X42890586Y-37283072D01*
X42890350Y-37283397D01*
X42788768Y-37423211D01*
X42710128Y-37577552D01*
X42656597Y-37742302D01*
X42629500Y-37913389D01*
X42629500Y-38886610D01*
X42656597Y-39057697D01*
X42710129Y-39222452D01*
X42711994Y-39226954D01*
X42710092Y-39227741D01*
X42721371Y-39287934D01*
X42695068Y-39352664D01*
X42637945Y-39392897D01*
X42611879Y-39398729D01*
X42470749Y-39414630D01*
X42470742Y-39414632D01*
X42325879Y-39465322D01*
X42256100Y-39468883D01*
X42195473Y-39434154D01*
X42163246Y-39372161D01*
X42169651Y-39302585D01*
X42174441Y-39291984D01*
X42209871Y-39222449D01*
X42209872Y-39222447D01*
X42209873Y-39222445D01*
X42263402Y-39057701D01*
X42290500Y-38886611D01*
X42290500Y-37913389D01*
X42263402Y-37742299D01*
X42209873Y-37577555D01*
X42131232Y-37423212D01*
X42029414Y-37283072D01*
X41906928Y-37160586D01*
X41766788Y-37058768D01*
X41612445Y-36980127D01*
X41447701Y-36926598D01*
X41447699Y-36926597D01*
X41447698Y-36926597D01*
X41316271Y-36905781D01*
X41276611Y-36899500D01*
X41103389Y-36899500D01*
X41063728Y-36905781D01*
X40932302Y-36926597D01*
X40767552Y-36980128D01*
X40613211Y-37058768D01*
X40533256Y-37116859D01*
X40473072Y-37160586D01*
X40473070Y-37160588D01*
X40473069Y-37160588D01*
X40350588Y-37283069D01*
X40350588Y-37283070D01*
X40350586Y-37283072D01*
X40350350Y-37283397D01*
X40248768Y-37423211D01*
X40170128Y-37577552D01*
X40116597Y-37742302D01*
X40089500Y-37913389D01*
X40089500Y-38886611D01*
X40116598Y-39057701D01*
X40170127Y-39222445D01*
X40248768Y-39376788D01*
X40350586Y-39516928D01*
X40473072Y-39639414D01*
X40613212Y-39741232D01*
X40767555Y-39819873D01*
X40932299Y-39873402D01*
X41103389Y-39900500D01*
X41103390Y-39900500D01*
X41276610Y-39900500D01*
X41276611Y-39900500D01*
X41447701Y-39873402D01*
X41612445Y-39819873D01*
X41729456Y-39760253D01*
X41798122Y-39747358D01*
X41862862Y-39773634D01*
X41903120Y-39830740D01*
X41906112Y-39900546D01*
X41902790Y-39911693D01*
X41864632Y-40020742D01*
X41864630Y-40020750D01*
X41844435Y-40199996D01*
X41844435Y-40200003D01*
X41864630Y-40379249D01*
X41864631Y-40379254D01*
X41924211Y-40549523D01*
X42020185Y-40702263D01*
X42022445Y-40705097D01*
X42023334Y-40707275D01*
X42023889Y-40708158D01*
X42023734Y-40708255D01*
X42048855Y-40769783D01*
X42049500Y-40782412D01*
X42049500Y-41759902D01*
X42029815Y-41826941D01*
X42013181Y-41847583D01*
X39043530Y-44817233D01*
X38982207Y-44850718D01*
X38923756Y-44849327D01*
X38795413Y-44814938D01*
X38795403Y-44814936D01*
X38560001Y-44794341D01*
X38559999Y-44794341D01*
X38324596Y-44814936D01*
X38324586Y-44814938D01*
X38096344Y-44876094D01*
X38096335Y-44876098D01*
X37882171Y-44975964D01*
X37882169Y-44975965D01*
X37688597Y-45111505D01*
X37521505Y-45278597D01*
X37385965Y-45472169D01*
X37385964Y-45472171D01*
X37286098Y-45686335D01*
X37286094Y-45686344D01*
X37224938Y-45914586D01*
X37224936Y-45914596D01*
X37204341Y-46149999D01*
X37204341Y-46150000D01*
X37224936Y-46385403D01*
X37224938Y-46385413D01*
X37286094Y-46613655D01*
X37286096Y-46613659D01*
X37286097Y-46613663D01*
X37366004Y-46785023D01*
X37385965Y-46827830D01*
X37385967Y-46827834D01*
X37494281Y-46982521D01*
X37521505Y-47021401D01*
X37688599Y-47188495D01*
X37765135Y-47242086D01*
X37882165Y-47324032D01*
X37882167Y-47324033D01*
X37882170Y-47324035D01*
X37887898Y-47326706D01*
X37940339Y-47372872D01*
X37959500Y-47439090D01*
X37959500Y-49860367D01*
X37939815Y-49927406D01*
X37887011Y-49973161D01*
X37849385Y-49983587D01*
X37795750Y-49989630D01*
X37625478Y-50049210D01*
X37472737Y-50145184D01*
X37345184Y-50272737D01*
X37249211Y-50425476D01*
X37189631Y-50595745D01*
X37189630Y-50595750D01*
X37169435Y-50774996D01*
X29124996Y-50774996D01*
X22486319Y-44136319D01*
X22452834Y-44074996D01*
X22450000Y-44048638D01*
X22450000Y-39977968D01*
X22469685Y-39910929D01*
X22522489Y-39865174D01*
X22591647Y-39855230D01*
X22617334Y-39861786D01*
X22702623Y-39893597D01*
X22702627Y-39893598D01*
X22762155Y-39899999D01*
X22762172Y-39900000D01*
X23160000Y-39900000D01*
X23160000Y-38715686D01*
X23164394Y-38720080D01*
X23255606Y-38772741D01*
X23357339Y-38800000D01*
X23462661Y-38800000D01*
X23564394Y-38772741D01*
X23655606Y-38720080D01*
X23660000Y-38715686D01*
X23660000Y-39900000D01*
X24057828Y-39900000D01*
X24057844Y-39899999D01*
X24117372Y-39893598D01*
X24117379Y-39893596D01*
X24252086Y-39843354D01*
X24252093Y-39843350D01*
X24367187Y-39757190D01*
X24367190Y-39757187D01*
X24453350Y-39642093D01*
X24453354Y-39642086D01*
X24503596Y-39507379D01*
X24503598Y-39507372D01*
X24509999Y-39447844D01*
X24510000Y-39447827D01*
X24510000Y-38650000D01*
X23725686Y-38650000D01*
X23730080Y-38645606D01*
X23782741Y-38554394D01*
X23810000Y-38452661D01*
X23810000Y-38347339D01*
X23782741Y-38245606D01*
X23730080Y-38154394D01*
X23725686Y-38150000D01*
X24510000Y-38150000D01*
X24510000Y-37913389D01*
X24849500Y-37913389D01*
X24849500Y-38886611D01*
X24876598Y-39057701D01*
X24930127Y-39222445D01*
X25008768Y-39376788D01*
X25110586Y-39516928D01*
X25233072Y-39639414D01*
X25373212Y-39741232D01*
X25527555Y-39819873D01*
X25692299Y-39873402D01*
X25863389Y-39900500D01*
X25863390Y-39900500D01*
X26036610Y-39900500D01*
X26036611Y-39900500D01*
X26207701Y-39873402D01*
X26372445Y-39819873D01*
X26526788Y-39741232D01*
X26666928Y-39639414D01*
X26789414Y-39516928D01*
X26891232Y-39376788D01*
X26969873Y-39222445D01*
X27023402Y-39057701D01*
X27050500Y-38886611D01*
X27050500Y-37913389D01*
X27389500Y-37913389D01*
X27389500Y-38886611D01*
X27416598Y-39057701D01*
X27470127Y-39222445D01*
X27548768Y-39376788D01*
X27650586Y-39516928D01*
X27773072Y-39639414D01*
X27913212Y-39741232D01*
X28067555Y-39819873D01*
X28232299Y-39873402D01*
X28403389Y-39900500D01*
X28403390Y-39900500D01*
X28576610Y-39900500D01*
X28576611Y-39900500D01*
X28747701Y-39873402D01*
X28912445Y-39819873D01*
X29066788Y-39741232D01*
X29206928Y-39639414D01*
X29329414Y-39516928D01*
X29431232Y-39376788D01*
X29509873Y-39222445D01*
X29563402Y-39057701D01*
X29590500Y-38886611D01*
X29590500Y-37913389D01*
X29929500Y-37913389D01*
X29929500Y-38886611D01*
X29956598Y-39057701D01*
X30010127Y-39222445D01*
X30088768Y-39376788D01*
X30190586Y-39516928D01*
X30313072Y-39639414D01*
X30453212Y-39741232D01*
X30607555Y-39819873D01*
X30772299Y-39873402D01*
X30943389Y-39900500D01*
X30943390Y-39900500D01*
X31116610Y-39900500D01*
X31116611Y-39900500D01*
X31287701Y-39873402D01*
X31452445Y-39819873D01*
X31606788Y-39741232D01*
X31746928Y-39639414D01*
X31869414Y-39516928D01*
X31971232Y-39376788D01*
X32049873Y-39222445D01*
X32103402Y-39057701D01*
X32130500Y-38886611D01*
X32130500Y-37913428D01*
X32470000Y-37913428D01*
X32470000Y-38150000D01*
X33254314Y-38150000D01*
X33249920Y-38154394D01*
X33197259Y-38245606D01*
X33170000Y-38347339D01*
X33170000Y-38452661D01*
X33197259Y-38554394D01*
X33249920Y-38645606D01*
X33254314Y-38650000D01*
X32470000Y-38650000D01*
X32470000Y-38886571D01*
X32497085Y-39057584D01*
X32550591Y-39222257D01*
X32629195Y-39376524D01*
X32730967Y-39516602D01*
X32853397Y-39639032D01*
X32993475Y-39740804D01*
X33147744Y-39819408D01*
X33312415Y-39872914D01*
X33312414Y-39872914D01*
X33319999Y-39874115D01*
X33320000Y-39874114D01*
X33320000Y-38715686D01*
X33324394Y-38720080D01*
X33415606Y-38772741D01*
X33517339Y-38800000D01*
X33622661Y-38800000D01*
X33724394Y-38772741D01*
X33815606Y-38720080D01*
X33820000Y-38715686D01*
X33820000Y-39874115D01*
X33827584Y-39872914D01*
X33992255Y-39819408D01*
X34146524Y-39740804D01*
X34286602Y-39639032D01*
X34409032Y-39516602D01*
X34510804Y-39376524D01*
X34589408Y-39222257D01*
X34642914Y-39057584D01*
X34670000Y-38886571D01*
X34670000Y-38650000D01*
X33885686Y-38650000D01*
X33890080Y-38645606D01*
X33942741Y-38554394D01*
X33970000Y-38452661D01*
X33970000Y-38347339D01*
X33942741Y-38245606D01*
X33890080Y-38154394D01*
X33885686Y-38150000D01*
X34670000Y-38150000D01*
X34670000Y-37913428D01*
X34669994Y-37913389D01*
X35009500Y-37913389D01*
X35009500Y-38886611D01*
X35036598Y-39057701D01*
X35090127Y-39222445D01*
X35168768Y-39376788D01*
X35270586Y-39516928D01*
X35393072Y-39639414D01*
X35533212Y-39741232D01*
X35687555Y-39819873D01*
X35852299Y-39873402D01*
X36023389Y-39900500D01*
X36023390Y-39900500D01*
X36196610Y-39900500D01*
X36196611Y-39900500D01*
X36367701Y-39873402D01*
X36532445Y-39819873D01*
X36686788Y-39741232D01*
X36826928Y-39639414D01*
X36949414Y-39516928D01*
X37051232Y-39376788D01*
X37129873Y-39222445D01*
X37183402Y-39057701D01*
X37210500Y-38886611D01*
X37210500Y-37913389D01*
X37549500Y-37913389D01*
X37549500Y-38886611D01*
X37576598Y-39057701D01*
X37630127Y-39222445D01*
X37708768Y-39376788D01*
X37810586Y-39516928D01*
X37933072Y-39639414D01*
X38073212Y-39741232D01*
X38227555Y-39819873D01*
X38392299Y-39873402D01*
X38563389Y-39900500D01*
X38563390Y-39900500D01*
X38736610Y-39900500D01*
X38736611Y-39900500D01*
X38907701Y-39873402D01*
X39072445Y-39819873D01*
X39226788Y-39741232D01*
X39366928Y-39639414D01*
X39489414Y-39516928D01*
X39591232Y-39376788D01*
X39669873Y-39222445D01*
X39723402Y-39057701D01*
X39750500Y-38886611D01*
X39750500Y-37913389D01*
X39723402Y-37742299D01*
X39669873Y-37577555D01*
X39591232Y-37423212D01*
X39489414Y-37283072D01*
X39366928Y-37160586D01*
X39226788Y-37058768D01*
X39072445Y-36980127D01*
X38907701Y-36926598D01*
X38907699Y-36926597D01*
X38907698Y-36926597D01*
X38776271Y-36905781D01*
X38736611Y-36899500D01*
X38563389Y-36899500D01*
X38523728Y-36905781D01*
X38392302Y-36926597D01*
X38227552Y-36980128D01*
X38073211Y-37058768D01*
X37993256Y-37116859D01*
X37933072Y-37160586D01*
X37933070Y-37160588D01*
X37933069Y-37160588D01*
X37810588Y-37283069D01*
X37810588Y-37283070D01*
X37810586Y-37283072D01*
X37810350Y-37283397D01*
X37708768Y-37423211D01*
X37630128Y-37577552D01*
X37576597Y-37742302D01*
X37549500Y-37913389D01*
X37210500Y-37913389D01*
X37183402Y-37742299D01*
X37129873Y-37577555D01*
X37051232Y-37423212D01*
X36949414Y-37283072D01*
X36826928Y-37160586D01*
X36686788Y-37058768D01*
X36532445Y-36980127D01*
X36367701Y-36926598D01*
X36367699Y-36926597D01*
X36367698Y-36926597D01*
X36236271Y-36905781D01*
X36196611Y-36899500D01*
X36023389Y-36899500D01*
X35983728Y-36905781D01*
X35852302Y-36926597D01*
X35687552Y-36980128D01*
X35533211Y-37058768D01*
X35453256Y-37116859D01*
X35393072Y-37160586D01*
X35393070Y-37160588D01*
X35393069Y-37160588D01*
X35270588Y-37283069D01*
X35270588Y-37283070D01*
X35270586Y-37283072D01*
X35270350Y-37283397D01*
X35168768Y-37423211D01*
X35090128Y-37577552D01*
X35036597Y-37742302D01*
X35009500Y-37913389D01*
X34669994Y-37913389D01*
X34642914Y-37742415D01*
X34589408Y-37577742D01*
X34510804Y-37423475D01*
X34409032Y-37283397D01*
X34286602Y-37160967D01*
X34146524Y-37059195D01*
X33992257Y-36980591D01*
X33827589Y-36927087D01*
X33827581Y-36927085D01*
X33820000Y-36925884D01*
X33820000Y-38084314D01*
X33815606Y-38079920D01*
X33724394Y-38027259D01*
X33622661Y-38000000D01*
X33517339Y-38000000D01*
X33415606Y-38027259D01*
X33324394Y-38079920D01*
X33320000Y-38084314D01*
X33320000Y-36925884D01*
X33319999Y-36925884D01*
X33312418Y-36927085D01*
X33312410Y-36927087D01*
X33147742Y-36980591D01*
X32993475Y-37059195D01*
X32853397Y-37160967D01*
X32730967Y-37283397D01*
X32629195Y-37423475D01*
X32550591Y-37577742D01*
X32497085Y-37742415D01*
X32470000Y-37913428D01*
X32130500Y-37913428D01*
X32130500Y-37913389D01*
X32103402Y-37742299D01*
X32049873Y-37577555D01*
X31971232Y-37423212D01*
X31869414Y-37283072D01*
X31746928Y-37160586D01*
X31606788Y-37058768D01*
X31452445Y-36980127D01*
X31287701Y-36926598D01*
X31287699Y-36926597D01*
X31287698Y-36926597D01*
X31156271Y-36905781D01*
X31116611Y-36899500D01*
X30943389Y-36899500D01*
X30903728Y-36905781D01*
X30772302Y-36926597D01*
X30607552Y-36980128D01*
X30453211Y-37058768D01*
X30373256Y-37116859D01*
X30313072Y-37160586D01*
X30313070Y-37160588D01*
X30313069Y-37160588D01*
X30190588Y-37283069D01*
X30190588Y-37283070D01*
X30190586Y-37283072D01*
X30190350Y-37283397D01*
X30088768Y-37423211D01*
X30010128Y-37577552D01*
X29956597Y-37742302D01*
X29929500Y-37913389D01*
X29590500Y-37913389D01*
X29563402Y-37742299D01*
X29509873Y-37577555D01*
X29431232Y-37423212D01*
X29329414Y-37283072D01*
X29206928Y-37160586D01*
X29066788Y-37058768D01*
X28912445Y-36980127D01*
X28747701Y-36926598D01*
X28747699Y-36926597D01*
X28747698Y-36926597D01*
X28616271Y-36905781D01*
X28576611Y-36899500D01*
X28403389Y-36899500D01*
X28363728Y-36905781D01*
X28232302Y-36926597D01*
X28067552Y-36980128D01*
X27913211Y-37058768D01*
X27833256Y-37116859D01*
X27773072Y-37160586D01*
X27773070Y-37160588D01*
X27773069Y-37160588D01*
X27650588Y-37283069D01*
X27650588Y-37283070D01*
X27650586Y-37283072D01*
X27650350Y-37283397D01*
X27548768Y-37423211D01*
X27470128Y-37577552D01*
X27416597Y-37742302D01*
X27389500Y-37913389D01*
X27050500Y-37913389D01*
X27023402Y-37742299D01*
X26969873Y-37577555D01*
X26891232Y-37423212D01*
X26789414Y-37283072D01*
X26666928Y-37160586D01*
X26526788Y-37058768D01*
X26372445Y-36980127D01*
X26207701Y-36926598D01*
X26207699Y-36926597D01*
X26207698Y-36926597D01*
X26076271Y-36905781D01*
X26036611Y-36899500D01*
X25863389Y-36899500D01*
X25823728Y-36905781D01*
X25692302Y-36926597D01*
X25527552Y-36980128D01*
X25373211Y-37058768D01*
X25293256Y-37116859D01*
X25233072Y-37160586D01*
X25233070Y-37160588D01*
X25233069Y-37160588D01*
X25110588Y-37283069D01*
X25110588Y-37283070D01*
X25110586Y-37283072D01*
X25110350Y-37283397D01*
X25008768Y-37423211D01*
X24930128Y-37577552D01*
X24876597Y-37742302D01*
X24849500Y-37913389D01*
X24510000Y-37913389D01*
X24510000Y-37352172D01*
X24509999Y-37352155D01*
X24503598Y-37292627D01*
X24503596Y-37292620D01*
X24453354Y-37157913D01*
X24453350Y-37157906D01*
X24367190Y-37042812D01*
X24367187Y-37042809D01*
X24252093Y-36956649D01*
X24252086Y-36956645D01*
X24117379Y-36906403D01*
X24117372Y-36906401D01*
X24057844Y-36900000D01*
X23660000Y-36900000D01*
X23660000Y-38084314D01*
X23655606Y-38079920D01*
X23564394Y-38027259D01*
X23462661Y-38000000D01*
X23357339Y-38000000D01*
X23255606Y-38027259D01*
X23164394Y-38079920D01*
X23160000Y-38084314D01*
X23160000Y-36900000D01*
X22762155Y-36900000D01*
X22702627Y-36906401D01*
X22702619Y-36906403D01*
X22617333Y-36938213D01*
X22547641Y-36943197D01*
X22486318Y-36909712D01*
X22452834Y-36848388D01*
X22450000Y-36822031D01*
X22450000Y-28399994D01*
X51594556Y-28399994D01*
X51594556Y-28400005D01*
X51614310Y-28714004D01*
X51614311Y-28714011D01*
X51673270Y-29023083D01*
X51770497Y-29322316D01*
X51770499Y-29322321D01*
X51904461Y-29607003D01*
X51904464Y-29607009D01*
X52073051Y-29872661D01*
X52073054Y-29872665D01*
X52273606Y-30115090D01*
X52273608Y-30115092D01*
X52502968Y-30330476D01*
X52502978Y-30330484D01*
X52757504Y-30515408D01*
X52757509Y-30515410D01*
X52757516Y-30515416D01*
X53033234Y-30666994D01*
X53033239Y-30666996D01*
X53033241Y-30666997D01*
X53033242Y-30666998D01*
X53325771Y-30782818D01*
X53325774Y-30782819D01*
X53630523Y-30861065D01*
X53630527Y-30861066D01*
X53696010Y-30869338D01*
X53942670Y-30900499D01*
X53942679Y-30900499D01*
X53942682Y-30900500D01*
X53942684Y-30900500D01*
X54257316Y-30900500D01*
X54257318Y-30900500D01*
X54257321Y-30900499D01*
X54257329Y-30900499D01*
X54443593Y-30876968D01*
X54569473Y-30861066D01*
X54874225Y-30782819D01*
X54874228Y-30782818D01*
X55166757Y-30666998D01*
X55166758Y-30666997D01*
X55166756Y-30666997D01*
X55166766Y-30666994D01*
X55442484Y-30515416D01*
X55697030Y-30330478D01*
X55926390Y-30115094D01*
X56126947Y-29872663D01*
X56295537Y-29607007D01*
X56429503Y-29322315D01*
X56526731Y-29023079D01*
X56585688Y-28714015D01*
X56605444Y-28400000D01*
X56589916Y-28153190D01*
X56585689Y-28085995D01*
X56585688Y-28085988D01*
X56585688Y-28085985D01*
X56526731Y-27776921D01*
X56429503Y-27477685D01*
X56295537Y-27192993D01*
X56126947Y-26927337D01*
X56108983Y-26905622D01*
X55926393Y-26684909D01*
X55926391Y-26684907D01*
X55697031Y-26469523D01*
X55697021Y-26469515D01*
X55442495Y-26284591D01*
X55442488Y-26284586D01*
X55442484Y-26284584D01*
X55166766Y-26133006D01*
X55166763Y-26133004D01*
X55166758Y-26133002D01*
X55166757Y-26133001D01*
X54874228Y-26017181D01*
X54874225Y-26017180D01*
X54569476Y-25938934D01*
X54569463Y-25938932D01*
X54257329Y-25899500D01*
X54257318Y-25899500D01*
X53942682Y-25899500D01*
X53942670Y-25899500D01*
X53630536Y-25938932D01*
X53630523Y-25938934D01*
X53325774Y-26017180D01*
X53325771Y-26017181D01*
X53033242Y-26133001D01*
X53033241Y-26133002D01*
X52757516Y-26284584D01*
X52757504Y-26284591D01*
X52502978Y-26469515D01*
X52502968Y-26469523D01*
X52273608Y-26684907D01*
X52273606Y-26684909D01*
X52073054Y-26927334D01*
X52073051Y-26927338D01*
X51904464Y-27192990D01*
X51904461Y-27192996D01*
X51770499Y-27477678D01*
X51770497Y-27477683D01*
X51673270Y-27776916D01*
X51614311Y-28085988D01*
X51614310Y-28085995D01*
X51594556Y-28399994D01*
X22450000Y-28399994D01*
X22450000Y-16834997D01*
X22469685Y-16767958D01*
X22522489Y-16722203D01*
X22591647Y-16712259D01*
X22655203Y-16741284D01*
X22661681Y-16747316D01*
X22693397Y-16779032D01*
X22833475Y-16880804D01*
X22987744Y-16959408D01*
X23152415Y-17012914D01*
X23152414Y-17012914D01*
X23159999Y-17014115D01*
X23160000Y-17014114D01*
X23160000Y-15855686D01*
X23164394Y-15860080D01*
X23255606Y-15912741D01*
X23357339Y-15940000D01*
X23462661Y-15940000D01*
X23564394Y-15912741D01*
X23655606Y-15860080D01*
X23660000Y-15855686D01*
X23660000Y-17014115D01*
X23667584Y-17012914D01*
X23832255Y-16959408D01*
X23986524Y-16880804D01*
X24126602Y-16779032D01*
X24249032Y-16656602D01*
X24350804Y-16516524D01*
X24429408Y-16362257D01*
X24482914Y-16197584D01*
X24510000Y-16026571D01*
X24510000Y-15790000D01*
X23725686Y-15790000D01*
X23730080Y-15785606D01*
X23782741Y-15694394D01*
X23810000Y-15592661D01*
X23810000Y-15487339D01*
X23782741Y-15385606D01*
X23730080Y-15294394D01*
X23725686Y-15290000D01*
X24510000Y-15290000D01*
X24510000Y-15053428D01*
X24482914Y-14882415D01*
X24429408Y-14717742D01*
X24350804Y-14563475D01*
X24249032Y-14423397D01*
X24126602Y-14300967D01*
X23986524Y-14199195D01*
X23860505Y-14134985D01*
X23809709Y-14087010D01*
X23792914Y-14019189D01*
X23815452Y-13953054D01*
X23870167Y-13909603D01*
X23916800Y-13900500D01*
X25442099Y-13900500D01*
X25509138Y-13920185D01*
G37*
%TD.AperFunction*%
%TD*%
%TA.AperFunction,Conductor*%
%TO.N,GNDD*%
G36*
X52763328Y-58619685D02*
G01*
X52782229Y-58641498D01*
X52783640Y-58640088D01*
X53461405Y-59317852D01*
X53376302Y-59340656D01*
X53273686Y-59399901D01*
X53189901Y-59483686D01*
X53130656Y-59586302D01*
X53107852Y-59671405D01*
X52470974Y-59034526D01*
X52470973Y-59034526D01*
X52419868Y-59107512D01*
X52419866Y-59107516D01*
X52323734Y-59313673D01*
X52323730Y-59313682D01*
X52264860Y-59533389D01*
X52264858Y-59533400D01*
X52245034Y-59759997D01*
X52245034Y-59760002D01*
X52264858Y-59986599D01*
X52264860Y-59986610D01*
X52323730Y-60206317D01*
X52323735Y-60206331D01*
X52419863Y-60412478D01*
X52470974Y-60485472D01*
X53107852Y-59848593D01*
X53130656Y-59933698D01*
X53189901Y-60036314D01*
X53273686Y-60120099D01*
X53376302Y-60179344D01*
X53461405Y-60202147D01*
X52824526Y-60839025D01*
X52826772Y-60864694D01*
X52813005Y-60933194D01*
X52764389Y-60983376D01*
X52705415Y-60998934D01*
X52705423Y-60999099D01*
X52705429Y-60999146D01*
X52705426Y-60999146D01*
X52705436Y-60999324D01*
X52703558Y-60999424D01*
X52703272Y-60999500D01*
X52702143Y-60999500D01*
X52702123Y-60999501D01*
X52642516Y-61005908D01*
X52507671Y-61056202D01*
X52507664Y-61056206D01*
X52392455Y-61142452D01*
X52392452Y-61142455D01*
X52306206Y-61257664D01*
X52306202Y-61257671D01*
X52255908Y-61392517D01*
X52249501Y-61452116D01*
X52249500Y-61452135D01*
X52249500Y-63147870D01*
X52249501Y-63147876D01*
X52255908Y-63207483D01*
X52306202Y-63342328D01*
X52306206Y-63342335D01*
X52392452Y-63457544D01*
X52392455Y-63457547D01*
X52507664Y-63543793D01*
X52507671Y-63543797D01*
X52642517Y-63594091D01*
X52642516Y-63594091D01*
X52649444Y-63594835D01*
X52702127Y-63600500D01*
X54397872Y-63600499D01*
X54457483Y-63594091D01*
X54592331Y-63543796D01*
X54707546Y-63457546D01*
X54793796Y-63342331D01*
X54844091Y-63207483D01*
X54849062Y-63161242D01*
X54875799Y-63096694D01*
X54933191Y-63056846D01*
X54972351Y-63050500D01*
X54987770Y-63050500D01*
X55054809Y-63070185D01*
X55075451Y-63086819D01*
X55171586Y-63182954D01*
X55193712Y-63197737D01*
X55245270Y-63232186D01*
X55294505Y-63265084D01*
X55294506Y-63265084D01*
X55294507Y-63265085D01*
X55294509Y-63265086D01*
X55431082Y-63321656D01*
X55431087Y-63321658D01*
X55431091Y-63321658D01*
X55431092Y-63321659D01*
X55576079Y-63350500D01*
X55576082Y-63350500D01*
X55576083Y-63350500D01*
X55723917Y-63350500D01*
X60362299Y-63350500D01*
X60429338Y-63370185D01*
X60463873Y-63403376D01*
X60501802Y-63457544D01*
X60511505Y-63471401D01*
X60678599Y-63638495D01*
X60767026Y-63700412D01*
X60872165Y-63774032D01*
X60872167Y-63774033D01*
X60872170Y-63774035D01*
X61086337Y-63873903D01*
X61086343Y-63873904D01*
X61086344Y-63873905D01*
X61106307Y-63879254D01*
X61314592Y-63935063D01*
X61502918Y-63951539D01*
X61549999Y-63955659D01*
X61550000Y-63955659D01*
X61550001Y-63955659D01*
X61589234Y-63952226D01*
X61785408Y-63935063D01*
X62013663Y-63873903D01*
X62227830Y-63774035D01*
X62421401Y-63638495D01*
X62438319Y-63621577D01*
X62499642Y-63588092D01*
X62569334Y-63593076D01*
X62625267Y-63634948D01*
X62649684Y-63700412D01*
X62650000Y-63709258D01*
X62650000Y-78608459D01*
X62634832Y-78667886D01*
X62615709Y-78702907D01*
X62606144Y-78717791D01*
X62488558Y-78874867D01*
X62476972Y-78888237D01*
X62338237Y-79026972D01*
X62324867Y-79038558D01*
X62167789Y-79156146D01*
X62152904Y-79165711D01*
X61980701Y-79259740D01*
X61964609Y-79267090D01*
X61780763Y-79335662D01*
X61763787Y-79340646D01*
X61572068Y-79382351D01*
X61554557Y-79384869D01*
X61373779Y-79397799D01*
X61354417Y-79399184D01*
X61345572Y-79399500D01*
X19299110Y-79399500D01*
X19232071Y-79379815D01*
X19186316Y-79327011D01*
X19176372Y-79257853D01*
X19205397Y-79194297D01*
X19227987Y-79173925D01*
X19332397Y-79100816D01*
X19421401Y-79038495D01*
X19588495Y-78871401D01*
X19724035Y-78677830D01*
X19823903Y-78463663D01*
X19885063Y-78235408D01*
X19905659Y-78000000D01*
X19904916Y-77991513D01*
X19896554Y-77895930D01*
X19885063Y-77764592D01*
X19823903Y-77536337D01*
X19724035Y-77322171D01*
X19705481Y-77295672D01*
X19588494Y-77128597D01*
X19559897Y-77100000D01*
X31644645Y-77100000D01*
X31646690Y-77128599D01*
X31649184Y-77163460D01*
X31649500Y-77172307D01*
X31649500Y-77224568D01*
X31657893Y-77288327D01*
X31658638Y-77295662D01*
X31664039Y-77371162D01*
X31664039Y-77371165D01*
X31674998Y-77421539D01*
X31676771Y-77431711D01*
X31682018Y-77471565D01*
X31682020Y-77471575D01*
X31701783Y-77545332D01*
X31703174Y-77551067D01*
X31721824Y-77636799D01*
X31721825Y-77636802D01*
X31735625Y-77673802D01*
X31739217Y-77685037D01*
X31746498Y-77712207D01*
X31780326Y-77793876D01*
X31781946Y-77797994D01*
X31816822Y-77891500D01*
X31816831Y-77891520D01*
X31829969Y-77915580D01*
X31835691Y-77927538D01*
X31841836Y-77942373D01*
X31841837Y-77942374D01*
X31841840Y-77942382D01*
X31892067Y-78029379D01*
X31893511Y-78031950D01*
X31947109Y-78130107D01*
X31947110Y-78130108D01*
X31947113Y-78130113D01*
X31956302Y-78142388D01*
X31964415Y-78154689D01*
X31966394Y-78158116D01*
X31966397Y-78158121D01*
X31966399Y-78158123D01*
X31966401Y-78158127D01*
X32034909Y-78247408D01*
X32035755Y-78248524D01*
X32110029Y-78347742D01*
X32110033Y-78347746D01*
X32110038Y-78347752D01*
X32115619Y-78353333D01*
X32115635Y-78353350D01*
X32297323Y-78535038D01*
X32297347Y-78535061D01*
X32302247Y-78539961D01*
X32302265Y-78539977D01*
X32401360Y-78614158D01*
X32402536Y-78615049D01*
X32471395Y-78667886D01*
X32491873Y-78683599D01*
X32495301Y-78685578D01*
X32507610Y-78693697D01*
X32515963Y-78699950D01*
X32519887Y-78702887D01*
X32618116Y-78756524D01*
X32620607Y-78757923D01*
X32707627Y-78808164D01*
X32722446Y-78814302D01*
X32734422Y-78820032D01*
X32758476Y-78833167D01*
X32758484Y-78833171D01*
X32772109Y-78838252D01*
X32852026Y-78868060D01*
X32856104Y-78869665D01*
X32937793Y-78903502D01*
X32964969Y-78910783D01*
X32976178Y-78914366D01*
X33013199Y-78928175D01*
X33036175Y-78933173D01*
X33098920Y-78946822D01*
X33104660Y-78948213D01*
X33178435Y-78967982D01*
X33218295Y-78973228D01*
X33228441Y-78974996D01*
X33278840Y-78985961D01*
X33354350Y-78991361D01*
X33361641Y-78992101D01*
X33425435Y-79000500D01*
X33477691Y-79000500D01*
X33486537Y-79000816D01*
X33549999Y-79005355D01*
X33550000Y-79005355D01*
X33550001Y-79005355D01*
X33613463Y-79000816D01*
X33622309Y-79000500D01*
X33674564Y-79000500D01*
X33674565Y-79000500D01*
X33738354Y-78992101D01*
X33745651Y-78991361D01*
X33821160Y-78985961D01*
X33871551Y-78974998D01*
X33881701Y-78973229D01*
X33921565Y-78967982D01*
X33995358Y-78948208D01*
X34001031Y-78946832D01*
X34086801Y-78928175D01*
X34123827Y-78914364D01*
X34135027Y-78910784D01*
X34162207Y-78903502D01*
X34243929Y-78869650D01*
X34247997Y-78868050D01*
X34341513Y-78833172D01*
X34365582Y-78820028D01*
X34377549Y-78814303D01*
X34384488Y-78811429D01*
X34392364Y-78808168D01*
X34392367Y-78808166D01*
X34392373Y-78808164D01*
X34479391Y-78757923D01*
X34481890Y-78756519D01*
X34552822Y-78717789D01*
X34580108Y-78702890D01*
X34580109Y-78702889D01*
X34580113Y-78702887D01*
X34592389Y-78693697D01*
X34604691Y-78685582D01*
X34608127Y-78683599D01*
X34697544Y-78614985D01*
X34698491Y-78614268D01*
X34797742Y-78539971D01*
X34800391Y-78537321D01*
X34800404Y-78537310D01*
X34987310Y-78350404D01*
X34987321Y-78350391D01*
X34989971Y-78347742D01*
X35064268Y-78248491D01*
X35064985Y-78247544D01*
X35133599Y-78158127D01*
X35135584Y-78154689D01*
X35143703Y-78142380D01*
X35152887Y-78130113D01*
X35152891Y-78130107D01*
X35170965Y-78097004D01*
X35206519Y-78031890D01*
X35207931Y-78029379D01*
X35258164Y-77942373D01*
X35264303Y-77927549D01*
X35270030Y-77915580D01*
X35283172Y-77891513D01*
X35318052Y-77797994D01*
X35319650Y-77793929D01*
X35353502Y-77712207D01*
X35360784Y-77685027D01*
X35364364Y-77673827D01*
X35378175Y-77636801D01*
X35396832Y-77551031D01*
X35398213Y-77545340D01*
X35417982Y-77471565D01*
X35423229Y-77431701D01*
X35424998Y-77421551D01*
X35435961Y-77371160D01*
X35441361Y-77295651D01*
X35442101Y-77288354D01*
X35450500Y-77224565D01*
X35450500Y-77199998D01*
X50444645Y-77199998D01*
X50444645Y-77200000D01*
X50449184Y-77263460D01*
X50449500Y-77272307D01*
X50449500Y-77324568D01*
X50457893Y-77388327D01*
X50458638Y-77395662D01*
X50464039Y-77471162D01*
X50464039Y-77471165D01*
X50474998Y-77521539D01*
X50476771Y-77531711D01*
X50482018Y-77571565D01*
X50482020Y-77571575D01*
X50501783Y-77645332D01*
X50503174Y-77651067D01*
X50521824Y-77736799D01*
X50521825Y-77736802D01*
X50535625Y-77773802D01*
X50539217Y-77785037D01*
X50546498Y-77812207D01*
X50580326Y-77893876D01*
X50581946Y-77897994D01*
X50616822Y-77991500D01*
X50616831Y-77991520D01*
X50629969Y-78015580D01*
X50635691Y-78027538D01*
X50641836Y-78042373D01*
X50641837Y-78042374D01*
X50641840Y-78042382D01*
X50692067Y-78129379D01*
X50693511Y-78131950D01*
X50747109Y-78230107D01*
X50747110Y-78230108D01*
X50747113Y-78230113D01*
X50756302Y-78242388D01*
X50764415Y-78254689D01*
X50766394Y-78258116D01*
X50766397Y-78258121D01*
X50766399Y-78258123D01*
X50766401Y-78258127D01*
X50834909Y-78347408D01*
X50835755Y-78348524D01*
X50910029Y-78447742D01*
X50910033Y-78447746D01*
X50910038Y-78447752D01*
X50915619Y-78453333D01*
X50915635Y-78453350D01*
X51097323Y-78635038D01*
X51097347Y-78635061D01*
X51102247Y-78639961D01*
X51102265Y-78639977D01*
X51201360Y-78714158D01*
X51202536Y-78715049D01*
X51258432Y-78757939D01*
X51291873Y-78783599D01*
X51295301Y-78785578D01*
X51307610Y-78793697D01*
X51315963Y-78799950D01*
X51319887Y-78802887D01*
X51418116Y-78856524D01*
X51420607Y-78857923D01*
X51507627Y-78908164D01*
X51522446Y-78914302D01*
X51534422Y-78920032D01*
X51558476Y-78933167D01*
X51558484Y-78933171D01*
X51572109Y-78938252D01*
X51652026Y-78968060D01*
X51656104Y-78969665D01*
X51737793Y-79003502D01*
X51764969Y-79010783D01*
X51776178Y-79014366D01*
X51813199Y-79028175D01*
X51813204Y-79028176D01*
X51898920Y-79046822D01*
X51904660Y-79048213D01*
X51978435Y-79067982D01*
X52018295Y-79073228D01*
X52028441Y-79074996D01*
X52078840Y-79085961D01*
X52154350Y-79091361D01*
X52161641Y-79092101D01*
X52225435Y-79100500D01*
X52277691Y-79100500D01*
X52286537Y-79100816D01*
X52349999Y-79105355D01*
X52350000Y-79105355D01*
X52350001Y-79105355D01*
X52413463Y-79100816D01*
X52422309Y-79100500D01*
X52474564Y-79100500D01*
X52474565Y-79100500D01*
X52538354Y-79092101D01*
X52545651Y-79091361D01*
X52621160Y-79085961D01*
X52671551Y-79074998D01*
X52681701Y-79073229D01*
X52721565Y-79067982D01*
X52795358Y-79048208D01*
X52801031Y-79046832D01*
X52886801Y-79028175D01*
X52923827Y-79014364D01*
X52935027Y-79010784D01*
X52962207Y-79003502D01*
X53043929Y-78969650D01*
X53047997Y-78968050D01*
X53141513Y-78933172D01*
X53165582Y-78920028D01*
X53177549Y-78914303D01*
X53186067Y-78910776D01*
X53192364Y-78908168D01*
X53192367Y-78908166D01*
X53192373Y-78908164D01*
X53279391Y-78857923D01*
X53281890Y-78856519D01*
X53359210Y-78814301D01*
X53380108Y-78802890D01*
X53380109Y-78802889D01*
X53380113Y-78802887D01*
X53392389Y-78793697D01*
X53404691Y-78785582D01*
X53408127Y-78783599D01*
X53497544Y-78714985D01*
X53498491Y-78714268D01*
X53597742Y-78639971D01*
X53600391Y-78637321D01*
X53600404Y-78637310D01*
X53787310Y-78450404D01*
X53787321Y-78450391D01*
X53789971Y-78447742D01*
X53864268Y-78348491D01*
X53864985Y-78347544D01*
X53933599Y-78258127D01*
X53935584Y-78254689D01*
X53943703Y-78242380D01*
X53948919Y-78235413D01*
X53952887Y-78230113D01*
X53952891Y-78230107D01*
X53970965Y-78197004D01*
X54006519Y-78131890D01*
X54007931Y-78129379D01*
X54058164Y-78042373D01*
X54064303Y-78027549D01*
X54070030Y-78015580D01*
X54083172Y-77991513D01*
X54118052Y-77897994D01*
X54119650Y-77893929D01*
X54153502Y-77812207D01*
X54160784Y-77785027D01*
X54164364Y-77773827D01*
X54178175Y-77736801D01*
X54196832Y-77651031D01*
X54198213Y-77645340D01*
X54217982Y-77571565D01*
X54223229Y-77531701D01*
X54224998Y-77521551D01*
X54235961Y-77471160D01*
X54241361Y-77395651D01*
X54242101Y-77388354D01*
X54250500Y-77324565D01*
X54250500Y-77272307D01*
X54250816Y-77263460D01*
X54255355Y-77200000D01*
X54255355Y-77199998D01*
X54250816Y-77136537D01*
X54250500Y-77127691D01*
X54250500Y-77075441D01*
X54250499Y-77075429D01*
X54242101Y-77011641D01*
X54241360Y-77004336D01*
X54235961Y-76928840D01*
X54224996Y-76878441D01*
X54223228Y-76868295D01*
X54217982Y-76828435D01*
X54198213Y-76754657D01*
X54196822Y-76748920D01*
X54178176Y-76663204D01*
X54178175Y-76663199D01*
X54164366Y-76626178D01*
X54160780Y-76614958D01*
X54153502Y-76587793D01*
X54119666Y-76506107D01*
X54118060Y-76502026D01*
X54083172Y-76408487D01*
X54083171Y-76408484D01*
X54083167Y-76408476D01*
X54070032Y-76384422D01*
X54064301Y-76372444D01*
X54058166Y-76357633D01*
X54058164Y-76357627D01*
X54007923Y-76270607D01*
X54006524Y-76268116D01*
X53952887Y-76169887D01*
X53952886Y-76169885D01*
X53943697Y-76157610D01*
X53935578Y-76145301D01*
X53933598Y-76141872D01*
X53933596Y-76141869D01*
X53865049Y-76052536D01*
X53864158Y-76051360D01*
X53789977Y-75952265D01*
X53789961Y-75952247D01*
X53785061Y-75947347D01*
X53785050Y-75947335D01*
X53603366Y-75765651D01*
X53603333Y-75765619D01*
X53597752Y-75760038D01*
X53597744Y-75760031D01*
X53597742Y-75760029D01*
X53498524Y-75685755D01*
X53497491Y-75684972D01*
X53408127Y-75616401D01*
X53408122Y-75616398D01*
X53408121Y-75616397D01*
X53408116Y-75616394D01*
X53404689Y-75614415D01*
X53392387Y-75606301D01*
X53380113Y-75597113D01*
X53380108Y-75597110D01*
X53380107Y-75597109D01*
X53281950Y-75543511D01*
X53279379Y-75542067D01*
X53192382Y-75491840D01*
X53192376Y-75491837D01*
X53192373Y-75491836D01*
X53177538Y-75485691D01*
X53165580Y-75479969D01*
X53141520Y-75466831D01*
X53141500Y-75466822D01*
X53047994Y-75431946D01*
X53043876Y-75430326D01*
X52962207Y-75396498D01*
X52935037Y-75389217D01*
X52923802Y-75385625D01*
X52886802Y-75371825D01*
X52886799Y-75371824D01*
X52801067Y-75353174D01*
X52795332Y-75351783D01*
X52721575Y-75332020D01*
X52721565Y-75332018D01*
X52681711Y-75326771D01*
X52671539Y-75324998D01*
X52621163Y-75314039D01*
X52545662Y-75308638D01*
X52538327Y-75307893D01*
X52474568Y-75299500D01*
X52474565Y-75299500D01*
X52422309Y-75299500D01*
X52413463Y-75299184D01*
X52350001Y-75294645D01*
X52349999Y-75294645D01*
X52286537Y-75299184D01*
X52277691Y-75299500D01*
X52225432Y-75299500D01*
X52161671Y-75307893D01*
X52154336Y-75308638D01*
X52078842Y-75314038D01*
X52078825Y-75314041D01*
X52028457Y-75324998D01*
X52018287Y-75326771D01*
X51978435Y-75332018D01*
X51978420Y-75332021D01*
X51904669Y-75351782D01*
X51898936Y-75353173D01*
X51813202Y-75371823D01*
X51813200Y-75371824D01*
X51776192Y-75385627D01*
X51764958Y-75389218D01*
X51737798Y-75396496D01*
X51737781Y-75396502D01*
X51656107Y-75430332D01*
X51651990Y-75431952D01*
X51558494Y-75466824D01*
X51558475Y-75466833D01*
X51534411Y-75479972D01*
X51522455Y-75485693D01*
X51507621Y-75491838D01*
X51420637Y-75542058D01*
X51418066Y-75543501D01*
X51319891Y-75597110D01*
X51319885Y-75597114D01*
X51307612Y-75606301D01*
X51295320Y-75614410D01*
X51291877Y-75616398D01*
X51291873Y-75616401D01*
X51202615Y-75684889D01*
X51201442Y-75685778D01*
X51102254Y-75760031D01*
X51094236Y-75768048D01*
X51094224Y-75768062D01*
X50918062Y-75944224D01*
X50918048Y-75944236D01*
X50910031Y-75952254D01*
X50835778Y-76051442D01*
X50834889Y-76052615D01*
X50766401Y-76141873D01*
X50766398Y-76141877D01*
X50764410Y-76145320D01*
X50756301Y-76157612D01*
X50747114Y-76169885D01*
X50747110Y-76169891D01*
X50693501Y-76268066D01*
X50692058Y-76270637D01*
X50641838Y-76357621D01*
X50635693Y-76372455D01*
X50629972Y-76384411D01*
X50616833Y-76408475D01*
X50616824Y-76408494D01*
X50581952Y-76501990D01*
X50580332Y-76506107D01*
X50546502Y-76587781D01*
X50546496Y-76587798D01*
X50539218Y-76614958D01*
X50535627Y-76626192D01*
X50521824Y-76663200D01*
X50521823Y-76663202D01*
X50503173Y-76748936D01*
X50501782Y-76754669D01*
X50482021Y-76828420D01*
X50482018Y-76828435D01*
X50476771Y-76868287D01*
X50474998Y-76878457D01*
X50464041Y-76928825D01*
X50464038Y-76928842D01*
X50458638Y-77004336D01*
X50457893Y-77011671D01*
X50449500Y-77075431D01*
X50449500Y-77127691D01*
X50449184Y-77136537D01*
X50444645Y-77199998D01*
X35450500Y-77199998D01*
X35450500Y-77172307D01*
X35450816Y-77163460D01*
X35453310Y-77128599D01*
X35455355Y-77100000D01*
X35453598Y-77075441D01*
X35450816Y-77036537D01*
X35450500Y-77027691D01*
X35450500Y-76975441D01*
X35450499Y-76975429D01*
X35448665Y-76961501D01*
X35442101Y-76911641D01*
X35441360Y-76904336D01*
X35435961Y-76828840D01*
X35424996Y-76778441D01*
X35423228Y-76768295D01*
X35417982Y-76728435D01*
X35398213Y-76654657D01*
X35396822Y-76648920D01*
X35378176Y-76563204D01*
X35378175Y-76563199D01*
X35364366Y-76526178D01*
X35360780Y-76514958D01*
X35353502Y-76487793D01*
X35319666Y-76406107D01*
X35318060Y-76402026D01*
X35283172Y-76308487D01*
X35283171Y-76308484D01*
X35283167Y-76308476D01*
X35270032Y-76284422D01*
X35264301Y-76272444D01*
X35262488Y-76268066D01*
X35258164Y-76257627D01*
X35207923Y-76170607D01*
X35206524Y-76168116D01*
X35152887Y-76069887D01*
X35143698Y-76057612D01*
X35143697Y-76057610D01*
X35135578Y-76045301D01*
X35133598Y-76041872D01*
X35133596Y-76041869D01*
X35065049Y-75952536D01*
X35064158Y-75951360D01*
X34989977Y-75852265D01*
X34989961Y-75852247D01*
X34985061Y-75847347D01*
X34985050Y-75847335D01*
X34803366Y-75665651D01*
X34803333Y-75665619D01*
X34797752Y-75660038D01*
X34797744Y-75660031D01*
X34797742Y-75660029D01*
X34698524Y-75585755D01*
X34697491Y-75584972D01*
X34608127Y-75516401D01*
X34608122Y-75516398D01*
X34608121Y-75516397D01*
X34608116Y-75516394D01*
X34604689Y-75514415D01*
X34592387Y-75506301D01*
X34580113Y-75497113D01*
X34580108Y-75497110D01*
X34580107Y-75497109D01*
X34481950Y-75443511D01*
X34479379Y-75442067D01*
X34392382Y-75391840D01*
X34392376Y-75391837D01*
X34392373Y-75391836D01*
X34377538Y-75385691D01*
X34365580Y-75379969D01*
X34341520Y-75366831D01*
X34341500Y-75366822D01*
X34247994Y-75331946D01*
X34243876Y-75330326D01*
X34162207Y-75296498D01*
X34135037Y-75289217D01*
X34123802Y-75285625D01*
X34086802Y-75271825D01*
X34086799Y-75271824D01*
X34001067Y-75253174D01*
X33995332Y-75251783D01*
X33921575Y-75232020D01*
X33921565Y-75232018D01*
X33881711Y-75226771D01*
X33871539Y-75224998D01*
X33821163Y-75214039D01*
X33745662Y-75208638D01*
X33738327Y-75207893D01*
X33674568Y-75199500D01*
X33674565Y-75199500D01*
X33622309Y-75199500D01*
X33613463Y-75199184D01*
X33550001Y-75194645D01*
X33549999Y-75194645D01*
X33486537Y-75199184D01*
X33477691Y-75199500D01*
X33425432Y-75199500D01*
X33361671Y-75207893D01*
X33354336Y-75208638D01*
X33278842Y-75214038D01*
X33278825Y-75214041D01*
X33228457Y-75224998D01*
X33218287Y-75226771D01*
X33178435Y-75232018D01*
X33178420Y-75232021D01*
X33104669Y-75251782D01*
X33098936Y-75253173D01*
X33013202Y-75271823D01*
X33013200Y-75271824D01*
X32976192Y-75285627D01*
X32964958Y-75289218D01*
X32937798Y-75296496D01*
X32937781Y-75296502D01*
X32856107Y-75330332D01*
X32851990Y-75331952D01*
X32758494Y-75366824D01*
X32758475Y-75366833D01*
X32734411Y-75379972D01*
X32722455Y-75385693D01*
X32707621Y-75391838D01*
X32620637Y-75442058D01*
X32618066Y-75443501D01*
X32519891Y-75497110D01*
X32519885Y-75497114D01*
X32507612Y-75506301D01*
X32495320Y-75514410D01*
X32491877Y-75516398D01*
X32491873Y-75516401D01*
X32402615Y-75584889D01*
X32401442Y-75585778D01*
X32302254Y-75660031D01*
X32294236Y-75668048D01*
X32294224Y-75668062D01*
X32118062Y-75844224D01*
X32118048Y-75844236D01*
X32110031Y-75852254D01*
X32035778Y-75951442D01*
X32034889Y-75952615D01*
X31966401Y-76041873D01*
X31966398Y-76041877D01*
X31964410Y-76045320D01*
X31956301Y-76057612D01*
X31947114Y-76069885D01*
X31947110Y-76069891D01*
X31893501Y-76168066D01*
X31892058Y-76170637D01*
X31841838Y-76257621D01*
X31835693Y-76272455D01*
X31829972Y-76284411D01*
X31816833Y-76308475D01*
X31816824Y-76308494D01*
X31781952Y-76401990D01*
X31780332Y-76406107D01*
X31746502Y-76487781D01*
X31746496Y-76487798D01*
X31739218Y-76514958D01*
X31735627Y-76526192D01*
X31721824Y-76563200D01*
X31721823Y-76563202D01*
X31703173Y-76648936D01*
X31701782Y-76654669D01*
X31682021Y-76728420D01*
X31682018Y-76728435D01*
X31676771Y-76768287D01*
X31674998Y-76778457D01*
X31664041Y-76828825D01*
X31664038Y-76828842D01*
X31658638Y-76904336D01*
X31657893Y-76911671D01*
X31649500Y-76975431D01*
X31649500Y-77027691D01*
X31649184Y-77036537D01*
X31646402Y-77075441D01*
X31644645Y-77100000D01*
X19559897Y-77100000D01*
X19421402Y-76961506D01*
X19421396Y-76961501D01*
X19235842Y-76831575D01*
X19192217Y-76776998D01*
X19185023Y-76707500D01*
X19216546Y-76645145D01*
X19235842Y-76628425D01*
X19293887Y-76587781D01*
X19421401Y-76498495D01*
X19588495Y-76331401D01*
X19724035Y-76137830D01*
X19823903Y-75923663D01*
X19885063Y-75695408D01*
X19905659Y-75460000D01*
X19904215Y-75443501D01*
X19901539Y-75412918D01*
X19885063Y-75224592D01*
X19823903Y-74996337D01*
X19724035Y-74782171D01*
X19588495Y-74588599D01*
X19588494Y-74588597D01*
X19421402Y-74421506D01*
X19421401Y-74421505D01*
X19235405Y-74291269D01*
X19191781Y-74236692D01*
X19184588Y-74167193D01*
X19216110Y-74104839D01*
X19235405Y-74088119D01*
X19421082Y-73958105D01*
X19588105Y-73791082D01*
X19723600Y-73597578D01*
X19823429Y-73383492D01*
X19823432Y-73383486D01*
X19880636Y-73170000D01*
X18983012Y-73170000D01*
X19015925Y-73112993D01*
X19050000Y-72985826D01*
X19050000Y-72854174D01*
X19015925Y-72727007D01*
X18983012Y-72670000D01*
X19880636Y-72670000D01*
X19880635Y-72669999D01*
X19823432Y-72456513D01*
X19823429Y-72456507D01*
X19723600Y-72242422D01*
X19723599Y-72242420D01*
X19588113Y-72048926D01*
X19588108Y-72048920D01*
X19466053Y-71926865D01*
X19432568Y-71865542D01*
X19437552Y-71795850D01*
X19479424Y-71739917D01*
X19510400Y-71723002D01*
X19599847Y-71689641D01*
X19642326Y-71673798D01*
X19642326Y-71673797D01*
X19642331Y-71673796D01*
X19757546Y-71587546D01*
X19843796Y-71472331D01*
X19894091Y-71337483D01*
X19900500Y-71277873D01*
X19900500Y-71254500D01*
X19920185Y-71187461D01*
X19972989Y-71141706D01*
X20024500Y-71130500D01*
X27125501Y-71130500D01*
X27192540Y-71150185D01*
X27238295Y-71202989D01*
X27249501Y-71254500D01*
X27249501Y-71447876D01*
X27255908Y-71507483D01*
X27306202Y-71642328D01*
X27306206Y-71642335D01*
X27392452Y-71757544D01*
X27392455Y-71757547D01*
X27507664Y-71843793D01*
X27507671Y-71843797D01*
X27642516Y-71894091D01*
X27688757Y-71899063D01*
X27753307Y-71925801D01*
X27793155Y-71983194D01*
X27799500Y-72022351D01*
X27799500Y-72473918D01*
X27799500Y-72473920D01*
X27799499Y-72473920D01*
X27828340Y-72618907D01*
X27828343Y-72618917D01*
X27884912Y-72755488D01*
X27884916Y-72755495D01*
X27902014Y-72781084D01*
X27902015Y-72781087D01*
X27967046Y-72878414D01*
X27967052Y-72878421D01*
X28567049Y-73478416D01*
X28671583Y-73582950D01*
X28671585Y-73582952D01*
X28794498Y-73665080D01*
X28794511Y-73665087D01*
X28931082Y-73721656D01*
X28931087Y-73721658D01*
X28931091Y-73721658D01*
X28931092Y-73721659D01*
X29076079Y-73750500D01*
X29076082Y-73750500D01*
X45423920Y-73750500D01*
X45521462Y-73731096D01*
X45568913Y-73721658D01*
X45705495Y-73665084D01*
X45754729Y-73632186D01*
X45828416Y-73582952D01*
X47374548Y-72036817D01*
X47435871Y-72003333D01*
X47462229Y-72000499D01*
X48197871Y-72000499D01*
X48197872Y-72000499D01*
X48257483Y-71994091D01*
X48392331Y-71943796D01*
X48507546Y-71857546D01*
X48593796Y-71742331D01*
X48644091Y-71607483D01*
X48644092Y-71607472D01*
X48645365Y-71602088D01*
X48679933Y-71541369D01*
X48741841Y-71508978D01*
X48811433Y-71515199D01*
X48853725Y-71542912D01*
X49010858Y-71700045D01*
X49010861Y-71700047D01*
X49197266Y-71830568D01*
X49403504Y-71926739D01*
X49623308Y-71985635D01*
X49785230Y-71999801D01*
X49849998Y-72005468D01*
X49850000Y-72005468D01*
X49850002Y-72005468D01*
X49906807Y-72000498D01*
X50076692Y-71985635D01*
X50296496Y-71926739D01*
X50502734Y-71830568D01*
X50689139Y-71700047D01*
X50850047Y-71539139D01*
X50980568Y-71352734D01*
X50987618Y-71337614D01*
X51033789Y-71285176D01*
X51100982Y-71266023D01*
X51167864Y-71286238D01*
X51212381Y-71337614D01*
X51219313Y-71352478D01*
X51219432Y-71352733D01*
X51219432Y-71352734D01*
X51349954Y-71539141D01*
X51510858Y-71700045D01*
X51510861Y-71700047D01*
X51697266Y-71830568D01*
X51903504Y-71926739D01*
X52123308Y-71985635D01*
X52285230Y-71999801D01*
X52349998Y-72005468D01*
X52350000Y-72005468D01*
X52350002Y-72005468D01*
X52406807Y-72000498D01*
X52576692Y-71985635D01*
X52796496Y-71926739D01*
X53002734Y-71830568D01*
X53189139Y-71700047D01*
X53350047Y-71539139D01*
X53480568Y-71352734D01*
X53487618Y-71337614D01*
X53533789Y-71285176D01*
X53600982Y-71266023D01*
X53667864Y-71286238D01*
X53712381Y-71337614D01*
X53719313Y-71352478D01*
X53719432Y-71352733D01*
X53719432Y-71352734D01*
X53849954Y-71539141D01*
X54010858Y-71700045D01*
X54010861Y-71700047D01*
X54197266Y-71830568D01*
X54403504Y-71926739D01*
X54623308Y-71985635D01*
X54785230Y-71999801D01*
X54849998Y-72005468D01*
X54850000Y-72005468D01*
X54850002Y-72005468D01*
X54906807Y-72000498D01*
X55076692Y-71985635D01*
X55296496Y-71926739D01*
X55502734Y-71830568D01*
X55689139Y-71700047D01*
X55850047Y-71539139D01*
X55980568Y-71352734D01*
X55987893Y-71337024D01*
X56034064Y-71284586D01*
X56101257Y-71265433D01*
X56168138Y-71285648D01*
X56212657Y-71337024D01*
X56219864Y-71352480D01*
X56270974Y-71425472D01*
X56867038Y-70829408D01*
X56884076Y-70892992D01*
X56949902Y-71007006D01*
X57042994Y-71100098D01*
X57157008Y-71165924D01*
X57220591Y-71182961D01*
X56624526Y-71779025D01*
X56697513Y-71830132D01*
X56697521Y-71830136D01*
X56903668Y-71926264D01*
X56903682Y-71926269D01*
X57123389Y-71985139D01*
X57123400Y-71985141D01*
X57349998Y-72004966D01*
X57350002Y-72004966D01*
X57576599Y-71985141D01*
X57576610Y-71985139D01*
X57796317Y-71926269D01*
X57796331Y-71926264D01*
X58002478Y-71830136D01*
X58075471Y-71779024D01*
X57479408Y-71182961D01*
X57542992Y-71165924D01*
X57657006Y-71100098D01*
X57750098Y-71007006D01*
X57815924Y-70892992D01*
X57832961Y-70829408D01*
X58429024Y-71425471D01*
X58480136Y-71352478D01*
X58576264Y-71146331D01*
X58576269Y-71146317D01*
X58635139Y-70926610D01*
X58635141Y-70926599D01*
X58654966Y-70700002D01*
X58654966Y-70699997D01*
X58635141Y-70473400D01*
X58635139Y-70473389D01*
X58576269Y-70253682D01*
X58576264Y-70253668D01*
X58480136Y-70047521D01*
X58480132Y-70047513D01*
X58429025Y-69974526D01*
X57832961Y-70570590D01*
X57815924Y-70507008D01*
X57750098Y-70392994D01*
X57657006Y-70299902D01*
X57542992Y-70234076D01*
X57479407Y-70217038D01*
X58075472Y-69620974D01*
X58002478Y-69569863D01*
X57796331Y-69473735D01*
X57796317Y-69473730D01*
X57576610Y-69414860D01*
X57576599Y-69414858D01*
X57350002Y-69395034D01*
X57349998Y-69395034D01*
X57123400Y-69414858D01*
X57123389Y-69414860D01*
X56903682Y-69473730D01*
X56903673Y-69473734D01*
X56697516Y-69569866D01*
X56697512Y-69569868D01*
X56624526Y-69620973D01*
X56624526Y-69620974D01*
X57220591Y-70217038D01*
X57157008Y-70234076D01*
X57042994Y-70299902D01*
X56949902Y-70392994D01*
X56884076Y-70507008D01*
X56867038Y-70570591D01*
X56270974Y-69974526D01*
X56270973Y-69974526D01*
X56219868Y-70047512D01*
X56219867Y-70047514D01*
X56212656Y-70062979D01*
X56166482Y-70115417D01*
X56099288Y-70134567D01*
X56032407Y-70114350D01*
X55987893Y-70062976D01*
X55980568Y-70047266D01*
X55850047Y-69860861D01*
X55850045Y-69860858D01*
X55689141Y-69699954D01*
X55502734Y-69569432D01*
X55502732Y-69569431D01*
X55296497Y-69473261D01*
X55296488Y-69473258D01*
X55076697Y-69414366D01*
X55076693Y-69414365D01*
X55076692Y-69414365D01*
X55076691Y-69414364D01*
X55076686Y-69414364D01*
X54850002Y-69394532D01*
X54849998Y-69394532D01*
X54623313Y-69414364D01*
X54623302Y-69414366D01*
X54403511Y-69473258D01*
X54403502Y-69473261D01*
X54197267Y-69569431D01*
X54197265Y-69569432D01*
X54010858Y-69699954D01*
X53849954Y-69860858D01*
X53719433Y-70047264D01*
X53719432Y-70047266D01*
X53712380Y-70062387D01*
X53666209Y-70114825D01*
X53599015Y-70133976D01*
X53532134Y-70113760D01*
X53487619Y-70062387D01*
X53480568Y-70047266D01*
X53350047Y-69860861D01*
X53350045Y-69860858D01*
X53189141Y-69699954D01*
X53002734Y-69569432D01*
X53002732Y-69569431D01*
X52796497Y-69473261D01*
X52796488Y-69473258D01*
X52576697Y-69414366D01*
X52576693Y-69414365D01*
X52576692Y-69414365D01*
X52576691Y-69414364D01*
X52576686Y-69414364D01*
X52350002Y-69394532D01*
X52349998Y-69394532D01*
X52123313Y-69414364D01*
X52123302Y-69414366D01*
X51903511Y-69473258D01*
X51903502Y-69473261D01*
X51697267Y-69569431D01*
X51697265Y-69569432D01*
X51510858Y-69699954D01*
X51349954Y-69860858D01*
X51219433Y-70047264D01*
X51219432Y-70047266D01*
X51212380Y-70062387D01*
X51166209Y-70114825D01*
X51099015Y-70133976D01*
X51032134Y-70113760D01*
X50987619Y-70062387D01*
X50980568Y-70047266D01*
X50850047Y-69860861D01*
X50850045Y-69860858D01*
X50689141Y-69699954D01*
X50502734Y-69569432D01*
X50502732Y-69569431D01*
X50296497Y-69473261D01*
X50296488Y-69473258D01*
X50076697Y-69414366D01*
X50076693Y-69414365D01*
X50076692Y-69414365D01*
X50076691Y-69414364D01*
X50076686Y-69414364D01*
X49850002Y-69394532D01*
X49849998Y-69394532D01*
X49623313Y-69414364D01*
X49623302Y-69414366D01*
X49403511Y-69473258D01*
X49403502Y-69473261D01*
X49197267Y-69569431D01*
X49197265Y-69569432D01*
X49010862Y-69699951D01*
X48853726Y-69857087D01*
X48792403Y-69890571D01*
X48722711Y-69885587D01*
X48666778Y-69843715D01*
X48645369Y-69797923D01*
X48644091Y-69792518D01*
X48593797Y-69657671D01*
X48593793Y-69657664D01*
X48507547Y-69542455D01*
X48507544Y-69542452D01*
X48392335Y-69456206D01*
X48392328Y-69456202D01*
X48257483Y-69405908D01*
X48211243Y-69400937D01*
X48146693Y-69374199D01*
X48106845Y-69316806D01*
X48100500Y-69277648D01*
X48100500Y-68226079D01*
X48071659Y-68081092D01*
X48071658Y-68081091D01*
X48071658Y-68081087D01*
X48071656Y-68081082D01*
X48015087Y-67944511D01*
X48015080Y-67944498D01*
X47932952Y-67821585D01*
X47911364Y-67799997D01*
X47828416Y-67717049D01*
X45653305Y-65541937D01*
X45630656Y-65505864D01*
X45628812Y-65506753D01*
X45625792Y-65500483D01*
X45529815Y-65347737D01*
X45402262Y-65220184D01*
X45249516Y-65124207D01*
X45243247Y-65121188D01*
X45244129Y-65119356D01*
X45208060Y-65096692D01*
X41628421Y-61517052D01*
X41628420Y-61517051D01*
X41539544Y-61457667D01*
X41511236Y-61438752D01*
X41505495Y-61434916D01*
X41505493Y-61434915D01*
X41505490Y-61434913D01*
X41368917Y-61378343D01*
X41368907Y-61378340D01*
X41223920Y-61349500D01*
X41223918Y-61349500D01*
X37876082Y-61349500D01*
X37876076Y-61349500D01*
X37847242Y-61355234D01*
X37847243Y-61355235D01*
X37731092Y-61378339D01*
X37731086Y-61378341D01*
X37696864Y-61392517D01*
X37594508Y-61434914D01*
X37560456Y-61457667D01*
X37471582Y-61517049D01*
X37471579Y-61517052D01*
X36341937Y-62646693D01*
X36305873Y-62669370D01*
X36306750Y-62671191D01*
X36300475Y-62674212D01*
X36147737Y-62770184D01*
X36020184Y-62897737D01*
X35924211Y-63050476D01*
X35864631Y-63220745D01*
X35864630Y-63220750D01*
X35845631Y-63389383D01*
X35818565Y-63453797D01*
X35760970Y-63493352D01*
X35722411Y-63499500D01*
X33870940Y-63499500D01*
X33830019Y-63510464D01*
X33830019Y-63510465D01*
X33792751Y-63520451D01*
X33718214Y-63540423D01*
X33718209Y-63540426D01*
X33581290Y-63619475D01*
X33581282Y-63619481D01*
X30269481Y-66931282D01*
X30269479Y-66931285D01*
X30219361Y-67018094D01*
X30219359Y-67018096D01*
X30190425Y-67068209D01*
X30190424Y-67068210D01*
X30190423Y-67068215D01*
X30149499Y-67220943D01*
X30149499Y-67220945D01*
X30149499Y-67309338D01*
X30130493Y-67375310D01*
X30069545Y-67472307D01*
X30013685Y-67631943D01*
X29994751Y-67799997D01*
X29994751Y-67800002D01*
X30013685Y-67968056D01*
X30069545Y-68127694D01*
X30069547Y-68127697D01*
X30159518Y-68270884D01*
X30159523Y-68270890D01*
X30279109Y-68390476D01*
X30279115Y-68390481D01*
X30422302Y-68480452D01*
X30422305Y-68480454D01*
X30422309Y-68480455D01*
X30422310Y-68480456D01*
X30494913Y-68505860D01*
X30581943Y-68536314D01*
X30749997Y-68555249D01*
X30750000Y-68555249D01*
X30750003Y-68555249D01*
X30918056Y-68536314D01*
X30918059Y-68536313D01*
X31077690Y-68480456D01*
X31077692Y-68480454D01*
X31077694Y-68480454D01*
X31077697Y-68480452D01*
X31220884Y-68390481D01*
X31220885Y-68390480D01*
X31220890Y-68390477D01*
X31340477Y-68270890D01*
X31430452Y-68127697D01*
X31430454Y-68127694D01*
X31430454Y-68127692D01*
X31430456Y-68127690D01*
X31486313Y-67968059D01*
X31486313Y-67968058D01*
X31486314Y-67968056D01*
X31505249Y-67800002D01*
X31505249Y-67799997D01*
X31486313Y-67631940D01*
X31486313Y-67631938D01*
X31455274Y-67543235D01*
X31451712Y-67473456D01*
X31484632Y-67414601D01*
X34162416Y-64736819D01*
X34223739Y-64703334D01*
X34250097Y-64700500D01*
X40063331Y-64700500D01*
X40063347Y-64700501D01*
X40070943Y-64700501D01*
X40229054Y-64700501D01*
X40229057Y-64700501D01*
X40381785Y-64659577D01*
X40431904Y-64630639D01*
X40518716Y-64580520D01*
X40568534Y-64530700D01*
X40629857Y-64497215D01*
X40642313Y-64495163D01*
X40729255Y-64485368D01*
X40899522Y-64425789D01*
X41052262Y-64329816D01*
X41179816Y-64202262D01*
X41275789Y-64049522D01*
X41335368Y-63879255D01*
X41335971Y-63873903D01*
X41355565Y-63700003D01*
X41355565Y-63699999D01*
X41352949Y-63676784D01*
X41365003Y-63607962D01*
X41412351Y-63556582D01*
X41479961Y-63538957D01*
X41546367Y-63560683D01*
X41563850Y-63575218D01*
X44146692Y-66158060D01*
X44169356Y-66194129D01*
X44171188Y-66193247D01*
X44174207Y-66199516D01*
X44174211Y-66199522D01*
X44270184Y-66352262D01*
X44397738Y-66479816D01*
X44550478Y-66575789D01*
X44550483Y-66575792D01*
X44556753Y-66578812D01*
X44555864Y-66580656D01*
X44591937Y-66603305D01*
X45620571Y-67631938D01*
X46563181Y-68574548D01*
X46596666Y-68635871D01*
X46599500Y-68662229D01*
X46599500Y-69277648D01*
X46579815Y-69344687D01*
X46527011Y-69390442D01*
X46488755Y-69400938D01*
X46442516Y-69405909D01*
X46307671Y-69456202D01*
X46307664Y-69456206D01*
X46192455Y-69542452D01*
X46192452Y-69542455D01*
X46106206Y-69657664D01*
X46106202Y-69657671D01*
X46055908Y-69792517D01*
X46049501Y-69852116D01*
X46049500Y-69852135D01*
X46049500Y-71187769D01*
X46029815Y-71254808D01*
X46013181Y-71275450D01*
X45075451Y-72213181D01*
X45014128Y-72246666D01*
X44987770Y-72249500D01*
X29512230Y-72249500D01*
X29445191Y-72229815D01*
X29424548Y-72213181D01*
X29336818Y-72125450D01*
X29303334Y-72064126D01*
X29300500Y-72037769D01*
X29300500Y-72022351D01*
X29320185Y-71955312D01*
X29372989Y-71909557D01*
X29411247Y-71899061D01*
X29457483Y-71894091D01*
X29592331Y-71843796D01*
X29707546Y-71757546D01*
X29793796Y-71642331D01*
X29844091Y-71507483D01*
X29844092Y-71507472D01*
X29845365Y-71502088D01*
X29879933Y-71441369D01*
X29941841Y-71408978D01*
X30011433Y-71415199D01*
X30053725Y-71442912D01*
X30210858Y-71600045D01*
X30210861Y-71600047D01*
X30397266Y-71730568D01*
X30603504Y-71826739D01*
X30603509Y-71826740D01*
X30603511Y-71826741D01*
X30616932Y-71830337D01*
X30823308Y-71885635D01*
X30971613Y-71898610D01*
X31049998Y-71905468D01*
X31050000Y-71905468D01*
X31050002Y-71905468D01*
X31123232Y-71899061D01*
X31276692Y-71885635D01*
X31496496Y-71826739D01*
X31702734Y-71730568D01*
X31889139Y-71600047D01*
X32050047Y-71439139D01*
X32180568Y-71252734D01*
X32187618Y-71237614D01*
X32233789Y-71185176D01*
X32300982Y-71166023D01*
X32367864Y-71186238D01*
X32412381Y-71237614D01*
X32413089Y-71239131D01*
X32419432Y-71252733D01*
X32419432Y-71252734D01*
X32549954Y-71439141D01*
X32710858Y-71600045D01*
X32710861Y-71600047D01*
X32897266Y-71730568D01*
X33103504Y-71826739D01*
X33103509Y-71826740D01*
X33103511Y-71826741D01*
X33116932Y-71830337D01*
X33323308Y-71885635D01*
X33471613Y-71898610D01*
X33549998Y-71905468D01*
X33550000Y-71905468D01*
X33550002Y-71905468D01*
X33623232Y-71899061D01*
X33776692Y-71885635D01*
X33996496Y-71826739D01*
X34202734Y-71730568D01*
X34389139Y-71600047D01*
X34550047Y-71439139D01*
X34680568Y-71252734D01*
X34687618Y-71237614D01*
X34733789Y-71185176D01*
X34800982Y-71166023D01*
X34867864Y-71186238D01*
X34912381Y-71237614D01*
X34913089Y-71239131D01*
X34919432Y-71252733D01*
X34919432Y-71252734D01*
X35049954Y-71439141D01*
X35210858Y-71600045D01*
X35210861Y-71600047D01*
X35397266Y-71730568D01*
X35603504Y-71826739D01*
X35603509Y-71826740D01*
X35603511Y-71826741D01*
X35616932Y-71830337D01*
X35823308Y-71885635D01*
X35971613Y-71898610D01*
X36049998Y-71905468D01*
X36050000Y-71905468D01*
X36050002Y-71905468D01*
X36123232Y-71899061D01*
X36276692Y-71885635D01*
X36496496Y-71826739D01*
X36702734Y-71730568D01*
X36889139Y-71600047D01*
X37050047Y-71439139D01*
X37180568Y-71252734D01*
X37187893Y-71237024D01*
X37234064Y-71184586D01*
X37301257Y-71165433D01*
X37368138Y-71185648D01*
X37412657Y-71237024D01*
X37419864Y-71252480D01*
X37470974Y-71325472D01*
X38067038Y-70729408D01*
X38084076Y-70792992D01*
X38149902Y-70907006D01*
X38242994Y-71000098D01*
X38357008Y-71065924D01*
X38420591Y-71082961D01*
X37824526Y-71679025D01*
X37897513Y-71730132D01*
X37897521Y-71730136D01*
X38103668Y-71826264D01*
X38103682Y-71826269D01*
X38323389Y-71885139D01*
X38323400Y-71885141D01*
X38549998Y-71904966D01*
X38550002Y-71904966D01*
X38776599Y-71885141D01*
X38776610Y-71885139D01*
X38996317Y-71826269D01*
X38996331Y-71826264D01*
X39202478Y-71730136D01*
X39275471Y-71679024D01*
X38679408Y-71082961D01*
X38742992Y-71065924D01*
X38857006Y-71000098D01*
X38950098Y-70907006D01*
X39015924Y-70792992D01*
X39032961Y-70729408D01*
X39629024Y-71325471D01*
X39680136Y-71252478D01*
X39776264Y-71046331D01*
X39776269Y-71046317D01*
X39835139Y-70826610D01*
X39835141Y-70826599D01*
X39854966Y-70600002D01*
X39854966Y-70599997D01*
X39835141Y-70373400D01*
X39835139Y-70373389D01*
X39776269Y-70153682D01*
X39776264Y-70153668D01*
X39680136Y-69947521D01*
X39680132Y-69947513D01*
X39629025Y-69874526D01*
X39032961Y-70470590D01*
X39015924Y-70407008D01*
X38950098Y-70292994D01*
X38857006Y-70199902D01*
X38742992Y-70134076D01*
X38679407Y-70117038D01*
X39275472Y-69520974D01*
X39202478Y-69469863D01*
X38996331Y-69373735D01*
X38996317Y-69373730D01*
X38776610Y-69314860D01*
X38776599Y-69314858D01*
X38550002Y-69295034D01*
X38549998Y-69295034D01*
X38323400Y-69314858D01*
X38323389Y-69314860D01*
X38103682Y-69373730D01*
X38103673Y-69373734D01*
X37897516Y-69469866D01*
X37897512Y-69469868D01*
X37824526Y-69520973D01*
X37824526Y-69520974D01*
X38420591Y-70117038D01*
X38357008Y-70134076D01*
X38242994Y-70199902D01*
X38149902Y-70292994D01*
X38084076Y-70407008D01*
X38067038Y-70470591D01*
X37470974Y-69874526D01*
X37470973Y-69874526D01*
X37419868Y-69947512D01*
X37419867Y-69947514D01*
X37412656Y-69962979D01*
X37366482Y-70015417D01*
X37299288Y-70034567D01*
X37232407Y-70014350D01*
X37187893Y-69962976D01*
X37180568Y-69947266D01*
X37050047Y-69760861D01*
X37050045Y-69760858D01*
X36889141Y-69599954D01*
X36702734Y-69469432D01*
X36702732Y-69469431D01*
X36496497Y-69373261D01*
X36496488Y-69373258D01*
X36276697Y-69314366D01*
X36276693Y-69314365D01*
X36276692Y-69314365D01*
X36276691Y-69314364D01*
X36276686Y-69314364D01*
X36050002Y-69294532D01*
X36049998Y-69294532D01*
X35823313Y-69314364D01*
X35823302Y-69314366D01*
X35603511Y-69373258D01*
X35603502Y-69373261D01*
X35397267Y-69469431D01*
X35397265Y-69469432D01*
X35210858Y-69599954D01*
X35049954Y-69760858D01*
X34919433Y-69947264D01*
X34919432Y-69947266D01*
X34912380Y-69962387D01*
X34866209Y-70014825D01*
X34799015Y-70033976D01*
X34732134Y-70013760D01*
X34687619Y-69962387D01*
X34680568Y-69947266D01*
X34550047Y-69760861D01*
X34550045Y-69760858D01*
X34389141Y-69599954D01*
X34202734Y-69469432D01*
X34202732Y-69469431D01*
X33996497Y-69373261D01*
X33996488Y-69373258D01*
X33776697Y-69314366D01*
X33776693Y-69314365D01*
X33776692Y-69314365D01*
X33776691Y-69314364D01*
X33776686Y-69314364D01*
X33550002Y-69294532D01*
X33549998Y-69294532D01*
X33323313Y-69314364D01*
X33323302Y-69314366D01*
X33103511Y-69373258D01*
X33103502Y-69373261D01*
X32897267Y-69469431D01*
X32897265Y-69469432D01*
X32710858Y-69599954D01*
X32549954Y-69760858D01*
X32419433Y-69947264D01*
X32419432Y-69947266D01*
X32412380Y-69962387D01*
X32366209Y-70014825D01*
X32299015Y-70033976D01*
X32232134Y-70013760D01*
X32187619Y-69962387D01*
X32180568Y-69947266D01*
X32050047Y-69760861D01*
X32050045Y-69760858D01*
X31889141Y-69599954D01*
X31702734Y-69469432D01*
X31702732Y-69469431D01*
X31496497Y-69373261D01*
X31496488Y-69373258D01*
X31276697Y-69314366D01*
X31276693Y-69314365D01*
X31276692Y-69314365D01*
X31276691Y-69314364D01*
X31276686Y-69314364D01*
X31050002Y-69294532D01*
X31049998Y-69294532D01*
X30823313Y-69314364D01*
X30823302Y-69314366D01*
X30603511Y-69373258D01*
X30603502Y-69373261D01*
X30397267Y-69469431D01*
X30397265Y-69469432D01*
X30210862Y-69599951D01*
X30053726Y-69757087D01*
X29992403Y-69790571D01*
X29922711Y-69785587D01*
X29866778Y-69743715D01*
X29845369Y-69697923D01*
X29844091Y-69692518D01*
X29831093Y-69657669D01*
X29798344Y-69569863D01*
X29793797Y-69557671D01*
X29793793Y-69557664D01*
X29707547Y-69442455D01*
X29707544Y-69442452D01*
X29592335Y-69356206D01*
X29592328Y-69356202D01*
X29457482Y-69305908D01*
X29457483Y-69305908D01*
X29397883Y-69299501D01*
X29397881Y-69299500D01*
X29397873Y-69299500D01*
X29397864Y-69299500D01*
X27702129Y-69299500D01*
X27702123Y-69299501D01*
X27642516Y-69305908D01*
X27507671Y-69356202D01*
X27507664Y-69356206D01*
X27392455Y-69442452D01*
X27392452Y-69442455D01*
X27306204Y-69557667D01*
X27302239Y-69564929D01*
X27252832Y-69614334D01*
X27193408Y-69629500D01*
X20024499Y-69629500D01*
X19957460Y-69609815D01*
X19911705Y-69557011D01*
X19900499Y-69505500D01*
X19900499Y-69482129D01*
X19900498Y-69482123D01*
X19900497Y-69482116D01*
X19894091Y-69422517D01*
X19891234Y-69414858D01*
X19843797Y-69287671D01*
X19843793Y-69287664D01*
X19757547Y-69172455D01*
X19757544Y-69172452D01*
X19642335Y-69086206D01*
X19642328Y-69086202D01*
X19507482Y-69035908D01*
X19507483Y-69035908D01*
X19447883Y-69029501D01*
X19447881Y-69029500D01*
X19447873Y-69029500D01*
X19447864Y-69029500D01*
X17652129Y-69029500D01*
X17652123Y-69029501D01*
X17592516Y-69035908D01*
X17457671Y-69086202D01*
X17457664Y-69086206D01*
X17342455Y-69172452D01*
X17342452Y-69172455D01*
X17256206Y-69287664D01*
X17256202Y-69287671D01*
X17205908Y-69422517D01*
X17200453Y-69473261D01*
X17199501Y-69482123D01*
X17199500Y-69482135D01*
X17199500Y-71277870D01*
X17199501Y-71277876D01*
X17205908Y-71337483D01*
X17256202Y-71472328D01*
X17256206Y-71472335D01*
X17342452Y-71587544D01*
X17342455Y-71587547D01*
X17457664Y-71673793D01*
X17457671Y-71673797D01*
X17519902Y-71697007D01*
X17589598Y-71723002D01*
X17645531Y-71764873D01*
X17669949Y-71830337D01*
X17655098Y-71898610D01*
X17633947Y-71926865D01*
X17511886Y-72048926D01*
X17376400Y-72242420D01*
X17376399Y-72242422D01*
X17276570Y-72456507D01*
X17276567Y-72456513D01*
X17219364Y-72669999D01*
X17219364Y-72670000D01*
X18116988Y-72670000D01*
X18084075Y-72727007D01*
X18050000Y-72854174D01*
X18050000Y-72985826D01*
X18084075Y-73112993D01*
X18116988Y-73170000D01*
X17219364Y-73170000D01*
X17276567Y-73383486D01*
X17276570Y-73383492D01*
X17376399Y-73597578D01*
X17511894Y-73791082D01*
X17678917Y-73958105D01*
X17864595Y-74088119D01*
X17908219Y-74142696D01*
X17915412Y-74212195D01*
X17883890Y-74274549D01*
X17864595Y-74291269D01*
X17678594Y-74421508D01*
X17511505Y-74588597D01*
X17375965Y-74782169D01*
X17375964Y-74782171D01*
X17276098Y-74996335D01*
X17276094Y-74996344D01*
X17214938Y-75224586D01*
X17214936Y-75224596D01*
X17194341Y-75459999D01*
X17194341Y-75460000D01*
X17214936Y-75695403D01*
X17214938Y-75695413D01*
X17276094Y-75923655D01*
X17276096Y-75923659D01*
X17276097Y-75923663D01*
X17375965Y-76137830D01*
X17375967Y-76137834D01*
X17474526Y-76278590D01*
X17495460Y-76308487D01*
X17511501Y-76331395D01*
X17511506Y-76331402D01*
X17678597Y-76498493D01*
X17678603Y-76498498D01*
X17864158Y-76628425D01*
X17907783Y-76683002D01*
X17914977Y-76752500D01*
X17883454Y-76814855D01*
X17864158Y-76831575D01*
X17678597Y-76961505D01*
X17511505Y-77128597D01*
X17375965Y-77322169D01*
X17375964Y-77322171D01*
X17276098Y-77536335D01*
X17276094Y-77536344D01*
X17214938Y-77764586D01*
X17214936Y-77764596D01*
X17194341Y-77999999D01*
X17194341Y-78000000D01*
X17214936Y-78235403D01*
X17214938Y-78235413D01*
X17276094Y-78463655D01*
X17276096Y-78463659D01*
X17276097Y-78463663D01*
X17358314Y-78639977D01*
X17375965Y-78677830D01*
X17375967Y-78677834D01*
X17450025Y-78783599D01*
X17510289Y-78869665D01*
X17511501Y-78871395D01*
X17511506Y-78871402D01*
X17678597Y-79038493D01*
X17678603Y-79038498D01*
X17872013Y-79173925D01*
X17915638Y-79228502D01*
X17922832Y-79298000D01*
X17891309Y-79360355D01*
X17831079Y-79395769D01*
X17800890Y-79399500D01*
X16104428Y-79399500D01*
X16095582Y-79399184D01*
X16073622Y-79397613D01*
X15895442Y-79384869D01*
X15877931Y-79382351D01*
X15686212Y-79340646D01*
X15669236Y-79335662D01*
X15485390Y-79267090D01*
X15469298Y-79259740D01*
X15297095Y-79165711D01*
X15282210Y-79156146D01*
X15208298Y-79100816D01*
X15125132Y-79038558D01*
X15111762Y-79026972D01*
X14973027Y-78888237D01*
X14961441Y-78874867D01*
X14958847Y-78871402D01*
X14843849Y-78717784D01*
X14834288Y-78702904D01*
X14740259Y-78530701D01*
X14732909Y-78514609D01*
X14710054Y-78453333D01*
X14664334Y-78330755D01*
X14659355Y-78313797D01*
X14617647Y-78122063D01*
X14615130Y-78104556D01*
X14610683Y-78042382D01*
X14600816Y-77904418D01*
X14600500Y-77895572D01*
X14600500Y-61200862D01*
X14620185Y-61133823D01*
X14636819Y-61113181D01*
X17113681Y-58636319D01*
X17175004Y-58602834D01*
X17201362Y-58600000D01*
X52696289Y-58600000D01*
X52763328Y-58619685D01*
G37*
%TD.AperFunction*%
%TA.AperFunction,Conductor*%
G36*
X60375005Y-58619685D02*
G01*
X60420760Y-58672489D01*
X60430704Y-58741647D01*
X60401679Y-58805203D01*
X60382278Y-58823266D01*
X60342809Y-58852812D01*
X60256649Y-58967906D01*
X60256645Y-58967913D01*
X60206403Y-59102620D01*
X60206401Y-59102627D01*
X60200000Y-59162155D01*
X60200000Y-59810000D01*
X61116988Y-59810000D01*
X61084075Y-59867007D01*
X61050000Y-59994174D01*
X61050000Y-60125826D01*
X61084075Y-60252993D01*
X61116988Y-60310000D01*
X60200000Y-60310000D01*
X60200000Y-60957844D01*
X60206401Y-61017372D01*
X60206403Y-61017379D01*
X60256645Y-61152086D01*
X60256649Y-61152093D01*
X60342809Y-61267187D01*
X60342812Y-61267190D01*
X60457906Y-61353350D01*
X60457913Y-61353354D01*
X60589470Y-61402421D01*
X60645403Y-61444292D01*
X60669821Y-61509756D01*
X60654970Y-61578029D01*
X60633819Y-61606284D01*
X60511503Y-61728600D01*
X60463874Y-61796623D01*
X60409297Y-61840248D01*
X60362299Y-61849500D01*
X56012230Y-61849500D01*
X55945191Y-61829815D01*
X55924553Y-61813185D01*
X55828416Y-61717048D01*
X55828415Y-61717047D01*
X55828414Y-61717046D01*
X55754729Y-61667812D01*
X55754729Y-61667813D01*
X55705491Y-61634913D01*
X55568917Y-61578343D01*
X55568907Y-61578340D01*
X55423920Y-61549500D01*
X55423918Y-61549500D01*
X54972351Y-61549500D01*
X54905312Y-61529815D01*
X54859557Y-61477011D01*
X54849061Y-61438752D01*
X54848648Y-61434914D01*
X54844091Y-61392517D01*
X54838804Y-61378343D01*
X54793797Y-61257671D01*
X54793793Y-61257664D01*
X54707547Y-61142455D01*
X54707544Y-61142452D01*
X54592335Y-61056206D01*
X54592328Y-61056202D01*
X54457482Y-61005908D01*
X54457483Y-61005908D01*
X54397883Y-60999501D01*
X54397881Y-60999500D01*
X54397873Y-60999500D01*
X54397865Y-60999500D01*
X54396755Y-60999500D01*
X54396506Y-60999427D01*
X54394548Y-60999322D01*
X54394572Y-60998859D01*
X54329716Y-60979815D01*
X54283961Y-60927011D01*
X54273227Y-60864694D01*
X54275472Y-60839025D01*
X53638594Y-60202147D01*
X53723698Y-60179344D01*
X53826314Y-60120099D01*
X53910099Y-60036314D01*
X53969344Y-59933698D01*
X53992147Y-59848594D01*
X54629024Y-60485471D01*
X54680136Y-60412478D01*
X54776264Y-60206331D01*
X54776269Y-60206317D01*
X54835139Y-59986610D01*
X54835141Y-59986599D01*
X54854966Y-59760002D01*
X54854966Y-59759997D01*
X54835141Y-59533400D01*
X54835139Y-59533389D01*
X54776269Y-59313682D01*
X54776264Y-59313668D01*
X54680136Y-59107521D01*
X54680132Y-59107513D01*
X54629025Y-59034526D01*
X53992147Y-59671404D01*
X53969344Y-59586302D01*
X53910099Y-59483686D01*
X53826314Y-59399901D01*
X53723698Y-59340656D01*
X53638593Y-59317851D01*
X54316359Y-58640088D01*
X54317877Y-58641606D01*
X54342557Y-58616128D01*
X54403710Y-58600000D01*
X60307966Y-58600000D01*
X60375005Y-58619685D01*
G37*
%TD.AperFunction*%
%TD*%
M02*
