M48
; DRILL file {KiCad 8.0.8} date 2025-06-05T09:36:48+0200
; FORMAT={3:3/ absolute / metric / suppress trailing zeros}
; #@! TF.CreationDate,2025-06-05T09:36:48+02:00
; #@! TF.GenerationSoftware,Kicad,Pcbnew,8.0.8
; #@! TF.FileFunction,Plated,1,2,PTH
FMAT,2
METRIC,LZ
; #@! TA.AperFunction,Plated,PTH,ViaDrill
T1C0.300
; #@! TA.AperFunction,Plated,PTH,ComponentDrill
T2C0.800
; #@! TA.AperFunction,Plated,PTH,ComponentDrill
T3C0.900
; #@! TA.AperFunction,Plated,PTH,ComponentDrill
T4C1.000
; #@! TA.AperFunction,Plated,PTH,ComponentDrill
T5C1.000
; #@! TA.AperFunction,Plated,PTH,ComponentDrill
T6C2.800
%
G90
G05
T1
X02025Y-0741
X03075Y-0678
X03325Y-0624
X03385Y-0661
X03605Y-0506
X03665Y-0634
X037975Y-050775
X04055Y-0637
X04265Y-0402
X04325Y-0485
X0449Y-06585
X04565Y-0509
X04645Y-0618
X04665Y-0493
X04715Y-0531
X05105Y-066
X05205Y-0458
X05585Y-0598
X05725Y-0598
X05965Y-0592
T2
X02341Y-01554
X02341Y-0384
X02595Y-01554
X02595Y-0384
X02849Y-01554
X02849Y-0384
X03103Y-01554
X03103Y-0384
X03357Y-01554
X03357Y-0384
X03611Y-01554
X03611Y-0384
X03865Y-01554
X03865Y-0384
X04119Y-01554
X04119Y-0384
X04373Y-01554
X04373Y-0384
X04627Y-01554
X04627Y-0384
X04881Y-01554
X04881Y-0384
X05135Y-01554
X05135Y-0384
X05389Y-01554
X05389Y-0384
X05643Y-01554
X05643Y-0384
X05897Y-01554
X05897Y-0384
T3
X05355Y-0496
X05355Y-05468
X05355Y-05976
X05355Y-0623
T4
X02855Y-0706
X03105Y-0706
X03355Y-0706
X03605Y-0706
X03855Y-0706
X04735Y-0707
X04985Y-0707
X05235Y-0707
X05485Y-0707
X05735Y-0707
T5
X01855Y-07038
X01855Y-07292
X01855Y-07546
X01855Y-078
X03856Y-04615
X0411Y-04615
X04364Y-04615
X06155Y-06006
X06155Y-0626
T6
X03355Y-0771
X05235Y-0772
M30
