%TF.GenerationSoftware,KiCad,Pcbnew,8.0.8*%
%TF.CreationDate,2025-06-05T09:36:50+02:00*%
%TF.ProjectId,heishamon-lr-pdc,68656973-6861-46d6-9f6e-2d6c722d7064,rev?*%
%TF.SameCoordinates,Original*%
%TF.FileFunction,Soldermask,Bot*%
%TF.FilePolarity,Negative*%
%FSLAX46Y46*%
G04 Gerber Fmt 4.6, Leading zero omitted, Abs format (unit mm)*
G04 Created by KiCad (PCBNEW 8.0.8) date 2025-06-05 09:36:50*
%MOMM*%
%LPD*%
G01*
G04 APERTURE LIST*
%ADD10R,1.200000X2.000000*%
%ADD11O,1.200000X2.000000*%
%ADD12C,2.800000*%
%ADD13R,1.600000X1.600000*%
%ADD14C,1.600000*%
%ADD15R,1.700000X1.700000*%
%ADD16O,1.700000X1.700000*%
G04 APERTURE END LIST*
D10*
%TO.C,U3*%
X23410000Y-38400000D03*
D11*
X25950000Y-38400000D03*
X28490000Y-38400000D03*
X31030000Y-38400000D03*
X33570000Y-38400000D03*
X36110000Y-38400000D03*
X38650000Y-38400000D03*
X41190000Y-38400000D03*
X43730000Y-38400000D03*
X46270000Y-38400000D03*
X48810000Y-38400000D03*
X51350000Y-38400000D03*
X53890000Y-38400000D03*
X56430000Y-38400000D03*
X58970000Y-38400000D03*
X58970000Y-15540000D03*
X56430000Y-15540000D03*
X53890000Y-15540000D03*
X51350000Y-15540000D03*
X48810000Y-15540000D03*
X46270000Y-15540000D03*
X43730000Y-15540000D03*
X41190000Y-15540000D03*
X38650000Y-15540000D03*
X36110000Y-15540000D03*
X33570000Y-15540000D03*
X31030000Y-15540000D03*
X28490000Y-15540000D03*
X25950000Y-15540000D03*
X23410000Y-15540000D03*
%TD*%
D12*
%TO.C,CN2*%
X52350000Y-77200000D03*
D13*
X47350000Y-70700000D03*
D14*
X49850000Y-70700000D03*
X52350000Y-70700000D03*
X54850000Y-70700000D03*
X57350000Y-70700000D03*
%TD*%
D15*
%TO.C,J2*%
X43640000Y-46150000D03*
D16*
X41100000Y-46150000D03*
X38560000Y-46150000D03*
%TD*%
D15*
%TO.C,J1*%
X18550000Y-70380000D03*
D16*
X18550000Y-72920000D03*
X18550000Y-75460000D03*
X18550000Y-78000000D03*
%TD*%
D13*
%TO.C,U2*%
X53550000Y-62300000D03*
D14*
X53550000Y-59760000D03*
X53550000Y-54680000D03*
X53550000Y-49600000D03*
%TD*%
D15*
%TO.C,J3*%
X61550000Y-60060000D03*
D16*
X61550000Y-62600000D03*
%TD*%
D12*
%TO.C,CN1*%
X33550000Y-77100000D03*
D13*
X28550000Y-70600000D03*
D14*
X31050000Y-70600000D03*
X33550000Y-70600000D03*
X36050000Y-70600000D03*
X38550000Y-70600000D03*
%TD*%
M02*
