%TF.GenerationSoftware,KiCad,Pcbnew,8.0.8*%
%TF.CreationDate,2025-06-05T09:36:50+02:00*%
%TF.ProjectId,heishamon-lr-pdc,68656973-6861-46d6-9f6e-2d6c722d7064,rev?*%
%TF.SameCoordinates,Original*%
%TF.FileFunction,Copper,L1,Top*%
%TF.FilePolarity,Positive*%
%FSLAX46Y46*%
G04 Gerber Fmt 4.6, Leading zero omitted, Abs format (unit mm)*
G04 Created by KiCad (PCBNEW 8.0.8) date 2025-06-05 09:36:50*
%MOMM*%
%LPD*%
G01*
G04 APERTURE LIST*
G04 Aperture macros list*
%AMRoundRect*
0 Rectangle with rounded corners*
0 $1 Rounding radius*
0 $2 $3 $4 $5 $6 $7 $8 $9 X,Y pos of 4 corners*
0 Add a 4 corners polygon primitive as box body*
4,1,4,$2,$3,$4,$5,$6,$7,$8,$9,$2,$3,0*
0 Add four circle primitives for the rounded corners*
1,1,$1+$1,$2,$3*
1,1,$1+$1,$4,$5*
1,1,$1+$1,$6,$7*
1,1,$1+$1,$8,$9*
0 Add four rect primitives between the rounded corners*
20,1,$1+$1,$2,$3,$4,$5,0*
20,1,$1+$1,$4,$5,$6,$7,0*
20,1,$1+$1,$6,$7,$8,$9,0*
20,1,$1+$1,$8,$9,$2,$3,0*%
G04 Aperture macros list end*
%TA.AperFunction,SMDPad,CuDef*%
%ADD10R,1.350000X1.410000*%
%TD*%
%TA.AperFunction,SMDPad,CuDef*%
%ADD11RoundRect,0.150000X0.150000X-0.875000X0.150000X0.875000X-0.150000X0.875000X-0.150000X-0.875000X0*%
%TD*%
%TA.AperFunction,SMDPad,CuDef*%
%ADD12RoundRect,0.250000X-0.262500X-0.450000X0.262500X-0.450000X0.262500X0.450000X-0.262500X0.450000X0*%
%TD*%
%TA.AperFunction,SMDPad,CuDef*%
%ADD13R,0.530000X1.040000*%
%TD*%
%TA.AperFunction,SMDPad,CuDef*%
%ADD14RoundRect,0.200000X0.275000X-0.200000X0.275000X0.200000X-0.275000X0.200000X-0.275000X-0.200000X0*%
%TD*%
%TA.AperFunction,SMDPad,CuDef*%
%ADD15RoundRect,0.250000X0.262500X0.450000X-0.262500X0.450000X-0.262500X-0.450000X0.262500X-0.450000X0*%
%TD*%
%TA.AperFunction,SMDPad,CuDef*%
%ADD16R,1.000000X2.200000*%
%TD*%
%TA.AperFunction,ComponentPad*%
%ADD17R,1.200000X2.000000*%
%TD*%
%TA.AperFunction,ComponentPad*%
%ADD18O,1.200000X2.000000*%
%TD*%
%TA.AperFunction,ComponentPad*%
%ADD19C,2.800000*%
%TD*%
%TA.AperFunction,ComponentPad*%
%ADD20R,1.600000X1.600000*%
%TD*%
%TA.AperFunction,ComponentPad*%
%ADD21C,1.600000*%
%TD*%
%TA.AperFunction,SMDPad,CuDef*%
%ADD22RoundRect,0.250000X-0.450000X0.262500X-0.450000X-0.262500X0.450000X-0.262500X0.450000X0.262500X0*%
%TD*%
%TA.AperFunction,SMDPad,CuDef*%
%ADD23RoundRect,0.250000X-0.475000X0.250000X-0.475000X-0.250000X0.475000X-0.250000X0.475000X0.250000X0*%
%TD*%
%TA.AperFunction,SMDPad,CuDef*%
%ADD24RoundRect,0.250000X0.450000X-0.262500X0.450000X0.262500X-0.450000X0.262500X-0.450000X-0.262500X0*%
%TD*%
%TA.AperFunction,ComponentPad*%
%ADD25R,1.700000X1.700000*%
%TD*%
%TA.AperFunction,ComponentPad*%
%ADD26O,1.700000X1.700000*%
%TD*%
%TA.AperFunction,SMDPad,CuDef*%
%ADD27RoundRect,0.250000X0.475000X-0.250000X0.475000X0.250000X-0.475000X0.250000X-0.475000X-0.250000X0*%
%TD*%
%TA.AperFunction,SMDPad,CuDef*%
%ADD28RoundRect,0.250000X1.000000X0.650000X-1.000000X0.650000X-1.000000X-0.650000X1.000000X-0.650000X0*%
%TD*%
%TA.AperFunction,SMDPad,CuDef*%
%ADD29R,1.410000X1.350000*%
%TD*%
%TA.AperFunction,SMDPad,CuDef*%
%ADD30RoundRect,0.243750X0.456250X-0.243750X0.456250X0.243750X-0.456250X0.243750X-0.456250X-0.243750X0*%
%TD*%
%TA.AperFunction,ViaPad*%
%ADD31C,0.600000*%
%TD*%
%TA.AperFunction,ViaPad*%
%ADD32C,0.500000*%
%TD*%
%TA.AperFunction,Conductor*%
%ADD33C,0.500000*%
%TD*%
%TA.AperFunction,Conductor*%
%ADD34C,0.200000*%
%TD*%
G04 APERTURE END LIST*
D10*
%TO.P,C5,2,2*%
%TO.N,VCC_IN*%
X50750000Y-62400000D03*
%TO.P,C5,1,1*%
%TO.N,GNDD*%
X50750000Y-60400000D03*
%TD*%
%TO.P,C4,2,2*%
%TO.N,+5V*%
X50550000Y-47800000D03*
%TO.P,C4,1,1*%
%TO.N,GND*%
X50550000Y-45800000D03*
%TD*%
D11*
%TO.P,U1,1,Vcc1*%
%TO.N,+5_HP*%
X36705000Y-61850000D03*
%TO.P,U1,2,INA*%
%TO.N,/TX (HP >)*%
X37975000Y-61850000D03*
%TO.P,U1,3,INB*%
%TO.N,Net-(U1-INB)*%
X39245000Y-61850000D03*
%TO.P,U1,4,INC*%
%TO.N,unconnected-(U1-INC-Pad4)*%
X40515000Y-61850000D03*
%TO.P,U1,5,IND*%
%TO.N,unconnected-(U1-IND-Pad5)*%
X41785000Y-61850000D03*
%TO.P,U1,6,OUTE*%
%TO.N,/RX (HP <)*%
X43055000Y-61850000D03*
%TO.P,U1,7,OUTF*%
%TO.N,Net-(U1-OUTF)*%
X44325000Y-61850000D03*
%TO.P,U1,8,GND1*%
%TO.N,GNDD*%
X45595000Y-61850000D03*
%TO.P,U1,9,GND2*%
%TO.N,GND*%
X45595000Y-52550000D03*
%TO.P,U1,10,INF*%
%TO.N,ESP_PROXY_TX*%
X44325000Y-52550000D03*
%TO.P,U1,11,INE*%
%TO.N,ESP_TX*%
X43055000Y-52550000D03*
%TO.P,U1,12,OUTD*%
%TO.N,unconnected-(U1-OUTD-Pad12)*%
X41785000Y-52550000D03*
%TO.P,U1,13,OUTC*%
%TO.N,unconnected-(U1-OUTC-Pad13)*%
X40515000Y-52550000D03*
%TO.P,U1,14,OUTB*%
%TO.N,ESP_PROXY_RX*%
X39245000Y-52550000D03*
%TO.P,U1,15,OUTA*%
%TO.N,ESP_RX*%
X37975000Y-52550000D03*
%TO.P,U1,16,Vcc2*%
%TO.N,+3V3*%
X36705000Y-52550000D03*
%TD*%
D12*
%TO.P,R10,1*%
%TO.N,+12_HP*%
X37825000Y-65700000D03*
%TO.P,R10,2*%
%TO.N,VCC_IN*%
X39650000Y-65700000D03*
%TD*%
%TO.P,R2,1*%
%TO.N,Net-(CN1-Pad2)*%
X28150000Y-63800000D03*
%TO.P,R2,2*%
%TO.N,/TX (HP >)*%
X29975000Y-63800000D03*
%TD*%
%TO.P,R11,1*%
%TO.N,VCC_IN*%
X42237500Y-65700000D03*
%TO.P,R11,2*%
%TO.N,+5_HP*%
X44062500Y-65700000D03*
%TD*%
D13*
%TO.P,D3,1,1*%
%TO.N,Net-(CN1-Pad2)*%
X31950000Y-68600000D03*
%TO.P,D3,2,2*%
%TO.N,Net-(CN1-Pad3)*%
X33950000Y-68600000D03*
%TO.P,D3,3,3*%
%TO.N,GNDD*%
X32950000Y-66400000D03*
%TD*%
D14*
%TO.P,R5,1*%
%TO.N,+5V*%
X48550000Y-47975000D03*
%TO.P,R5,2*%
%TO.N,Net-(D1-A)*%
X48550000Y-46325000D03*
%TD*%
D15*
%TO.P,R1,1*%
%TO.N,Net-(CN1-Pad3)*%
X29975000Y-65925000D03*
%TO.P,R1,2*%
%TO.N,/RX (HP <)*%
X28150000Y-65925000D03*
%TD*%
D16*
%TO.P,L1,1,1*%
%TO.N,Net-(U2-+VO)*%
X51150000Y-50400000D03*
%TO.P,L1,2,2*%
%TO.N,+5V*%
X49250000Y-50400000D03*
%TD*%
D17*
%TO.P,U3,1,GND*%
%TO.N,GND*%
X23410000Y-38400000D03*
D18*
%TO.P,U3,2,3V3*%
%TO.N,+3V3*%
X25950000Y-38400000D03*
%TO.P,U3,3,3V3*%
X28490000Y-38400000D03*
%TO.P,U3,4,RST*%
%TO.N,unconnected-(U3-RST-Pad4)*%
X31030000Y-38400000D03*
%TO.P,U3,5,GND*%
%TO.N,GND*%
X33570000Y-38400000D03*
%TO.P,U3,6,GPIO4*%
%TO.N,unconnected-(U3-GPIO4-Pad6)*%
X36110000Y-38400000D03*
%TO.P,U3,7,GPIO5*%
%TO.N,unconnected-(U3-GPIO5-Pad7)*%
X38650000Y-38400000D03*
%TO.P,U3,8,GPIO6*%
%TO.N,Net-(U3-GPIO6)*%
X41190000Y-38400000D03*
%TO.P,U3,9,GPIO7*%
%TO.N,Net-(U3-GPIO7)*%
X43730000Y-38400000D03*
%TO.P,U3,10,GND*%
%TO.N,GND*%
X46270000Y-38400000D03*
%TO.P,U3,11,GPIO8/RGB_LED*%
%TO.N,unconnected-(U3-GPIO8{slash}RGB_LED-Pad11)*%
X48810000Y-38400000D03*
%TO.P,U3,12,GPIO9*%
%TO.N,unconnected-(U3-GPIO9-Pad12)*%
X51350000Y-38400000D03*
%TO.P,U3,13,5V*%
%TO.N,5V*%
X53890000Y-38400000D03*
%TO.P,U3,14,5V*%
X56430000Y-38400000D03*
%TO.P,U3,15,GND*%
%TO.N,GND*%
X58970000Y-38400000D03*
%TO.P,U3,16,GND*%
X58970000Y-15540000D03*
%TO.P,U3,17,GND*%
X56430000Y-15540000D03*
%TO.P,U3,18,GPIO19/USBD_+*%
%TO.N,unconnected-(U3-GPIO19{slash}USBD_+-Pad18)*%
X53890000Y-15540000D03*
%TO.P,U3,19,GPIO18/USBD_-*%
%TO.N,unconnected-(U3-GPIO18{slash}USBD_--Pad19)*%
X51350000Y-15540000D03*
%TO.P,U3,20,GND*%
%TO.N,GND*%
X48810000Y-15540000D03*
%TO.P,U3,21,GPIO21/U0TXD*%
%TO.N,unconnected-(U3-GPIO21{slash}U0TXD-Pad21)*%
X46270000Y-15540000D03*
%TO.P,U3,22,GPIO20/U0RXD*%
%TO.N,unconnected-(U3-GPIO20{slash}U0RXD-Pad22)*%
X43730000Y-15540000D03*
%TO.P,U3,23,GND*%
%TO.N,GND*%
X41190000Y-15540000D03*
%TO.P,U3,24,GPIO10*%
%TO.N,unconnected-(U3-GPIO10-Pad24)*%
X38650000Y-15540000D03*
%TO.P,U3,25,GND*%
%TO.N,GND*%
X36110000Y-15540000D03*
%TO.P,U3,26,GPIO3*%
%TO.N,Net-(U3-GPIO3)*%
X33570000Y-15540000D03*
%TO.P,U3,27,GPIO2*%
%TO.N,Net-(U3-GPIO2)*%
X31030000Y-15540000D03*
%TO.P,U3,28,GPIO1*%
%TO.N,unconnected-(U3-GPIO1-Pad28)*%
X28490000Y-15540000D03*
%TO.P,U3,29,GPIO0*%
%TO.N,unconnected-(U3-GPIO0-Pad29)*%
X25950000Y-15540000D03*
%TO.P,U3,30,GND*%
%TO.N,GND*%
X23410000Y-15540000D03*
%TD*%
D19*
%TO.P,CN2,*%
%TO.N,*%
X52350000Y-77200000D03*
D20*
%TO.P,CN2,1,1*%
%TO.N,+5_HP*%
X47350000Y-70700000D03*
D21*
%TO.P,CN2,2,2*%
%TO.N,Net-(CN2-Pad2)*%
X49850000Y-70700000D03*
%TO.P,CN2,3,3*%
%TO.N,Net-(CN2-Pad3)*%
X52350000Y-70700000D03*
%TO.P,CN2,4,4*%
%TO.N,unconnected-(CN2-Pad4)*%
X54850000Y-70700000D03*
%TO.P,CN2,5,5*%
%TO.N,GNDD*%
X57350000Y-70700000D03*
%TD*%
D22*
%TO.P,R12,1*%
%TO.N,5V*%
X50150000Y-41587500D03*
%TO.P,R12,2*%
%TO.N,+5V*%
X50150000Y-43412500D03*
%TD*%
%TO.P,R3,1*%
%TO.N,Net-(CN2-Pad3)*%
X46175000Y-64587500D03*
%TO.P,R3,2*%
%TO.N,Net-(U1-INB)*%
X46175000Y-66412500D03*
%TD*%
D13*
%TO.P,D4,1,1*%
%TO.N,Net-(CN2-Pad2)*%
X50050000Y-69000000D03*
%TO.P,D4,2,2*%
%TO.N,Net-(CN2-Pad3)*%
X52050000Y-69000000D03*
%TO.P,D4,3,3*%
%TO.N,GNDD*%
X51050000Y-66800000D03*
%TD*%
D23*
%TO.P,C1,1*%
%TO.N,+5_HP*%
X34650000Y-60450000D03*
%TO.P,C1,2*%
%TO.N,GNDD*%
X34650000Y-62350000D03*
%TD*%
D24*
%TO.P,R4,1*%
%TO.N,Net-(CN2-Pad2)*%
X48275000Y-66412500D03*
%TO.P,R4,2*%
%TO.N,Net-(U1-OUTF)*%
X48275000Y-64587500D03*
%TD*%
D25*
%TO.P,J2,1,Pin_1*%
%TO.N,GND*%
X43640000Y-46150000D03*
D26*
%TO.P,J2,2,Pin_2*%
%TO.N,ESP_TX*%
X41100000Y-46150000D03*
%TO.P,J2,3,Pin_3*%
%TO.N,ESP_RX*%
X38560000Y-46150000D03*
%TD*%
D25*
%TO.P,J1,1,Pin_1*%
%TO.N,+5_HP*%
X18550000Y-70380000D03*
D26*
%TO.P,J1,2,Pin_2*%
%TO.N,GNDD*%
X18550000Y-72920000D03*
%TO.P,J1,3,Pin_3*%
%TO.N,/TX (HP >)*%
X18550000Y-75460000D03*
%TO.P,J1,4,Pin_4*%
%TO.N,/RX (HP <)*%
X18550000Y-78000000D03*
%TD*%
D24*
%TO.P,R8,1*%
%TO.N,ESP_TX*%
X41250000Y-42912500D03*
%TO.P,R8,2*%
%TO.N,Net-(U3-GPIO6)*%
X41250000Y-41087500D03*
%TD*%
%TO.P,R6,1*%
%TO.N,ESP_PROXY_TX*%
X35750000Y-25400000D03*
%TO.P,R6,2*%
%TO.N,Net-(U3-GPIO2)*%
X35750000Y-23575000D03*
%TD*%
D20*
%TO.P,U2,1,VIN*%
%TO.N,VCC_IN*%
X53550000Y-62300000D03*
D21*
%TO.P,U2,2,GND*%
%TO.N,GNDD*%
X53550000Y-59760000D03*
%TO.P,U2,4,0V*%
%TO.N,GND*%
X53550000Y-54680000D03*
%TO.P,U2,6,+VO*%
%TO.N,Net-(U2-+VO)*%
X53550000Y-49600000D03*
%TD*%
D25*
%TO.P,J3,1,Pin_1*%
%TO.N,GNDD*%
X61550000Y-60060000D03*
D26*
%TO.P,J3,2,Pin_2*%
%TO.N,VCC_IN*%
X61550000Y-62600000D03*
%TD*%
D27*
%TO.P,C3,1*%
%TO.N,+3V3*%
X34650000Y-53200000D03*
%TO.P,C3,2*%
%TO.N,GND*%
X34650000Y-51300000D03*
%TD*%
D22*
%TO.P,R9,1*%
%TO.N,ESP_RX*%
X43150000Y-41087500D03*
%TO.P,R9,2*%
%TO.N,Net-(U3-GPIO7)*%
X43150000Y-42912500D03*
%TD*%
%TO.P,R7,1*%
%TO.N,ESP_PROXY_RX*%
X33550000Y-23587500D03*
%TO.P,R7,2*%
%TO.N,Net-(U3-GPIO3)*%
X33550000Y-25412500D03*
%TD*%
D28*
%TO.P,D2,1,K*%
%TO.N,5V*%
X57250000Y-42400000D03*
%TO.P,D2,2,A*%
%TO.N,+5V*%
X53250000Y-42400000D03*
%TD*%
D29*
%TO.P,C2,1,1*%
%TO.N,GND*%
X48850000Y-53000000D03*
%TO.P,C2,2,2*%
%TO.N,Net-(U2-+VO)*%
X50850000Y-53000000D03*
%TD*%
D19*
%TO.P,CN1,*%
%TO.N,*%
X33550000Y-77100000D03*
D20*
%TO.P,CN1,1,1*%
%TO.N,+5_HP*%
X28550000Y-70600000D03*
D21*
%TO.P,CN1,2,2*%
%TO.N,Net-(CN1-Pad2)*%
X31050000Y-70600000D03*
%TO.P,CN1,3,3*%
%TO.N,Net-(CN1-Pad3)*%
X33550000Y-70600000D03*
%TO.P,CN1,4,4*%
%TO.N,+12_HP*%
X36050000Y-70600000D03*
%TO.P,CN1,5,5*%
%TO.N,GNDD*%
X38550000Y-70600000D03*
%TD*%
D30*
%TO.P,D1,1,K*%
%TO.N,GND*%
X46650000Y-48137500D03*
%TO.P,D1,2,A*%
%TO.N,Net-(D1-A)*%
X46650000Y-46262500D03*
%TD*%
D31*
%TO.N,GNDD*%
X33850000Y-66100000D03*
X57250000Y-59800000D03*
X51050000Y-66000000D03*
X33250000Y-62400000D03*
X46450000Y-61800000D03*
X59650000Y-59200000D03*
X20250000Y-74100000D03*
X55850000Y-59800000D03*
%TO.N,+5_HP*%
X44900000Y-65850000D03*
X36650000Y-63400000D03*
%TO.N,GND*%
X43250000Y-48500000D03*
X47150000Y-53100000D03*
X52050000Y-45800000D03*
X36050000Y-50600000D03*
X46650000Y-49300000D03*
X45650000Y-50900000D03*
%TO.N,ESP_RX*%
X42650000Y-40200000D03*
X37975000Y-50775000D03*
D32*
%TO.N,/RX (HP <)*%
X30750000Y-67800000D03*
D31*
X40550000Y-63700000D03*
%TD*%
D33*
%TO.N,+5V*%
X50550000Y-47800000D02*
X52350000Y-47800000D01*
X52350000Y-47800000D02*
X53250000Y-46900000D01*
X53250000Y-46900000D02*
X53250000Y-42400000D01*
%TO.N,VCC_IN*%
X39750000Y-65600000D02*
X42025000Y-65600000D01*
X42025000Y-65600000D02*
X42250000Y-65825000D01*
X42250000Y-72300000D02*
X42850000Y-72900000D01*
X42250000Y-65825000D02*
X42250000Y-72300000D01*
X42850000Y-72900000D02*
X58150000Y-72900000D01*
X58150000Y-72900000D02*
X61550000Y-69500000D01*
X61550000Y-69500000D02*
X61550000Y-62600000D01*
%TO.N,+12_HP*%
X37925000Y-65600000D02*
X36050000Y-67475000D01*
X36050000Y-67475000D02*
X36050000Y-70600000D01*
%TO.N,+5V*%
X49250000Y-48000000D02*
X48575000Y-48000000D01*
X48575000Y-48000000D02*
X48550000Y-47975000D01*
X50550000Y-47800000D02*
X49450000Y-47800000D01*
%TO.N,Net-(U2-+VO)*%
X50850000Y-53000000D02*
X51150000Y-52700000D01*
X51150000Y-52700000D02*
X51150000Y-50400000D01*
%TO.N,+5_HP*%
X34650000Y-60450000D02*
X36300000Y-60450000D01*
X36300000Y-60450000D02*
X36705000Y-60855000D01*
X36705000Y-60855000D02*
X36705000Y-61850000D01*
D34*
%TO.N,Net-(CN2-Pad2)*%
X49850000Y-70700000D02*
X50050000Y-70500000D01*
X50050000Y-70500000D02*
X50050000Y-69000000D01*
X48275000Y-66412500D02*
X48275000Y-67925000D01*
X48275000Y-67925000D02*
X49350000Y-69000000D01*
X49350000Y-69000000D02*
X50050000Y-69000000D01*
%TO.N,Net-(CN2-Pad3)*%
X52050000Y-69000000D02*
X51650000Y-69000000D01*
X47450000Y-65500000D02*
X46450000Y-64500000D01*
X51650000Y-69000000D02*
X49550000Y-66900000D01*
X49550000Y-65900000D02*
X49150000Y-65500000D01*
X49550000Y-66900000D02*
X49550000Y-65900000D01*
X49150000Y-65500000D02*
X47450000Y-65500000D01*
%TO.N,/RX (HP <)*%
X30750000Y-67800000D02*
X28450000Y-67800000D01*
X28450000Y-67800000D02*
X28150000Y-67500000D01*
%TO.N,Net-(CN1-Pad2)*%
X28150000Y-63800000D02*
X28975000Y-64625000D01*
X30072182Y-67200000D02*
X30322182Y-66950000D01*
X28975000Y-64625000D02*
X28975000Y-66900000D01*
X28975000Y-66900000D02*
X29275000Y-67200000D01*
X29275000Y-67200000D02*
X30072182Y-67200000D01*
X30322182Y-66950000D02*
X31100000Y-66950000D01*
X31100000Y-66950000D02*
X31950000Y-67800000D01*
X31950000Y-67800000D02*
X31950000Y-68600000D01*
%TO.N,Net-(CN1-Pad3)*%
X29975000Y-65925000D02*
X31090000Y-65925000D01*
X31090000Y-65925000D02*
X33765000Y-68600000D01*
X33765000Y-68600000D02*
X33950000Y-68600000D01*
%TO.N,GNDD*%
X45595000Y-61850000D02*
X46400000Y-61850000D01*
X60690000Y-59200000D02*
X59650000Y-59200000D01*
X33550000Y-66400000D02*
X32950000Y-66400000D01*
X51050000Y-66800000D02*
X51050000Y-66000000D01*
X33300000Y-62350000D02*
X33250000Y-62400000D01*
X55810000Y-59760000D02*
X55850000Y-59800000D01*
D33*
X50750000Y-60300000D02*
X52505000Y-60300000D01*
D34*
X46400000Y-61850000D02*
X46450000Y-61800000D01*
X19730000Y-74100000D02*
X20250000Y-74100000D01*
X61550000Y-60060000D02*
X60690000Y-59200000D01*
X18550000Y-72920000D02*
X19730000Y-74100000D01*
D33*
X52505000Y-60300000D02*
X53025000Y-59780000D01*
D34*
X34650000Y-62350000D02*
X33300000Y-62350000D01*
D33*
X50750000Y-60700000D02*
X50750000Y-60300000D01*
D34*
X33850000Y-66100000D02*
X33550000Y-66400000D01*
X53550000Y-59760000D02*
X55810000Y-59760000D01*
D33*
%TO.N,+5_HP*%
X44650000Y-65600000D02*
X44900000Y-65850000D01*
X36705000Y-61850000D02*
X36705000Y-63345000D01*
X36650000Y-63400000D02*
X36650000Y-61795000D01*
X36705000Y-63345000D02*
X36650000Y-63400000D01*
X43850000Y-65600000D02*
X44650000Y-65600000D01*
%TO.N,+3V3*%
X33650000Y-53200000D02*
X34650000Y-53200000D01*
X32050000Y-48800000D02*
X32050000Y-51600000D01*
X25950000Y-38400000D02*
X28490000Y-38400000D01*
X32050000Y-51600000D02*
X33650000Y-53200000D01*
X28490000Y-45240000D02*
X32050000Y-48800000D01*
X28490000Y-38400000D02*
X28490000Y-45240000D01*
D34*
%TO.N,GND*%
X43640000Y-48090000D02*
X43640000Y-46150000D01*
X43250000Y-48500000D02*
X43650000Y-48100000D01*
X46650000Y-48137500D02*
X46650000Y-49300000D01*
X34650000Y-50600000D02*
X36050000Y-50600000D01*
X43650000Y-48100000D02*
X43640000Y-48090000D01*
X45595000Y-50955000D02*
X45650000Y-50900000D01*
X47150000Y-53100000D02*
X48750000Y-53100000D01*
X45595000Y-52550000D02*
X45595000Y-50955000D01*
X50550000Y-45800000D02*
X52050000Y-45800000D01*
X48750000Y-53100000D02*
X48850000Y-53000000D01*
D33*
%TO.N,+5V*%
X50150000Y-43412500D02*
X52237500Y-43412500D01*
X52237500Y-43412500D02*
X53250000Y-42400000D01*
X49250000Y-50400000D02*
X49250000Y-48000000D01*
X49250000Y-48000000D02*
X49450000Y-47800000D01*
%TO.N,5V*%
X50662500Y-41587500D02*
X50150000Y-41587500D01*
X56430000Y-41580000D02*
X57250000Y-42400000D01*
X53850000Y-38400000D02*
X50662500Y-41587500D01*
X56430000Y-38400000D02*
X56430000Y-41580000D01*
X56430000Y-38400000D02*
X53890000Y-38400000D01*
X53890000Y-38400000D02*
X53850000Y-38400000D01*
D34*
%TO.N,ESP_TX*%
X43055000Y-51525001D02*
X41100000Y-49570001D01*
X41250000Y-42912500D02*
X41250000Y-46000000D01*
X43055000Y-52550000D02*
X43055000Y-51525001D01*
X41100000Y-49570001D02*
X41100000Y-46150000D01*
X41250000Y-46000000D02*
X41100000Y-46150000D01*
%TO.N,ESP_RX*%
X42650000Y-40200000D02*
X42650000Y-40587500D01*
X42650000Y-40587500D02*
X43150000Y-41087500D01*
X37975000Y-52550000D02*
X37975000Y-50775000D01*
X38050000Y-50700000D02*
X37975000Y-50775000D01*
X43730000Y-41067500D02*
X43750000Y-41087500D01*
%TO.N,ESP_PROXY_TX*%
X35750000Y-25400000D02*
X36450000Y-25400000D01*
X44325000Y-50725000D02*
X44325000Y-52550000D01*
X44850000Y-33800000D02*
X44850000Y-50200000D01*
X36450000Y-25400000D02*
X44850000Y-33800000D01*
X44850000Y-50200000D02*
X44325000Y-50725000D01*
%TO.N,ESP_PROXY_RX*%
X39245000Y-52550000D02*
X39245000Y-49895000D01*
X34850000Y-29100000D02*
X34950000Y-29000000D01*
X32350000Y-26400000D02*
X32350000Y-24100000D01*
X35950000Y-41800000D02*
X34850000Y-40700000D01*
X39245000Y-49895000D02*
X35950000Y-46600000D01*
X32350000Y-24100000D02*
X32850000Y-23600000D01*
X35950000Y-46600000D02*
X35950000Y-41800000D01*
X34950000Y-29000000D02*
X32350000Y-26400000D01*
X32850000Y-23600000D02*
X33750000Y-23600000D01*
X34850000Y-40700000D02*
X34850000Y-29100000D01*
X33750000Y-23600000D02*
X33750000Y-23900000D01*
X33570000Y-23420000D02*
X33750000Y-23600000D01*
D33*
%TO.N,Net-(D1-A)*%
X46712500Y-46200000D02*
X46650000Y-46262500D01*
X48775000Y-46400000D02*
X48575000Y-46200000D01*
X48575000Y-46200000D02*
X46712500Y-46200000D01*
D34*
%TO.N,Net-(U3-GPIO2)*%
X31030000Y-15540000D02*
X31030000Y-17880000D01*
X31030000Y-17880000D02*
X35750000Y-22600000D01*
X35750000Y-22600000D02*
X35750000Y-23575000D01*
%TO.N,Net-(U3-GPIO3)*%
X34675000Y-24500000D02*
X36750000Y-24500000D01*
X33750000Y-25425000D02*
X34675000Y-24500000D01*
X37250000Y-24000000D02*
X37250000Y-21400000D01*
X36750000Y-24500000D02*
X37250000Y-24000000D01*
X37250000Y-21400000D02*
X33570000Y-17720000D01*
X33570000Y-17720000D02*
X33570000Y-15540000D01*
%TO.N,Net-(U3-GPIO6)*%
X41250000Y-41087500D02*
X41250000Y-38460000D01*
X41250000Y-38460000D02*
X41190000Y-38400000D01*
%TO.N,Net-(U3-GPIO7)*%
X44250000Y-42700000D02*
X44037500Y-42912500D01*
X43750000Y-42912500D02*
X43750000Y-43100000D01*
X43730000Y-38400000D02*
X43730000Y-39720000D01*
X44250000Y-40240000D02*
X44250000Y-42700000D01*
X43730000Y-39720000D02*
X44250000Y-40240000D01*
X44037500Y-42912500D02*
X43150000Y-42912500D01*
%TO.N,Net-(U1-OUTF)*%
X44325000Y-61850000D02*
X44325000Y-63300000D01*
X48275000Y-64587500D02*
X46987500Y-63300000D01*
X46987500Y-63300000D02*
X44325000Y-63300000D01*
%TO.N,Net-(U1-INB)*%
X39250000Y-64100000D02*
X39250000Y-63900000D01*
X39250000Y-64200000D02*
X39450000Y-64400000D01*
X39250000Y-63900000D02*
X39250000Y-64200000D01*
X39245000Y-63895000D02*
X39245000Y-61850000D01*
X44298529Y-64400000D02*
X46175000Y-66276471D01*
X39450000Y-64400000D02*
X44298529Y-64400000D01*
X39250000Y-63900000D02*
X39245000Y-63895000D01*
X46175000Y-66276471D02*
X46175000Y-66412500D01*
%TO.N,Net-(CN1-Pad3)*%
X33950000Y-68600000D02*
X33950000Y-70200000D01*
X33950000Y-70200000D02*
X33550000Y-70600000D01*
%TO.N,Net-(CN1-Pad2)*%
X31950000Y-69700000D02*
X31050000Y-70600000D01*
X31950000Y-68600000D02*
X31950000Y-69700000D01*
%TO.N,Net-(CN2-Pad2)*%
X50025000Y-70525000D02*
X49850000Y-70700000D01*
%TO.N,Net-(CN2-Pad3)*%
X52050000Y-69000000D02*
X52050000Y-70400000D01*
X52050000Y-70400000D02*
X52350000Y-70700000D01*
D33*
%TO.N,VCC_IN*%
X52805000Y-62100000D02*
X53025000Y-62320000D01*
X50750000Y-62100000D02*
X52805000Y-62100000D01*
D34*
%TO.N,/TX (HP >)*%
X20250000Y-62800000D02*
X28975000Y-62800000D01*
X28975000Y-62800000D02*
X29975000Y-63800000D01*
X35650000Y-64100000D02*
X36798529Y-64100000D01*
X29975000Y-63625000D02*
X29975000Y-63800000D01*
X16550000Y-66500000D02*
X20250000Y-62800000D01*
X16550000Y-74300000D02*
X16550000Y-66500000D01*
X29975000Y-63800000D02*
X35350000Y-63800000D01*
X37850000Y-63048529D02*
X37850000Y-62800000D01*
X35350000Y-63800000D02*
X35650000Y-64100000D01*
X36874264Y-64024264D02*
X37850000Y-63048529D01*
X36798529Y-64100000D02*
X36874264Y-64024265D01*
X18550000Y-75460000D02*
X17710000Y-75460000D01*
X17710000Y-75460000D02*
X16550000Y-74300000D01*
X36874264Y-64024265D02*
X36874264Y-64024264D01*
%TO.N,/RX (HP <)*%
X20950000Y-68700000D02*
X20950000Y-75600000D01*
X28150000Y-65925000D02*
X28150000Y-67500000D01*
X22150000Y-67500000D02*
X20950000Y-68700000D01*
X40550000Y-63700000D02*
X42229999Y-63700000D01*
X20950000Y-75600000D02*
X18550000Y-78000000D01*
X28150000Y-67500000D02*
X22150000Y-67500000D01*
X42229999Y-63700000D02*
X43055000Y-62874999D01*
X43055000Y-62874999D02*
X43055000Y-61850000D01*
D33*
%TO.N,Net-(U2-+VO)*%
X52750000Y-50400000D02*
X53550000Y-49600000D01*
X53250000Y-49395000D02*
X53025000Y-49620000D01*
X51150000Y-50400000D02*
X52750000Y-50400000D01*
%TO.N,+3V3*%
X34650000Y-53200000D02*
X34750000Y-53100000D01*
X34750000Y-53100000D02*
X36155000Y-53100000D01*
X36155000Y-53100000D02*
X36705000Y-52550000D01*
%TD*%
%TA.AperFunction,Conductor*%
%TO.N,GND*%
G36*
X35670239Y-13920185D02*
G01*
X35715994Y-13972989D01*
X35725938Y-14042147D01*
X35696913Y-14105703D01*
X35659495Y-14134985D01*
X35533475Y-14199195D01*
X35393397Y-14300967D01*
X35270967Y-14423397D01*
X35169195Y-14563475D01*
X35090591Y-14717742D01*
X35037085Y-14882415D01*
X35010000Y-15053428D01*
X35010000Y-15290000D01*
X35794314Y-15290000D01*
X35789920Y-15294394D01*
X35737259Y-15385606D01*
X35710000Y-15487339D01*
X35710000Y-15592661D01*
X35737259Y-15694394D01*
X35789920Y-15785606D01*
X35794314Y-15790000D01*
X35010000Y-15790000D01*
X35010000Y-16026571D01*
X35037085Y-16197584D01*
X35090591Y-16362257D01*
X35169195Y-16516524D01*
X35270967Y-16656602D01*
X35393397Y-16779032D01*
X35533475Y-16880804D01*
X35687744Y-16959408D01*
X35852415Y-17012914D01*
X35852414Y-17012914D01*
X35859999Y-17014115D01*
X35860000Y-17014114D01*
X35860000Y-15855686D01*
X35864394Y-15860080D01*
X35955606Y-15912741D01*
X36057339Y-15940000D01*
X36162661Y-15940000D01*
X36264394Y-15912741D01*
X36355606Y-15860080D01*
X36360000Y-15855686D01*
X36360000Y-17014115D01*
X36367584Y-17012914D01*
X36532255Y-16959408D01*
X36686524Y-16880804D01*
X36826602Y-16779032D01*
X36949032Y-16656602D01*
X37050804Y-16516524D01*
X37129408Y-16362257D01*
X37182914Y-16197584D01*
X37210000Y-16026571D01*
X37210000Y-15790000D01*
X36425686Y-15790000D01*
X36430080Y-15785606D01*
X36482741Y-15694394D01*
X36510000Y-15592661D01*
X36510000Y-15487339D01*
X36482741Y-15385606D01*
X36430080Y-15294394D01*
X36425686Y-15290000D01*
X37210000Y-15290000D01*
X37210000Y-15053428D01*
X37182914Y-14882415D01*
X37129408Y-14717742D01*
X37050804Y-14563475D01*
X36949032Y-14423397D01*
X36826602Y-14300967D01*
X36686524Y-14199195D01*
X36560505Y-14134985D01*
X36509709Y-14087010D01*
X36492914Y-14019189D01*
X36515452Y-13953054D01*
X36570167Y-13909603D01*
X36616800Y-13900500D01*
X38142099Y-13900500D01*
X38209138Y-13920185D01*
X38254893Y-13972989D01*
X38264837Y-14042147D01*
X38235812Y-14105703D01*
X38198394Y-14134985D01*
X38073211Y-14198768D01*
X38009575Y-14245003D01*
X37933072Y-14300586D01*
X37933070Y-14300588D01*
X37933069Y-14300588D01*
X37810588Y-14423069D01*
X37810588Y-14423070D01*
X37810586Y-14423072D01*
X37766859Y-14483256D01*
X37708768Y-14563211D01*
X37630128Y-14717552D01*
X37576597Y-14882302D01*
X37566121Y-14948449D01*
X37549500Y-15053389D01*
X37549500Y-16026611D01*
X37576598Y-16197701D01*
X37630127Y-16362445D01*
X37708768Y-16516788D01*
X37810586Y-16656928D01*
X37933072Y-16779414D01*
X38073212Y-16881232D01*
X38227555Y-16959873D01*
X38392299Y-17013402D01*
X38563389Y-17040500D01*
X38563390Y-17040500D01*
X38736610Y-17040500D01*
X38736611Y-17040500D01*
X38907701Y-17013402D01*
X39072445Y-16959873D01*
X39226788Y-16881232D01*
X39366928Y-16779414D01*
X39489414Y-16656928D01*
X39591232Y-16516788D01*
X39669873Y-16362445D01*
X39723402Y-16197701D01*
X39750500Y-16026611D01*
X39750500Y-15053389D01*
X39723402Y-14882299D01*
X39669873Y-14717555D01*
X39591232Y-14563212D01*
X39489414Y-14423072D01*
X39366928Y-14300586D01*
X39226788Y-14198768D01*
X39101606Y-14134985D01*
X39050810Y-14087011D01*
X39034015Y-14019190D01*
X39056552Y-13953055D01*
X39111267Y-13909603D01*
X39157901Y-13900500D01*
X40683200Y-13900500D01*
X40750239Y-13920185D01*
X40795994Y-13972989D01*
X40805938Y-14042147D01*
X40776913Y-14105703D01*
X40739495Y-14134985D01*
X40613475Y-14199195D01*
X40473397Y-14300967D01*
X40350967Y-14423397D01*
X40249195Y-14563475D01*
X40170591Y-14717742D01*
X40117085Y-14882415D01*
X40090000Y-15053428D01*
X40090000Y-15290000D01*
X40874314Y-15290000D01*
X40869920Y-15294394D01*
X40817259Y-15385606D01*
X40790000Y-15487339D01*
X40790000Y-15592661D01*
X40817259Y-15694394D01*
X40869920Y-15785606D01*
X40874314Y-15790000D01*
X40090000Y-15790000D01*
X40090000Y-16026571D01*
X40117085Y-16197584D01*
X40170591Y-16362257D01*
X40249195Y-16516524D01*
X40350967Y-16656602D01*
X40473397Y-16779032D01*
X40613475Y-16880804D01*
X40767744Y-16959408D01*
X40932415Y-17012914D01*
X40932414Y-17012914D01*
X40939999Y-17014115D01*
X40940000Y-17014114D01*
X40940000Y-15855686D01*
X40944394Y-15860080D01*
X41035606Y-15912741D01*
X41137339Y-15940000D01*
X41242661Y-15940000D01*
X41344394Y-15912741D01*
X41435606Y-15860080D01*
X41440000Y-15855686D01*
X41440000Y-17014115D01*
X41447584Y-17012914D01*
X41612255Y-16959408D01*
X41766524Y-16880804D01*
X41906602Y-16779032D01*
X42029032Y-16656602D01*
X42130804Y-16516524D01*
X42209408Y-16362257D01*
X42262914Y-16197584D01*
X42290000Y-16026571D01*
X42290000Y-15790000D01*
X41505686Y-15790000D01*
X41510080Y-15785606D01*
X41562741Y-15694394D01*
X41590000Y-15592661D01*
X41590000Y-15487339D01*
X41562741Y-15385606D01*
X41510080Y-15294394D01*
X41505686Y-15290000D01*
X42290000Y-15290000D01*
X42290000Y-15053428D01*
X42262914Y-14882415D01*
X42209408Y-14717742D01*
X42130804Y-14563475D01*
X42029032Y-14423397D01*
X41906602Y-14300967D01*
X41766524Y-14199195D01*
X41640505Y-14134985D01*
X41589709Y-14087010D01*
X41572914Y-14019189D01*
X41595452Y-13953054D01*
X41650167Y-13909603D01*
X41696800Y-13900500D01*
X43222099Y-13900500D01*
X43289138Y-13920185D01*
X43334893Y-13972989D01*
X43344837Y-14042147D01*
X43315812Y-14105703D01*
X43278394Y-14134985D01*
X43153211Y-14198768D01*
X43089575Y-14245003D01*
X43013072Y-14300586D01*
X43013070Y-14300588D01*
X43013069Y-14300588D01*
X42890588Y-14423069D01*
X42890588Y-14423070D01*
X42890586Y-14423072D01*
X42846859Y-14483256D01*
X42788768Y-14563211D01*
X42710128Y-14717552D01*
X42656597Y-14882302D01*
X42646121Y-14948449D01*
X42629500Y-15053389D01*
X42629500Y-16026611D01*
X42656598Y-16197701D01*
X42710127Y-16362445D01*
X42788768Y-16516788D01*
X42890586Y-16656928D01*
X43013072Y-16779414D01*
X43153212Y-16881232D01*
X43307555Y-16959873D01*
X43472299Y-17013402D01*
X43643389Y-17040500D01*
X43643390Y-17040500D01*
X43816610Y-17040500D01*
X43816611Y-17040500D01*
X43987701Y-17013402D01*
X44152445Y-16959873D01*
X44306788Y-16881232D01*
X44446928Y-16779414D01*
X44569414Y-16656928D01*
X44671232Y-16516788D01*
X44749873Y-16362445D01*
X44803402Y-16197701D01*
X44830500Y-16026611D01*
X44830500Y-15053389D01*
X44803402Y-14882299D01*
X44749873Y-14717555D01*
X44671232Y-14563212D01*
X44569414Y-14423072D01*
X44446928Y-14300586D01*
X44306788Y-14198768D01*
X44181606Y-14134985D01*
X44130810Y-14087011D01*
X44114015Y-14019190D01*
X44136552Y-13953055D01*
X44191267Y-13909603D01*
X44237901Y-13900500D01*
X45762099Y-13900500D01*
X45829138Y-13920185D01*
X45874893Y-13972989D01*
X45884837Y-14042147D01*
X45855812Y-14105703D01*
X45818394Y-14134985D01*
X45693211Y-14198768D01*
X45629575Y-14245003D01*
X45553072Y-14300586D01*
X45553070Y-14300588D01*
X45553069Y-14300588D01*
X45430588Y-14423069D01*
X45430588Y-14423070D01*
X45430586Y-14423072D01*
X45386859Y-14483256D01*
X45328768Y-14563211D01*
X45250128Y-14717552D01*
X45196597Y-14882302D01*
X45186121Y-14948449D01*
X45169500Y-15053389D01*
X45169500Y-16026611D01*
X45196598Y-16197701D01*
X45250127Y-16362445D01*
X45328768Y-16516788D01*
X45430586Y-16656928D01*
X45553072Y-16779414D01*
X45693212Y-16881232D01*
X45847555Y-16959873D01*
X46012299Y-17013402D01*
X46183389Y-17040500D01*
X46183390Y-17040500D01*
X46356610Y-17040500D01*
X46356611Y-17040500D01*
X46527701Y-17013402D01*
X46692445Y-16959873D01*
X46846788Y-16881232D01*
X46986928Y-16779414D01*
X47109414Y-16656928D01*
X47211232Y-16516788D01*
X47289873Y-16362445D01*
X47343402Y-16197701D01*
X47370500Y-16026611D01*
X47370500Y-15053389D01*
X47343402Y-14882299D01*
X47289873Y-14717555D01*
X47211232Y-14563212D01*
X47109414Y-14423072D01*
X46986928Y-14300586D01*
X46846788Y-14198768D01*
X46721606Y-14134985D01*
X46670810Y-14087011D01*
X46654015Y-14019190D01*
X46676552Y-13953055D01*
X46731267Y-13909603D01*
X46777901Y-13900500D01*
X48303200Y-13900500D01*
X48370239Y-13920185D01*
X48415994Y-13972989D01*
X48425938Y-14042147D01*
X48396913Y-14105703D01*
X48359495Y-14134985D01*
X48233475Y-14199195D01*
X48093397Y-14300967D01*
X47970967Y-14423397D01*
X47869195Y-14563475D01*
X47790591Y-14717742D01*
X47737085Y-14882415D01*
X47710000Y-15053428D01*
X47710000Y-15290000D01*
X48494314Y-15290000D01*
X48489920Y-15294394D01*
X48437259Y-15385606D01*
X48410000Y-15487339D01*
X48410000Y-15592661D01*
X48437259Y-15694394D01*
X48489920Y-15785606D01*
X48494314Y-15790000D01*
X47710000Y-15790000D01*
X47710000Y-16026571D01*
X47737085Y-16197584D01*
X47790591Y-16362257D01*
X47869195Y-16516524D01*
X47970967Y-16656602D01*
X48093397Y-16779032D01*
X48233475Y-16880804D01*
X48387744Y-16959408D01*
X48552415Y-17012914D01*
X48552414Y-17012914D01*
X48559999Y-17014115D01*
X48560000Y-17014114D01*
X48560000Y-15855686D01*
X48564394Y-15860080D01*
X48655606Y-15912741D01*
X48757339Y-15940000D01*
X48862661Y-15940000D01*
X48964394Y-15912741D01*
X49055606Y-15860080D01*
X49060000Y-15855686D01*
X49060000Y-17014115D01*
X49067584Y-17012914D01*
X49232255Y-16959408D01*
X49386524Y-16880804D01*
X49526602Y-16779032D01*
X49649032Y-16656602D01*
X49750804Y-16516524D01*
X49829408Y-16362257D01*
X49882914Y-16197584D01*
X49910000Y-16026571D01*
X49910000Y-15790000D01*
X49125686Y-15790000D01*
X49130080Y-15785606D01*
X49182741Y-15694394D01*
X49210000Y-15592661D01*
X49210000Y-15487339D01*
X49182741Y-15385606D01*
X49130080Y-15294394D01*
X49125686Y-15290000D01*
X49910000Y-15290000D01*
X49910000Y-15053428D01*
X49882914Y-14882415D01*
X49829408Y-14717742D01*
X49750804Y-14563475D01*
X49649032Y-14423397D01*
X49526602Y-14300967D01*
X49386524Y-14199195D01*
X49260505Y-14134985D01*
X49209709Y-14087010D01*
X49192914Y-14019189D01*
X49215452Y-13953054D01*
X49270167Y-13909603D01*
X49316800Y-13900500D01*
X50842099Y-13900500D01*
X50909138Y-13920185D01*
X50954893Y-13972989D01*
X50964837Y-14042147D01*
X50935812Y-14105703D01*
X50898394Y-14134985D01*
X50773211Y-14198768D01*
X50709575Y-14245003D01*
X50633072Y-14300586D01*
X50633070Y-14300588D01*
X50633069Y-14300588D01*
X50510588Y-14423069D01*
X50510588Y-14423070D01*
X50510586Y-14423072D01*
X50466859Y-14483256D01*
X50408768Y-14563211D01*
X50330128Y-14717552D01*
X50276597Y-14882302D01*
X50266121Y-14948449D01*
X50249500Y-15053389D01*
X50249500Y-16026611D01*
X50276598Y-16197701D01*
X50330127Y-16362445D01*
X50408768Y-16516788D01*
X50510586Y-16656928D01*
X50633072Y-16779414D01*
X50773212Y-16881232D01*
X50927555Y-16959873D01*
X51092299Y-17013402D01*
X51263389Y-17040500D01*
X51263390Y-17040500D01*
X51436610Y-17040500D01*
X51436611Y-17040500D01*
X51607701Y-17013402D01*
X51772445Y-16959873D01*
X51926788Y-16881232D01*
X52066928Y-16779414D01*
X52189414Y-16656928D01*
X52291232Y-16516788D01*
X52369873Y-16362445D01*
X52423402Y-16197701D01*
X52450500Y-16026611D01*
X52450500Y-15053389D01*
X52423402Y-14882299D01*
X52369873Y-14717555D01*
X52291232Y-14563212D01*
X52189414Y-14423072D01*
X52066928Y-14300586D01*
X51926788Y-14198768D01*
X51801606Y-14134985D01*
X51750810Y-14087011D01*
X51734015Y-14019190D01*
X51756552Y-13953055D01*
X51811267Y-13909603D01*
X51857901Y-13900500D01*
X53382099Y-13900500D01*
X53449138Y-13920185D01*
X53494893Y-13972989D01*
X53504837Y-14042147D01*
X53475812Y-14105703D01*
X53438394Y-14134985D01*
X53313211Y-14198768D01*
X53249575Y-14245003D01*
X53173072Y-14300586D01*
X53173070Y-14300588D01*
X53173069Y-14300588D01*
X53050588Y-14423069D01*
X53050588Y-14423070D01*
X53050586Y-14423072D01*
X53006859Y-14483256D01*
X52948768Y-14563211D01*
X52870128Y-14717552D01*
X52816597Y-14882302D01*
X52806121Y-14948449D01*
X52789500Y-15053389D01*
X52789500Y-16026611D01*
X52816598Y-16197701D01*
X52870127Y-16362445D01*
X52948768Y-16516788D01*
X53050586Y-16656928D01*
X53173072Y-16779414D01*
X53313212Y-16881232D01*
X53467555Y-16959873D01*
X53632299Y-17013402D01*
X53803389Y-17040500D01*
X53803390Y-17040500D01*
X53976610Y-17040500D01*
X53976611Y-17040500D01*
X54147701Y-17013402D01*
X54312445Y-16959873D01*
X54466788Y-16881232D01*
X54606928Y-16779414D01*
X54729414Y-16656928D01*
X54831232Y-16516788D01*
X54909873Y-16362445D01*
X54963402Y-16197701D01*
X54990500Y-16026611D01*
X54990500Y-15053389D01*
X54963402Y-14882299D01*
X54909873Y-14717555D01*
X54831232Y-14563212D01*
X54729414Y-14423072D01*
X54606928Y-14300586D01*
X54466788Y-14198768D01*
X54341606Y-14134985D01*
X54290810Y-14087011D01*
X54274015Y-14019190D01*
X54296552Y-13953055D01*
X54351267Y-13909603D01*
X54397901Y-13900500D01*
X55923200Y-13900500D01*
X55990239Y-13920185D01*
X56035994Y-13972989D01*
X56045938Y-14042147D01*
X56016913Y-14105703D01*
X55979495Y-14134985D01*
X55853475Y-14199195D01*
X55713397Y-14300967D01*
X55590967Y-14423397D01*
X55489195Y-14563475D01*
X55410591Y-14717742D01*
X55357085Y-14882415D01*
X55330000Y-15053428D01*
X55330000Y-15290000D01*
X56114314Y-15290000D01*
X56109920Y-15294394D01*
X56057259Y-15385606D01*
X56030000Y-15487339D01*
X56030000Y-15592661D01*
X56057259Y-15694394D01*
X56109920Y-15785606D01*
X56114314Y-15790000D01*
X55330000Y-15790000D01*
X55330000Y-16026571D01*
X55357085Y-16197584D01*
X55410591Y-16362257D01*
X55489195Y-16516524D01*
X55590967Y-16656602D01*
X55713397Y-16779032D01*
X55853475Y-16880804D01*
X56007744Y-16959408D01*
X56172415Y-17012914D01*
X56172414Y-17012914D01*
X56179999Y-17014115D01*
X56180000Y-17014114D01*
X56180000Y-15855686D01*
X56184394Y-15860080D01*
X56275606Y-15912741D01*
X56377339Y-15940000D01*
X56482661Y-15940000D01*
X56584394Y-15912741D01*
X56675606Y-15860080D01*
X56680000Y-15855686D01*
X56680000Y-17014115D01*
X56687584Y-17012914D01*
X56852255Y-16959408D01*
X57006524Y-16880804D01*
X57146602Y-16779032D01*
X57269032Y-16656602D01*
X57370804Y-16516524D01*
X57449408Y-16362257D01*
X57502914Y-16197584D01*
X57530000Y-16026571D01*
X57530000Y-15790000D01*
X56745686Y-15790000D01*
X56750080Y-15785606D01*
X56802741Y-15694394D01*
X56830000Y-15592661D01*
X56830000Y-15487339D01*
X56802741Y-15385606D01*
X56750080Y-15294394D01*
X56745686Y-15290000D01*
X57530000Y-15290000D01*
X57530000Y-15053428D01*
X57502914Y-14882415D01*
X57449408Y-14717742D01*
X57370804Y-14563475D01*
X57269032Y-14423397D01*
X57146602Y-14300967D01*
X57006524Y-14199195D01*
X56880505Y-14134985D01*
X56829709Y-14087010D01*
X56812914Y-14019189D01*
X56835452Y-13953054D01*
X56890167Y-13909603D01*
X56936800Y-13900500D01*
X58463200Y-13900500D01*
X58530239Y-13920185D01*
X58575994Y-13972989D01*
X58585938Y-14042147D01*
X58556913Y-14105703D01*
X58519495Y-14134985D01*
X58393475Y-14199195D01*
X58253397Y-14300967D01*
X58130967Y-14423397D01*
X58029195Y-14563475D01*
X57950591Y-14717742D01*
X57897085Y-14882415D01*
X57870000Y-15053428D01*
X57870000Y-15290000D01*
X58654314Y-15290000D01*
X58649920Y-15294394D01*
X58597259Y-15385606D01*
X58570000Y-15487339D01*
X58570000Y-15592661D01*
X58597259Y-15694394D01*
X58649920Y-15785606D01*
X58654314Y-15790000D01*
X57870000Y-15790000D01*
X57870000Y-16026571D01*
X57897085Y-16197584D01*
X57950591Y-16362257D01*
X58029195Y-16516524D01*
X58130967Y-16656602D01*
X58253397Y-16779032D01*
X58393475Y-16880804D01*
X58547744Y-16959408D01*
X58712415Y-17012914D01*
X58712414Y-17012914D01*
X58719999Y-17014115D01*
X58720000Y-17014114D01*
X58720000Y-15855686D01*
X58724394Y-15860080D01*
X58815606Y-15912741D01*
X58917339Y-15940000D01*
X59022661Y-15940000D01*
X59124394Y-15912741D01*
X59215606Y-15860080D01*
X59220000Y-15855686D01*
X59220000Y-17014115D01*
X59227584Y-17012914D01*
X59392255Y-16959408D01*
X59546524Y-16880804D01*
X59686602Y-16779032D01*
X59809032Y-16656602D01*
X59910804Y-16516524D01*
X59989408Y-16362257D01*
X60042914Y-16197584D01*
X60070000Y-16026571D01*
X60070000Y-15790000D01*
X59285686Y-15790000D01*
X59290080Y-15785606D01*
X59342741Y-15694394D01*
X59370000Y-15592661D01*
X59370000Y-15487339D01*
X59342741Y-15385606D01*
X59290080Y-15294394D01*
X59285686Y-15290000D01*
X60070000Y-15290000D01*
X60070000Y-15053428D01*
X60042914Y-14882415D01*
X59989408Y-14717742D01*
X59910804Y-14563475D01*
X59809032Y-14423397D01*
X59686602Y-14300967D01*
X59546524Y-14199195D01*
X59420505Y-14134985D01*
X59369709Y-14087010D01*
X59352914Y-14019189D01*
X59375452Y-13953054D01*
X59430167Y-13909603D01*
X59476800Y-13900500D01*
X61284108Y-13900500D01*
X61345572Y-13900500D01*
X61354418Y-13900816D01*
X61554561Y-13915130D01*
X61572063Y-13917647D01*
X61763797Y-13959355D01*
X61780755Y-13964334D01*
X61927827Y-14019190D01*
X61964609Y-14032909D01*
X61980701Y-14040259D01*
X62152904Y-14134288D01*
X62167784Y-14143849D01*
X62314725Y-14253849D01*
X62324867Y-14261441D01*
X62338237Y-14273027D01*
X62476972Y-14411762D01*
X62488558Y-14425132D01*
X62606146Y-14582210D01*
X62615706Y-14597086D01*
X62634832Y-14632113D01*
X62650000Y-14691538D01*
X62650000Y-56076000D01*
X62630315Y-56143039D01*
X62577511Y-56188794D01*
X62526000Y-56200000D01*
X61450000Y-56200000D01*
X53841973Y-56200000D01*
X53774934Y-56180315D01*
X53729179Y-56127511D01*
X53719235Y-56058353D01*
X53748260Y-55994797D01*
X53807038Y-55957023D01*
X53809880Y-55956225D01*
X53996317Y-55906269D01*
X53996331Y-55906264D01*
X54202478Y-55810136D01*
X54275471Y-55759024D01*
X53638594Y-55122147D01*
X53723698Y-55099344D01*
X53826314Y-55040099D01*
X53910099Y-54956314D01*
X53969344Y-54853698D01*
X53992147Y-54768594D01*
X54629024Y-55405471D01*
X54680136Y-55332478D01*
X54776264Y-55126331D01*
X54776269Y-55126317D01*
X54835139Y-54906610D01*
X54835141Y-54906599D01*
X54854966Y-54680002D01*
X54854966Y-54679997D01*
X54835141Y-54453400D01*
X54835139Y-54453389D01*
X54776269Y-54233682D01*
X54776264Y-54233668D01*
X54680136Y-54027521D01*
X54680132Y-54027513D01*
X54629025Y-53954526D01*
X53992147Y-54591404D01*
X53969344Y-54506302D01*
X53910099Y-54403686D01*
X53826314Y-54319901D01*
X53723698Y-54260656D01*
X53638593Y-54237851D01*
X54275472Y-53600974D01*
X54202478Y-53549863D01*
X53996331Y-53453735D01*
X53996317Y-53453730D01*
X53776610Y-53394860D01*
X53776599Y-53394858D01*
X53550002Y-53375034D01*
X53549998Y-53375034D01*
X53323400Y-53394858D01*
X53323389Y-53394860D01*
X53103682Y-53453730D01*
X53103673Y-53453734D01*
X52897516Y-53549866D01*
X52897512Y-53549868D01*
X52824526Y-53600973D01*
X52824526Y-53600974D01*
X53461405Y-54237852D01*
X53376302Y-54260656D01*
X53273686Y-54319901D01*
X53189901Y-54403686D01*
X53130656Y-54506302D01*
X53107852Y-54591405D01*
X52470974Y-53954526D01*
X52470973Y-53954526D01*
X52419868Y-54027512D01*
X52419866Y-54027516D01*
X52323734Y-54233673D01*
X52323730Y-54233682D01*
X52264860Y-54453389D01*
X52264858Y-54453400D01*
X52245034Y-54679997D01*
X52245034Y-54680002D01*
X52264858Y-54906599D01*
X52264860Y-54906610D01*
X52323730Y-55126317D01*
X52323735Y-55126331D01*
X52419863Y-55332478D01*
X52470974Y-55405472D01*
X53107852Y-54768593D01*
X53130656Y-54853698D01*
X53189901Y-54956314D01*
X53273686Y-55040099D01*
X53376302Y-55099344D01*
X53461405Y-55122147D01*
X52824526Y-55759025D01*
X52897513Y-55810132D01*
X52897521Y-55810136D01*
X53103668Y-55906264D01*
X53103682Y-55906269D01*
X53290120Y-55956225D01*
X53349781Y-55992590D01*
X53380310Y-56055437D01*
X53372015Y-56124813D01*
X53327530Y-56178690D01*
X53260978Y-56199965D01*
X53258027Y-56200000D01*
X52401362Y-56200000D01*
X52334323Y-56180315D01*
X52313681Y-56163681D01*
X50537180Y-54387180D01*
X50503695Y-54325857D01*
X50508679Y-54256165D01*
X50550551Y-54200232D01*
X50616015Y-54175815D01*
X50624842Y-54175499D01*
X51602872Y-54175499D01*
X51662483Y-54169091D01*
X51797331Y-54118796D01*
X51912546Y-54032546D01*
X51998796Y-53917331D01*
X52049091Y-53782483D01*
X52055500Y-53722873D01*
X52055499Y-52277128D01*
X52049091Y-52217517D01*
X52042371Y-52199501D01*
X51998797Y-52082671D01*
X51998793Y-52082664D01*
X51968247Y-52041860D01*
X51943829Y-51976396D01*
X51958680Y-51908123D01*
X51993203Y-51868282D01*
X52007546Y-51857546D01*
X52093796Y-51742331D01*
X52144091Y-51607483D01*
X52150500Y-51547873D01*
X52150500Y-51274500D01*
X52170185Y-51207461D01*
X52222989Y-51161706D01*
X52274500Y-51150500D01*
X52823920Y-51150500D01*
X52921462Y-51131096D01*
X52968913Y-51121658D01*
X53084653Y-51073717D01*
X53105488Y-51065087D01*
X53105488Y-51065086D01*
X53105495Y-51065084D01*
X53161890Y-51027402D01*
X53228416Y-50982952D01*
X53284652Y-50926715D01*
X53345972Y-50893231D01*
X53383135Y-50890869D01*
X53529298Y-50903656D01*
X53549999Y-50905468D01*
X53550000Y-50905468D01*
X53550002Y-50905468D01*
X53618214Y-50899500D01*
X53776692Y-50885635D01*
X53996496Y-50826739D01*
X54202734Y-50730568D01*
X54389139Y-50600047D01*
X54420474Y-50568712D01*
X54550047Y-50439140D01*
X54640125Y-50310493D01*
X54680568Y-50252734D01*
X54776739Y-50046496D01*
X54835635Y-49826692D01*
X54855468Y-49600000D01*
X54835635Y-49373308D01*
X54776739Y-49153504D01*
X54680568Y-48947266D01*
X54557271Y-48771178D01*
X54550045Y-48760858D01*
X54389141Y-48599954D01*
X54202734Y-48469432D01*
X54202732Y-48469431D01*
X53996497Y-48373261D01*
X53996488Y-48373258D01*
X53776697Y-48314366D01*
X53776693Y-48314365D01*
X53776692Y-48314365D01*
X53776691Y-48314364D01*
X53776686Y-48314364D01*
X53550002Y-48294532D01*
X53549998Y-48294532D01*
X53323313Y-48314364D01*
X53323302Y-48314366D01*
X53187969Y-48350628D01*
X53118119Y-48348965D01*
X53060257Y-48309802D01*
X53032753Y-48245573D01*
X53044340Y-48176671D01*
X53068193Y-48143174D01*
X53832951Y-47378416D01*
X53915084Y-47255495D01*
X53971658Y-47118913D01*
X53983686Y-47058448D01*
X54000500Y-46973920D01*
X54000500Y-43924499D01*
X54020185Y-43857460D01*
X54072989Y-43811705D01*
X54124500Y-43800499D01*
X54300002Y-43800499D01*
X54300008Y-43800499D01*
X54402797Y-43789999D01*
X54569334Y-43734814D01*
X54718656Y-43642712D01*
X54842712Y-43518656D01*
X54934814Y-43369334D01*
X54989999Y-43202797D01*
X55000500Y-43100009D01*
X55000499Y-41699992D01*
X54997367Y-41669336D01*
X54989999Y-41597203D01*
X54989998Y-41597200D01*
X54959805Y-41506084D01*
X54934814Y-41430666D01*
X54842712Y-41281344D01*
X54718656Y-41157288D01*
X54569334Y-41065186D01*
X54402797Y-41010001D01*
X54402795Y-41010000D01*
X54300016Y-40999500D01*
X54300009Y-40999500D01*
X52611229Y-40999500D01*
X52544190Y-40979815D01*
X52498435Y-40927011D01*
X52488491Y-40857853D01*
X52517516Y-40794297D01*
X52523548Y-40787819D01*
X52955025Y-40356342D01*
X53431893Y-39879473D01*
X53493214Y-39845990D01*
X53557889Y-39849224D01*
X53595682Y-39861504D01*
X53632298Y-39873402D01*
X53670642Y-39879475D01*
X53803389Y-39900500D01*
X53803390Y-39900500D01*
X53976610Y-39900500D01*
X53976611Y-39900500D01*
X54147701Y-39873402D01*
X54312445Y-39819873D01*
X54466788Y-39741232D01*
X54606928Y-39639414D01*
X54729414Y-39516928D01*
X54831232Y-39376788D01*
X54907576Y-39226954D01*
X54912034Y-39218205D01*
X54960009Y-39167409D01*
X55022519Y-39150500D01*
X55297481Y-39150500D01*
X55364520Y-39170185D01*
X55407966Y-39218205D01*
X55450960Y-39302585D01*
X55488768Y-39376788D01*
X55590586Y-39516928D01*
X55590588Y-39516930D01*
X55643181Y-39569523D01*
X55676666Y-39630846D01*
X55679500Y-39657204D01*
X55679500Y-41210166D01*
X55661039Y-41275262D01*
X55565189Y-41430659D01*
X55565185Y-41430668D01*
X55564979Y-41431290D01*
X55510001Y-41597203D01*
X55510001Y-41597204D01*
X55510000Y-41597204D01*
X55499500Y-41699983D01*
X55499500Y-43100001D01*
X55499501Y-43100018D01*
X55510000Y-43202796D01*
X55510001Y-43202799D01*
X55565185Y-43369331D01*
X55565186Y-43369334D01*
X55657288Y-43518656D01*
X55781344Y-43642712D01*
X55930666Y-43734814D01*
X56097203Y-43789999D01*
X56199991Y-43800500D01*
X58300008Y-43800499D01*
X58402797Y-43789999D01*
X58569334Y-43734814D01*
X58718656Y-43642712D01*
X58842712Y-43518656D01*
X58934814Y-43369334D01*
X58989999Y-43202797D01*
X59000500Y-43100009D01*
X59000499Y-41699992D01*
X58997367Y-41669336D01*
X58989999Y-41597203D01*
X58989998Y-41597200D01*
X58959805Y-41506084D01*
X58934814Y-41430666D01*
X58842712Y-41281344D01*
X58718656Y-41157288D01*
X58569334Y-41065186D01*
X58402797Y-41010001D01*
X58402795Y-41010000D01*
X58300016Y-40999500D01*
X58300009Y-40999500D01*
X57304500Y-40999500D01*
X57237461Y-40979815D01*
X57191706Y-40927011D01*
X57180500Y-40875500D01*
X57180500Y-39657204D01*
X57200185Y-39590165D01*
X57216819Y-39569523D01*
X57269414Y-39516928D01*
X57371232Y-39376788D01*
X57449873Y-39222445D01*
X57503402Y-39057701D01*
X57530500Y-38886611D01*
X57530500Y-37913428D01*
X57870000Y-37913428D01*
X57870000Y-38150000D01*
X58654314Y-38150000D01*
X58649920Y-38154394D01*
X58597259Y-38245606D01*
X58570000Y-38347339D01*
X58570000Y-38452661D01*
X58597259Y-38554394D01*
X58649920Y-38645606D01*
X58654314Y-38650000D01*
X57870000Y-38650000D01*
X57870000Y-38886571D01*
X57897085Y-39057584D01*
X57950591Y-39222257D01*
X58029195Y-39376524D01*
X58130967Y-39516602D01*
X58253397Y-39639032D01*
X58393475Y-39740804D01*
X58547744Y-39819408D01*
X58712415Y-39872914D01*
X58712414Y-39872914D01*
X58719999Y-39874115D01*
X58720000Y-39874114D01*
X58720000Y-38715686D01*
X58724394Y-38720080D01*
X58815606Y-38772741D01*
X58917339Y-38800000D01*
X59022661Y-38800000D01*
X59124394Y-38772741D01*
X59215606Y-38720080D01*
X59220000Y-38715686D01*
X59220000Y-39874115D01*
X59227584Y-39872914D01*
X59392255Y-39819408D01*
X59546524Y-39740804D01*
X59686602Y-39639032D01*
X59809032Y-39516602D01*
X59910804Y-39376524D01*
X59989408Y-39222257D01*
X60042914Y-39057584D01*
X60070000Y-38886571D01*
X60070000Y-38650000D01*
X59285686Y-38650000D01*
X59290080Y-38645606D01*
X59342741Y-38554394D01*
X59370000Y-38452661D01*
X59370000Y-38347339D01*
X59342741Y-38245606D01*
X59290080Y-38154394D01*
X59285686Y-38150000D01*
X60070000Y-38150000D01*
X60070000Y-37913428D01*
X60042914Y-37742415D01*
X59989408Y-37577742D01*
X59910804Y-37423475D01*
X59809032Y-37283397D01*
X59686602Y-37160967D01*
X59546524Y-37059195D01*
X59392257Y-36980591D01*
X59227589Y-36927087D01*
X59227581Y-36927085D01*
X59220000Y-36925884D01*
X59220000Y-38084314D01*
X59215606Y-38079920D01*
X59124394Y-38027259D01*
X59022661Y-38000000D01*
X58917339Y-38000000D01*
X58815606Y-38027259D01*
X58724394Y-38079920D01*
X58720000Y-38084314D01*
X58720000Y-36925884D01*
X58719999Y-36925884D01*
X58712418Y-36927085D01*
X58712410Y-36927087D01*
X58547742Y-36980591D01*
X58393475Y-37059195D01*
X58253397Y-37160967D01*
X58130967Y-37283397D01*
X58029195Y-37423475D01*
X57950591Y-37577742D01*
X57897085Y-37742415D01*
X57870000Y-37913428D01*
X57530500Y-37913428D01*
X57530500Y-37913389D01*
X57503402Y-37742299D01*
X57449873Y-37577555D01*
X57371232Y-37423212D01*
X57269414Y-37283072D01*
X57146928Y-37160586D01*
X57006788Y-37058768D01*
X56852445Y-36980127D01*
X56687701Y-36926598D01*
X56687699Y-36926597D01*
X56687698Y-36926597D01*
X56556271Y-36905781D01*
X56516611Y-36899500D01*
X56343389Y-36899500D01*
X56303728Y-36905781D01*
X56172302Y-36926597D01*
X56007552Y-36980128D01*
X55853211Y-37058768D01*
X55796000Y-37100335D01*
X55713072Y-37160586D01*
X55713070Y-37160588D01*
X55713069Y-37160588D01*
X55590588Y-37283069D01*
X55590588Y-37283070D01*
X55590586Y-37283072D01*
X55590350Y-37283397D01*
X55488768Y-37423211D01*
X55407966Y-37581795D01*
X55359991Y-37632591D01*
X55297481Y-37649500D01*
X55022519Y-37649500D01*
X54955480Y-37629815D01*
X54912034Y-37581795D01*
X54831231Y-37423211D01*
X54729414Y-37283072D01*
X54606928Y-37160586D01*
X54466788Y-37058768D01*
X54312445Y-36980127D01*
X54147701Y-36926598D01*
X54147699Y-36926597D01*
X54147698Y-36926597D01*
X54016271Y-36905781D01*
X53976611Y-36899500D01*
X53803389Y-36899500D01*
X53763728Y-36905781D01*
X53632302Y-36926597D01*
X53467552Y-36980128D01*
X53313211Y-37058768D01*
X53256000Y-37100335D01*
X53173072Y-37160586D01*
X53173070Y-37160588D01*
X53173069Y-37160588D01*
X53050588Y-37283069D01*
X53050588Y-37283070D01*
X53050586Y-37283072D01*
X53050350Y-37283397D01*
X52948768Y-37423211D01*
X52870128Y-37577552D01*
X52816597Y-37742302D01*
X52789500Y-37913389D01*
X52789500Y-38347770D01*
X52769815Y-38414809D01*
X52753181Y-38435451D01*
X52662181Y-38526451D01*
X52600858Y-38559936D01*
X52531166Y-38554952D01*
X52475233Y-38513080D01*
X52450816Y-38447616D01*
X52450500Y-38438770D01*
X52450500Y-37913389D01*
X52423402Y-37742302D01*
X52423402Y-37742299D01*
X52369873Y-37577555D01*
X52291232Y-37423212D01*
X52189414Y-37283072D01*
X52066928Y-37160586D01*
X51926788Y-37058768D01*
X51772445Y-36980127D01*
X51607701Y-36926598D01*
X51607699Y-36926597D01*
X51607698Y-36926597D01*
X51476271Y-36905781D01*
X51436611Y-36899500D01*
X51263389Y-36899500D01*
X51223728Y-36905781D01*
X51092302Y-36926597D01*
X50927552Y-36980128D01*
X50773211Y-37058768D01*
X50716000Y-37100335D01*
X50633072Y-37160586D01*
X50633070Y-37160588D01*
X50633069Y-37160588D01*
X50510588Y-37283069D01*
X50510588Y-37283070D01*
X50510586Y-37283072D01*
X50510350Y-37283397D01*
X50408768Y-37423211D01*
X50330128Y-37577552D01*
X50276597Y-37742302D01*
X50249500Y-37913389D01*
X50249500Y-38886611D01*
X50276598Y-39057701D01*
X50330127Y-39222445D01*
X50408768Y-39376788D01*
X50510586Y-39516928D01*
X50633072Y-39639414D01*
X50773212Y-39741232D01*
X50927555Y-39819873D01*
X51068114Y-39865543D01*
X51125789Y-39904981D01*
X51152987Y-39969339D01*
X51141072Y-40038186D01*
X51117476Y-40071155D01*
X50650450Y-40538181D01*
X50589127Y-40571666D01*
X50562769Y-40574500D01*
X49649998Y-40574500D01*
X49649980Y-40574501D01*
X49547203Y-40585000D01*
X49547200Y-40585001D01*
X49380668Y-40640185D01*
X49380663Y-40640187D01*
X49231342Y-40732289D01*
X49107289Y-40856342D01*
X49015187Y-41005663D01*
X49015185Y-41005668D01*
X48995463Y-41065185D01*
X48960001Y-41172203D01*
X48960001Y-41172204D01*
X48960000Y-41172204D01*
X48949500Y-41274983D01*
X48949500Y-41900001D01*
X48949501Y-41900019D01*
X48960000Y-42002796D01*
X48960001Y-42002799D01*
X49015185Y-42169331D01*
X49015187Y-42169336D01*
X49047287Y-42221378D01*
X49107287Y-42318655D01*
X49107289Y-42318657D01*
X49200951Y-42412319D01*
X49234436Y-42473642D01*
X49229452Y-42543334D01*
X49200951Y-42587681D01*
X49107289Y-42681342D01*
X49015187Y-42830663D01*
X49015186Y-42830666D01*
X48960001Y-42997203D01*
X48960001Y-42997204D01*
X48960000Y-42997204D01*
X48949500Y-43099983D01*
X48949500Y-43725001D01*
X48949501Y-43725019D01*
X48960000Y-43827796D01*
X48960001Y-43827799D01*
X48992995Y-43927366D01*
X49015186Y-43994334D01*
X49107288Y-44143656D01*
X49231344Y-44267712D01*
X49380666Y-44359814D01*
X49547203Y-44414999D01*
X49586833Y-44419047D01*
X49651524Y-44445442D01*
X49691677Y-44502622D01*
X49694541Y-44572433D01*
X49659208Y-44632710D01*
X49633670Y-44651231D01*
X49632913Y-44651644D01*
X49517812Y-44737809D01*
X49517809Y-44737812D01*
X49431649Y-44852906D01*
X49431645Y-44852913D01*
X49381403Y-44987620D01*
X49381401Y-44987627D01*
X49375000Y-45047155D01*
X49375000Y-45419078D01*
X49355315Y-45486117D01*
X49302511Y-45531872D01*
X49233353Y-45541816D01*
X49186851Y-45525195D01*
X49114608Y-45481523D01*
X49114607Y-45481522D01*
X49114606Y-45481522D01*
X48952196Y-45430914D01*
X48952194Y-45430913D01*
X48952192Y-45430913D01*
X48902778Y-45426423D01*
X48881616Y-45424500D01*
X48218384Y-45424500D01*
X48165449Y-45429310D01*
X48147803Y-45430914D01*
X48106173Y-45443886D01*
X48069285Y-45449500D01*
X47636205Y-45449500D01*
X47571108Y-45431039D01*
X47570905Y-45430914D01*
X47496808Y-45385209D01*
X47422927Y-45339639D01*
X47422922Y-45339637D01*
X47257776Y-45284913D01*
X47155855Y-45274500D01*
X47155848Y-45274500D01*
X46144152Y-45274500D01*
X46144144Y-45274500D01*
X46042223Y-45284913D01*
X45877077Y-45339637D01*
X45877066Y-45339642D01*
X45729000Y-45430971D01*
X45728996Y-45430974D01*
X45662181Y-45497790D01*
X45600858Y-45531275D01*
X45531166Y-45526291D01*
X45475233Y-45484419D01*
X45450816Y-45418955D01*
X45450500Y-45410109D01*
X45450500Y-39807636D01*
X45470185Y-39740597D01*
X45522989Y-39694842D01*
X45592147Y-39684898D01*
X45647386Y-39707318D01*
X45693474Y-39740803D01*
X45847744Y-39819408D01*
X46012415Y-39872914D01*
X46012414Y-39872914D01*
X46019999Y-39874115D01*
X46020000Y-39874114D01*
X46020000Y-38715686D01*
X46024394Y-38720080D01*
X46115606Y-38772741D01*
X46217339Y-38800000D01*
X46322661Y-38800000D01*
X46424394Y-38772741D01*
X46515606Y-38720080D01*
X46520000Y-38715686D01*
X46520000Y-39874115D01*
X46527584Y-39872914D01*
X46692255Y-39819408D01*
X46846524Y-39740804D01*
X46986602Y-39639032D01*
X47109032Y-39516602D01*
X47210804Y-39376524D01*
X47289408Y-39222257D01*
X47342914Y-39057584D01*
X47370000Y-38886571D01*
X47370000Y-38650000D01*
X46585686Y-38650000D01*
X46590080Y-38645606D01*
X46642741Y-38554394D01*
X46670000Y-38452661D01*
X46670000Y-38347339D01*
X46642741Y-38245606D01*
X46590080Y-38154394D01*
X46585686Y-38150000D01*
X47370000Y-38150000D01*
X47370000Y-37913428D01*
X47369994Y-37913389D01*
X47709500Y-37913389D01*
X47709500Y-38886611D01*
X47736598Y-39057701D01*
X47790127Y-39222445D01*
X47868768Y-39376788D01*
X47970586Y-39516928D01*
X48093072Y-39639414D01*
X48233212Y-39741232D01*
X48387555Y-39819873D01*
X48552299Y-39873402D01*
X48723389Y-39900500D01*
X48723390Y-39900500D01*
X48896610Y-39900500D01*
X48896611Y-39900500D01*
X49067701Y-39873402D01*
X49232445Y-39819873D01*
X49386788Y-39741232D01*
X49526928Y-39639414D01*
X49649414Y-39516928D01*
X49751232Y-39376788D01*
X49829873Y-39222445D01*
X49883402Y-39057701D01*
X49910500Y-38886611D01*
X49910500Y-37913389D01*
X49883402Y-37742299D01*
X49829873Y-37577555D01*
X49751232Y-37423212D01*
X49649414Y-37283072D01*
X49526928Y-37160586D01*
X49386788Y-37058768D01*
X49232445Y-36980127D01*
X49067701Y-36926598D01*
X49067699Y-36926597D01*
X49067698Y-36926597D01*
X48936271Y-36905781D01*
X48896611Y-36899500D01*
X48723389Y-36899500D01*
X48683728Y-36905781D01*
X48552302Y-36926597D01*
X48387552Y-36980128D01*
X48233211Y-37058768D01*
X48176000Y-37100335D01*
X48093072Y-37160586D01*
X48093070Y-37160588D01*
X48093069Y-37160588D01*
X47970588Y-37283069D01*
X47970588Y-37283070D01*
X47970586Y-37283072D01*
X47970350Y-37283397D01*
X47868768Y-37423211D01*
X47790128Y-37577552D01*
X47736597Y-37742302D01*
X47709500Y-37913389D01*
X47369994Y-37913389D01*
X47342914Y-37742415D01*
X47289408Y-37577742D01*
X47210804Y-37423475D01*
X47109032Y-37283397D01*
X46986602Y-37160967D01*
X46846524Y-37059195D01*
X46692257Y-36980591D01*
X46527589Y-36927087D01*
X46527581Y-36927085D01*
X46520000Y-36925884D01*
X46520000Y-38084314D01*
X46515606Y-38079920D01*
X46424394Y-38027259D01*
X46322661Y-38000000D01*
X46217339Y-38000000D01*
X46115606Y-38027259D01*
X46024394Y-38079920D01*
X46020000Y-38084314D01*
X46020000Y-36925884D01*
X46019999Y-36925884D01*
X46012418Y-36927085D01*
X46012410Y-36927087D01*
X45847742Y-36980591D01*
X45693475Y-37059195D01*
X45647385Y-37092682D01*
X45581578Y-37116161D01*
X45513524Y-37100335D01*
X45464830Y-37050229D01*
X45450500Y-36992363D01*
X45450500Y-33889059D01*
X45450501Y-33889046D01*
X45450501Y-33720945D01*
X45450501Y-33720943D01*
X45409577Y-33568215D01*
X45380639Y-33518095D01*
X45330520Y-33431284D01*
X45218716Y-33319480D01*
X45218715Y-33319479D01*
X45214385Y-33315149D01*
X45214374Y-33315139D01*
X40299229Y-28399994D01*
X51594556Y-28399994D01*
X51594556Y-28400005D01*
X51614310Y-28714004D01*
X51614311Y-28714011D01*
X51673270Y-29023083D01*
X51770497Y-29322316D01*
X51770499Y-29322321D01*
X51904461Y-29607003D01*
X51904464Y-29607009D01*
X52073051Y-29872661D01*
X52073054Y-29872665D01*
X52273606Y-30115090D01*
X52273608Y-30115092D01*
X52502968Y-30330476D01*
X52502978Y-30330484D01*
X52757504Y-30515408D01*
X52757509Y-30515410D01*
X52757516Y-30515416D01*
X53033234Y-30666994D01*
X53033239Y-30666996D01*
X53033241Y-30666997D01*
X53033242Y-30666998D01*
X53325771Y-30782818D01*
X53325774Y-30782819D01*
X53630523Y-30861065D01*
X53630527Y-30861066D01*
X53696010Y-30869338D01*
X53942670Y-30900499D01*
X53942679Y-30900499D01*
X53942682Y-30900500D01*
X53942684Y-30900500D01*
X54257316Y-30900500D01*
X54257318Y-30900500D01*
X54257321Y-30900499D01*
X54257329Y-30900499D01*
X54443593Y-30876968D01*
X54569473Y-30861066D01*
X54874225Y-30782819D01*
X54874228Y-30782818D01*
X55166757Y-30666998D01*
X55166758Y-30666997D01*
X55166756Y-30666997D01*
X55166766Y-30666994D01*
X55442484Y-30515416D01*
X55697030Y-30330478D01*
X55926390Y-30115094D01*
X56126947Y-29872663D01*
X56295537Y-29607007D01*
X56429503Y-29322315D01*
X56526731Y-29023079D01*
X56585688Y-28714015D01*
X56605444Y-28400000D01*
X56589916Y-28153190D01*
X56585689Y-28085995D01*
X56585688Y-28085988D01*
X56585688Y-28085985D01*
X56526731Y-27776921D01*
X56429503Y-27477685D01*
X56295537Y-27192993D01*
X56126947Y-26927337D01*
X56108983Y-26905622D01*
X55926393Y-26684909D01*
X55926391Y-26684907D01*
X55707181Y-26479054D01*
X55697030Y-26469522D01*
X55697027Y-26469520D01*
X55697021Y-26469515D01*
X55442495Y-26284591D01*
X55442488Y-26284586D01*
X55442484Y-26284584D01*
X55166766Y-26133006D01*
X55166763Y-26133004D01*
X55166758Y-26133002D01*
X55166757Y-26133001D01*
X54874228Y-26017181D01*
X54874225Y-26017180D01*
X54569476Y-25938934D01*
X54569463Y-25938932D01*
X54257329Y-25899500D01*
X54257318Y-25899500D01*
X53942682Y-25899500D01*
X53942670Y-25899500D01*
X53630536Y-25938932D01*
X53630523Y-25938934D01*
X53325774Y-26017180D01*
X53325771Y-26017181D01*
X53033242Y-26133001D01*
X53033241Y-26133002D01*
X52757516Y-26284584D01*
X52757504Y-26284591D01*
X52502978Y-26469515D01*
X52502968Y-26469523D01*
X52273608Y-26684907D01*
X52273606Y-26684909D01*
X52073054Y-26927334D01*
X52073051Y-26927338D01*
X51904464Y-27192990D01*
X51904461Y-27192996D01*
X51770499Y-27477678D01*
X51770497Y-27477683D01*
X51673270Y-27776916D01*
X51614311Y-28085988D01*
X51614310Y-28085995D01*
X51594556Y-28399994D01*
X40299229Y-28399994D01*
X37081488Y-25182253D01*
X37048003Y-25120930D01*
X37052987Y-25051238D01*
X37094859Y-24995305D01*
X37107151Y-24987196D01*
X37118716Y-24980520D01*
X37230520Y-24868716D01*
X37230521Y-24868714D01*
X37730520Y-24368716D01*
X37809577Y-24231784D01*
X37850501Y-24079057D01*
X37850501Y-23920942D01*
X37850501Y-23913347D01*
X37850500Y-23913329D01*
X37850500Y-21489059D01*
X37850501Y-21489046D01*
X37850501Y-21320945D01*
X37850501Y-21320943D01*
X37809577Y-21168215D01*
X37780639Y-21118095D01*
X37730520Y-21031284D01*
X37618716Y-20919480D01*
X37618715Y-20919479D01*
X37614385Y-20915149D01*
X37614374Y-20915139D01*
X34206819Y-17507584D01*
X34173334Y-17446261D01*
X34170500Y-17419903D01*
X34170500Y-16927184D01*
X34190185Y-16860145D01*
X34221609Y-16826870D01*
X34286928Y-16779414D01*
X34409414Y-16656928D01*
X34511232Y-16516788D01*
X34589873Y-16362445D01*
X34643402Y-16197701D01*
X34670500Y-16026611D01*
X34670500Y-15053389D01*
X34643402Y-14882299D01*
X34589873Y-14717555D01*
X34511232Y-14563212D01*
X34409414Y-14423072D01*
X34286928Y-14300586D01*
X34146788Y-14198768D01*
X34021606Y-14134985D01*
X33970810Y-14087011D01*
X33954015Y-14019190D01*
X33976552Y-13953055D01*
X34031267Y-13909603D01*
X34077901Y-13900500D01*
X35603200Y-13900500D01*
X35670239Y-13920185D01*
G37*
%TD.AperFunction*%
%TA.AperFunction,Conductor*%
G36*
X25509138Y-13920185D02*
G01*
X25554893Y-13972989D01*
X25564837Y-14042147D01*
X25535812Y-14105703D01*
X25498394Y-14134985D01*
X25373211Y-14198768D01*
X25309575Y-14245003D01*
X25233072Y-14300586D01*
X25233070Y-14300588D01*
X25233069Y-14300588D01*
X25110588Y-14423069D01*
X25110588Y-14423070D01*
X25110586Y-14423072D01*
X25066859Y-14483256D01*
X25008768Y-14563211D01*
X24930128Y-14717552D01*
X24876597Y-14882302D01*
X24866121Y-14948449D01*
X24849500Y-15053389D01*
X24849500Y-16026611D01*
X24876598Y-16197701D01*
X24930127Y-16362445D01*
X25008768Y-16516788D01*
X25110586Y-16656928D01*
X25233072Y-16779414D01*
X25373212Y-16881232D01*
X25527555Y-16959873D01*
X25692299Y-17013402D01*
X25863389Y-17040500D01*
X25863390Y-17040500D01*
X26036610Y-17040500D01*
X26036611Y-17040500D01*
X26207701Y-17013402D01*
X26372445Y-16959873D01*
X26526788Y-16881232D01*
X26666928Y-16779414D01*
X26789414Y-16656928D01*
X26891232Y-16516788D01*
X26969873Y-16362445D01*
X27023402Y-16197701D01*
X27050500Y-16026611D01*
X27050500Y-15053389D01*
X27023402Y-14882299D01*
X26969873Y-14717555D01*
X26891232Y-14563212D01*
X26789414Y-14423072D01*
X26666928Y-14300586D01*
X26526788Y-14198768D01*
X26401606Y-14134985D01*
X26350810Y-14087011D01*
X26334015Y-14019190D01*
X26356552Y-13953055D01*
X26411267Y-13909603D01*
X26457901Y-13900500D01*
X27982099Y-13900500D01*
X28049138Y-13920185D01*
X28094893Y-13972989D01*
X28104837Y-14042147D01*
X28075812Y-14105703D01*
X28038394Y-14134985D01*
X27913211Y-14198768D01*
X27849575Y-14245003D01*
X27773072Y-14300586D01*
X27773070Y-14300588D01*
X27773069Y-14300588D01*
X27650588Y-14423069D01*
X27650588Y-14423070D01*
X27650586Y-14423072D01*
X27606859Y-14483256D01*
X27548768Y-14563211D01*
X27470128Y-14717552D01*
X27416597Y-14882302D01*
X27406121Y-14948449D01*
X27389500Y-15053389D01*
X27389500Y-16026611D01*
X27416598Y-16197701D01*
X27470127Y-16362445D01*
X27548768Y-16516788D01*
X27650586Y-16656928D01*
X27773072Y-16779414D01*
X27913212Y-16881232D01*
X28067555Y-16959873D01*
X28232299Y-17013402D01*
X28403389Y-17040500D01*
X28403390Y-17040500D01*
X28576610Y-17040500D01*
X28576611Y-17040500D01*
X28747701Y-17013402D01*
X28912445Y-16959873D01*
X29066788Y-16881232D01*
X29206928Y-16779414D01*
X29329414Y-16656928D01*
X29431232Y-16516788D01*
X29509873Y-16362445D01*
X29563402Y-16197701D01*
X29590500Y-16026611D01*
X29590500Y-15053389D01*
X29563402Y-14882299D01*
X29509873Y-14717555D01*
X29431232Y-14563212D01*
X29329414Y-14423072D01*
X29206928Y-14300586D01*
X29066788Y-14198768D01*
X28941606Y-14134985D01*
X28890810Y-14087011D01*
X28874015Y-14019190D01*
X28896552Y-13953055D01*
X28951267Y-13909603D01*
X28997901Y-13900500D01*
X30522099Y-13900500D01*
X30589138Y-13920185D01*
X30634893Y-13972989D01*
X30644837Y-14042147D01*
X30615812Y-14105703D01*
X30578394Y-14134985D01*
X30453211Y-14198768D01*
X30389575Y-14245003D01*
X30313072Y-14300586D01*
X30313070Y-14300588D01*
X30313069Y-14300588D01*
X30190588Y-14423069D01*
X30190588Y-14423070D01*
X30190586Y-14423072D01*
X30146859Y-14483256D01*
X30088768Y-14563211D01*
X30010128Y-14717552D01*
X29956597Y-14882302D01*
X29946121Y-14948449D01*
X29929500Y-15053389D01*
X29929500Y-16026611D01*
X29956598Y-16197701D01*
X30010127Y-16362445D01*
X30088768Y-16516788D01*
X30190586Y-16656928D01*
X30313072Y-16779414D01*
X30378388Y-16826868D01*
X30421051Y-16882195D01*
X30429500Y-16927184D01*
X30429500Y-17793330D01*
X30429499Y-17793348D01*
X30429499Y-17959054D01*
X30429498Y-17959054D01*
X30470423Y-18111785D01*
X30499358Y-18161900D01*
X30499359Y-18161904D01*
X30499360Y-18161904D01*
X30525733Y-18207585D01*
X30549479Y-18248714D01*
X30549481Y-18248717D01*
X30668349Y-18367585D01*
X30668355Y-18367590D01*
X34838479Y-22537714D01*
X34871964Y-22599037D01*
X34866980Y-22668729D01*
X34834762Y-22712992D01*
X34836451Y-22714681D01*
X34731431Y-22819701D01*
X34670108Y-22853186D01*
X34600416Y-22848202D01*
X34556069Y-22819701D01*
X34468657Y-22732289D01*
X34468656Y-22732288D01*
X34319334Y-22640186D01*
X34152797Y-22585001D01*
X34152795Y-22585000D01*
X34050010Y-22574500D01*
X33049998Y-22574500D01*
X33049980Y-22574501D01*
X32947203Y-22585000D01*
X32947200Y-22585001D01*
X32780668Y-22640185D01*
X32780663Y-22640187D01*
X32631342Y-22732289D01*
X32507289Y-22856342D01*
X32415187Y-23005663D01*
X32415185Y-23005668D01*
X32360001Y-23172201D01*
X32360000Y-23172207D01*
X32356682Y-23204682D01*
X32330284Y-23269373D01*
X32321005Y-23279757D01*
X31974217Y-23626546D01*
X31974214Y-23626548D01*
X31974215Y-23626549D01*
X31869478Y-23731286D01*
X31819361Y-23818094D01*
X31819359Y-23818096D01*
X31790425Y-23868209D01*
X31790424Y-23868210D01*
X31778330Y-23913347D01*
X31749499Y-24020943D01*
X31749499Y-24020945D01*
X31749499Y-24189046D01*
X31749500Y-24189059D01*
X31749500Y-26313330D01*
X31749499Y-26313348D01*
X31749499Y-26479054D01*
X31749498Y-26479054D01*
X31790423Y-26631785D01*
X31819358Y-26681900D01*
X31819359Y-26681904D01*
X31819360Y-26681904D01*
X31869479Y-26768714D01*
X31869481Y-26768717D01*
X31988349Y-26887585D01*
X31988355Y-26887590D01*
X34213181Y-29112416D01*
X34246666Y-29173739D01*
X34249500Y-29200097D01*
X34249500Y-36909314D01*
X34229815Y-36976353D01*
X34177011Y-37022108D01*
X34107853Y-37032052D01*
X34069205Y-37019799D01*
X33992257Y-36980591D01*
X33827589Y-36927087D01*
X33827581Y-36927085D01*
X33820000Y-36925884D01*
X33820000Y-38084314D01*
X33815606Y-38079920D01*
X33724394Y-38027259D01*
X33622661Y-38000000D01*
X33517339Y-38000000D01*
X33415606Y-38027259D01*
X33324394Y-38079920D01*
X33320000Y-38084314D01*
X33320000Y-36925884D01*
X33319999Y-36925884D01*
X33312418Y-36927085D01*
X33312410Y-36927087D01*
X33147742Y-36980591D01*
X32993475Y-37059195D01*
X32853397Y-37160967D01*
X32730967Y-37283397D01*
X32629195Y-37423475D01*
X32550591Y-37577742D01*
X32497085Y-37742415D01*
X32470000Y-37913428D01*
X32470000Y-38150000D01*
X33254314Y-38150000D01*
X33249920Y-38154394D01*
X33197259Y-38245606D01*
X33170000Y-38347339D01*
X33170000Y-38452661D01*
X33197259Y-38554394D01*
X33249920Y-38645606D01*
X33254314Y-38650000D01*
X32470000Y-38650000D01*
X32470000Y-38886571D01*
X32497085Y-39057584D01*
X32550591Y-39222257D01*
X32629195Y-39376524D01*
X32730967Y-39516602D01*
X32853397Y-39639032D01*
X32993475Y-39740804D01*
X33147744Y-39819408D01*
X33312415Y-39872914D01*
X33312414Y-39872914D01*
X33319999Y-39874115D01*
X33320000Y-39874114D01*
X33320000Y-38715686D01*
X33324394Y-38720080D01*
X33415606Y-38772741D01*
X33517339Y-38800000D01*
X33622661Y-38800000D01*
X33724394Y-38772741D01*
X33815606Y-38720080D01*
X33820000Y-38715686D01*
X33820000Y-39874115D01*
X33827584Y-39872914D01*
X33992257Y-39819408D01*
X34069204Y-39780201D01*
X34137873Y-39767304D01*
X34202614Y-39793580D01*
X34242871Y-39850685D01*
X34249500Y-39890685D01*
X34249500Y-40613330D01*
X34249499Y-40613348D01*
X34249499Y-40779054D01*
X34249498Y-40779054D01*
X34290423Y-40931785D01*
X34319358Y-40981900D01*
X34319359Y-40981904D01*
X34319360Y-40981904D01*
X34367441Y-41065185D01*
X34369479Y-41068714D01*
X34369481Y-41068717D01*
X34488349Y-41187585D01*
X34488355Y-41187590D01*
X35313181Y-42012416D01*
X35346666Y-42073739D01*
X35349500Y-42100097D01*
X35349500Y-46513330D01*
X35349499Y-46513348D01*
X35349499Y-46679054D01*
X35349498Y-46679054D01*
X35349499Y-46679057D01*
X35389364Y-46827834D01*
X35390423Y-46831784D01*
X35390424Y-46831788D01*
X35417345Y-46878417D01*
X35417346Y-46878417D01*
X35469477Y-46968712D01*
X35469481Y-46968717D01*
X35588349Y-47087585D01*
X35588355Y-47087590D01*
X38287171Y-49786406D01*
X38320656Y-49847729D01*
X38315672Y-49917421D01*
X38273800Y-49973354D01*
X38208336Y-49997771D01*
X38158541Y-49991131D01*
X38154258Y-49989632D01*
X38154249Y-49989630D01*
X37975004Y-49969435D01*
X37974996Y-49969435D01*
X37795750Y-49989630D01*
X37795745Y-49989631D01*
X37625476Y-50049211D01*
X37472737Y-50145184D01*
X37345184Y-50272737D01*
X37249211Y-50425476D01*
X37189631Y-50595745D01*
X37189630Y-50595750D01*
X37169435Y-50774996D01*
X37169435Y-50775004D01*
X37185176Y-50914719D01*
X37173121Y-50983541D01*
X37125772Y-51034920D01*
X37058161Y-51052544D01*
X37027361Y-51047678D01*
X36957573Y-51027402D01*
X36957567Y-51027401D01*
X36920701Y-51024500D01*
X36920694Y-51024500D01*
X36489306Y-51024500D01*
X36489298Y-51024500D01*
X36452432Y-51027401D01*
X36452426Y-51027402D01*
X36294606Y-51073254D01*
X36294603Y-51073255D01*
X36153137Y-51156917D01*
X36153133Y-51156920D01*
X36086680Y-51223373D01*
X36025356Y-51256857D01*
X35955665Y-51251872D01*
X35899731Y-51210001D01*
X35875315Y-51144536D01*
X35874999Y-51135691D01*
X35874999Y-51000028D01*
X35874998Y-51000012D01*
X35864505Y-50897302D01*
X35809358Y-50730880D01*
X35809356Y-50730875D01*
X35717315Y-50581654D01*
X35593345Y-50457684D01*
X35444124Y-50365643D01*
X35444119Y-50365641D01*
X35277697Y-50310494D01*
X35277690Y-50310493D01*
X35174986Y-50300000D01*
X34900000Y-50300000D01*
X34900000Y-51176000D01*
X34880315Y-51243039D01*
X34827511Y-51288794D01*
X34776000Y-51300000D01*
X34650000Y-51300000D01*
X34650000Y-51426000D01*
X34630315Y-51493039D01*
X34577511Y-51538794D01*
X34526000Y-51550000D01*
X33425001Y-51550000D01*
X33425001Y-51599982D01*
X33425267Y-51602582D01*
X33412494Y-51671274D01*
X33364611Y-51722156D01*
X33296820Y-51739074D01*
X33230645Y-51716655D01*
X33214227Y-51702859D01*
X32836819Y-51325451D01*
X32803334Y-51264128D01*
X32800500Y-51237770D01*
X32800500Y-51000013D01*
X33425000Y-51000013D01*
X33425000Y-51050000D01*
X34400000Y-51050000D01*
X34400000Y-50300000D01*
X34125029Y-50300000D01*
X34125012Y-50300001D01*
X34022302Y-50310494D01*
X33855880Y-50365641D01*
X33855875Y-50365643D01*
X33706654Y-50457684D01*
X33582684Y-50581654D01*
X33490643Y-50730875D01*
X33490641Y-50730880D01*
X33435494Y-50897302D01*
X33435493Y-50897309D01*
X33425000Y-51000013D01*
X32800500Y-51000013D01*
X32800500Y-48726079D01*
X32771659Y-48581092D01*
X32771658Y-48581091D01*
X32771658Y-48581087D01*
X32760002Y-48552946D01*
X32715087Y-48444511D01*
X32715080Y-48444498D01*
X32632952Y-48321585D01*
X32605899Y-48294532D01*
X32528416Y-48217049D01*
X30905867Y-46594500D01*
X29276819Y-44965451D01*
X29243334Y-44904128D01*
X29240500Y-44877770D01*
X29240500Y-39657204D01*
X29260185Y-39590165D01*
X29276819Y-39569523D01*
X29329414Y-39516928D01*
X29431232Y-39376788D01*
X29509873Y-39222445D01*
X29563402Y-39057701D01*
X29590500Y-38886611D01*
X29590500Y-37913389D01*
X29929500Y-37913389D01*
X29929500Y-38886611D01*
X29956598Y-39057701D01*
X30010127Y-39222445D01*
X30088768Y-39376788D01*
X30190586Y-39516928D01*
X30313072Y-39639414D01*
X30453212Y-39741232D01*
X30607555Y-39819873D01*
X30772299Y-39873402D01*
X30943389Y-39900500D01*
X30943390Y-39900500D01*
X31116610Y-39900500D01*
X31116611Y-39900500D01*
X31287701Y-39873402D01*
X31452445Y-39819873D01*
X31606788Y-39741232D01*
X31746928Y-39639414D01*
X31869414Y-39516928D01*
X31971232Y-39376788D01*
X32049873Y-39222445D01*
X32103402Y-39057701D01*
X32130500Y-38886611D01*
X32130500Y-37913389D01*
X32103402Y-37742299D01*
X32049873Y-37577555D01*
X31971232Y-37423212D01*
X31869414Y-37283072D01*
X31746928Y-37160586D01*
X31606788Y-37058768D01*
X31452445Y-36980127D01*
X31287701Y-36926598D01*
X31287699Y-36926597D01*
X31287698Y-36926597D01*
X31156271Y-36905781D01*
X31116611Y-36899500D01*
X30943389Y-36899500D01*
X30903728Y-36905781D01*
X30772302Y-36926597D01*
X30607552Y-36980128D01*
X30453211Y-37058768D01*
X30396000Y-37100335D01*
X30313072Y-37160586D01*
X30313070Y-37160588D01*
X30313069Y-37160588D01*
X30190588Y-37283069D01*
X30190588Y-37283070D01*
X30190586Y-37283072D01*
X30190350Y-37283397D01*
X30088768Y-37423211D01*
X30010128Y-37577552D01*
X29956597Y-37742302D01*
X29929500Y-37913389D01*
X29590500Y-37913389D01*
X29563402Y-37742299D01*
X29509873Y-37577555D01*
X29431232Y-37423212D01*
X29329414Y-37283072D01*
X29206928Y-37160586D01*
X29066788Y-37058768D01*
X28912445Y-36980127D01*
X28747701Y-36926598D01*
X28747699Y-36926597D01*
X28747698Y-36926597D01*
X28616271Y-36905781D01*
X28576611Y-36899500D01*
X28403389Y-36899500D01*
X28363728Y-36905781D01*
X28232302Y-36926597D01*
X28067552Y-36980128D01*
X27913211Y-37058768D01*
X27856000Y-37100335D01*
X27773072Y-37160586D01*
X27773070Y-37160588D01*
X27773069Y-37160588D01*
X27650588Y-37283069D01*
X27650588Y-37283070D01*
X27650586Y-37283072D01*
X27650350Y-37283397D01*
X27548768Y-37423211D01*
X27467966Y-37581795D01*
X27419991Y-37632591D01*
X27357481Y-37649500D01*
X27082519Y-37649500D01*
X27015480Y-37629815D01*
X26972034Y-37581795D01*
X26891231Y-37423211D01*
X26789414Y-37283072D01*
X26666928Y-37160586D01*
X26526788Y-37058768D01*
X26372445Y-36980127D01*
X26207701Y-36926598D01*
X26207699Y-36926597D01*
X26207698Y-36926597D01*
X26076271Y-36905781D01*
X26036611Y-36899500D01*
X25863389Y-36899500D01*
X25823728Y-36905781D01*
X25692302Y-36926597D01*
X25527552Y-36980128D01*
X25373211Y-37058768D01*
X25316000Y-37100335D01*
X25233072Y-37160586D01*
X25233070Y-37160588D01*
X25233069Y-37160588D01*
X25110588Y-37283069D01*
X25110588Y-37283070D01*
X25110586Y-37283072D01*
X25110350Y-37283397D01*
X25008768Y-37423211D01*
X24930128Y-37577552D01*
X24876597Y-37742302D01*
X24849500Y-37913389D01*
X24849500Y-38886611D01*
X24876598Y-39057701D01*
X24930127Y-39222445D01*
X25008768Y-39376788D01*
X25110586Y-39516928D01*
X25233072Y-39639414D01*
X25373212Y-39741232D01*
X25527555Y-39819873D01*
X25692299Y-39873402D01*
X25863389Y-39900500D01*
X25863390Y-39900500D01*
X26036610Y-39900500D01*
X26036611Y-39900500D01*
X26207701Y-39873402D01*
X26372445Y-39819873D01*
X26526788Y-39741232D01*
X26666928Y-39639414D01*
X26789414Y-39516928D01*
X26891232Y-39376788D01*
X26967576Y-39226954D01*
X26972034Y-39218205D01*
X27020009Y-39167409D01*
X27082519Y-39150500D01*
X27357481Y-39150500D01*
X27424520Y-39170185D01*
X27467966Y-39218205D01*
X27510960Y-39302585D01*
X27548768Y-39376788D01*
X27650586Y-39516928D01*
X27650588Y-39516930D01*
X27703181Y-39569523D01*
X27736666Y-39630846D01*
X27739500Y-39657204D01*
X27739500Y-45313918D01*
X27739500Y-45313920D01*
X27739499Y-45313920D01*
X27768340Y-45458907D01*
X27768343Y-45458917D01*
X27824914Y-45595492D01*
X27857812Y-45644727D01*
X27857813Y-45644730D01*
X27907046Y-45718414D01*
X27907052Y-45718421D01*
X31263181Y-49074548D01*
X31296666Y-49135871D01*
X31299500Y-49162229D01*
X31299500Y-51673918D01*
X31299500Y-51673920D01*
X31299499Y-51673920D01*
X31328340Y-51818907D01*
X31328343Y-51818917D01*
X31384913Y-51955490D01*
X31384915Y-51955493D01*
X31384916Y-51955495D01*
X31392905Y-51967451D01*
X31392906Y-51967454D01*
X31392907Y-51967454D01*
X31467051Y-52078420D01*
X31467052Y-52078421D01*
X33175892Y-53787260D01*
X33174180Y-53788971D01*
X33207506Y-53837910D01*
X33209366Y-53907755D01*
X33173170Y-53967518D01*
X33110409Y-53998225D01*
X33089501Y-54000000D01*
X32401362Y-54000000D01*
X32334323Y-53980315D01*
X32313681Y-53963681D01*
X22486319Y-44136319D01*
X22452834Y-44074996D01*
X22450000Y-44048638D01*
X22450000Y-39977968D01*
X22469685Y-39910929D01*
X22522489Y-39865174D01*
X22591647Y-39855230D01*
X22617334Y-39861786D01*
X22702623Y-39893597D01*
X22702627Y-39893598D01*
X22762155Y-39899999D01*
X22762172Y-39900000D01*
X23160000Y-39900000D01*
X23160000Y-38715686D01*
X23164394Y-38720080D01*
X23255606Y-38772741D01*
X23357339Y-38800000D01*
X23462661Y-38800000D01*
X23564394Y-38772741D01*
X23655606Y-38720080D01*
X23660000Y-38715686D01*
X23660000Y-39900000D01*
X24057828Y-39900000D01*
X24057844Y-39899999D01*
X24117372Y-39893598D01*
X24117379Y-39893596D01*
X24252086Y-39843354D01*
X24252093Y-39843350D01*
X24367187Y-39757190D01*
X24367190Y-39757187D01*
X24453350Y-39642093D01*
X24453354Y-39642086D01*
X24503596Y-39507379D01*
X24503598Y-39507372D01*
X24509999Y-39447844D01*
X24510000Y-39447827D01*
X24510000Y-38650000D01*
X23725686Y-38650000D01*
X23730080Y-38645606D01*
X23782741Y-38554394D01*
X23810000Y-38452661D01*
X23810000Y-38347339D01*
X23782741Y-38245606D01*
X23730080Y-38154394D01*
X23725686Y-38150000D01*
X24510000Y-38150000D01*
X24510000Y-37352172D01*
X24509999Y-37352155D01*
X24503598Y-37292627D01*
X24503596Y-37292620D01*
X24453354Y-37157913D01*
X24453350Y-37157906D01*
X24367190Y-37042812D01*
X24367187Y-37042809D01*
X24252093Y-36956649D01*
X24252086Y-36956645D01*
X24117379Y-36906403D01*
X24117372Y-36906401D01*
X24057844Y-36900000D01*
X23660000Y-36900000D01*
X23660000Y-38084314D01*
X23655606Y-38079920D01*
X23564394Y-38027259D01*
X23462661Y-38000000D01*
X23357339Y-38000000D01*
X23255606Y-38027259D01*
X23164394Y-38079920D01*
X23160000Y-38084314D01*
X23160000Y-36900000D01*
X22762155Y-36900000D01*
X22702627Y-36906401D01*
X22702619Y-36906403D01*
X22617333Y-36938213D01*
X22547641Y-36943197D01*
X22486318Y-36909712D01*
X22452834Y-36848388D01*
X22450000Y-36822031D01*
X22450000Y-16834997D01*
X22469685Y-16767958D01*
X22522489Y-16722203D01*
X22591647Y-16712259D01*
X22655203Y-16741284D01*
X22661681Y-16747316D01*
X22693397Y-16779032D01*
X22833475Y-16880804D01*
X22987744Y-16959408D01*
X23152415Y-17012914D01*
X23152414Y-17012914D01*
X23159999Y-17014115D01*
X23160000Y-17014114D01*
X23160000Y-15855686D01*
X23164394Y-15860080D01*
X23255606Y-15912741D01*
X23357339Y-15940000D01*
X23462661Y-15940000D01*
X23564394Y-15912741D01*
X23655606Y-15860080D01*
X23660000Y-15855686D01*
X23660000Y-17014115D01*
X23667584Y-17012914D01*
X23832255Y-16959408D01*
X23986524Y-16880804D01*
X24126602Y-16779032D01*
X24249032Y-16656602D01*
X24350804Y-16516524D01*
X24429408Y-16362257D01*
X24482914Y-16197584D01*
X24510000Y-16026571D01*
X24510000Y-15790000D01*
X23725686Y-15790000D01*
X23730080Y-15785606D01*
X23782741Y-15694394D01*
X23810000Y-15592661D01*
X23810000Y-15487339D01*
X23782741Y-15385606D01*
X23730080Y-15294394D01*
X23725686Y-15290000D01*
X24510000Y-15290000D01*
X24510000Y-15053428D01*
X24482914Y-14882415D01*
X24429408Y-14717742D01*
X24350804Y-14563475D01*
X24249032Y-14423397D01*
X24126602Y-14300967D01*
X23986524Y-14199195D01*
X23860505Y-14134985D01*
X23809709Y-14087010D01*
X23792914Y-14019189D01*
X23815452Y-13953054D01*
X23870167Y-13909603D01*
X23916800Y-13900500D01*
X25442099Y-13900500D01*
X25509138Y-13920185D01*
G37*
%TD.AperFunction*%
%TA.AperFunction,Conductor*%
G36*
X46843039Y-48157185D02*
G01*
X46888794Y-48209989D01*
X46900000Y-48261500D01*
X46900000Y-49125000D01*
X47155803Y-49125000D01*
X47155815Y-49124999D01*
X47257673Y-49114592D01*
X47422709Y-49059905D01*
X47422714Y-49059903D01*
X47570691Y-48968629D01*
X47693629Y-48845691D01*
X47720581Y-48801995D01*
X47772529Y-48755269D01*
X47841491Y-48744046D01*
X47890267Y-48760971D01*
X47985394Y-48818478D01*
X48147804Y-48869086D01*
X48208667Y-48874617D01*
X48273648Y-48900286D01*
X48314437Y-48957014D01*
X48318081Y-49026789D01*
X48306283Y-49057522D01*
X48306205Y-49057664D01*
X48255908Y-49192517D01*
X48249501Y-49252116D01*
X48249500Y-49252135D01*
X48249500Y-51547870D01*
X48249501Y-51547876D01*
X48255908Y-51607483D01*
X48274626Y-51657667D01*
X48279610Y-51727359D01*
X48246125Y-51788682D01*
X48184801Y-51822166D01*
X48158444Y-51825000D01*
X48097155Y-51825000D01*
X48037627Y-51831401D01*
X48037620Y-51831403D01*
X47902913Y-51881645D01*
X47902906Y-51881649D01*
X47787812Y-51967809D01*
X47787809Y-51967812D01*
X47701649Y-52082906D01*
X47701645Y-52082913D01*
X47651403Y-52217620D01*
X47651401Y-52217627D01*
X47645000Y-52277155D01*
X47645000Y-52750000D01*
X48726000Y-52750000D01*
X48793039Y-52769685D01*
X48838794Y-52822489D01*
X48850000Y-52874000D01*
X48850000Y-53126000D01*
X48830315Y-53193039D01*
X48777511Y-53238794D01*
X48726000Y-53250000D01*
X47645000Y-53250000D01*
X47645000Y-53722844D01*
X47651401Y-53782372D01*
X47651403Y-53782379D01*
X47670159Y-53832667D01*
X47675143Y-53902359D01*
X47641658Y-53963682D01*
X47580334Y-53997166D01*
X47553977Y-54000000D01*
X46377504Y-54000000D01*
X46310465Y-53980315D01*
X46264710Y-53927511D01*
X46254766Y-53858353D01*
X46270772Y-53812879D01*
X46346282Y-53685196D01*
X46346283Y-53685193D01*
X46392099Y-53527495D01*
X46392100Y-53527489D01*
X46394999Y-53490649D01*
X46395000Y-53490634D01*
X46395000Y-52800000D01*
X45719000Y-52800000D01*
X45651961Y-52780315D01*
X45606206Y-52727511D01*
X45595000Y-52676000D01*
X45595000Y-52550000D01*
X45469000Y-52550000D01*
X45401961Y-52530315D01*
X45356206Y-52477511D01*
X45345000Y-52426000D01*
X45345000Y-52300000D01*
X45845000Y-52300000D01*
X46395000Y-52300000D01*
X46395000Y-51609365D01*
X46394999Y-51609350D01*
X46392100Y-51572510D01*
X46392099Y-51572504D01*
X46346283Y-51414806D01*
X46346282Y-51414803D01*
X46262685Y-51273447D01*
X46262678Y-51273438D01*
X46146561Y-51157321D01*
X46146552Y-51157314D01*
X46005196Y-51073717D01*
X46005193Y-51073716D01*
X45847494Y-51027900D01*
X45847497Y-51027900D01*
X45845000Y-51027703D01*
X45845000Y-52300000D01*
X45345000Y-52300000D01*
X45345000Y-51027703D01*
X45342503Y-51027900D01*
X45184806Y-51073716D01*
X45184805Y-51073716D01*
X45150365Y-51094084D01*
X45082641Y-51111265D01*
X45016378Y-51089105D01*
X44972616Y-51034639D01*
X44965247Y-50965159D01*
X44996612Y-50902725D01*
X44999542Y-50899692D01*
X45208506Y-50690727D01*
X45208511Y-50690724D01*
X45218714Y-50680520D01*
X45218716Y-50680520D01*
X45330520Y-50568716D01*
X45405331Y-50439139D01*
X45409577Y-50431785D01*
X45450500Y-50279057D01*
X45450500Y-50120943D01*
X45450500Y-48989183D01*
X45470185Y-48922144D01*
X45522989Y-48876389D01*
X45592147Y-48866445D01*
X45655703Y-48895470D01*
X45662181Y-48901502D01*
X45729308Y-48968629D01*
X45877285Y-49059903D01*
X45877290Y-49059905D01*
X46042326Y-49114592D01*
X46144184Y-49124999D01*
X46144197Y-49125000D01*
X46400000Y-49125000D01*
X46400000Y-48261500D01*
X46419685Y-48194461D01*
X46472489Y-48148706D01*
X46524000Y-48137500D01*
X46776000Y-48137500D01*
X46843039Y-48157185D01*
G37*
%TD.AperFunction*%
%TA.AperFunction,Conductor*%
G36*
X43890000Y-47500000D02*
G01*
X44125500Y-47500000D01*
X44192539Y-47519685D01*
X44238294Y-47572489D01*
X44249500Y-47624000D01*
X44249500Y-49899902D01*
X44229815Y-49966941D01*
X44213181Y-49987583D01*
X43844481Y-50356282D01*
X43844479Y-50356285D01*
X43822685Y-50394034D01*
X43804532Y-50425478D01*
X43800891Y-50431784D01*
X43800889Y-50431786D01*
X43765425Y-50493209D01*
X43765423Y-50493212D01*
X43745193Y-50568712D01*
X43724499Y-50645943D01*
X43724499Y-50645945D01*
X43724499Y-50814046D01*
X43724500Y-50814059D01*
X43724500Y-51009092D01*
X43704815Y-51076131D01*
X43652011Y-51121886D01*
X43582853Y-51131830D01*
X43537380Y-51115825D01*
X43465399Y-51073256D01*
X43464353Y-51072804D01*
X43462471Y-51071525D01*
X43458685Y-51069286D01*
X43458825Y-51069047D01*
X43425918Y-51046683D01*
X41736819Y-49357584D01*
X41703334Y-49296261D01*
X41700500Y-49269903D01*
X41700500Y-47439090D01*
X41720185Y-47372051D01*
X41772101Y-47326706D01*
X41777830Y-47324035D01*
X41971401Y-47188495D01*
X42093717Y-47066178D01*
X42155036Y-47032696D01*
X42224728Y-47037680D01*
X42280662Y-47079551D01*
X42297577Y-47110528D01*
X42346646Y-47242088D01*
X42346649Y-47242093D01*
X42432809Y-47357187D01*
X42432812Y-47357190D01*
X42547906Y-47443350D01*
X42547913Y-47443354D01*
X42682620Y-47493596D01*
X42682627Y-47493598D01*
X42742155Y-47499999D01*
X42742172Y-47500000D01*
X43390000Y-47500000D01*
X43390000Y-46583012D01*
X43447007Y-46615925D01*
X43574174Y-46650000D01*
X43705826Y-46650000D01*
X43832993Y-46615925D01*
X43890000Y-46583012D01*
X43890000Y-47500000D01*
G37*
%TD.AperFunction*%
%TA.AperFunction,Conductor*%
G36*
X52420898Y-44161291D02*
G01*
X52476076Y-44204153D01*
X52499322Y-44270043D01*
X52499500Y-44276682D01*
X52499500Y-46537770D01*
X52479815Y-46604809D01*
X52463181Y-46625451D01*
X52075451Y-47013181D01*
X52014128Y-47046666D01*
X51987770Y-47049500D01*
X51828305Y-47049500D01*
X51761266Y-47029815D01*
X51715511Y-46977011D01*
X51712123Y-46968833D01*
X51665697Y-46844359D01*
X51668788Y-46843206D01*
X51657344Y-46790654D01*
X51667467Y-46756223D01*
X51665253Y-46755398D01*
X51718597Y-46612376D01*
X51718598Y-46612372D01*
X51724999Y-46552844D01*
X51725000Y-46552827D01*
X51725000Y-46050000D01*
X50674000Y-46050000D01*
X50606961Y-46030315D01*
X50561206Y-45977511D01*
X50550000Y-45926000D01*
X50550000Y-45674000D01*
X50569685Y-45606961D01*
X50622489Y-45561206D01*
X50674000Y-45550000D01*
X51725000Y-45550000D01*
X51725000Y-45047172D01*
X51724999Y-45047155D01*
X51718598Y-44987627D01*
X51718596Y-44987620D01*
X51668354Y-44852913D01*
X51668350Y-44852906D01*
X51582190Y-44737812D01*
X51582187Y-44737809D01*
X51467093Y-44651649D01*
X51467086Y-44651645D01*
X51332379Y-44601403D01*
X51332372Y-44601401D01*
X51272844Y-44595000D01*
X50974304Y-44595000D01*
X50907265Y-44575315D01*
X50861510Y-44522511D01*
X50851566Y-44453353D01*
X50880591Y-44389797D01*
X50913855Y-44364688D01*
X50913187Y-44363605D01*
X50919332Y-44359814D01*
X50919334Y-44359814D01*
X51068656Y-44267712D01*
X51137049Y-44199319D01*
X51198372Y-44165834D01*
X51224730Y-44163000D01*
X52311419Y-44163000D01*
X52324854Y-44160327D01*
X52351308Y-44155065D01*
X52420898Y-44161291D01*
G37*
%TD.AperFunction*%
%TA.AperFunction,Conductor*%
G36*
X44194459Y-43775283D02*
G01*
X44239229Y-43828925D01*
X44249500Y-43878340D01*
X44249500Y-44676000D01*
X44229815Y-44743039D01*
X44177011Y-44788794D01*
X44125500Y-44800000D01*
X43890000Y-44800000D01*
X43890000Y-45716988D01*
X43832993Y-45684075D01*
X43705826Y-45650000D01*
X43574174Y-45650000D01*
X43447007Y-45684075D01*
X43390000Y-45716988D01*
X43390000Y-44800000D01*
X42742155Y-44800000D01*
X42682627Y-44806401D01*
X42682620Y-44806403D01*
X42547913Y-44856645D01*
X42547906Y-44856649D01*
X42432812Y-44942809D01*
X42432809Y-44942812D01*
X42346649Y-45057906D01*
X42346645Y-45057913D01*
X42297578Y-45189470D01*
X42255707Y-45245404D01*
X42190242Y-45269821D01*
X42121969Y-45254969D01*
X42093715Y-45233819D01*
X42049366Y-45189470D01*
X41971401Y-45111505D01*
X41933744Y-45085137D01*
X41903375Y-45063872D01*
X41859751Y-45009294D01*
X41850500Y-44962298D01*
X41850500Y-44005300D01*
X41870185Y-43938261D01*
X41922989Y-43892506D01*
X41935482Y-43887599D01*
X42019334Y-43859814D01*
X42134905Y-43788529D01*
X42202296Y-43770090D01*
X42265094Y-43788529D01*
X42380666Y-43859814D01*
X42547203Y-43914999D01*
X42649991Y-43925500D01*
X43650008Y-43925499D01*
X43650016Y-43925498D01*
X43650019Y-43925498D01*
X43706302Y-43919748D01*
X43752797Y-43914999D01*
X43919334Y-43859814D01*
X44060407Y-43772799D01*
X44127795Y-43754361D01*
X44194459Y-43775283D01*
G37*
%TD.AperFunction*%
%TD*%
%TA.AperFunction,Conductor*%
%TO.N,GNDD*%
G36*
X52763328Y-58619685D02*
G01*
X52782229Y-58641498D01*
X52783640Y-58640088D01*
X53461405Y-59317852D01*
X53376302Y-59340656D01*
X53273686Y-59399901D01*
X53189901Y-59483686D01*
X53130656Y-59586302D01*
X53107852Y-59671405D01*
X52470974Y-59034526D01*
X52470973Y-59034526D01*
X52419868Y-59107512D01*
X52419866Y-59107516D01*
X52323734Y-59313673D01*
X52323730Y-59313682D01*
X52264860Y-59533389D01*
X52264858Y-59533400D01*
X52245034Y-59759997D01*
X52245034Y-59760002D01*
X52264858Y-59986599D01*
X52264860Y-59986610D01*
X52323730Y-60206317D01*
X52323735Y-60206331D01*
X52419863Y-60412478D01*
X52470974Y-60485472D01*
X53107852Y-59848593D01*
X53130656Y-59933698D01*
X53189901Y-60036314D01*
X53273686Y-60120099D01*
X53376302Y-60179344D01*
X53461405Y-60202147D01*
X52824526Y-60839025D01*
X52826772Y-60864694D01*
X52813005Y-60933194D01*
X52764389Y-60983376D01*
X52705415Y-60998934D01*
X52705423Y-60999099D01*
X52705429Y-60999146D01*
X52705426Y-60999146D01*
X52705436Y-60999324D01*
X52703558Y-60999424D01*
X52703272Y-60999500D01*
X52702143Y-60999500D01*
X52702123Y-60999501D01*
X52642516Y-61005908D01*
X52507671Y-61056202D01*
X52507664Y-61056206D01*
X52392455Y-61142452D01*
X52392452Y-61142455D01*
X52306206Y-61257664D01*
X52306204Y-61257668D01*
X52306204Y-61257669D01*
X52302039Y-61268834D01*
X52260171Y-61324766D01*
X52194707Y-61349184D01*
X52185859Y-61349500D01*
X52041901Y-61349500D01*
X51974862Y-61329815D01*
X51929107Y-61277011D01*
X51918612Y-61212243D01*
X51924999Y-61152841D01*
X51925000Y-61152827D01*
X51925000Y-60650000D01*
X49575000Y-60650000D01*
X49575000Y-61152844D01*
X49581401Y-61212372D01*
X49581403Y-61212379D01*
X49634746Y-61355399D01*
X49631421Y-61356639D01*
X49642646Y-61408398D01*
X49632303Y-61443613D01*
X49634303Y-61444359D01*
X49580908Y-61587517D01*
X49574501Y-61647116D01*
X49574500Y-61647135D01*
X49574500Y-63152870D01*
X49574501Y-63152876D01*
X49580908Y-63212483D01*
X49631202Y-63347328D01*
X49631206Y-63347335D01*
X49717452Y-63462544D01*
X49717455Y-63462547D01*
X49832664Y-63548793D01*
X49832671Y-63548797D01*
X49967517Y-63599091D01*
X49967516Y-63599091D01*
X49974444Y-63599835D01*
X50027127Y-63605500D01*
X51472872Y-63605499D01*
X51532483Y-63599091D01*
X51667331Y-63548796D01*
X51782546Y-63462546D01*
X51868796Y-63347331D01*
X51919091Y-63212483D01*
X51925500Y-63152873D01*
X51925500Y-62974500D01*
X51945185Y-62907461D01*
X51997989Y-62861706D01*
X52049500Y-62850500D01*
X52125501Y-62850500D01*
X52192540Y-62870185D01*
X52238295Y-62922989D01*
X52249501Y-62974500D01*
X52249501Y-63147876D01*
X52255908Y-63207483D01*
X52306202Y-63342328D01*
X52306206Y-63342335D01*
X52392452Y-63457544D01*
X52392455Y-63457547D01*
X52507664Y-63543793D01*
X52507671Y-63543797D01*
X52642517Y-63594091D01*
X52642516Y-63594091D01*
X52649444Y-63594835D01*
X52702127Y-63600500D01*
X54397872Y-63600499D01*
X54457483Y-63594091D01*
X54592331Y-63543796D01*
X54707546Y-63457546D01*
X54793796Y-63342331D01*
X54844091Y-63207483D01*
X54850500Y-63147873D01*
X54850499Y-61452128D01*
X54844091Y-61392517D01*
X54830709Y-61356639D01*
X54793797Y-61257671D01*
X54793793Y-61257664D01*
X54707547Y-61142455D01*
X54707544Y-61142452D01*
X54592335Y-61056206D01*
X54592328Y-61056202D01*
X54457482Y-61005908D01*
X54457483Y-61005908D01*
X54397883Y-60999501D01*
X54397881Y-60999500D01*
X54397873Y-60999500D01*
X54397865Y-60999500D01*
X54396755Y-60999500D01*
X54396506Y-60999427D01*
X54394548Y-60999322D01*
X54394572Y-60998859D01*
X54329716Y-60979815D01*
X54283961Y-60927011D01*
X54273227Y-60864694D01*
X54275472Y-60839025D01*
X53638594Y-60202147D01*
X53723698Y-60179344D01*
X53826314Y-60120099D01*
X53910099Y-60036314D01*
X53969344Y-59933698D01*
X53992147Y-59848594D01*
X54629024Y-60485471D01*
X54680136Y-60412478D01*
X54776264Y-60206331D01*
X54776269Y-60206317D01*
X54835139Y-59986610D01*
X54835141Y-59986599D01*
X54854966Y-59760002D01*
X54854966Y-59759997D01*
X54835141Y-59533400D01*
X54835139Y-59533389D01*
X54776269Y-59313682D01*
X54776264Y-59313668D01*
X54680136Y-59107521D01*
X54680132Y-59107513D01*
X54629025Y-59034526D01*
X53992147Y-59671404D01*
X53969344Y-59586302D01*
X53910099Y-59483686D01*
X53826314Y-59399901D01*
X53723698Y-59340656D01*
X53638593Y-59317851D01*
X54316359Y-58640088D01*
X54317877Y-58641606D01*
X54342557Y-58616128D01*
X54403710Y-58600000D01*
X60307966Y-58600000D01*
X60375005Y-58619685D01*
X60420760Y-58672489D01*
X60430704Y-58741647D01*
X60401679Y-58805203D01*
X60382278Y-58823266D01*
X60342809Y-58852812D01*
X60256649Y-58967906D01*
X60256645Y-58967913D01*
X60206403Y-59102620D01*
X60206401Y-59102627D01*
X60200000Y-59162155D01*
X60200000Y-59810000D01*
X61116988Y-59810000D01*
X61084075Y-59867007D01*
X61050000Y-59994174D01*
X61050000Y-60125826D01*
X61084075Y-60252993D01*
X61116988Y-60310000D01*
X60200000Y-60310000D01*
X60200000Y-60957844D01*
X60206401Y-61017372D01*
X60206403Y-61017379D01*
X60256645Y-61152086D01*
X60256649Y-61152093D01*
X60342809Y-61267187D01*
X60342812Y-61267190D01*
X60457906Y-61353350D01*
X60457913Y-61353354D01*
X60589470Y-61402421D01*
X60645403Y-61444292D01*
X60669821Y-61509756D01*
X60654970Y-61578029D01*
X60633819Y-61606284D01*
X60511503Y-61728600D01*
X60375965Y-61922169D01*
X60375964Y-61922171D01*
X60276098Y-62136335D01*
X60276094Y-62136344D01*
X60214938Y-62364586D01*
X60214936Y-62364596D01*
X60194341Y-62599999D01*
X60194341Y-62600000D01*
X60214936Y-62835403D01*
X60214938Y-62835413D01*
X60276094Y-63063655D01*
X60276096Y-63063659D01*
X60276097Y-63063663D01*
X60317698Y-63152876D01*
X60375965Y-63277830D01*
X60375967Y-63277834D01*
X60473585Y-63417246D01*
X60505305Y-63462547D01*
X60511501Y-63471395D01*
X60511506Y-63471402D01*
X60678595Y-63638492D01*
X60678598Y-63638494D01*
X60678599Y-63638495D01*
X60746623Y-63686125D01*
X60790248Y-63740701D01*
X60799500Y-63787700D01*
X60799500Y-69137770D01*
X60779815Y-69204809D01*
X60763181Y-69225451D01*
X58806120Y-71182511D01*
X58744797Y-71215996D01*
X58675105Y-71211012D01*
X58619172Y-71169140D01*
X58594755Y-71103676D01*
X58598664Y-71062736D01*
X58635140Y-70926606D01*
X58635141Y-70926599D01*
X58654966Y-70700002D01*
X58654966Y-70699997D01*
X58635141Y-70473400D01*
X58635139Y-70473389D01*
X58576269Y-70253682D01*
X58576264Y-70253668D01*
X58480136Y-70047521D01*
X58480132Y-70047513D01*
X58429025Y-69974526D01*
X57832961Y-70570591D01*
X57815924Y-70507008D01*
X57750098Y-70392994D01*
X57657006Y-70299902D01*
X57542992Y-70234076D01*
X57479407Y-70217038D01*
X58075472Y-69620974D01*
X58002478Y-69569863D01*
X57796331Y-69473735D01*
X57796317Y-69473730D01*
X57576610Y-69414860D01*
X57576599Y-69414858D01*
X57350002Y-69395034D01*
X57349998Y-69395034D01*
X57123400Y-69414858D01*
X57123389Y-69414860D01*
X56903682Y-69473730D01*
X56903673Y-69473734D01*
X56697516Y-69569866D01*
X56697512Y-69569868D01*
X56624526Y-69620973D01*
X56624526Y-69620974D01*
X57220591Y-70217038D01*
X57157008Y-70234076D01*
X57042994Y-70299902D01*
X56949902Y-70392994D01*
X56884076Y-70507008D01*
X56867038Y-70570591D01*
X56270974Y-69974526D01*
X56270973Y-69974526D01*
X56219868Y-70047512D01*
X56219867Y-70047514D01*
X56212656Y-70062979D01*
X56166482Y-70115417D01*
X56099288Y-70134567D01*
X56032407Y-70114350D01*
X55987893Y-70062976D01*
X55980568Y-70047266D01*
X55881714Y-69906086D01*
X55850045Y-69860858D01*
X55689141Y-69699954D01*
X55502734Y-69569432D01*
X55502732Y-69569431D01*
X55296497Y-69473261D01*
X55296488Y-69473258D01*
X55076697Y-69414366D01*
X55076693Y-69414365D01*
X55076692Y-69414365D01*
X55076691Y-69414364D01*
X55076686Y-69414364D01*
X54850002Y-69394532D01*
X54849998Y-69394532D01*
X54623313Y-69414364D01*
X54623302Y-69414366D01*
X54403511Y-69473258D01*
X54403502Y-69473261D01*
X54197267Y-69569431D01*
X54197265Y-69569432D01*
X54010858Y-69699954D01*
X53849954Y-69860858D01*
X53719433Y-70047264D01*
X53719432Y-70047266D01*
X53712380Y-70062387D01*
X53666209Y-70114825D01*
X53599015Y-70133976D01*
X53532134Y-70113760D01*
X53487619Y-70062387D01*
X53480568Y-70047266D01*
X53350047Y-69860861D01*
X53350045Y-69860858D01*
X53189141Y-69699954D01*
X53010557Y-69574910D01*
X53002734Y-69569432D01*
X53002733Y-69569431D01*
X53002731Y-69569430D01*
X52887094Y-69515507D01*
X52834655Y-69469334D01*
X52815499Y-69403125D01*
X52815499Y-68432129D01*
X52815498Y-68432123D01*
X52813479Y-68413342D01*
X52809091Y-68372517D01*
X52793712Y-68331285D01*
X52758797Y-68237671D01*
X52758793Y-68237664D01*
X52672547Y-68122455D01*
X52672544Y-68122452D01*
X52557335Y-68036206D01*
X52557328Y-68036202D01*
X52422486Y-67985910D01*
X52422485Y-67985909D01*
X52422483Y-67985909D01*
X52362873Y-67979500D01*
X52362863Y-67979500D01*
X51737129Y-67979500D01*
X51737123Y-67979501D01*
X51677518Y-67985908D01*
X51612066Y-68010320D01*
X51542374Y-68015303D01*
X51481053Y-67981818D01*
X51479026Y-67979791D01*
X51445541Y-67918468D01*
X51450525Y-67848776D01*
X51492397Y-67792843D01*
X51523375Y-67775928D01*
X51557084Y-67763355D01*
X51557093Y-67763350D01*
X51672187Y-67677190D01*
X51672190Y-67677187D01*
X51758350Y-67562093D01*
X51758354Y-67562086D01*
X51808596Y-67427379D01*
X51808598Y-67427372D01*
X51814999Y-67367844D01*
X51815000Y-67367827D01*
X51815000Y-67050000D01*
X51174000Y-67050000D01*
X51106961Y-67030315D01*
X51061206Y-66977511D01*
X51050000Y-66926000D01*
X51050000Y-66800000D01*
X50924000Y-66800000D01*
X50856961Y-66780315D01*
X50811206Y-66727511D01*
X50800000Y-66676000D01*
X50800000Y-66550000D01*
X51300000Y-66550000D01*
X51815000Y-66550000D01*
X51815000Y-66232172D01*
X51814999Y-66232155D01*
X51808598Y-66172627D01*
X51808596Y-66172620D01*
X51758354Y-66037913D01*
X51758350Y-66037906D01*
X51672190Y-65922812D01*
X51672187Y-65922809D01*
X51557093Y-65836649D01*
X51557086Y-65836645D01*
X51422379Y-65786403D01*
X51422372Y-65786401D01*
X51362844Y-65780000D01*
X51300000Y-65780000D01*
X51300000Y-66550000D01*
X50800000Y-66550000D01*
X50800000Y-65780000D01*
X50737155Y-65780000D01*
X50677627Y-65786401D01*
X50677620Y-65786403D01*
X50542913Y-65836645D01*
X50542906Y-65836649D01*
X50427812Y-65922809D01*
X50373766Y-65995005D01*
X50317832Y-66036875D01*
X50248140Y-66041859D01*
X50186818Y-66008373D01*
X50153333Y-65947049D01*
X50150500Y-65920693D01*
X50150500Y-65820943D01*
X50143803Y-65795951D01*
X50122620Y-65716894D01*
X50109577Y-65668216D01*
X50049036Y-65563355D01*
X50030524Y-65531290D01*
X50030521Y-65531286D01*
X50030520Y-65531284D01*
X49918716Y-65419480D01*
X49918715Y-65419479D01*
X49914385Y-65415149D01*
X49914374Y-65415139D01*
X49637590Y-65138355D01*
X49637588Y-65138352D01*
X49512969Y-65013733D01*
X49514755Y-65011946D01*
X49481018Y-64965725D01*
X49474357Y-64911194D01*
X49475500Y-64900009D01*
X49475499Y-64274992D01*
X49471026Y-64231208D01*
X49464999Y-64172203D01*
X49464998Y-64172200D01*
X49445490Y-64113330D01*
X49409814Y-64005666D01*
X49317712Y-63856344D01*
X49193656Y-63732288D01*
X49044334Y-63640186D01*
X48877797Y-63585001D01*
X48877795Y-63585000D01*
X48775016Y-63574500D01*
X48775009Y-63574500D01*
X48162597Y-63574500D01*
X48095558Y-63554815D01*
X48074916Y-63538181D01*
X47475090Y-62938355D01*
X47475088Y-62938352D01*
X47356217Y-62819481D01*
X47356216Y-62819480D01*
X47269404Y-62769360D01*
X47269404Y-62769359D01*
X47269400Y-62769358D01*
X47219285Y-62740423D01*
X47066557Y-62699499D01*
X46908443Y-62699499D01*
X46900847Y-62699499D01*
X46900831Y-62699500D01*
X46519000Y-62699500D01*
X46451961Y-62679815D01*
X46406206Y-62627011D01*
X46395000Y-62575500D01*
X46395000Y-62100000D01*
X45719000Y-62100000D01*
X45651961Y-62080315D01*
X45606206Y-62027511D01*
X45595000Y-61976000D01*
X45595000Y-61850000D01*
X45469000Y-61850000D01*
X45401961Y-61830315D01*
X45356206Y-61777511D01*
X45345000Y-61726000D01*
X45345000Y-61600000D01*
X45845000Y-61600000D01*
X46395000Y-61600000D01*
X46395000Y-60909365D01*
X46394999Y-60909350D01*
X46392100Y-60872510D01*
X46392099Y-60872504D01*
X46346283Y-60714806D01*
X46346282Y-60714803D01*
X46262685Y-60573447D01*
X46262678Y-60573438D01*
X46146561Y-60457321D01*
X46146552Y-60457314D01*
X46005196Y-60373717D01*
X46005193Y-60373716D01*
X45847494Y-60327900D01*
X45847497Y-60327900D01*
X45845000Y-60327703D01*
X45845000Y-61600000D01*
X45345000Y-61600000D01*
X45345000Y-60327703D01*
X45342503Y-60327900D01*
X45184806Y-60373716D01*
X45184803Y-60373717D01*
X45043449Y-60457313D01*
X45037283Y-60462097D01*
X45035389Y-60459655D01*
X44986580Y-60486239D01*
X44916894Y-60481179D01*
X44884227Y-60460159D01*
X44883031Y-60461702D01*
X44876862Y-60456917D01*
X44741025Y-60376584D01*
X44735398Y-60373256D01*
X44735397Y-60373255D01*
X44735396Y-60373255D01*
X44735393Y-60373254D01*
X44577573Y-60327402D01*
X44577567Y-60327401D01*
X44540701Y-60324500D01*
X44540694Y-60324500D01*
X44109306Y-60324500D01*
X44109298Y-60324500D01*
X44072432Y-60327401D01*
X44072426Y-60327402D01*
X43914606Y-60373254D01*
X43914603Y-60373255D01*
X43773137Y-60456917D01*
X43766969Y-60461702D01*
X43765072Y-60459256D01*
X43716358Y-60485857D01*
X43646666Y-60480873D01*
X43614296Y-60460069D01*
X43613031Y-60461702D01*
X43606862Y-60456917D01*
X43471025Y-60376584D01*
X43465398Y-60373256D01*
X43465397Y-60373255D01*
X43465396Y-60373255D01*
X43465393Y-60373254D01*
X43307573Y-60327402D01*
X43307567Y-60327401D01*
X43270701Y-60324500D01*
X43270694Y-60324500D01*
X42839306Y-60324500D01*
X42839298Y-60324500D01*
X42802432Y-60327401D01*
X42802426Y-60327402D01*
X42644606Y-60373254D01*
X42644603Y-60373255D01*
X42503137Y-60456917D01*
X42496969Y-60461702D01*
X42495072Y-60459256D01*
X42446358Y-60485857D01*
X42376666Y-60480873D01*
X42344296Y-60460069D01*
X42343031Y-60461702D01*
X42336862Y-60456917D01*
X42201025Y-60376584D01*
X42195398Y-60373256D01*
X42195397Y-60373255D01*
X42195396Y-60373255D01*
X42195393Y-60373254D01*
X42037573Y-60327402D01*
X42037567Y-60327401D01*
X42000701Y-60324500D01*
X42000694Y-60324500D01*
X41569306Y-60324500D01*
X41569298Y-60324500D01*
X41532432Y-60327401D01*
X41532426Y-60327402D01*
X41374606Y-60373254D01*
X41374603Y-60373255D01*
X41233137Y-60456917D01*
X41226969Y-60461702D01*
X41225072Y-60459256D01*
X41176358Y-60485857D01*
X41106666Y-60480873D01*
X41074296Y-60460069D01*
X41073031Y-60461702D01*
X41066862Y-60456917D01*
X40931025Y-60376584D01*
X40925398Y-60373256D01*
X40925397Y-60373255D01*
X40925396Y-60373255D01*
X40925393Y-60373254D01*
X40767573Y-60327402D01*
X40767567Y-60327401D01*
X40730701Y-60324500D01*
X40730694Y-60324500D01*
X40299306Y-60324500D01*
X40299298Y-60324500D01*
X40262432Y-60327401D01*
X40262426Y-60327402D01*
X40104606Y-60373254D01*
X40104603Y-60373255D01*
X39963137Y-60456917D01*
X39956969Y-60461702D01*
X39955072Y-60459256D01*
X39906358Y-60485857D01*
X39836666Y-60480873D01*
X39804296Y-60460069D01*
X39803031Y-60461702D01*
X39796862Y-60456917D01*
X39661025Y-60376584D01*
X39655398Y-60373256D01*
X39655397Y-60373255D01*
X39655396Y-60373255D01*
X39655393Y-60373254D01*
X39497573Y-60327402D01*
X39497567Y-60327401D01*
X39460701Y-60324500D01*
X39460694Y-60324500D01*
X39029306Y-60324500D01*
X39029298Y-60324500D01*
X38992432Y-60327401D01*
X38992426Y-60327402D01*
X38834606Y-60373254D01*
X38834603Y-60373255D01*
X38693137Y-60456917D01*
X38686969Y-60461702D01*
X38685072Y-60459256D01*
X38636358Y-60485857D01*
X38566666Y-60480873D01*
X38534296Y-60460069D01*
X38533031Y-60461702D01*
X38526862Y-60456917D01*
X38391025Y-60376584D01*
X38385398Y-60373256D01*
X38385397Y-60373255D01*
X38385396Y-60373255D01*
X38385393Y-60373254D01*
X38227573Y-60327402D01*
X38227567Y-60327401D01*
X38190701Y-60324500D01*
X38190694Y-60324500D01*
X37759306Y-60324500D01*
X37759298Y-60324500D01*
X37722432Y-60327401D01*
X37722426Y-60327402D01*
X37564606Y-60373254D01*
X37564605Y-60373254D01*
X37465733Y-60431726D01*
X37398009Y-60448907D01*
X37331746Y-60426747D01*
X37299511Y-60393884D01*
X37287952Y-60376585D01*
X37235867Y-60324500D01*
X37183416Y-60272049D01*
X37090711Y-60179344D01*
X36778421Y-59867052D01*
X36778414Y-59867046D01*
X36704729Y-59817812D01*
X36704729Y-59817813D01*
X36655491Y-59784913D01*
X36518917Y-59728343D01*
X36518907Y-59728340D01*
X36373920Y-59699500D01*
X36373918Y-59699500D01*
X35737230Y-59699500D01*
X35670191Y-59679815D01*
X35649549Y-59663181D01*
X35633523Y-59647155D01*
X49575000Y-59647155D01*
X49575000Y-60150000D01*
X50500000Y-60150000D01*
X51000000Y-60150000D01*
X51925000Y-60150000D01*
X51925000Y-59647172D01*
X51924999Y-59647155D01*
X51918598Y-59587627D01*
X51918596Y-59587620D01*
X51868354Y-59452913D01*
X51868350Y-59452906D01*
X51782190Y-59337812D01*
X51782187Y-59337809D01*
X51667093Y-59251649D01*
X51667086Y-59251645D01*
X51532379Y-59201403D01*
X51532372Y-59201401D01*
X51472844Y-59195000D01*
X51000000Y-59195000D01*
X51000000Y-60150000D01*
X50500000Y-60150000D01*
X50500000Y-59195000D01*
X50027155Y-59195000D01*
X49967627Y-59201401D01*
X49967620Y-59201403D01*
X49832913Y-59251645D01*
X49832906Y-59251649D01*
X49717812Y-59337809D01*
X49717809Y-59337812D01*
X49631649Y-59452906D01*
X49631645Y-59452913D01*
X49581403Y-59587620D01*
X49581401Y-59587627D01*
X49575000Y-59647155D01*
X35633523Y-59647155D01*
X35593657Y-59607289D01*
X35593656Y-59607288D01*
X35444334Y-59515186D01*
X35277797Y-59460001D01*
X35277795Y-59460000D01*
X35175010Y-59449500D01*
X34124998Y-59449500D01*
X34124980Y-59449501D01*
X34022203Y-59460000D01*
X34022200Y-59460001D01*
X33855668Y-59515185D01*
X33855663Y-59515187D01*
X33706342Y-59607289D01*
X33582289Y-59731342D01*
X33490187Y-59880663D01*
X33490186Y-59880666D01*
X33435001Y-60047203D01*
X33435001Y-60047204D01*
X33435000Y-60047204D01*
X33424500Y-60149983D01*
X33424500Y-60750001D01*
X33424501Y-60750019D01*
X33435000Y-60852796D01*
X33435001Y-60852799D01*
X33459593Y-60927011D01*
X33490186Y-61019334D01*
X33582288Y-61168656D01*
X33706344Y-61292712D01*
X33709628Y-61294737D01*
X33709653Y-61294753D01*
X33711445Y-61296746D01*
X33712011Y-61297193D01*
X33711934Y-61297289D01*
X33756379Y-61346699D01*
X33767603Y-61415661D01*
X33739761Y-61479744D01*
X33709665Y-61505826D01*
X33706660Y-61507679D01*
X33706655Y-61507683D01*
X33582684Y-61631654D01*
X33490643Y-61780875D01*
X33490641Y-61780880D01*
X33435494Y-61947302D01*
X33435493Y-61947309D01*
X33425000Y-62050013D01*
X33425000Y-62100000D01*
X34526000Y-62100000D01*
X34593039Y-62119685D01*
X34638794Y-62172489D01*
X34650000Y-62224000D01*
X34650000Y-62476000D01*
X34630315Y-62543039D01*
X34577511Y-62588794D01*
X34526000Y-62600000D01*
X33425001Y-62600000D01*
X33425001Y-62649986D01*
X33435494Y-62752697D01*
X33490641Y-62919119D01*
X33490643Y-62919124D01*
X33546945Y-63010403D01*
X33565385Y-63077796D01*
X33544462Y-63144459D01*
X33490820Y-63189229D01*
X33441406Y-63199500D01*
X31067801Y-63199500D01*
X31000762Y-63179815D01*
X30955007Y-63127011D01*
X30950095Y-63114504D01*
X30933245Y-63063655D01*
X30922314Y-63030666D01*
X30830212Y-62881344D01*
X30706156Y-62757288D01*
X30556834Y-62665186D01*
X30390297Y-62610001D01*
X30390295Y-62610000D01*
X30287516Y-62599500D01*
X29675097Y-62599500D01*
X29608058Y-62579815D01*
X29587416Y-62563181D01*
X29462590Y-62438355D01*
X29462588Y-62438352D01*
X29343717Y-62319481D01*
X29343716Y-62319480D01*
X29256904Y-62269360D01*
X29256904Y-62269359D01*
X29256900Y-62269358D01*
X29206785Y-62240423D01*
X29054057Y-62199499D01*
X28895943Y-62199499D01*
X28888347Y-62199499D01*
X28888331Y-62199500D01*
X20329057Y-62199500D01*
X20170943Y-62199500D01*
X20018215Y-62240423D01*
X20018214Y-62240423D01*
X20018212Y-62240424D01*
X20018209Y-62240425D01*
X19968096Y-62269359D01*
X19968095Y-62269360D01*
X19924689Y-62294420D01*
X19881285Y-62319479D01*
X19881282Y-62319481D01*
X16069481Y-66131282D01*
X16069480Y-66131284D01*
X16031300Y-66197414D01*
X15990423Y-66268215D01*
X15949499Y-66420943D01*
X15949499Y-66420945D01*
X15949499Y-66589046D01*
X15949500Y-66589059D01*
X15949500Y-74213330D01*
X15949499Y-74213348D01*
X15949499Y-74379054D01*
X15949498Y-74379054D01*
X15949499Y-74379057D01*
X15990423Y-74531785D01*
X16014431Y-74573368D01*
X16069477Y-74668712D01*
X16069481Y-74668717D01*
X16188349Y-74787585D01*
X16188355Y-74787590D01*
X17234911Y-75834147D01*
X17267004Y-75889733D01*
X17276092Y-75923649D01*
X17276095Y-75923658D01*
X17276097Y-75923663D01*
X17375965Y-76137830D01*
X17375967Y-76137834D01*
X17474526Y-76278590D01*
X17495460Y-76308487D01*
X17511501Y-76331395D01*
X17511506Y-76331402D01*
X17678597Y-76498493D01*
X17678603Y-76498498D01*
X17864158Y-76628425D01*
X17907783Y-76683002D01*
X17914977Y-76752500D01*
X17883454Y-76814855D01*
X17864158Y-76831575D01*
X17678597Y-76961505D01*
X17511505Y-77128597D01*
X17375965Y-77322169D01*
X17375964Y-77322171D01*
X17276098Y-77536335D01*
X17276094Y-77536344D01*
X17214938Y-77764586D01*
X17214936Y-77764596D01*
X17194341Y-77999999D01*
X17194341Y-78000000D01*
X17214936Y-78235403D01*
X17214938Y-78235413D01*
X17276094Y-78463655D01*
X17276096Y-78463659D01*
X17276097Y-78463663D01*
X17358314Y-78639977D01*
X17375965Y-78677830D01*
X17375967Y-78677834D01*
X17450025Y-78783599D01*
X17510289Y-78869665D01*
X17511501Y-78871395D01*
X17511506Y-78871402D01*
X17678597Y-79038493D01*
X17678603Y-79038498D01*
X17872013Y-79173925D01*
X17915638Y-79228502D01*
X17922832Y-79298000D01*
X17891309Y-79360355D01*
X17831079Y-79395769D01*
X17800890Y-79399500D01*
X16104428Y-79399500D01*
X16095582Y-79399184D01*
X16073622Y-79397613D01*
X15895442Y-79384869D01*
X15877931Y-79382351D01*
X15686212Y-79340646D01*
X15669236Y-79335662D01*
X15485390Y-79267090D01*
X15469298Y-79259740D01*
X15297095Y-79165711D01*
X15282210Y-79156146D01*
X15208298Y-79100816D01*
X15125132Y-79038558D01*
X15111762Y-79026972D01*
X14973027Y-78888237D01*
X14961441Y-78874867D01*
X14958847Y-78871402D01*
X14843849Y-78717784D01*
X14834288Y-78702904D01*
X14740259Y-78530701D01*
X14732909Y-78514609D01*
X14710054Y-78453333D01*
X14664334Y-78330755D01*
X14659355Y-78313797D01*
X14617647Y-78122063D01*
X14615130Y-78104556D01*
X14610683Y-78042382D01*
X14600816Y-77904418D01*
X14600500Y-77895572D01*
X14600500Y-61200862D01*
X14620185Y-61133823D01*
X14636819Y-61113181D01*
X17113681Y-58636319D01*
X17175004Y-58602834D01*
X17201362Y-58600000D01*
X52696289Y-58600000D01*
X52763328Y-58619685D01*
G37*
%TD.AperFunction*%
%TA.AperFunction,Conductor*%
G36*
X62569334Y-63593077D02*
G01*
X62625267Y-63634949D01*
X62649684Y-63700413D01*
X62650000Y-63709259D01*
X62650000Y-78608459D01*
X62634832Y-78667886D01*
X62615709Y-78702907D01*
X62606144Y-78717791D01*
X62488558Y-78874867D01*
X62476972Y-78888237D01*
X62338237Y-79026972D01*
X62324867Y-79038558D01*
X62167789Y-79156146D01*
X62152904Y-79165711D01*
X61980701Y-79259740D01*
X61964609Y-79267090D01*
X61780763Y-79335662D01*
X61763787Y-79340646D01*
X61572068Y-79382351D01*
X61554557Y-79384869D01*
X61373779Y-79397799D01*
X61354417Y-79399184D01*
X61345572Y-79399500D01*
X19299110Y-79399500D01*
X19232071Y-79379815D01*
X19186316Y-79327011D01*
X19176372Y-79257853D01*
X19205397Y-79194297D01*
X19227987Y-79173925D01*
X19332397Y-79100816D01*
X19421401Y-79038495D01*
X19588495Y-78871401D01*
X19724035Y-78677830D01*
X19823903Y-78463663D01*
X19885063Y-78235408D01*
X19905659Y-78000000D01*
X19904916Y-77991513D01*
X19896554Y-77895930D01*
X19885063Y-77764592D01*
X19850671Y-77636239D01*
X19852334Y-77566393D01*
X19882763Y-77516470D01*
X20299234Y-77100000D01*
X31644645Y-77100000D01*
X31646690Y-77128599D01*
X31649184Y-77163460D01*
X31649500Y-77172307D01*
X31649500Y-77224568D01*
X31657893Y-77288327D01*
X31658638Y-77295662D01*
X31664039Y-77371162D01*
X31664039Y-77371165D01*
X31674998Y-77421539D01*
X31676771Y-77431711D01*
X31682018Y-77471565D01*
X31682020Y-77471575D01*
X31701783Y-77545332D01*
X31703174Y-77551067D01*
X31721824Y-77636799D01*
X31721825Y-77636802D01*
X31735625Y-77673802D01*
X31739217Y-77685037D01*
X31746498Y-77712207D01*
X31780326Y-77793876D01*
X31781946Y-77797994D01*
X31816822Y-77891500D01*
X31816831Y-77891520D01*
X31829969Y-77915580D01*
X31835691Y-77927538D01*
X31841836Y-77942373D01*
X31841837Y-77942374D01*
X31841840Y-77942382D01*
X31892067Y-78029379D01*
X31893511Y-78031950D01*
X31947109Y-78130107D01*
X31947110Y-78130108D01*
X31947113Y-78130113D01*
X31956302Y-78142388D01*
X31964415Y-78154689D01*
X31966394Y-78158116D01*
X31966397Y-78158121D01*
X31966399Y-78158123D01*
X31966401Y-78158127D01*
X32034909Y-78247408D01*
X32035755Y-78248524D01*
X32110029Y-78347742D01*
X32110033Y-78347746D01*
X32110038Y-78347752D01*
X32115619Y-78353333D01*
X32115635Y-78353350D01*
X32297323Y-78535038D01*
X32297347Y-78535061D01*
X32302247Y-78539961D01*
X32302265Y-78539977D01*
X32401360Y-78614158D01*
X32402536Y-78615049D01*
X32471395Y-78667886D01*
X32491873Y-78683599D01*
X32495301Y-78685578D01*
X32507610Y-78693697D01*
X32515963Y-78699950D01*
X32519887Y-78702887D01*
X32618116Y-78756524D01*
X32620607Y-78757923D01*
X32707627Y-78808164D01*
X32722446Y-78814302D01*
X32734422Y-78820032D01*
X32758476Y-78833167D01*
X32758484Y-78833171D01*
X32772109Y-78838252D01*
X32852026Y-78868060D01*
X32856104Y-78869665D01*
X32937793Y-78903502D01*
X32964969Y-78910783D01*
X32976178Y-78914366D01*
X33013199Y-78928175D01*
X33036175Y-78933173D01*
X33098920Y-78946822D01*
X33104660Y-78948213D01*
X33178435Y-78967982D01*
X33218295Y-78973228D01*
X33228441Y-78974996D01*
X33278840Y-78985961D01*
X33354350Y-78991361D01*
X33361641Y-78992101D01*
X33425435Y-79000500D01*
X33477691Y-79000500D01*
X33486537Y-79000816D01*
X33549999Y-79005355D01*
X33550000Y-79005355D01*
X33550001Y-79005355D01*
X33613463Y-79000816D01*
X33622309Y-79000500D01*
X33674564Y-79000500D01*
X33674565Y-79000500D01*
X33738354Y-78992101D01*
X33745651Y-78991361D01*
X33821160Y-78985961D01*
X33871551Y-78974998D01*
X33881701Y-78973229D01*
X33921565Y-78967982D01*
X33995358Y-78948208D01*
X34001031Y-78946832D01*
X34086801Y-78928175D01*
X34123827Y-78914364D01*
X34135027Y-78910784D01*
X34162207Y-78903502D01*
X34243929Y-78869650D01*
X34247997Y-78868050D01*
X34341513Y-78833172D01*
X34365582Y-78820028D01*
X34377549Y-78814303D01*
X34384488Y-78811429D01*
X34392364Y-78808168D01*
X34392367Y-78808166D01*
X34392373Y-78808164D01*
X34479391Y-78757923D01*
X34481890Y-78756519D01*
X34552822Y-78717789D01*
X34580108Y-78702890D01*
X34580109Y-78702889D01*
X34580113Y-78702887D01*
X34592389Y-78693697D01*
X34604691Y-78685582D01*
X34608127Y-78683599D01*
X34697544Y-78614985D01*
X34698491Y-78614268D01*
X34797742Y-78539971D01*
X34800391Y-78537321D01*
X34800404Y-78537310D01*
X34987310Y-78350404D01*
X34987321Y-78350391D01*
X34989971Y-78347742D01*
X35064268Y-78248491D01*
X35064985Y-78247544D01*
X35133599Y-78158127D01*
X35135584Y-78154689D01*
X35143703Y-78142380D01*
X35152887Y-78130113D01*
X35152891Y-78130107D01*
X35170965Y-78097004D01*
X35206519Y-78031890D01*
X35207931Y-78029379D01*
X35258164Y-77942373D01*
X35264303Y-77927549D01*
X35270030Y-77915580D01*
X35283172Y-77891513D01*
X35318052Y-77797994D01*
X35319650Y-77793929D01*
X35353502Y-77712207D01*
X35360784Y-77685027D01*
X35364364Y-77673827D01*
X35378175Y-77636801D01*
X35396832Y-77551031D01*
X35398213Y-77545340D01*
X35417982Y-77471565D01*
X35423229Y-77431701D01*
X35424998Y-77421551D01*
X35435961Y-77371160D01*
X35441361Y-77295651D01*
X35442101Y-77288354D01*
X35450500Y-77224565D01*
X35450500Y-77199998D01*
X50444645Y-77199998D01*
X50444645Y-77200000D01*
X50449184Y-77263460D01*
X50449500Y-77272307D01*
X50449500Y-77324568D01*
X50457893Y-77388327D01*
X50458638Y-77395662D01*
X50464039Y-77471162D01*
X50464039Y-77471165D01*
X50474998Y-77521539D01*
X50476771Y-77531711D01*
X50482018Y-77571565D01*
X50482020Y-77571575D01*
X50501783Y-77645332D01*
X50503174Y-77651067D01*
X50521824Y-77736799D01*
X50521825Y-77736802D01*
X50535625Y-77773802D01*
X50539217Y-77785037D01*
X50546498Y-77812207D01*
X50580326Y-77893876D01*
X50581946Y-77897994D01*
X50616822Y-77991500D01*
X50616831Y-77991520D01*
X50629969Y-78015580D01*
X50635691Y-78027538D01*
X50641836Y-78042373D01*
X50641837Y-78042374D01*
X50641840Y-78042382D01*
X50692067Y-78129379D01*
X50693511Y-78131950D01*
X50747109Y-78230107D01*
X50747110Y-78230108D01*
X50747113Y-78230113D01*
X50756302Y-78242388D01*
X50764415Y-78254689D01*
X50766394Y-78258116D01*
X50766397Y-78258121D01*
X50766399Y-78258123D01*
X50766401Y-78258127D01*
X50834909Y-78347408D01*
X50835755Y-78348524D01*
X50910029Y-78447742D01*
X50910033Y-78447746D01*
X50910038Y-78447752D01*
X50915619Y-78453333D01*
X50915635Y-78453350D01*
X51097323Y-78635038D01*
X51097347Y-78635061D01*
X51102247Y-78639961D01*
X51102265Y-78639977D01*
X51201360Y-78714158D01*
X51202536Y-78715049D01*
X51258432Y-78757939D01*
X51291873Y-78783599D01*
X51295301Y-78785578D01*
X51307610Y-78793697D01*
X51315963Y-78799950D01*
X51319887Y-78802887D01*
X51418116Y-78856524D01*
X51420607Y-78857923D01*
X51507627Y-78908164D01*
X51522446Y-78914302D01*
X51534422Y-78920032D01*
X51558476Y-78933167D01*
X51558484Y-78933171D01*
X51572109Y-78938252D01*
X51652026Y-78968060D01*
X51656104Y-78969665D01*
X51737793Y-79003502D01*
X51764969Y-79010783D01*
X51776178Y-79014366D01*
X51813199Y-79028175D01*
X51813204Y-79028176D01*
X51898920Y-79046822D01*
X51904660Y-79048213D01*
X51978435Y-79067982D01*
X52018295Y-79073228D01*
X52028441Y-79074996D01*
X52078840Y-79085961D01*
X52154350Y-79091361D01*
X52161641Y-79092101D01*
X52225435Y-79100500D01*
X52277691Y-79100500D01*
X52286537Y-79100816D01*
X52349999Y-79105355D01*
X52350000Y-79105355D01*
X52350001Y-79105355D01*
X52413463Y-79100816D01*
X52422309Y-79100500D01*
X52474564Y-79100500D01*
X52474565Y-79100500D01*
X52538354Y-79092101D01*
X52545651Y-79091361D01*
X52621160Y-79085961D01*
X52671551Y-79074998D01*
X52681701Y-79073229D01*
X52721565Y-79067982D01*
X52795358Y-79048208D01*
X52801031Y-79046832D01*
X52886801Y-79028175D01*
X52923827Y-79014364D01*
X52935027Y-79010784D01*
X52962207Y-79003502D01*
X53043929Y-78969650D01*
X53047997Y-78968050D01*
X53141513Y-78933172D01*
X53165582Y-78920028D01*
X53177549Y-78914303D01*
X53186067Y-78910776D01*
X53192364Y-78908168D01*
X53192367Y-78908166D01*
X53192373Y-78908164D01*
X53279391Y-78857923D01*
X53281890Y-78856519D01*
X53359210Y-78814301D01*
X53380108Y-78802890D01*
X53380109Y-78802889D01*
X53380113Y-78802887D01*
X53392389Y-78793697D01*
X53404691Y-78785582D01*
X53408127Y-78783599D01*
X53497544Y-78714985D01*
X53498491Y-78714268D01*
X53597742Y-78639971D01*
X53600391Y-78637321D01*
X53600404Y-78637310D01*
X53787310Y-78450404D01*
X53787321Y-78450391D01*
X53789971Y-78447742D01*
X53864268Y-78348491D01*
X53864985Y-78347544D01*
X53933599Y-78258127D01*
X53935584Y-78254689D01*
X53943703Y-78242380D01*
X53948919Y-78235413D01*
X53952887Y-78230113D01*
X53952891Y-78230107D01*
X53970965Y-78197004D01*
X54006519Y-78131890D01*
X54007931Y-78129379D01*
X54058164Y-78042373D01*
X54064303Y-78027549D01*
X54070030Y-78015580D01*
X54083172Y-77991513D01*
X54118052Y-77897994D01*
X54119650Y-77893929D01*
X54153502Y-77812207D01*
X54160784Y-77785027D01*
X54164364Y-77773827D01*
X54178175Y-77736801D01*
X54196832Y-77651031D01*
X54198213Y-77645340D01*
X54217982Y-77571565D01*
X54223229Y-77531701D01*
X54224998Y-77521551D01*
X54235961Y-77471160D01*
X54241361Y-77395651D01*
X54242101Y-77388354D01*
X54250500Y-77324565D01*
X54250500Y-77272307D01*
X54250816Y-77263460D01*
X54255355Y-77200000D01*
X54255355Y-77199998D01*
X54250816Y-77136537D01*
X54250500Y-77127691D01*
X54250500Y-77075441D01*
X54250499Y-77075429D01*
X54242101Y-77011641D01*
X54241360Y-77004336D01*
X54235961Y-76928840D01*
X54224996Y-76878441D01*
X54223228Y-76868295D01*
X54217982Y-76828435D01*
X54198213Y-76754657D01*
X54196822Y-76748920D01*
X54178176Y-76663204D01*
X54178175Y-76663199D01*
X54164366Y-76626178D01*
X54160780Y-76614958D01*
X54153502Y-76587793D01*
X54119666Y-76506107D01*
X54118060Y-76502026D01*
X54083172Y-76408487D01*
X54083171Y-76408484D01*
X54083167Y-76408476D01*
X54070032Y-76384422D01*
X54064301Y-76372444D01*
X54058166Y-76357633D01*
X54058164Y-76357627D01*
X54007923Y-76270607D01*
X54006524Y-76268116D01*
X53952887Y-76169887D01*
X53952886Y-76169885D01*
X53943697Y-76157610D01*
X53935578Y-76145301D01*
X53933598Y-76141872D01*
X53933596Y-76141869D01*
X53865049Y-76052536D01*
X53864158Y-76051360D01*
X53789977Y-75952265D01*
X53789961Y-75952247D01*
X53785061Y-75947347D01*
X53785050Y-75947335D01*
X53603366Y-75765651D01*
X53603333Y-75765619D01*
X53597752Y-75760038D01*
X53597744Y-75760031D01*
X53597742Y-75760029D01*
X53498524Y-75685755D01*
X53497491Y-75684972D01*
X53408127Y-75616401D01*
X53408122Y-75616398D01*
X53408121Y-75616397D01*
X53408116Y-75616394D01*
X53404689Y-75614415D01*
X53392387Y-75606301D01*
X53380113Y-75597113D01*
X53380108Y-75597110D01*
X53380107Y-75597109D01*
X53281950Y-75543511D01*
X53279379Y-75542067D01*
X53192382Y-75491840D01*
X53192376Y-75491837D01*
X53192373Y-75491836D01*
X53177538Y-75485691D01*
X53165580Y-75479969D01*
X53141520Y-75466831D01*
X53141500Y-75466822D01*
X53047994Y-75431946D01*
X53043876Y-75430326D01*
X52962207Y-75396498D01*
X52935037Y-75389217D01*
X52923802Y-75385625D01*
X52886802Y-75371825D01*
X52886799Y-75371824D01*
X52801067Y-75353174D01*
X52795332Y-75351783D01*
X52721575Y-75332020D01*
X52721565Y-75332018D01*
X52681711Y-75326771D01*
X52671539Y-75324998D01*
X52621163Y-75314039D01*
X52545662Y-75308638D01*
X52538327Y-75307893D01*
X52474568Y-75299500D01*
X52474565Y-75299500D01*
X52422309Y-75299500D01*
X52413463Y-75299184D01*
X52350001Y-75294645D01*
X52349999Y-75294645D01*
X52286537Y-75299184D01*
X52277691Y-75299500D01*
X52225432Y-75299500D01*
X52161671Y-75307893D01*
X52154336Y-75308638D01*
X52078842Y-75314038D01*
X52078825Y-75314041D01*
X52028457Y-75324998D01*
X52018287Y-75326771D01*
X51978435Y-75332018D01*
X51978420Y-75332021D01*
X51904669Y-75351782D01*
X51898936Y-75353173D01*
X51813202Y-75371823D01*
X51813200Y-75371824D01*
X51776192Y-75385627D01*
X51764958Y-75389218D01*
X51737798Y-75396496D01*
X51737781Y-75396502D01*
X51656107Y-75430332D01*
X51651990Y-75431952D01*
X51558494Y-75466824D01*
X51558475Y-75466833D01*
X51534411Y-75479972D01*
X51522455Y-75485693D01*
X51507621Y-75491838D01*
X51420637Y-75542058D01*
X51418066Y-75543501D01*
X51319891Y-75597110D01*
X51319885Y-75597114D01*
X51307612Y-75606301D01*
X51295320Y-75614410D01*
X51291877Y-75616398D01*
X51291873Y-75616401D01*
X51202615Y-75684889D01*
X51201442Y-75685778D01*
X51102254Y-75760031D01*
X51094236Y-75768048D01*
X51094224Y-75768062D01*
X50918062Y-75944224D01*
X50918048Y-75944236D01*
X50910031Y-75952254D01*
X50835778Y-76051442D01*
X50834889Y-76052615D01*
X50766401Y-76141873D01*
X50766398Y-76141877D01*
X50764410Y-76145320D01*
X50756301Y-76157612D01*
X50747114Y-76169885D01*
X50747110Y-76169891D01*
X50693501Y-76268066D01*
X50692058Y-76270637D01*
X50641838Y-76357621D01*
X50635693Y-76372455D01*
X50629972Y-76384411D01*
X50616833Y-76408475D01*
X50616824Y-76408494D01*
X50581952Y-76501990D01*
X50580332Y-76506107D01*
X50546502Y-76587781D01*
X50546496Y-76587798D01*
X50539218Y-76614958D01*
X50535627Y-76626192D01*
X50521824Y-76663200D01*
X50521823Y-76663202D01*
X50503173Y-76748936D01*
X50501782Y-76754669D01*
X50482021Y-76828420D01*
X50482018Y-76828435D01*
X50476771Y-76868287D01*
X50474998Y-76878457D01*
X50464041Y-76928825D01*
X50464038Y-76928842D01*
X50458638Y-77004336D01*
X50457893Y-77011671D01*
X50449500Y-77075431D01*
X50449500Y-77127691D01*
X50449184Y-77136537D01*
X50444645Y-77199998D01*
X35450500Y-77199998D01*
X35450500Y-77172307D01*
X35450816Y-77163460D01*
X35453310Y-77128599D01*
X35455355Y-77100000D01*
X35453598Y-77075441D01*
X35450816Y-77036537D01*
X35450500Y-77027691D01*
X35450500Y-76975441D01*
X35450499Y-76975429D01*
X35448666Y-76961505D01*
X35442101Y-76911641D01*
X35441360Y-76904336D01*
X35435961Y-76828840D01*
X35424996Y-76778441D01*
X35423228Y-76768295D01*
X35417982Y-76728435D01*
X35398213Y-76654657D01*
X35396822Y-76648920D01*
X35378176Y-76563204D01*
X35378175Y-76563199D01*
X35364366Y-76526178D01*
X35360780Y-76514958D01*
X35353502Y-76487793D01*
X35319666Y-76406107D01*
X35318060Y-76402026D01*
X35283172Y-76308487D01*
X35283171Y-76308484D01*
X35283167Y-76308476D01*
X35270032Y-76284422D01*
X35264301Y-76272444D01*
X35262488Y-76268066D01*
X35258164Y-76257627D01*
X35207923Y-76170607D01*
X35206524Y-76168116D01*
X35152887Y-76069887D01*
X35143698Y-76057612D01*
X35143697Y-76057610D01*
X35135578Y-76045301D01*
X35133598Y-76041872D01*
X35133596Y-76041869D01*
X35065049Y-75952536D01*
X35064158Y-75951360D01*
X34989977Y-75852265D01*
X34989961Y-75852247D01*
X34985061Y-75847347D01*
X34985050Y-75847335D01*
X34803366Y-75665651D01*
X34803333Y-75665619D01*
X34797752Y-75660038D01*
X34797744Y-75660031D01*
X34797742Y-75660029D01*
X34698524Y-75585755D01*
X34697491Y-75584972D01*
X34608127Y-75516401D01*
X34608122Y-75516398D01*
X34608121Y-75516397D01*
X34608116Y-75516394D01*
X34604689Y-75514415D01*
X34592387Y-75506301D01*
X34580113Y-75497113D01*
X34580108Y-75497110D01*
X34580107Y-75497109D01*
X34481950Y-75443511D01*
X34479379Y-75442067D01*
X34392382Y-75391840D01*
X34392376Y-75391837D01*
X34392373Y-75391836D01*
X34377538Y-75385691D01*
X34365580Y-75379969D01*
X34341520Y-75366831D01*
X34341500Y-75366822D01*
X34247994Y-75331946D01*
X34243876Y-75330326D01*
X34162207Y-75296498D01*
X34135037Y-75289217D01*
X34123802Y-75285625D01*
X34086802Y-75271825D01*
X34086799Y-75271824D01*
X34001067Y-75253174D01*
X33995332Y-75251783D01*
X33921575Y-75232020D01*
X33921565Y-75232018D01*
X33881711Y-75226771D01*
X33871539Y-75224998D01*
X33821163Y-75214039D01*
X33745662Y-75208638D01*
X33738327Y-75207893D01*
X33674568Y-75199500D01*
X33674565Y-75199500D01*
X33622309Y-75199500D01*
X33613463Y-75199184D01*
X33550001Y-75194645D01*
X33549999Y-75194645D01*
X33486537Y-75199184D01*
X33477691Y-75199500D01*
X33425432Y-75199500D01*
X33361671Y-75207893D01*
X33354336Y-75208638D01*
X33278842Y-75214038D01*
X33278825Y-75214041D01*
X33228457Y-75224998D01*
X33218287Y-75226771D01*
X33178435Y-75232018D01*
X33178420Y-75232021D01*
X33104669Y-75251782D01*
X33098936Y-75253173D01*
X33013202Y-75271823D01*
X33013200Y-75271824D01*
X32976192Y-75285627D01*
X32964958Y-75289218D01*
X32937798Y-75296496D01*
X32937781Y-75296502D01*
X32856107Y-75330332D01*
X32851990Y-75331952D01*
X32758494Y-75366824D01*
X32758475Y-75366833D01*
X32734411Y-75379972D01*
X32722455Y-75385693D01*
X32707621Y-75391838D01*
X32620637Y-75442058D01*
X32618066Y-75443501D01*
X32519891Y-75497110D01*
X32519885Y-75497114D01*
X32507612Y-75506301D01*
X32495320Y-75514410D01*
X32491877Y-75516398D01*
X32491873Y-75516401D01*
X32402615Y-75584889D01*
X32401442Y-75585778D01*
X32302254Y-75660031D01*
X32294236Y-75668048D01*
X32294224Y-75668062D01*
X32118062Y-75844224D01*
X32118048Y-75844236D01*
X32110031Y-75852254D01*
X32035778Y-75951442D01*
X32034889Y-75952615D01*
X31966401Y-76041873D01*
X31966398Y-76041877D01*
X31964410Y-76045320D01*
X31956301Y-76057612D01*
X31947114Y-76069885D01*
X31947110Y-76069891D01*
X31893501Y-76168066D01*
X31892058Y-76170637D01*
X31841838Y-76257621D01*
X31835693Y-76272455D01*
X31829972Y-76284411D01*
X31816833Y-76308475D01*
X31816824Y-76308494D01*
X31781952Y-76401990D01*
X31780332Y-76406107D01*
X31746502Y-76487781D01*
X31746496Y-76487798D01*
X31739218Y-76514958D01*
X31735627Y-76526192D01*
X31721824Y-76563200D01*
X31721823Y-76563202D01*
X31703173Y-76648936D01*
X31701782Y-76654669D01*
X31682021Y-76728420D01*
X31682018Y-76728435D01*
X31676771Y-76768287D01*
X31674998Y-76778457D01*
X31664041Y-76828825D01*
X31664038Y-76828842D01*
X31658638Y-76904336D01*
X31657893Y-76911671D01*
X31649500Y-76975431D01*
X31649500Y-77027691D01*
X31649184Y-77036537D01*
X31646402Y-77075441D01*
X31644645Y-77100000D01*
X20299234Y-77100000D01*
X21430520Y-75968716D01*
X21509577Y-75831784D01*
X21550501Y-75679057D01*
X21550501Y-75520942D01*
X21550501Y-75513347D01*
X21550500Y-75513329D01*
X21550500Y-69000097D01*
X21570185Y-68933058D01*
X21586819Y-68912416D01*
X22362416Y-68136819D01*
X22423739Y-68103334D01*
X22450097Y-68100500D01*
X27849903Y-68100500D01*
X27916942Y-68120185D01*
X27937584Y-68136819D01*
X27965139Y-68164374D01*
X27965149Y-68164385D01*
X27969479Y-68168715D01*
X27969480Y-68168716D01*
X28081284Y-68280520D01*
X28168095Y-68330639D01*
X28168097Y-68330641D01*
X28206151Y-68352611D01*
X28218215Y-68359577D01*
X28370943Y-68400500D01*
X28529057Y-68400500D01*
X30259337Y-68400500D01*
X30325308Y-68419505D01*
X30422310Y-68480456D01*
X30543621Y-68522904D01*
X30581943Y-68536314D01*
X30749997Y-68555249D01*
X30750000Y-68555249D01*
X30750003Y-68555249D01*
X30918059Y-68536313D01*
X30918061Y-68536313D01*
X31019545Y-68500802D01*
X31089324Y-68497240D01*
X31149951Y-68531968D01*
X31182179Y-68593961D01*
X31184500Y-68617843D01*
X31184500Y-69170977D01*
X31164815Y-69238016D01*
X31112011Y-69283771D01*
X31055414Y-69293519D01*
X31055414Y-69294532D01*
X31049998Y-69294532D01*
X30823313Y-69314364D01*
X30823302Y-69314366D01*
X30603511Y-69373258D01*
X30603502Y-69373261D01*
X30397267Y-69469431D01*
X30397265Y-69469432D01*
X30210862Y-69599951D01*
X30053726Y-69757087D01*
X29992403Y-69790571D01*
X29922711Y-69785587D01*
X29866778Y-69743715D01*
X29845369Y-69697923D01*
X29844091Y-69692518D01*
X29831093Y-69657669D01*
X29809566Y-69599951D01*
X29793797Y-69557671D01*
X29793793Y-69557664D01*
X29707547Y-69442455D01*
X29707544Y-69442452D01*
X29592335Y-69356206D01*
X29592328Y-69356202D01*
X29457482Y-69305908D01*
X29457483Y-69305908D01*
X29397883Y-69299501D01*
X29397881Y-69299500D01*
X29397873Y-69299500D01*
X29397864Y-69299500D01*
X27702129Y-69299500D01*
X27702123Y-69299501D01*
X27642516Y-69305908D01*
X27507671Y-69356202D01*
X27507664Y-69356206D01*
X27392455Y-69442452D01*
X27392452Y-69442455D01*
X27306206Y-69557664D01*
X27306202Y-69557671D01*
X27255908Y-69692517D01*
X27249501Y-69752116D01*
X27249500Y-69752135D01*
X27249500Y-71447870D01*
X27249501Y-71447876D01*
X27255908Y-71507483D01*
X27306202Y-71642328D01*
X27306206Y-71642335D01*
X27392452Y-71757544D01*
X27392455Y-71757547D01*
X27507664Y-71843793D01*
X27507671Y-71843797D01*
X27642517Y-71894091D01*
X27642516Y-71894091D01*
X27649444Y-71894835D01*
X27702127Y-71900500D01*
X29397872Y-71900499D01*
X29457483Y-71894091D01*
X29592331Y-71843796D01*
X29707546Y-71757546D01*
X29793796Y-71642331D01*
X29844091Y-71507483D01*
X29844092Y-71507472D01*
X29845365Y-71502088D01*
X29879933Y-71441369D01*
X29941841Y-71408978D01*
X30011433Y-71415199D01*
X30053725Y-71442912D01*
X30210858Y-71600045D01*
X30257693Y-71632839D01*
X30397266Y-71730568D01*
X30603504Y-71826739D01*
X30823308Y-71885635D01*
X30971613Y-71898610D01*
X31049998Y-71905468D01*
X31050000Y-71905468D01*
X31050002Y-71905468D01*
X31106807Y-71900498D01*
X31276692Y-71885635D01*
X31496496Y-71826739D01*
X31702734Y-71730568D01*
X31889139Y-71600047D01*
X32050047Y-71439139D01*
X32180568Y-71252734D01*
X32187618Y-71237614D01*
X32233789Y-71185176D01*
X32300982Y-71166023D01*
X32367864Y-71186238D01*
X32412381Y-71237614D01*
X32419313Y-71252478D01*
X32419432Y-71252733D01*
X32419432Y-71252734D01*
X32549954Y-71439141D01*
X32710858Y-71600045D01*
X32757693Y-71632839D01*
X32897266Y-71730568D01*
X33103504Y-71826739D01*
X33323308Y-71885635D01*
X33471613Y-71898610D01*
X33549998Y-71905468D01*
X33550000Y-71905468D01*
X33550002Y-71905468D01*
X33606807Y-71900498D01*
X33776692Y-71885635D01*
X33996496Y-71826739D01*
X34202734Y-71730568D01*
X34389139Y-71600047D01*
X34550047Y-71439139D01*
X34680568Y-71252734D01*
X34687618Y-71237614D01*
X34733789Y-71185176D01*
X34800982Y-71166023D01*
X34867864Y-71186238D01*
X34912381Y-71237614D01*
X34919313Y-71252478D01*
X34919432Y-71252733D01*
X34919432Y-71252734D01*
X35049954Y-71439141D01*
X35210858Y-71600045D01*
X35257693Y-71632839D01*
X35397266Y-71730568D01*
X35603504Y-71826739D01*
X35823308Y-71885635D01*
X35971613Y-71898610D01*
X36049998Y-71905468D01*
X36050000Y-71905468D01*
X36050002Y-71905468D01*
X36106807Y-71900498D01*
X36276692Y-71885635D01*
X36496496Y-71826739D01*
X36702734Y-71730568D01*
X36889139Y-71600047D01*
X37050047Y-71439139D01*
X37180568Y-71252734D01*
X37187893Y-71237024D01*
X37234064Y-71184586D01*
X37301257Y-71165433D01*
X37368138Y-71185648D01*
X37412657Y-71237024D01*
X37419864Y-71252480D01*
X37470974Y-71325472D01*
X38067038Y-70729408D01*
X38084076Y-70792992D01*
X38149902Y-70907006D01*
X38242994Y-71000098D01*
X38357008Y-71065924D01*
X38420591Y-71082961D01*
X37824526Y-71679025D01*
X37897513Y-71730132D01*
X37897521Y-71730136D01*
X38103668Y-71826264D01*
X38103682Y-71826269D01*
X38323389Y-71885139D01*
X38323400Y-71885141D01*
X38549998Y-71904966D01*
X38550002Y-71904966D01*
X38776599Y-71885141D01*
X38776610Y-71885139D01*
X38996317Y-71826269D01*
X38996331Y-71826264D01*
X39202478Y-71730136D01*
X39275471Y-71679024D01*
X38679408Y-71082961D01*
X38742992Y-71065924D01*
X38857006Y-71000098D01*
X38950098Y-70907006D01*
X39015924Y-70792992D01*
X39032961Y-70729408D01*
X39629024Y-71325471D01*
X39680136Y-71252478D01*
X39776264Y-71046331D01*
X39776269Y-71046317D01*
X39835139Y-70826610D01*
X39835141Y-70826599D01*
X39854966Y-70600002D01*
X39854966Y-70599997D01*
X39835141Y-70373400D01*
X39835139Y-70373389D01*
X39776269Y-70153682D01*
X39776264Y-70153668D01*
X39680136Y-69947521D01*
X39680132Y-69947513D01*
X39629025Y-69874526D01*
X39032961Y-70470590D01*
X39015924Y-70407008D01*
X38950098Y-70292994D01*
X38857006Y-70199902D01*
X38742992Y-70134076D01*
X38679407Y-70117038D01*
X39275472Y-69520974D01*
X39202478Y-69469863D01*
X38996331Y-69373735D01*
X38996317Y-69373730D01*
X38776610Y-69314860D01*
X38776599Y-69314858D01*
X38550002Y-69295034D01*
X38549998Y-69295034D01*
X38323400Y-69314858D01*
X38323389Y-69314860D01*
X38103682Y-69373730D01*
X38103673Y-69373734D01*
X37897516Y-69469866D01*
X37897512Y-69469868D01*
X37824526Y-69520973D01*
X37824526Y-69520974D01*
X38420591Y-70117038D01*
X38357008Y-70134076D01*
X38242994Y-70199902D01*
X38149902Y-70292994D01*
X38084076Y-70407008D01*
X38067038Y-70470591D01*
X37470974Y-69874526D01*
X37470973Y-69874526D01*
X37419868Y-69947512D01*
X37419867Y-69947514D01*
X37412656Y-69962979D01*
X37366482Y-70015417D01*
X37299288Y-70034567D01*
X37232407Y-70014350D01*
X37187893Y-69962976D01*
X37180568Y-69947266D01*
X37113944Y-69852116D01*
X37050048Y-69760862D01*
X36981703Y-69692517D01*
X36889139Y-69599953D01*
X36857249Y-69577623D01*
X36853375Y-69574910D01*
X36809751Y-69520332D01*
X36800500Y-69473336D01*
X36800500Y-67837228D01*
X36820185Y-67770189D01*
X36836815Y-67749551D01*
X37649548Y-66936817D01*
X37710871Y-66903333D01*
X37737229Y-66900499D01*
X38137502Y-66900499D01*
X38137508Y-66900499D01*
X38240297Y-66889999D01*
X38406834Y-66834814D01*
X38556156Y-66742712D01*
X38649819Y-66649049D01*
X38711142Y-66615564D01*
X38780834Y-66620548D01*
X38825181Y-66649049D01*
X38918844Y-66742712D01*
X39068166Y-66834814D01*
X39234703Y-66889999D01*
X39337491Y-66900500D01*
X39962508Y-66900499D01*
X39962516Y-66900498D01*
X39962519Y-66900498D01*
X40018802Y-66894748D01*
X40065297Y-66889999D01*
X40231834Y-66834814D01*
X40381156Y-66742712D01*
X40505212Y-66618656D01*
X40597314Y-66469334D01*
X40608528Y-66435494D01*
X40648301Y-66378050D01*
X40712817Y-66351228D01*
X40726233Y-66350500D01*
X41161267Y-66350500D01*
X41228306Y-66370185D01*
X41274061Y-66422989D01*
X41278972Y-66435494D01*
X41290186Y-66469334D01*
X41357863Y-66579057D01*
X41382289Y-66618657D01*
X41463181Y-66699549D01*
X41496666Y-66760872D01*
X41499500Y-66787230D01*
X41499500Y-72373918D01*
X41499500Y-72373920D01*
X41499499Y-72373920D01*
X41528340Y-72518907D01*
X41528343Y-72518917D01*
X41584912Y-72655488D01*
X41584916Y-72655495D01*
X41602014Y-72681084D01*
X41602015Y-72681087D01*
X41667046Y-72778414D01*
X41667052Y-72778421D01*
X42267049Y-73378416D01*
X42371583Y-73482950D01*
X42371585Y-73482952D01*
X42494498Y-73565080D01*
X42494511Y-73565087D01*
X42631082Y-73621656D01*
X42631087Y-73621658D01*
X42631091Y-73621658D01*
X42631092Y-73621659D01*
X42776079Y-73650500D01*
X42776082Y-73650500D01*
X58223920Y-73650500D01*
X58321462Y-73631096D01*
X58368913Y-73621658D01*
X58505495Y-73565084D01*
X58554729Y-73532186D01*
X58628416Y-73482952D01*
X62132951Y-69978416D01*
X62181280Y-69906086D01*
X62215084Y-69855495D01*
X62271658Y-69718913D01*
X62283840Y-69657671D01*
X62300500Y-69573920D01*
X62300500Y-63787700D01*
X62320185Y-63720661D01*
X62353375Y-63686126D01*
X62421401Y-63638495D01*
X62424947Y-63634949D01*
X62438319Y-63621578D01*
X62499642Y-63588093D01*
X62569334Y-63593077D01*
G37*
%TD.AperFunction*%
%TA.AperFunction,Conductor*%
G36*
X27080039Y-63420185D02*
G01*
X27125794Y-63472989D01*
X27137000Y-63524500D01*
X27137000Y-64300001D01*
X27137001Y-64300019D01*
X27147500Y-64402796D01*
X27147501Y-64402799D01*
X27202685Y-64569331D01*
X27202687Y-64569336D01*
X27233398Y-64619127D01*
X27283589Y-64700500D01*
X27294789Y-64718657D01*
X27350951Y-64774819D01*
X27384436Y-64836142D01*
X27379452Y-64905834D01*
X27350951Y-64950181D01*
X27294789Y-65006342D01*
X27202687Y-65155663D01*
X27202686Y-65155666D01*
X27147501Y-65322203D01*
X27147501Y-65322204D01*
X27147500Y-65322204D01*
X27137000Y-65424983D01*
X27137000Y-66425001D01*
X27137001Y-66425019D01*
X27147500Y-66527796D01*
X27147501Y-66527799D01*
X27202685Y-66694331D01*
X27202687Y-66694336D01*
X27205398Y-66698731D01*
X27212598Y-66710404D01*
X27231038Y-66777795D01*
X27210116Y-66844459D01*
X27156474Y-66889229D01*
X27107059Y-66899500D01*
X22070942Y-66899500D01*
X21918214Y-66940423D01*
X21870952Y-66967711D01*
X21870950Y-66967711D01*
X21781290Y-67019475D01*
X21781282Y-67019481D01*
X20469481Y-68331282D01*
X20469480Y-68331284D01*
X20429518Y-68400501D01*
X20390423Y-68468215D01*
X20349499Y-68620943D01*
X20349499Y-68620945D01*
X20349499Y-68789046D01*
X20349500Y-68789059D01*
X20349500Y-75299901D01*
X20329815Y-75366940D01*
X20313181Y-75387582D01*
X20114432Y-75586331D01*
X20053109Y-75619816D01*
X19983417Y-75614832D01*
X19927484Y-75572960D01*
X19903067Y-75507496D01*
X19903223Y-75487842D01*
X19905659Y-75460000D01*
X19905659Y-75459999D01*
X19901539Y-75412918D01*
X19885063Y-75224592D01*
X19823903Y-74996337D01*
X19724035Y-74782171D01*
X19644594Y-74668716D01*
X19588494Y-74588597D01*
X19421402Y-74421506D01*
X19421401Y-74421505D01*
X19235405Y-74291269D01*
X19191781Y-74236692D01*
X19184588Y-74167193D01*
X19216110Y-74104839D01*
X19235405Y-74088119D01*
X19421082Y-73958105D01*
X19588105Y-73791082D01*
X19723600Y-73597578D01*
X19823429Y-73383492D01*
X19823432Y-73383486D01*
X19880636Y-73170000D01*
X18983012Y-73170000D01*
X19015925Y-73112993D01*
X19050000Y-72985826D01*
X19050000Y-72854174D01*
X19015925Y-72727007D01*
X18983012Y-72670000D01*
X19880636Y-72670000D01*
X19880635Y-72669999D01*
X19823432Y-72456513D01*
X19823429Y-72456507D01*
X19723600Y-72242422D01*
X19723599Y-72242420D01*
X19588113Y-72048926D01*
X19588108Y-72048920D01*
X19466053Y-71926865D01*
X19432568Y-71865542D01*
X19437552Y-71795850D01*
X19479424Y-71739917D01*
X19510400Y-71723002D01*
X19599847Y-71689641D01*
X19642326Y-71673798D01*
X19642326Y-71673797D01*
X19642331Y-71673796D01*
X19757546Y-71587546D01*
X19843796Y-71472331D01*
X19894091Y-71337483D01*
X19900500Y-71277873D01*
X19900499Y-69482128D01*
X19894091Y-69422517D01*
X19891234Y-69414858D01*
X19843797Y-69287671D01*
X19843793Y-69287664D01*
X19757547Y-69172455D01*
X19757544Y-69172452D01*
X19642335Y-69086206D01*
X19642328Y-69086202D01*
X19507482Y-69035908D01*
X19507483Y-69035908D01*
X19447883Y-69029501D01*
X19447881Y-69029500D01*
X19447873Y-69029500D01*
X19447864Y-69029500D01*
X17652129Y-69029500D01*
X17652123Y-69029501D01*
X17592516Y-69035908D01*
X17457671Y-69086202D01*
X17457669Y-69086204D01*
X17348811Y-69167695D01*
X17283347Y-69192112D01*
X17215074Y-69177260D01*
X17165668Y-69127855D01*
X17150500Y-69068428D01*
X17150500Y-66800097D01*
X17170185Y-66733058D01*
X17186819Y-66712416D01*
X20462416Y-63436819D01*
X20523739Y-63403334D01*
X20550097Y-63400500D01*
X27013000Y-63400500D01*
X27080039Y-63420185D01*
G37*
%TD.AperFunction*%
%TA.AperFunction,Conductor*%
G36*
X56884076Y-70892992D02*
G01*
X56949902Y-71007006D01*
X57042994Y-71100098D01*
X57157008Y-71165924D01*
X57220591Y-71182961D01*
X56624526Y-71779025D01*
X56697513Y-71830132D01*
X56697517Y-71830134D01*
X56875477Y-71913118D01*
X56927916Y-71959290D01*
X56947068Y-72026484D01*
X56926852Y-72093365D01*
X56873687Y-72138699D01*
X56823072Y-72149500D01*
X55378111Y-72149500D01*
X55311072Y-72129815D01*
X55265317Y-72077011D01*
X55255373Y-72007853D01*
X55284398Y-71944297D01*
X55325706Y-71913118D01*
X55502734Y-71830568D01*
X55689139Y-71700047D01*
X55850047Y-71539139D01*
X55980568Y-71352734D01*
X55987893Y-71337024D01*
X56034064Y-71284586D01*
X56101257Y-71265433D01*
X56168138Y-71285648D01*
X56212657Y-71337024D01*
X56219864Y-71352480D01*
X56270974Y-71425472D01*
X56867038Y-70829408D01*
X56884076Y-70892992D01*
G37*
%TD.AperFunction*%
%TA.AperFunction,Conductor*%
G36*
X35116942Y-64420185D02*
G01*
X35137584Y-64436819D01*
X35165139Y-64464374D01*
X35165149Y-64464385D01*
X35169479Y-64468715D01*
X35169480Y-64468716D01*
X35281284Y-64580520D01*
X35357918Y-64624764D01*
X35406369Y-64652738D01*
X35418215Y-64659577D01*
X35570943Y-64700500D01*
X35729057Y-64700500D01*
X36711860Y-64700500D01*
X36711876Y-64700501D01*
X36797478Y-64700501D01*
X36864517Y-64720186D01*
X36910272Y-64772990D01*
X36920216Y-64842148D01*
X36903017Y-64889597D01*
X36877689Y-64930659D01*
X36877685Y-64930668D01*
X36852609Y-65006342D01*
X36822501Y-65097203D01*
X36822501Y-65097204D01*
X36822500Y-65097204D01*
X36812000Y-65199983D01*
X36812000Y-65600269D01*
X36792315Y-65667308D01*
X36775681Y-65687950D01*
X35467052Y-66996578D01*
X35467046Y-66996585D01*
X35424799Y-67059813D01*
X35424800Y-67059814D01*
X35384913Y-67119508D01*
X35328343Y-67256082D01*
X35328340Y-67256092D01*
X35299500Y-67401079D01*
X35299500Y-69473336D01*
X35279815Y-69540375D01*
X35246625Y-69574910D01*
X35210863Y-69599951D01*
X35049951Y-69760862D01*
X34919433Y-69947264D01*
X34919432Y-69947266D01*
X34912380Y-69962387D01*
X34866209Y-70014825D01*
X34799015Y-70033976D01*
X34732134Y-70013760D01*
X34687619Y-69962387D01*
X34680568Y-69947266D01*
X34594035Y-69823682D01*
X34572924Y-69793532D01*
X34550597Y-69727326D01*
X34550500Y-69722410D01*
X34550500Y-69548267D01*
X34570185Y-69481228D01*
X34575234Y-69473956D01*
X34658793Y-69362335D01*
X34658792Y-69362335D01*
X34658796Y-69362331D01*
X34709091Y-69227483D01*
X34715500Y-69167873D01*
X34715499Y-68032128D01*
X34709091Y-67972517D01*
X34659049Y-67838348D01*
X34658797Y-67837671D01*
X34658793Y-67837664D01*
X34572547Y-67722455D01*
X34572544Y-67722452D01*
X34457335Y-67636206D01*
X34457328Y-67636202D01*
X34322486Y-67585910D01*
X34322485Y-67585909D01*
X34322483Y-67585909D01*
X34262873Y-67579500D01*
X34262864Y-67579500D01*
X33645097Y-67579500D01*
X33578058Y-67559815D01*
X33557416Y-67543181D01*
X33512812Y-67498577D01*
X33479327Y-67437254D01*
X33484311Y-67367562D01*
X33526182Y-67311629D01*
X33572191Y-67277186D01*
X33658350Y-67162093D01*
X33658354Y-67162086D01*
X33708596Y-67027379D01*
X33708598Y-67027372D01*
X33714999Y-66967844D01*
X33715000Y-66967827D01*
X33715000Y-66650000D01*
X33074000Y-66650000D01*
X33006961Y-66630315D01*
X32961206Y-66577511D01*
X32950000Y-66526000D01*
X32950000Y-66400000D01*
X32824000Y-66400000D01*
X32756961Y-66380315D01*
X32711206Y-66327511D01*
X32700000Y-66276000D01*
X32700000Y-66150000D01*
X33200000Y-66150000D01*
X33715000Y-66150000D01*
X33715000Y-65832172D01*
X33714999Y-65832155D01*
X33708598Y-65772627D01*
X33708596Y-65772620D01*
X33658354Y-65637913D01*
X33658350Y-65637906D01*
X33572190Y-65522812D01*
X33572187Y-65522809D01*
X33457093Y-65436649D01*
X33457086Y-65436645D01*
X33322379Y-65386403D01*
X33322372Y-65386401D01*
X33262844Y-65380000D01*
X33200000Y-65380000D01*
X33200000Y-66150000D01*
X32700000Y-66150000D01*
X32700000Y-65380000D01*
X32637155Y-65380000D01*
X32577627Y-65386401D01*
X32577620Y-65386403D01*
X32442913Y-65436645D01*
X32442906Y-65436649D01*
X32327812Y-65522809D01*
X32327809Y-65522812D01*
X32241649Y-65637906D01*
X32241645Y-65637913D01*
X32191403Y-65772620D01*
X32191401Y-65772627D01*
X32185000Y-65832155D01*
X32185000Y-65871403D01*
X32165315Y-65938442D01*
X32112511Y-65984197D01*
X32043353Y-65994141D01*
X31979797Y-65965116D01*
X31973319Y-65959084D01*
X31577590Y-65563355D01*
X31577588Y-65563352D01*
X31458717Y-65444481D01*
X31458709Y-65444475D01*
X31348919Y-65381088D01*
X31348919Y-65381089D01*
X31321783Y-65365422D01*
X31265881Y-65350443D01*
X31169057Y-65324499D01*
X31067801Y-65324499D01*
X31000762Y-65304814D01*
X30955007Y-65252010D01*
X30950095Y-65239504D01*
X30922314Y-65155666D01*
X30830212Y-65006344D01*
X30774049Y-64950181D01*
X30740564Y-64888858D01*
X30745548Y-64819166D01*
X30774049Y-64774819D01*
X30775878Y-64772990D01*
X30830212Y-64718656D01*
X30922314Y-64569334D01*
X30950095Y-64485495D01*
X30989868Y-64428051D01*
X31054384Y-64401228D01*
X31067801Y-64400500D01*
X35049903Y-64400500D01*
X35116942Y-64420185D01*
G37*
%TD.AperFunction*%
%TD*%
M02*
